<svg xmlns="http://www.w3.org/2000/svg" width="474" height="32" viewBox="0 0 474 32">
    <g fill="none" fill-rule="evenodd" opacity=".7">
        <g fill="#997114">
            <g>
                <path d="M326.362 14.626c-121.413 0-305.906.038-326.362.136l.056.864c29.259-.14 394.291-.158 429.93-.117l.014-.864c-10.731-.012-51.334-.02-103.638-.02" transform="translate(-847 -1286) translate(847.769 1286)"/>
                <path d="M459.464 17.081c.215 1.006.287 2.054.246 3.081-.009.237-.028 1.245-.223 1.83.064-.338.106-.677.137-1 .304-3.16-1.81-6.299-2-6.439-1.641-2.528-4.489-4.922-9.158-5.147-.496-.024-.977-.029-1.445-.02.279-.04.552-.08.832-.174.236-.078.376.254.613.194.961.134 2.027-.186 2.928.18.961.39 1.807.638 2.702.765 1 .507 1.933 1.13 2.76 1.922 1.403 1.346 2.203 2.906 2.608 4.808zm-12.163-12.14c.299-1.18.228-2.406-.515-3.509-.238-.352-.618-.666-1.049-.899.654.147 1.263.478 1.679 1.007.656.832.78 1.845.656 2.844-.08.041-.166.092-.259.158-.156.097-.328.236-.512.4zm14.556 26.157c.075.036.177-.03.18-.11.025-.638.021-1.25.093-1.888.097-.865.531-1.304 1.115-1.903.178-.183.312-.415.571-.43.329-.019.371.264.579.515.331.401.75.703 1.173 1 1.061.741 2.218.942 3.487 1.063.641.06 1.256.065 1.891-.045.389-.067.862-.115 1.133-.424.067-.076-.002-.203-.096-.21-1.073-.08-1.914-.39-2.796-1.012-.793-.56-1.515-1.31-2.19-2.01-.645-.666-1.124-1.442-1.718-2.147-.623-.74-1.016-1.68-1.364-2.58-.663-1.719-1.294-3.526-2.441-4.99-1.06-1.355-2.69-2.2-3.217-2.41-.213-.308-.422-.619-.681-.896-.821-.882-1.757-1.596-2.775-2.186.355.02.721.025 1.115.004 2.25-.123 3.996-1.312 5.105-3.212 2.049-3.508-.419-7.496-4.289-7.213-.835.061-.847 1.36 0 1.31 2.296-.133-.143 2.77-1.026 3.34-2.177 1.404-3.985 1.78-6.227 1.794.019-.132.042-.262.038-.399-.022-.725-.374-1.262-.891-1.682-.063-.106-.116-.15-.116-.15s-.027.004-.069.013c-.027-.019-.052-.04-.081-.06.095-1.13-.172-2.315-1.019-3.122-.645-.613-1.592-.896-2.489-.865-.244-.057-.486-.082-.712-.07-.858.05-1.817.707-2.035 1.577-.166.66.223 1.367.953 1.266.435-.059.641-.376.428-.62.404.038.991.547 1.199.737.266.244.437.508.552.806-.009.011-.031.014-.035.027-.683.058-1.246.262-1.441.988-.055.206-.077.521.002.77.001.012 0 .022.002.034.005.04.025.066.049.085.062.12.156.212.298.246.078.018.194-.017.192-.119-.064-.4.227-.487.871-.259.088.336.069.654-.064.952-.088.267-.229.523-.348.777-.005.01.002.015 0 .024-.014.021-.022.047-.036.067-.094.134-.215.24-.327.355-.293.246-.592.47-.897.67-.464.228-.975.363-1.483.396-.701.046-1.76.171-2.533-.075.236-.436-.295-.94-.727-.637-.654.46.568 1.574.967 1.768.824.4 1.952.17 2.858-.083.014.033.04.062.073.08-4.881 1.198-7.806 3.916-9.69 4.387-1.536.383-1.789-.766-1.751-1.734 2.174-3.226 1.268-9.109-1.908-11.172-1.348-.875-3.724-1.33-4.508.58-.721 1.76.236 3.71 1.795 4.644.247.148.593.108.794-.103.325-.34.416-.505.59-.94.299-.748-.827-1.077-1.204-.44-.427-.373-.757-.86-.858-1.435-.33-1.889 1.995-1.949 3.045-.91.877.867 1.657 1.875 1.85 3.126.257 1.66.319 3.947-.52 5.58-.402.248-.721.708-.904 1.241-.061.103-.096.21-.089.315-.469 2.045 1.073 4.655 7.412.544 9.77-6.336 15.663-2.96 18.367 2.78 2.543 5.397.031 6.57-1.11 7.034-1.141.465-2.122-.52-1.486-.765.637-.243.459-.89.459-.89.193-1.66-2.305-2.795-3.473-.496-1.049 2.065 1.278 4.703 4.547 4.846.019.021.047.035.086.034.164-.005.328-.019.491-.036.188-.008.378-.023.57-.049.425-.057.808-.187 1.157-.37 1.059-.418 1.998-1.123 2.602-2.125.179-.296.311-.627.412-.97.354-.169.407-.714.476-1.064.212-1.084.211-2.194.108-3.292-.135-1.432-.542-2.843-1.239-4.092.279.244.583.465.844.735.704.728 1.21 1.69 1.598 2.628.391.943.512 2.215.389 3.22-.076.613-.237 1.16-.657 1.626-.446.497-.855.62-1.51.612-.109-.002-.167.09-.134.19.209.653 1.065 1.205 1.716 1.36.364.085.685.028 1.038-.082.285-.088.497-.276.734-.415-.237.77-1.645.825-2.147 1.292-.478.446-.573 1.151-.511 1.771.083.837.435 1.676.803 2.424.224.455.519 1.32 1.015 1.554z" transform="translate(-847 -1286) translate(847.769 1286)"/>
            </g>
        </g>
    </g>
</svg>
