<svg xmlns="http://www.w3.org/2000/svg" width="48" height="48" viewBox="0 0 48 48">
    <g fill="none" fill-rule="evenodd">
        <g>
            <g>
                <g>
                    <path d="M0 0L48 0 48 48 0 48z" transform="translate(-1233 -358) translate(935 322) translate(298 36)"/>
                    <path fill="#FFF" fill-rule="nonzero" d="M41.08 10.46L38.3 7.1C37.76 6.42 36.94 6 36 6H12c-.94 0-1.76.42-2.32 1.1l-2.76 3.36C6.34 11.14 6 12.04 6 13v25c0 2.2 1.8 4 4 4h28c2.2 0 4-1.8 4-4V13c0-.96-.34-1.86-.92-2.54zM23.3 34.3L13 24h7v-4h8v4h7L24.7 34.3c-.38.38-1.02.38-1.4 0zM10.24 10l1.62-2h24l1.88 2h-27.5z" transform="translate(-1233 -358) translate(935 322) translate(298 36)"/>
                </g>
            </g>
        </g>
    </g>
</svg>
