<svg xmlns="http://www.w3.org/2000/svg" width="39" height="55" viewBox="0 0 39 55">
    <g fill="none" fill-rule="evenodd">
        <g fill="#AB801B" fill-rule="nonzero">
            <g>
                <g>
                    <path d="M18.389.086c.119.102.278.182.35.31.7 1.251 1.872 1.869 3.137 2.367.238.094.481.177.764.282-.135.232-.252.44-.373.644-.98 1.676-1.486 3.461-1.464 5.425.044 3.916.017 7.833.006 11.75 0 .364.073.583.43.774 1.026.55 1.774 1.49 2.478 2.975l1.034-1.755c-.302-.23-.611-.454-.906-.697-.412-.337-.835-.666-1.206-1.044-.156-.159-.189-.436-.278-.659.226-.03.467-.125.677-.078 1.01.223 2.017.285 3.044.128.296-.045.466-.164.589-.417.148-.306.313-.604.468-.899-.505-.196-.99-.337-1.429-.568-.441-.232-.835-.554-1.271-.851-.27.282-.555.672-1.074.254-.185.59-.494 1.048-1.133 1.107-.194.018-.4-.107-.625-.233.906-.566.793-1.416.775-2.236-.012-.532-.045-1.067-.018-1.597.07-1.397.566-2.544 1.993-3.119l-1.383-.694c-.225.217-.47.524-.863.296-.408-.238-.501-.654-.489-1.085.016-.571.357-1.02.742-1.025.403-.007.785.462.744 1.049-.027.391.132.562.447.658.469.144.943.269 1.462.331-.855-.917-1.411-1.917-1.355-3.176-.836.076-1.216-.123-1.329-.68-.106-.517.195-.894.767-1.053.038-.43.041-.83.116-1.218.074-.385.22-.757.337-1.143 1.036.186 1.486 1.338.998 2.575.251.222.519.4.698.643.083.112.037.372-.032.53-.183.418-.603.482-1.13.206-.002 1.102 1.098 2.77 2.453 3.641-.145-.254-.252-.423-.341-.6-.275-.548-.423-1.11-.116-1.694.218-.412.567-.654 1.035-.673.357-.015.638.14.81.53-.865.638-.56 1.403-.213 2.186.36.812.824 1.608 1.01 2.462.299 1.383.087 2.777-.362 4.124-.036.109-.078.216-.112.325-.008.025.005.056.009.084 1.127.109 2.147-.462 2.482-1.415-.06-.003-.109-.01-.158-.007-.368.025-.63-.12-.689-.496-.059-.379.137-.656.484-.773.414-.138.827-.094 1.187.185.343.266.377.623.285 1.014-.013.054-.023.108-.035.162.681.174.966.42.966.87 0 .4-.192.692-.579.82-.435.144-.76-.027-1.136-.587-.925.508-1.906.85-2.979.876-.088.003-.204.102-.254.188-.15.257-.275.53-.436.85.626-.082 1.191-.166 1.758-.229 3.244-.356 6.096 1.635 6.807 4.758.315 1.383.164 2.734-.447 4.001-.492 1.021-1.087 1.993-1.628 2.991-.404.745-.841 1.477-1.183 2.25-.787 1.778.283 3.69 1.713 4.503.256.145.678.084 1 .013 1.32-.289 2.05-1.741 1.449-2.827-.04-.07-.096-.131-.152-.207-.466.815-.87 1.066-1.436.915-.529-.142-.863-.598-.848-1.157.019-.664.384-.983 1.432-1.233-.327-.242-.757-.431-.601-.93.038-.122.283-.18.417-.26 0-.455-.054-.974.012-1.476.099-.74.706-1.301 1.352-1.287.262.006.522.138.802.29-.8.218-1.116.709-1.013 1.465.037.284.096.57.187.84.142.421.3.84.485 1.245 1.005 2.203.542 3.865-1.463 5.278.277 0 .555.009.832-.002.272-.01.543-.041.826-.064-.323.53-.69 1.03-.946 1.582-.257.554-.405 1.159-.62 1.794h-4.48c-.19 1.944-1.195 3.131-3.15 3.552 0-.952-.24-1.933.056-2.711.443-1.17.12-2.323.337-3.535h1.9c-.205-.245-.333-.395-.457-.547-1.536-1.884-1.792-4.238-.631-6.378.547-1.01 1.204-1.96 1.794-2.948.666-1.114 1.293-2.246 1.46-3.567.167-1.313-.593-2.58-1.85-3.015.112.313.232.597.317.892.292 1.022.147 1.958-.539 2.8-.416.512-.76 1.068-.867 1.65.249.016.622-.025.651.055.085.24.11.556.019.789-.128.325-.45.47-.817.445-.366-.025-.577-.255-.681-.575-.248-.76-.079-1.447.463-2.112-.197-.034-.346-.053-.494-.085-.624-.135-.957-.545-.836-1.14.047-.231.243-.506.446-.605.158-.077.486.025.646.159.24.202.233.508.05.784-.023.034-.042.072-.084.148.43-.04.76-.235.926-.564.174-.346.32-.755.313-1.134-.012-.712-.246-1.461-.925-1.74-.618-.253-1.26.116-1.792.518-.514.388-.827.911-.957 1.542-.02.098-.013.218-.068.29-.103.137-.242.247-.366.368-.088-.148-.238-.29-.253-.444-.074-.776-.354-1.443-.925-1.982-1.623 1.48-1.645 4.866.038 6.215.368-.424.742-.85 1.11-1.281.093-.108.152-.25.258-.34.23-.192.49-.097.547.197.03.153.022.315.022.473 0 3.73-.014 7.459.015 11.189.005.596-.188 1.054-.535 1.49-.565.71-1.336 1.11-2.062 1.413-.207-.114-.335-.246-.463-.247-2.117-.01-4.234-.005-6.35-.002-.027 0-.054.015-.126.036-.076 1.173-.548 2.168-1.543 2.869-.697.49-1.48.695-2.328.622-1.443-.122-3.088-1.216-3.243-3.529-.346 0-.699-.01-1.05.008-.076.004-.165.103-.217.18-1.17 1.728-2.806 2.333-4.931 1.99.152.399.264.758.422 1.095.621 1.321 1.586 2.242 3.092 2.38.491.045 1.034-.073 1.501-.252.64-.245.91-.853.776-1.485l-.738-.103c-.043.098-.087.214-.143.323-.195.374-.512.54-.925.494-.407-.045-.71-.357-.775-.76-.02-.126-.018-.26-.06-.377-.194-.542-.095-.816.46-.973.407-.115.842-.132 1.32-.201l.03-.22c1.435.105 1.923 1.934.941 3.476.019.015.046.048.056.043.99-.486 2.05-.489 3.121-.5.685-.008 1.373-.1 2.05-.21.33-.054.58-.274.404-.839.334.135.671.169.767.339.107.189-.006.502-.076.76.309.612.193.82-.75 1.192.792.793.853 1.75.653 2.774-.049.25-.084.532-.018.77.075.277.269.52.476.898-.055.2-.293.358-.65.36-.55 0-.782-.35-.885-.849-.803.464-1.62.375-2.397.079-.666-.254-1.29-.623-1.918-.968-.403-.22-.762-.526-1.174-.723-.4-.192-.842-.293-1.287-.441.102-.788.992-.955 2.034-.287.349-.406.548-.408 1.205.009.276-.593.744-.877 1.404-.824.59.048 1.052.403 1.1.856.048.446-.236.776-.846.987-.052.018-.1.047-.152.072.433.589 1.314.748 1.927.364.595-.374.77-1.066.406-1.743-.506-.939-1.31-1.48-2.375-1.455-.93.022-1.86.156-2.782.296-1.915.291-3.677.02-5.162-1.323-.898-.813-1.458-1.84-1.822-2.987-.055-.176-.16-.398-.307-.476-1.865-.986-2.75-3.062-2.31-5.35.36-1.886 1.337-3.444 2.526-4.894.949-1.158 1.915-2.301 2.872-3.453.09-.108.164-.23.314-.444-1.936.431-3.693.952-4.951 2.51.93.541 1.062 1.166.45 2.038-.422.6-1 .98-1.608 1.146L.324 34.39c-.071-.29-.212-.584-.197-.87.039-.732.469-.993 1.48-.94.167-.914.548-1.73 1.39-2.337-.352-.078-.635-.114-.9-.204-.927-.316-1.42-1.226-1.144-2.078.259-.796 1.071-1.009 1.705-.445-.552.839-.405 1.378.538 1.845 1.097.543 2.229.419 3.376.161.584-.131.956-.424 1.199-.974.426-.968.878-1.934.767-3.015-.044-.43-.235-.9-.502-1.24-.468-.595-1.335-.64-1.807-.192-.516.49-.511 1.468.016 1.993.12.119.26.216.391.322-.932.921-2.479.877-3.61-.08-1.15-.971-1.258-2.466-.215-4.118.37.292.79.312 1.212.15.869-.336 1.73-.691 2.525-1.01-.266-.88-.61-1.725-.767-2.604-.342-1.911.295-3.53 1.755-4.788.618-.532 1.347-.935 1.995-1.435.556-.428 1.098-.882 1.592-1.38.382-.382.57-.888.551-1.424-.206.027-.474.14-.567.057-.161-.144-.272-.402-.3-.626-.054-.428.143-.785.487-1.045.341-.259.84-.254 1.121-.005.294.26.382.8.149 1.15-.082.123-.267.178-.382.25l-.475 1.817c1.334-.516 3.598-2.901 3.719-5.16-.401.375-.816.664-1.347.304-.337-.228-.464-.761-.315-1.218.171-.523.557-.745 1.334-.743-.465-1.628.814-2.253 1.804-3.118.264 1.11.63 2.178-.29 3.142.733.338.987.815.735 1.365-.248.545-.737.647-1.374.326-.3.827-.514 1.708-.93 2.48-.409.758-1.024 1.406-1.5 2.037.647-.28 1.425-.397 2.202-.067.375-.563.637-.695 1.1-.573.441.116.66.426.727 1.005.02.182.087.359.107.54.01.097-.007.224-.063.294-.37.46-.848.71-1.442.567-.558-.135-.878-.507-.946-1.098-.011-.097-.193-.253-.29-.249-.515.023-1.038.038-1.538.15-1.352.3-2.555.936-3.658 1.787.181-.073.36-.153.544-.216.204-.07.41-.145.62-.177.198-.03.404-.006.709-.006l-.366.638c.862.206 1.589.62 1.791 1.554.195.9-.163 1.661-.79 2.365.75.102.892.676 1.026 1.255.055.238.065.497.17.709.097.191.297.331.458.501-.585.641-1.648.464-2.59-.52-.49 1.019-1.288 1.526-2.42 1.387-.685-.085-1.104-.51-1.28-1.187 1.013-.164 1.169-1.25 1.96-1.73-.767-.225-1.169-.687-1.178-1.423-.007-.505.126-.965.681-1.243.11.683.605.786 1.143.824.746.054 1.404.24 1.619 1.09.544-.549.576-1.519.044-2.045-.727-.72-1.612-.837-2.562-.565-2.062.593-3.183 2.542-2.636 4.661.178.69.498 1.344.784 2.001.054.124.241.252.38.267 1.138.128 2.001.69 2.606 1.642.157.246.32.332.592.291.5-.075 1.004-.138 1.498-.25-.875-.336-1.245-.851-1.1-1.574.124-.622.45-.89 1.028-.84-.113.75.13 1.065.921 1.014.897-.059 1.786-.218 2.769-.345-.779-.529-1.227-1.202-1.543-1.972-.39-.951-.358-1.892-.014-2.862.189-.531.298-1.11.325-1.673.024-.51-.278-.691-.841-.618.23-.374.498-.655.913-.725.157-.027.375-.003.49.09.363.295.626.69.972 1.016.38.358.154.89 0 1.34 1.043.301 1.469 1.154 1.075 2.127-.177.438-.53.687-.918.648-.392-.04-.695-.321-.765-.712-.072-.404.124-.735.568-.957l.156-.072c-.306-.302-.726-.356-1.028-.051-.208.208-.392.52-.428.806-.2 1.603 1.204 3.322 2.883 3.52.008-.18.023-.358.023-.537V.843c0-.288-.035-.584.275-.758l.083.001zm-4.922 28.315v.556l.001 13.346c0 .587.305.958.767.959.461 0 .76-.368.763-.96.006-1.31.016-2.62.008-3.93-.01-1.748-.242-3.446-1.247-4.946-.011-.017.005-.052.01-.098.083-.033.174-.074.267-.105 1.274-.425 2.226-1.235 2.877-2.405.049-.088.083-.2.157-.254.13-.094.328-.246.422-.204.13.057.21.264.274.422.04.1.009.228.009.343v8.635h1.947c.263-2.85-.025-5.553-1.794-7.956.282-.104.495-.18.706-.262 1.03-.394 2.014-.865 2.745-1.728.185-.218.305-.493.497-.702.098-.105.303-.186.436-.16.095.019.173.228.218.365.035.104.008.228.008.343V39.757h2.004c0-.999-.04-1.964.008-2.925.104-2.095-.532-3.968-1.606-5.725-.063-.104-.114-.214-.171-.32l1.753-.74c-.373-.915-.747-1.734-1.04-2.583-.298-.869-.504-1.769-.773-2.648-.277-.908-.797-1.654-1.572-2.212-.083-.06-.183-.098-.325-.171v.538c0 2.203.002 4.405-.004 6.608-.001.147-.014.352-.106.433-.74.652-1.622 1.033-2.677 1.383v-2.162-6.867c0-.115.03-.244-.01-.342-.045-.106-.154-.258-.241-.262-1.15-.06-2.175.24-2.919 1.173-.48.6-.503 1.433-.099 2.019.199.287.439.526.85.435-.292-.724.053-1.229.794-1.193.496.024.858.377.946.903.107.646-.127 1.14-.702 1.505.444.249.681.569.605 1.044-.073.464-.427.67-.83.813.576.828.57 1.604.004 2.184-.498.51-1.274.624-1.858.257.105-.1.21-.196.31-.295.602-.595.688-1.2.202-1.894-.27-.385-.615-.72-.942-1.064-.46-.482-.935-.95-1.37-1.39-.368.387-.704.928-1.19 1.208-1.17.673-1.838 1.744-2.6 2.784-.967 1.322-2.063 2.55-3.093 3.826-1.026 1.27-1.943 2.607-2.471 4.174-.387 1.145-.025 2.391.929 3.136.61.477 1.467.508 2.138.077.632-.407.908-1.101.73-1.835-.201-.83-.704-1.266-1.583-1.336-.27-.022-.544.027-.817.032-.151.002-.304-.021-.456-.033l-.081-.144c1.872-1.022 3.746-2.041 3.418-4.68.255.151.462.28.604.461 1.341 1.712 1.454 3.785 1.672 5.836h.81c0-1.317.095-2.61-.25-3.88-.35-1.285-1.027-2.343-2.247-3.098.2-.07.278-.116.358-.122 1.346-.106 2.297-.858 3.04-1.905.374-.525.67-1.105.998-1.662.172-.292.309-.621.789-.697zM24.97 17.324c.599.58 1.334 1.028 2.224 1.179.106.017.32-.095.342-.183.21-.818.51-1.637.548-2.466.084-1.76-.861-2.731-2.67-2.88-.938-.076-1.63.575-1.666 1.437-.024.586.442 1.154 1.005 1.223.511.064.842-.258.952-.924.004-.023.035-.042.054-.062.502.17.636.38.581.892-.01.087-.007.194.035.265.25.418.24.79-.166 1.04-.36.222-.8.316-1.239.48zM10.892 23.81c.315 1.137.225 2.221-.133 3.349 1.463-.878 1.647-2.316 1.92-3.726-.293.083-.561.177-.837.235-.292.062-.59.09-.95.142z" transform="translate(-1236 -658) translate(121 621) translate(1115 37)"/>
                    <path d="M21.004 51.312c-.586 1.9-1.603 2.877-2.975 2.849v-.421-10.11-.128c.01-.666.01-.666.663-.666h2.114v5.623h4.516c.282-1.919-.51-3.462-1.706-4.93l.647-.235c.966-.354 1.9-.768 2.61-1.546.212-.231.352-.528.564-.759.12-.131.319-.19.482-.283.08.168.227.336.229.505.017 1.828.01 3.657.01 5.486v3.95c1.378-.383 2.661-.833 3.604-1.9.583-.661.517-1.547-.112-2.001.01.13.024.234.024.337-.001.397-.17.697-.54.857-.37.161-.712.086-.989-.2-.292-.303-.326-.663-.148-1.039.377-.796 1.594-1.11 2.454-.634.11.06.214.134.29.182-.06-.434-.183-.884-.17-1.33.037-1.207 1.282-2.026 2.405-1.621.513.184.76.547.76 1.048-.374.075-.771.074-1.083.237-.458.24-.608.742-.736 1.222-.056.208-.123.414-.163.626-.282 1.508-1.109 2.662-2.403 3.428-.896.53-1.877.923-2.83 1.352-.2.09-.45.097-.676.097-2.117.007-4.234.005-6.35.005h-.491z" transform="translate(-1236 -658) translate(121 621) translate(1115 37)"/>
                    <path d="M21.685 53.375c.435-.826 1.156-1.152 2.048-1.167.758-.012 1.517-.002 2.237-.002-.573 1.342-3.032 2.068-4.285 1.169z" transform="translate(-1236 -658) translate(121 621) translate(1115 37)"/>
                </g>
            </g>
        </g>
    </g>
</svg>
