<?xml version="1.0" encoding="UTF-8"?>
<svg width="120px" height="120px" viewBox="0 0 120 120" version="1.1" xmlns="http://www.w3.org/2000/svg" xmlns:xlink="http://www.w3.org/1999/xlink">
    <title>coming soon_icon copy@1x</title>
    <g id="User-View" stroke="none" stroke-width="1" fill="none" fill-rule="evenodd">
        <g id="001.-Sahifa-Single-view-for-zikr-(eng-translation-coming-soon)" transform="translate(-457.000000, -738.000000)">
            <g id="coming-soon_icon-copy" transform="translate(457.000000, 738.000000)">
                <circle id="Oval" fill="#FFFFFF" opacity="0.600000024" cx="59.92" cy="59.92" r="59.92"></circle>
                <g id="clock" transform="translate(25.760000, 25.760000)" fill-rule="nonzero">
                    <path d="M50.3042448,5.49311293 C50.3042448,2.46591959 52.7582426,0.0120572928 55.7853005,0.0120572928 L13.1225343,0.0120572928 C10.7152755,0.0120572928 8.76375521,1.96357755 8.76375521,4.37083638 L8.76375521,54.0063756 L50.3041094,54.0063756 L50.3041094,13.766177 L50.3041094,10.9743041 L50.3041094,5.49311293 L50.3042448,5.49311293 Z" id="Path" fill="#FFE07D"></path>
                    <path d="M52.4761832,0.0120572928 C49.4489899,0.0120572928 46.9951276,2.46605507 46.9951276,5.49311293 L46.9951276,27.2291604 C46.9951276,28.5080463 46.1551814,29.6457671 44.9242537,29.9928545 C35.8475508,32.552252 29.1946346,40.8927827 29.1946346,50.7882977 C29.1946346,53.389828 29.6547084,55.8839264 30.4974996,58.1937786 L46.9951276,58.1937786 L50.3042448,58.1937786 L50.3042448,29.1889447 L50.3042448,13.7660415 L50.3042448,5.49311293 C50.3042448,2.46591959 52.7582426,0.0120572928 55.7853005,0.0120572928 L52.4761832,0.0120572928 Z" id="Path" fill="#FFD064"></path>
                    <g id="Group" transform="translate(15.037747, 7.315661)" fill="#2B4D66">
                        <path d="M28.6418958,2.14972047 L1.18120827,2.14972047 C0.603000115,2.14972047 0.134255923,1.68111176 0.134255923,1.10276813 C0.134255923,0.524424499 0.60286464,0.0558157824 1.18120827,0.0558157824 L28.6418958,0.0558157824 C29.220104,0.0558157824 29.6888482,0.524424499 29.6888482,1.10276813 C29.6888482,1.68111176 29.220104,2.14972047 28.6418958,2.14972047 Z" id="Path"></path>
                        <path d="M28.6418958,12.5891684 L1.18120827,12.5891684 C0.603000115,12.5891684 0.134255923,12.1205597 0.134255923,11.5422161 C0.134255923,10.9638725 0.60286464,10.4952637 1.18120827,10.4952637 L28.6418958,10.4952637 C29.220104,10.4952637 29.6888482,10.9638725 29.6888482,11.5422161 C29.6888482,12.1205597 29.220104,12.5891684 28.6418958,12.5891684 Z" id="Path"></path>
                        <path d="M28.6418958,23.0288873 L1.18120827,23.0288873 C0.603000115,23.0288873 0.134255923,22.5602786 0.134255923,21.981935 C0.134255923,21.4037268 0.60286464,20.9349827 1.18120827,20.9349827 L28.6418958,20.9349827 C29.220104,20.9349827 29.6888482,21.4035914 29.6888482,21.981935 C29.6888482,22.5602786 29.220104,23.0288873 28.6418958,23.0288873 Z" id="Path"></path>
                        <path d="M28.6418958,33.4684708 L1.18120827,33.4684708 C0.603000115,33.4684708 0.134255923,32.9998621 0.134255923,32.4215184 C0.134255923,31.8431748 0.60286464,31.3745661 1.18120827,31.3745661 L28.6418958,31.3745661 C29.220104,31.3745661 29.6888482,31.8431748 29.6888482,32.4215184 C29.6888482,32.9998621 29.220104,33.4684708 28.6418958,33.4684708 Z" id="Path"></path>
                    </g>
                    <path d="M45.2964041,58.1940495 L7.74931692,58.1940495 C3.46951987,58.1940495 -3.85043677e-15,54.7245297 -3.85043677e-15,50.4445971 L-3.85043677e-15,49.0722334 C-3.85043677e-15,48.7095663 0.294116659,48.4154496 0.65678377,48.4154496 L45.2964041,48.4154496 L45.2964041,58.1940495 Z" id="Path" fill="#EAB14D"></path>
                    <path d="M29.1946346,50.7884332 C29.1946346,53.3899635 29.6547084,55.8840619 30.4974996,58.1939141 L45.2964041,58.1939141 L45.2964041,48.4153141 L29.3249618,48.4153141 C29.2397479,49.1948384 29.1946346,49.98642 29.1946346,50.7884332 Z" id="Path" fill="#E49542"></path>
                    <circle id="Oval" fill="#DD636E" cx="50.8004905" cy="50.7884332" r="18.5748692"></circle>
                    <path d="M50.8004905,32.213564 C50.3080381,32.213564 49.8201919,32.2330724 49.3373583,32.2707345 C58.9120681,33.0167965 66.4490954,41.022297 66.4490954,50.7884332 C66.4490954,60.5545694 58.9119326,68.5600699 49.3373583,69.3061319 C49.8201919,69.343794 50.3080381,69.3633024 50.8004905,69.3633024 C61.0590791,69.3633024 69.3753597,61.0470218 69.3753597,50.7884332 C69.3753597,40.5298446 61.0590791,32.213564 50.8004905,32.213564 Z" id="Path" fill="#DA4A54"></path>
                    <circle id="Oval" fill="#F4FBFF" cx="50.8004905" cy="50.7884332" r="13.8547778"></circle>
                    <path d="M50.8004905,36.9336554 C50.1584735,36.9336554 49.5270236,36.9783623 48.9083084,37.0627633 C55.664863,37.9856204 60.870904,43.7785399 60.870904,50.7884332 C60.870904,57.7983265 55.6647276,63.591246 48.9083084,64.5141031 C49.5270236,64.5986396 50.1584735,64.643211 50.8004905,64.643211 C58.4522653,64.643211 64.6552682,58.440208 64.6552682,50.7882977 C64.6552682,43.1366584 58.4522653,36.9336554 50.8004905,36.9336554 L50.8004905,36.9336554 Z" id="Path" fill="#DAF1F4"></path>
                    <g id="Group" transform="translate(39.558758, 39.558758)" fill="#365E7D">
                        <path d="M11.2417321,2.68566036 C10.6635239,2.68566036 10.1947798,2.21705165 10.1947798,1.63870802 L10.1947798,1.15912581 C10.1947798,0.580917658 10.6633885,0.112173466 11.2417321,0.112173466 C11.8199402,0.112173466 12.2886844,0.580782182 12.2886844,1.15912581 L12.2886844,1.63870802 C12.2886844,2.21705165 11.8200757,2.68566036 11.2417321,2.68566036 Z" id="Path"></path>
                        <path d="M18.0234851,5.49473864 C17.7555152,5.49473864 17.4875452,5.39245486 17.2829777,5.18788731 C16.874249,4.77902316 16.8743845,4.116143 17.2833841,3.70741432 L17.6224785,3.36845537 C18.0313427,2.95986217 18.6942228,2.95972669 19.1029515,3.3688618 C19.5116802,3.77772595 19.5115447,4.44060611 19.1025451,4.84933478 L18.7634507,5.18829373 C18.5592895,5.39259034 18.2914551,5.49473864 18.0234851,5.49473864 Z" id="Path"></path>
                        <path d="M21.3121456,12.2764917 L20.8325634,12.2764917 C20.2543553,12.2764917 19.7856111,11.807883 19.7856111,11.2295393 C19.7856111,10.6511957 20.2542198,10.182587 20.8325634,10.182587 L21.3121456,10.182587 C21.8903538,10.182587 22.359098,10.6511957 22.359098,11.2295393 C22.359098,11.807883 21.8903538,12.2764917 21.3121456,12.2764917 Z" id="Path"></path>
                        <path d="M1.65076531,12.2764917 L1.1711831,12.2764917 C0.59297495,12.2764917 0.124230758,11.807883 0.124230758,11.2295393 C0.124230758,10.6511957 0.592839475,10.182587 1.1711831,10.182587 L1.65076531,10.182587 C2.22897347,10.182587 2.69771766,10.6511957 2.69771766,11.2295393 C2.69771766,11.807883 2.22910894,12.2764917 1.65076531,12.2764917 Z" id="Path"></path>
                        <path d="M18.362715,19.3974746 C18.0948806,19.3974746 17.8270461,19.2953263 17.622614,19.0910297 L17.2835196,18.7520708 C16.87452,18.3432066 16.8743845,17.6803265 17.2831132,17.2715978 C17.6918418,16.8623272 18.354722,16.8621917 18.7635862,17.2711913 L19.1026806,17.6101503 C19.5116802,18.0190145 19.5118157,18.6818946 19.103087,19.0906233 C18.8986549,19.2951908 18.630685,19.3974746 18.362715,19.3974746 Z" id="Path"></path>
                        <path d="M11.2417321,22.3470407 C10.6635239,22.3470407 10.1947798,21.8784319 10.1947798,21.3000883 L10.1947798,20.8205061 C10.1947798,20.242298 10.6633885,19.7735538 11.2417321,19.7735538 C11.8199402,19.7735538 12.2886844,20.2421625 12.2886844,20.8205061 L12.2886844,21.3000883 C12.2886844,21.8784319 11.8200757,22.3470407 11.2417321,22.3470407 Z" id="Path"></path>
                        <path d="M4.12088463,19.3974746 C3.85305016,19.3974746 3.58508022,19.2951908 3.38051267,19.0908942 C2.97164851,18.6818946 2.97164851,18.0191499 3.38051267,17.6102858 L3.71947162,17.2713268 C4.12847124,16.8625981 4.79121592,16.8625981 5.20008008,17.2713268 C5.60894423,17.6803265 5.60894423,18.3430711 5.20008008,18.7519353 L4.86112113,19.0908942 C4.65668905,19.2951908 4.3887191,19.3974746 4.12088463,19.3974746 Z" id="Path"></path>
                        <path d="M4.45984358,5.49473864 C4.19200911,5.49473864 3.92403917,5.39245486 3.71947162,5.18815826 L3.38051267,4.84919931 C2.97164851,4.44019968 2.97164851,3.777455 3.38051267,3.36859085 C3.78951229,2.95986217 4.45225697,2.95986217 4.86112113,3.36859085 L5.20008008,3.7075498 C5.60894423,4.11654943 5.60894423,4.77929411 5.20008008,5.18815826 C4.99578348,5.39259034 4.72767805,5.49473864 4.45984358,5.49473864 Z" id="Path"></path>
                    </g>
                    <path d="M53.6540046,51.8352501 L50.8004905,51.8352501 C50.2222823,51.8352501 49.7535382,51.3666414 49.7535382,50.7882977 L49.7535382,45.2628062 C49.7535382,44.6845981 50.2221469,44.2158539 50.8004905,44.2158539 C51.3786986,44.2158539 51.8474428,44.6844626 51.8474428,45.2628062 L51.8474428,49.7413454 L53.6540046,49.7413454 C54.2322128,49.7413454 54.700957,50.2099541 54.700957,50.7882977 C54.700957,51.3666414 54.2323483,51.8352501 53.6540046,51.8352501 Z" id="Path" fill="#2B4D66"></path>
                    <path d="M60.2906637,13.7660415 L50.3041094,13.7660415 L50.3041094,5.49311293 C50.3041094,2.46591959 52.7581071,0.0120572928 55.785165,0.0120572928 C58.8123583,0.0120572928 61.2662208,2.46605507 61.2662208,5.49311293 L61.2662208,12.7903491 C61.2664916,13.3292695 60.8295841,13.7660415 60.2906637,13.7660415 L60.2906637,13.7660415 Z" id="Path" fill="#EAB14D"></path>
                    <path d="M57.5708636,0.311186534 C57.0109446,0.11826985 56.4107895,0.0120572928 55.7853005,0.0120572928 C52.7582426,0.0120572928 50.3042448,2.46605507 50.3042448,5.49311293 L50.3042448,13.7660415 L53.8753711,13.7660415 L53.8753711,5.49311293 C53.8752356,3.09140859 55.4207367,1.05196493 57.5708636,0.311186534 L57.5708636,0.311186534 Z" id="Path" fill="#E49542"></path>
                </g>
            </g>
        </g>
    </g>
</svg>