<svg xmlns="http://www.w3.org/2000/svg" width="107" height="107" viewBox="0 0 107 107">
    <g fill="none" fill-rule="evenodd">
        <g>
            <g>
                <g transform="translate(-667 -257) translate(400 257) translate(267)">
                    <circle cx="53.5" cy="53.5" r="53.5" fill="#FFF" opacity=".6"/>
                    <g fill-rule="nonzero" transform="translate(23 23)">
                        <path fill="#FFE07D" d="M44.915 4.905c0-2.703 2.19-4.894 4.893-4.894H11.717c-2.15 0-3.892 1.742-3.892 3.892V48.22h37.09V4.905z"/>
                        <path fill="#FFD064" d="M46.854.01c-2.703 0-4.894 2.192-4.894 4.895v19.407c0 1.142-.75 2.157-1.85 2.467-8.103 2.286-14.043 9.732-14.043 18.568 0 2.322.41 4.55 1.163 6.612H44.915V4.905c0-2.703 2.19-4.894 4.893-4.894h-2.954z"/>
                        <g fill="#2B4D66">
                            <path d="M25.573 1.92H1.055C.538 1.92.12 1.5.12.984.12.468.538.05 1.055.05h24.518c.516 0 .935.418.935.935 0 .516-.419.934-.935.934zM25.573 11.24H1.055c-.517 0-.935-.418-.935-.934 0-.517.418-.935.935-.935h24.518c.516 0 .935.418.935.935 0 .516-.419.934-.935.934zM25.573 20.562H1.055c-.517 0-.935-.419-.935-.935 0-.517.418-.935.935-.935h24.518c.516 0 .935.418.935.935 0 .516-.419.935-.935.935zM25.573 29.883H1.055c-.517 0-.935-.419-.935-.935 0-.517.418-.935.935-.935h24.518c.516 0 .935.418.935.935 0 .516-.419.935-.935.935z" transform="translate(13.427 6.532)"/>
                        </g>
                        <path fill="#EAB14D" d="M40.443 51.959H6.92C3.098 51.959 0 48.861 0 45.039v-1.225c0-.323.263-.586.586-.586h39.857v8.731z"/>
                        <path fill="#E49542" d="M26.067 45.347c0 2.323.41 4.55 1.163 6.612h13.213v-8.731h-14.26c-.076.696-.116 1.403-.116 2.119z"/>
                        <circle cx="45.358" cy="45.347" r="16.585" fill="#DD636E"/>
                        <path fill="#DA4A54" d="M45.358 28.762c-.44 0-.876.018-1.307.051 8.55.666 15.279 7.814 15.279 16.534 0 8.72-6.73 15.867-15.279 16.533.431.034.867.052 1.307.052 9.159 0 16.584-7.426 16.584-16.585 0-9.16-7.425-16.585-16.584-16.585z"/>
                        <circle cx="45.358" cy="45.347" r="12.37" fill="#F4FBFF"/>
                        <path fill="#DAF1F4" d="M45.358 32.976c-.574 0-1.137.04-1.69.116 6.033.824 10.681 5.996 10.681 12.255s-4.648 11.43-10.68 12.255c.552.075 1.115.115 1.689.115 6.832 0 12.37-5.538 12.37-12.37 0-6.832-5.538-12.37-12.37-12.37z"/>
                        <g fill="#365E7D">
                            <path d="M10.037 2.398c-.516 0-.935-.418-.935-.935v-.428c0-.516.419-.935.935-.935.517 0 .935.419.935.935v.428c0 .517-.418.935-.935.935zM16.092 4.906c-.239 0-.478-.091-.66-.274-.366-.365-.366-.957 0-1.322l.302-.302c.365-.365.957-.365 1.322 0 .365.365.365.957 0 1.322l-.303.302c-.182.183-.421.274-.66.274zM19.029 10.961H18.6c-.517 0-.935-.418-.935-.935 0-.516.418-.934.935-.934h.428c.516 0 .934.418.934.934 0 .517-.418.935-.934.935zM1.474 10.961h-.428c-.517 0-.935-.418-.935-.935 0-.516.418-.934.935-.934h.428c.516 0 .935.418.935.934 0 .517-.419.935-.935.935zM16.395 17.32c-.239 0-.478-.092-.66-.274l-.303-.303c-.365-.365-.366-.957 0-1.322.364-.365.956-.365 1.321 0l.303.302c.365.365.365.957 0 1.322-.182.183-.421.274-.66.274zM10.037 19.953c-.516 0-.935-.419-.935-.935v-.428c0-.517.419-.935.935-.935.517 0 .935.418.935.935v.428c0 .516-.418.935-.935.935zM3.68 17.32c-.24 0-.479-.092-.662-.275-.365-.365-.365-.956 0-1.322l.303-.302c.365-.365.957-.365 1.322 0 .365.365.365.957 0 1.322l-.303.302c-.182.183-.422.274-.66.274zM3.982 4.906c-.24 0-.478-.091-.661-.274l-.303-.302c-.365-.366-.365-.957 0-1.322.365-.365.957-.365 1.322 0l.303.302c.365.365.365.957 0 1.322-.182.183-.422.274-.661.274z" transform="translate(35.32 35.32)"/>
                        </g>
                        <path fill="#2B4D66" d="M47.905 46.281h-2.547c-.517 0-.935-.418-.935-.934v-4.934c0-.516.418-.935.935-.935.516 0 .934.419.934.935v3.999h1.613c.517 0 .935.418.935.935 0 .516-.418.934-.935.934z"/>
                        <path fill="#EAB14D" d="M53.83 12.291h-8.916V4.905c0-2.703 2.191-4.894 4.894-4.894 2.703 0 4.894 2.19 4.894 4.894v6.515c0 .481-.39.871-.871.871z"/>
                        <path fill="#E49542" d="M51.403.278c-.5-.172-1.036-.267-1.595-.267-2.702 0-4.893 2.19-4.893 4.894v7.386h3.188V4.905c0-2.145 1.38-3.966 3.3-4.627z"/>
                    </g>
                </g>
            </g>
        </g>
    </g>
</svg>
