<svg xmlns="http://www.w3.org/2000/svg" width="63" height="63" viewBox="0 0 63 63">
    <g fill="none" fill-rule="evenodd">
        <g>
            <g>
                <g fill-rule="nonzero">
                    <path fill="#B69A57" d="M34 0H6.563C2.935 0 0 2.935 0 6.562v36.983c0 3.627 2.935 6.561 6.562 6.561h19.422c-2.1-2.863-3.317-6.346-3.317-10.14 0-9.544 7.755-17.299 17.299-17.299.19 0 .405 0 .596.024V6.561C40.562 2.936 37.628 0 34.001 0zM9.545 9.544h9.544c1.312 0 2.386 1.074 2.386 2.386s-1.074 2.386-2.386 2.386H9.544c-1.312 0-2.386-1.074-2.386-2.386s1.074-2.386 2.386-2.386zm11.93 23.86H9.544c-1.312 0-2.386-1.073-2.386-2.386 0-1.312 1.074-2.386 2.386-2.386h11.93c1.312 0 2.386 1.074 2.386 2.386 0 1.313-1.074 2.386-2.386 2.386zm9.544-9.544H9.544c-1.312 0-2.386-1.074-2.386-2.386s1.074-2.386 2.386-2.386h21.474c1.313 0 2.386 1.074 2.386 2.386s-1.073 2.386-2.386 2.386z" transform="translate(-279 -1684) translate(279 1684) translate(2.7 2.7)"/>
                    <path fill="#5B0000" d="M39.966 52.492c-6.908 0-12.527-5.619-12.527-12.526 0-6.908 5.62-12.527 12.527-12.527 6.907 0 12.526 5.62 12.526 12.527 0 6.907-5.619 12.526-12.526 12.526zm0-20.28c-4.276 0-7.755 3.478-7.755 7.754s3.48 7.754 7.755 7.754c4.276 0 7.754-3.478 7.754-7.754s-3.478-7.755-7.754-7.755z" transform="translate(-279 -1684) translate(279 1684) translate(2.7 2.7)"/>
                    <path fill="#5B0000" d="M54.878 57.264c-.61 0-1.221-.233-1.686-.699l-7.755-7.754c-.933-.933-.933-2.441 0-3.374.933-.933 2.44-.933 3.374 0l7.754 7.755c.933.932.933 2.44 0 3.373-.465.466-1.076.7-1.687.7z" transform="translate(-279 -1684) translate(279 1684) translate(2.7 2.7)"/>
                </g>
            </g>
        </g>
    </g>
</svg>
