<svg xmlns="http://www.w3.org/2000/svg" width="63" height="63" viewBox="0 0 63 63">
    <g fill="none" fill-rule="evenodd">
        <g>
            <g>
                <path d="M0 0H63V63H0z" transform="translate(-1097 -1684) translate(1097 1684)"/>
                <g fill-rule="nonzero">
                    <path fill="#B69A57" d="M29.655 3.288v4.445c0 2.52 2.05 4.57 4.57 4.57 2.454 0 4.463-1.946 4.564-4.377l.004-.193V3.3c4.179.107 7.557 3.156 7.68 6.94l.004.214v16.718H42.89l-.252.005-.272.016c-2.07.164-3.878 1.177-5.085 2.682-1.318-1.655-3.343-2.703-5.606-2.703H20.542l-.23.006-.09.005-.2.017c-2.377.262-4.204 2.275-4.204 4.697l-.001 17.844H7.93c-4.282 0-7.78-3.422-7.904-7.674l-.003-.233v-31.38c0-3.765 3.223-6.852 7.3-7.133l.236-.013v4.426c0 2.52 2.05 4.57 4.569 4.57 2.455 0 4.464-1.946 4.565-4.377l.004-.193V3.288h12.957zM34.225 0c1.05 0 1.91.814 1.984 1.846l.005.142v5.745c0 1.099-.89 1.989-1.99 1.989-1.05 0-1.91-.815-1.984-1.847l-.005-.142V1.99c0-1.099.89-1.99 1.99-1.99zM12.13 0c1.05 0 1.911.814 1.984 1.847l.005.142v5.744c0 1.099-.89 1.989-1.99 1.989-1.05 0-1.91-.814-1.983-1.847l-.005-.142V1.99C10.141.89 11.031 0 12.13 0z" transform="translate(-1097 -1684) translate(1097 1684) translate(3.15 4.5)"/>
                    <path fill="#5B0000" d="M31.675 29.871c2.476 0 4.482 2.007 4.482 4.482v18.77c-1.303-.807-2.839-1.274-4.482-1.274H20.542c-1.118 0-2.025-.907-2.025-2.025V31.896c0-1.118.907-2.025 2.026-2.025h11.132zm22.347 0c1.119 0 2.025.907 2.025 2.025v17.928c0 1.118-.906 2.025-2.025 2.025H42.89c-1.643 0-3.18.467-4.482 1.275V34.353c0-2.475 2.006-4.482 4.482-4.482h11.132zM29.507 43.173h-4.338c-2.685.106-2.687 3.943 0 4.05h4.337c2.685-.106 2.687-3.943 0-4.05zm19.89 0h-4.338c-2.685.106-2.687 3.943 0 4.05h4.338c2.684-.106 2.686-3.943 0-4.05zm-19.89-8.676h-4.338c-2.685.106-2.687 3.943 0 4.05h4.337c2.685-.106 2.687-3.943 0-4.05zm19.89 0h-4.338c-2.685.106-2.687 3.943 0 4.05h4.338c2.684-.106 2.686-3.943 0-4.05z" transform="translate(-1097 -1684) translate(1097 1684) translate(3.15 4.5)"/>
                </g>
            </g>
        </g>
    </g>
</svg>
