<svg xmlns="http://www.w3.org/2000/svg" width="20" height="20" viewBox="0 0 20 20">
    <g fill="none" fill-rule="evenodd">
        <g>
            <g>
                <g>
                    <path d="M0 0L19.2 0 19.2 19.2 0 19.2z" transform="translate(-960 -405) translate(960 403) translate(0 2)"/>
                    <path fill="#353030" fill-rule="nonzero" d="M4.8 15.2c0 .88.72 1.6 1.6 1.6h6.4c.88 0 1.6-.72 1.6-1.6v-8c0-.88-.72-1.6-1.6-1.6H6.4c-.88 0-1.6.72-1.6 1.6v8zm2.4-8H12c.44 0 .8.36.8.8v6.4c0 .44-.36.8-.8.8H7.2c-.44 0-.8-.36-.8-.8V8c0-.44.36-.8.8-.8zm5.2-4l-.568-.568c-.144-.144-.352-.232-.56-.232H7.928c-.208 0-.416.088-.56.232L6.8 3.2h-2c-.44 0-.8.36-.8.8 0 .44.36.8.8.8h9.6c.44 0 .8-.36.8-.8 0-.44-.36-.8-.8-.8h-2z" transform="translate(-960 -405) translate(960 403) translate(0 2)"/>
                </g>
            </g>
        </g>
    </g>
</svg>
