<svg xmlns="http://www.w3.org/2000/svg" width="744" height="19" viewBox="0 0 744 19">
    <g fill="none" fill-rule="evenodd">
        <g fill="#C7B77F">
            <g>
                <path d="M374.923 18.561c-.118 0-.236-.005-.354-.013-.63.011-6.258-.091-10.108-7.038-1.275-2.267-2.998-4.39-4.492-5.537l-.226-.184c-1.916-1.558-4.469-2.033-6.829-1.267-2.255.732-3.894 2.445-4.495 4.7-.047.177-.088.356-.123.538-.315 1.624.09 3.289 1.141 4.688 1.497 1.993 3.484 2.874 5.458 2.418 1.779-.412 3.154-1.857 3.503-3.682.178-.929-.06-1.921-.651-2.724-.889-1.208-2.066-1.749-3.225-1.486-1.036.235-1.837 1.075-2.04 2.139-.209 1.097.493 2.162 1.566 2.374l-.302 1.532c-1.913-.377-3.169-2.26-2.799-4.198.319-1.675 1.587-2.998 3.229-3.371 1.769-.403 3.573.378 4.829 2.084.848 1.152 1.186 2.589.927 3.943-.464 2.432-2.303 4.36-4.685 4.912-2.564.593-5.203-.53-7.06-3.003-1.319-1.756-1.825-3.86-1.426-5.923.042-.217.092-.431.148-.643.74-2.777 2.753-4.886 5.522-5.784 2.866-.931 5.968-.355 8.298 1.541l.209.17c1.658 1.273 3.492 3.521 4.887 6.001 3.542 6.392 8.678 6.235 8.729 6.238l.048-.002.049.004c.882.068 1.742-.209 2.422-.789.698-.596 1.123-1.435 1.195-2.362.111-1.412-.924-2.662-2.305-2.785-.49-.049-1.009.152-1.392.526-.573.561-.779 1.223-.564 1.816.181.502.634.853 1.153.895l-.125 1.558c-1.128-.091-2.109-.845-2.498-1.921-.425-1.179-.073-2.474.943-3.466.704-.687 1.681-1.051 2.622-.965 2.229.199 3.9 2.201 3.724 4.463-.105 1.344-.722 2.562-1.739 3.43-.895.763-2.006 1.173-3.164 1.173" transform="translate(-144 -763) translate(144 763)"/>
                <path d="M383.193 18.561c-1.159 0-2.269-.409-3.164-1.173-1.017-.868-1.635-2.086-1.74-3.43-.176-2.261 1.495-4.264 3.725-4.463.935-.085 1.917.277 2.622.965 1.016.992 1.368 2.287.942 3.465-.388 1.077-1.369 1.831-2.497 1.922l-.126-1.558c.52-.042.973-.393 1.154-.895.215-.593.008-1.255-.566-1.816-.381-.373-.899-.57-1.39-.526-1.382.124-2.416 1.373-2.306 2.785.073.927.497 1.766 1.196 2.362.679.58 1.539.86 2.422.789l.049-.004.049.002c.208-.001 5.211.109 8.725-6.234 1.398-2.484 3.232-4.732 4.908-6.019l.19-.155c2.33-1.896 5.433-2.472 8.299-1.542 2.769.898 4.781 3.007 5.521 5.785.057.211.106.424.148.642.4 2.063-.107 4.166-1.425 5.923-1.858 2.474-4.497 3.597-7.062 3.003-2.38-.552-4.218-2.48-4.684-4.912-.258-1.354.08-2.792.928-3.943 1.256-1.707 3.063-2.483 4.828-2.084 1.642.373 2.91 1.695 3.23 3.371.369 1.938-.886 3.821-2.8 4.198l-.302-1.532c1.073-.212 1.776-1.277 1.567-2.374-.203-1.064-1.004-1.904-2.04-2.139-1.158-.263-2.335.278-3.226 1.486-.59.803-.828 1.795-.65 2.724.349 1.825 1.724 3.27 3.503 3.682 1.972.458 3.961-.424 5.458-2.418 1.051-1.4 1.456-3.064 1.142-4.687-.036-.183-.078-.362-.124-.539-.601-2.255-2.24-3.968-4.495-4.7-2.361-.767-4.913-.292-6.83 1.268l-.208.169c-1.511 1.161-3.234 3.284-4.511 5.555-3.849 6.946-9.458 7.055-10.107 7.034-.118.008-.236.013-.353.013M378.108 7.46c.118.611.569.829.95.829s.831-.218.95-.828c.271-1.402-.393-3.178-.95-4.346-.557 1.168-1.222 2.944-.95 4.346V7.46zm.95 2.391c-1.243 0-2.241-.841-2.484-2.093v-.001c-.559-2.885 1.726-6.554 1.823-6.709L379.058 0l.661 1.048c.098.155 2.382 3.824 1.822 6.71-.242 1.252-1.24 2.093-2.483 2.093z" transform="translate(-144 -763) translate(144 763)"/>
                <g>
                    <path d="M19.727 6.94c-.596.12-.81.586-.81.98 0 .396.214.86.81.98 1.31.26 3.062-.378 4.288-.98-1.226-.601-2.977-1.241-4.288-.98zm.648 3.583c-.324 0-.644-.028-.954-.091-1.236-.247-2.066-1.256-2.066-2.511 0-1.255.83-2.264 2.066-2.512 2.85-.574 6.469 1.757 6.623 1.857l1.005.655-1.005.654c-.137.089-3.025 1.948-5.67 1.948zM14.888 4.98c-.12 0-.252.057-.35.152-.172.168-.238.34-.186.486.03.08.108.176.235.186l-.11 1.343c.284-.01.553-.115.773-.302.266-.228.428-.55.455-.903.039-.488-.315-.918-.787-.961l-.03-.001zm-.451 3.73l-.188-.006h-.011c-.49 0-3.376-.155-5.338-3.697-.608-1.08-1.424-2.088-2.126-2.627l-.121-.098c-.847-.69-1.978-.898-3.02-.56-.99.322-1.708 1.072-1.972 2.06l-.055.24c-.134.697.04 1.413.494 2.017.646.859 1.486 1.244 2.306 1.054.732-.17 1.298-.766 1.442-1.52.067-.353-.025-.733-.254-1.044-.35-.475-.775-.684-1.197-.588-.362.083-.641.378-.713.752-.063.334.146.655.467.719l-.302 1.533C2.688 6.717 1.926 5.575 2.148 4.4c.189-.986.936-1.764 1.904-1.983 1.036-.235 2.082.208 2.8 1.184.487.66.679 1.486.53 2.265-.26 1.36-1.29 2.439-2.623 2.748-1.431.33-2.89-.282-3.908-1.638-.712-.948-.996-2.133-.78-3.251.023-.116.05-.233.08-.347.397-1.487 1.518-2.662 3-3.143C4.7-.267 6.379.045 7.64 1.07l.104.085c.854.655 1.802 1.816 2.52 3.09 1.106 1.996 2.514 2.618 3.326 2.81-.32-.214-.571-.53-.707-.906-.265-.734-.054-1.532.563-2.135.43-.42 1.03-.642 1.61-.59 1.322.119 2.312 1.302 2.208 2.639-.061.77-.415 1.47-1 1.97-.517.44-1.158.677-1.827.677z" transform="translate(-144 -763) translate(144 763) translate(716 1.335)"/>
                    <path d="M14.478 8.706l.109 1.343c-.127.01-.205.106-.235.185-.052.146.014.319.186.487.105.103.257.16.38.15.472-.041.826-.472.787-.96-.027-.355-.19-.675-.455-.903-.22-.187-.49-.292-.772-.302zm-9.842 7.147c-.496 0-.997-.078-1.486-.236-1.481-.481-2.602-1.657-3-3.145-.03-.113-.056-.23-.08-.347-.215-1.116.069-2.301.78-3.25C1.87 7.52 3.33 6.909 4.76 7.239c1.334.309 2.363 1.388 2.624 2.748.148.779-.044 1.605-.531 2.264-.718.976-1.766 1.42-2.8 1.185-.968-.22-1.715-.998-1.904-1.983-.222-1.174.54-2.315 1.7-2.544l.303 1.533c-.321.063-.53.385-.467.718.072.375.35.67.713.752.424.096.848-.113 1.197-.587.229-.311.32-.691.254-1.045-.144-.753-.71-1.35-1.442-1.518-.82-.19-1.66.194-2.306 1.053-.454.604-.628 1.32-.494 2.015l.054.24c.265.989.982 1.74 1.973 2.062 1.043.338 2.173.129 3.02-.56l.104-.084c.719-.554 1.535-1.562 2.145-2.646 1.973-3.561 4.878-3.665 5.347-3.692.734-.053 1.45.188 2.015.67.585.499.939 1.199 1 1.97.104 1.338-.886 2.52-2.207 2.639-.58.054-1.18-.168-1.611-.59-.617-.602-.828-1.401-.563-2.135.136-.377.389-.692.709-.907-.808.19-2.22.81-3.326 2.807-.72 1.28-1.668 2.44-2.541 3.109l-.085.07c-.864.703-1.924 1.07-3.004 1.07z" transform="translate(-144 -763) translate(144 763) translate(716 1.335)"/>
                </g>
                <path d="M410.616 10.043L717.738 10.043 717.738 8.48 410.616 8.48z" transform="translate(-144 -763) translate(144 763)"/>
                <g>
                    <path d="M3.033 7.92c1.227.602 2.981 1.241 4.289.981.597-.12.81-.585.81-.98s-.213-.86-.81-.98c-1.315-.262-3.065.377-4.289.98zm3.642 2.603c-2.645 0-5.533-1.859-5.669-1.948L0 7.921l1.006-.655c.153-.1 3.765-2.43 6.623-1.857 1.236.248 2.065 1.257 2.065 2.512 0 1.255-.829 2.264-2.065 2.511-.31.063-.631.091-.954.091zM12.161 4.98l-.03.001c-.472.043-.825.473-.787.96.027.355.19.676.457.905.219.187.488.291.77.301l-.108-1.343c.127-.01.206-.106.234-.186.052-.145-.013-.318-.185-.485-.097-.096-.232-.153-.351-.153zm.451 3.73c-.668 0-1.309-.236-1.826-.676-.585-.499-.94-1.199-1-1.97-.105-1.337.885-2.52 2.206-2.639.58-.045 1.181.17 1.611.59.618.602.828 1.401.563 2.134-.136.378-.388.693-.708.908.808-.192 2.219-.81 3.325-2.807.72-1.279 1.669-2.44 2.541-3.109l.085-.07C20.67.044 22.347-.267 23.899.236c1.481.481 2.603 1.656 3 3.144.03.114.056.228.079.344.217 1.12-.067 2.305-.779 3.253-1.019 1.357-2.479 1.968-3.909 1.638-1.333-.31-2.363-1.388-2.623-2.748-.149-.78.045-1.605.53-2.265.72-.976 1.768-1.418 2.801-1.184.969.22 1.715.998 1.903 1.983.223 1.174-.539 2.316-1.7 2.544l-.302-1.533c.321-.064.53-.385.466-.718-.071-.375-.351-.67-.713-.753-.424-.096-.847.113-1.197.588-.228.31-.32.691-.253 1.045.144.753.709 1.35 1.441 1.52.82.187 1.661-.195 2.307-1.055.453-.604.629-1.32.494-2.015l-.056-.243c-.262-.987-.981-1.737-1.972-2.059-1.044-.339-2.173-.129-3.02.561l-.103.083c-.72.553-1.535 1.562-2.146 2.646-1.972 3.561-4.855 3.707-5.346 3.692l-.189.006z" transform="translate(-144 -763) translate(144 763) translate(0 1.335)"/>
                    <path d="M12.571 8.706c-.282.01-.551.114-.77.302-.267.228-.43.548-.457.903-.038.488.315.92.787.96.122.014.276-.047.382-.15.171-.168.236-.34.184-.487-.029-.079-.107-.175-.234-.185l.108-1.343zm9.843 7.147c-1.081 0-2.14-.367-3.004-1.07l-.105-.085c-.853-.655-1.802-1.815-2.52-3.09-1.105-1.996-2.513-2.618-3.325-2.81.319.214.571.528.706.905.266.734.055 1.532-.562 2.136-.432.421-1.037.641-1.612.59-1.321-.119-2.311-1.302-2.206-2.64.06-.77.415-1.47 1-1.97.565-.482 1.278-.72 2.015-.67h.01c.49 0 3.376.155 5.339 3.697.608 1.08 1.423 2.087 2.125 2.626l.122.1c.846.687 1.975.9 3.02.56.99-.323 1.709-1.074 1.972-2.062l.055-.242c.135-.694-.041-1.41-.494-2.014-.646-.859-1.485-1.246-2.308-1.053-.731.17-1.296.765-1.44 1.518-.067.354.025.734.253 1.045.35.475.773.683 1.197.587.362-.082.642-.377.713-.752.064-.333-.145-.655-.467-.718l.303-1.533c1.161.23 1.923 1.371 1.699 2.544-.187.985-.933 1.763-1.902 1.983-1.033.235-2.081-.208-2.801-1.185-.485-.659-.679-1.484-.53-2.264.26-1.36 1.29-2.439 2.623-2.748 1.429-.33 2.89.281 3.909 1.638.712.948.996 2.133.779 3.251-.023.117-.049.232-.079.344-.397 1.49-1.518 2.665-3 3.146-.489.158-.989.236-1.485.236z" transform="translate(-144 -763) translate(144 763) translate(0 1.335)"/>
                </g>
                <path d="M24.289 10.043L347.411 10.043 347.411 8.48 24.289 8.48z" transform="translate(-144 -763) translate(144 763)"/>
            </g>
        </g>
    </g>
</svg>
