<svg xmlns="http://www.w3.org/2000/svg" width="104" height="103" viewBox="0 0 104 103">
    <g fill="none" fill-rule="evenodd">
        <g fill-rule="nonzero">
            <g transform="translate(-1076 -586) translate(1076 586)">
                <circle cx="41.097" cy="52.565" r="41.097" fill="#F2EBDB"/>
                <g>
                    <path fill="#FFF8EB" d="M41.097 17.203H1.91V10.94c0-4.986 4.042-9.028 9.028-9.028h30.158v15.292z" transform="translate(9.557)"/>
                    <path fill="#C7B77F" d="M41.097 19.115H1.91C.855 19.115 0 18.259 0 17.203V10.94C0 4.908 4.908 0 10.939 0h30.158c1.056 0 1.911.856 1.911 1.911v15.292c0 1.056-.855 1.912-1.911 1.912zM3.823 15.292h35.362V3.822H10.94c-3.924 0-7.116 3.193-7.116 7.117v4.353z" transform="translate(9.557)"/>
                </g>
                <g>
                    <path fill="#FFF" d="M2.059 1.92c5.093.216 8.174 4.303 8.174 9.549v75.129c0 7.068 4.4 12.798 11.469 12.798h45.875l7.646-5.707V12.733c0-5.976-4.845-10.822-10.822-10.822H2.587l-.528.01z" transform="translate(18.439)"/>
                    <path fill="#C7B77F" d="M67.577 101.308H21.702c-7.753 0-13.38-6.186-13.38-14.71v-75.13c0-4.476-2.49-7.474-6.343-7.637C.947 3.787.135 2.93.148 1.898.16.864.992.028 2.026.01L2.554 0h61.848c7.02 0 12.732 5.712 12.732 12.733V93.69c0 .603-.285 1.17-.767 1.531l-7.645 5.707c-.331.247-.733.38-1.145.38zM9.703 3.823c1.55 1.98 2.442 4.62 2.442 7.646v75.129c0 6.41 3.929 10.887 9.557 10.887h45.24l6.37-4.754V12.733c0-4.913-3.997-8.91-8.91-8.91H9.703z" transform="translate(18.439)"/>
                </g>
                <g>
                    <path fill="#FFF8EB" d="M2.39 15.292h52.033c5.044 0 9.133-4.09 9.133-9.133V1.91h-51.61V4.78c0 5.571-4.333 10.13-9.813 10.49l.256.023z" transform="translate(37.751 84.105)"/>
                    <path fill="#C7B77F" d="M54.423 17.203H2.389c-.056 0-.11-.003-.166-.007l-.258-.023C.971 17.087.21 16.248.22 15.25c.011-.999.79-1.821 1.787-1.887 4.502-.296 8.028-4.066 8.028-8.583V1.91C10.035.856 10.89 0 11.947 0h51.61c1.056 0 1.91.856 1.91 1.911V6.16c0 6.09-4.953 11.044-11.044 11.044zM10.386 13.38h44.036c3.982 0 7.222-3.24 7.222-7.22V3.822H13.858v.956c0 3.318-1.32 6.36-3.472 8.601z" transform="translate(37.751 84.105)"/>
                </g>
                <path fill="#5B0801" d="M8.437 75.339c-.489 0-.978-.187-1.351-.56L1.68 69.372c-.746-.747-.746-1.957 0-2.703.747-.746 1.957-.746 2.703 0l5.406 5.406c.746.746.746 1.956 0 2.702-.374.374-.862.56-1.352.56z"/>
                <path fill="#5B0801" d="M3.032 75.339c-.49 0-.979-.187-1.352-.56-.746-.747-.746-1.957 0-2.703l5.406-5.406c.746-.746 1.956-.746 2.703 0 .746.746.746 1.956 0 2.703l-5.406 5.405c-.373.374-.863.56-1.351.56z"/>
                <circle cx="19.115" cy="64.99" r="1.911" fill="#5B0801"/>
                <circle cx="13.38" cy="43.964" r="1.911" fill="#5B0801"/>
                <g fill="#BA9345" opacity=".4">
                    <path d="M24.85 51.61H1.91C.855 51.61 0 50.754 0 49.698c0-1.055.855-1.911 1.911-1.911H24.85c1.057 0 1.912.856 1.912 1.911 0 1.056-.855 1.912-1.912 1.912zM36.318 57.344H1.91C.855 57.344 0 56.488 0 55.433c0-1.056.855-1.912 1.911-1.912h34.407c1.056 0 1.911.856 1.911 1.912 0 1.055-.855 1.911-1.911 1.911zM38.23 34.406H1.91C.855 34.406 0 33.551 0 32.495s.855-1.912 1.911-1.912H38.23c1.057 0 1.912.856 1.912 1.912s-.855 1.911-1.912 1.911zM47.787 28.672H1.91C.855 28.672 0 27.816 0 26.761c0-1.056.855-1.912 1.911-1.912h45.876c1.056 0 1.911.856 1.911 1.912 0 1.055-.855 1.911-1.911 1.911zM22.938 22.938H1.91C.855 22.938 0 22.082 0 21.026c0-1.055.855-1.911 1.911-1.911h21.027c1.056 0 1.911.856 1.911 1.911 0 1.056-.855 1.912-1.911 1.912zM22.938 3.823H1.91C.855 3.823 0 2.967 0 1.91 0 .856.855 0 1.911 0h21.027c1.056 0 1.911.856 1.911 1.911 0 1.056-.855 1.912-1.911 1.912zM47.787 22.938H28.672c-1.057 0-1.911-.856-1.911-1.912 0-1.055.854-1.911 1.911-1.911h19.115c1.056 0 1.911.856 1.911 1.911 0 1.056-.855 1.912-1.911 1.912zM42.052 9.557H1.912C.854 9.557 0 8.701 0 7.646 0 6.59.855 5.734 1.911 5.734h40.141c1.057 0 1.912.856 1.912 1.912 0 1.055-.855 1.911-1.912 1.911z" transform="translate(36.318 17.203)"/>
                </g>
            </g>
        </g>
    </g>
</svg>
