<svg xmlns="http://www.w3.org/2000/svg" width="19" height="19" viewBox="0 0 19 19">
    <g fill="none" fill-rule="evenodd">
        <g fill="#5B0000" fill-rule="nonzero">
            <g>
                <g>
                    <path d="M10.909 9.227l7.18-7.18c.467-.467.467-1.222 0-1.69-.467-.466-1.223-.466-1.69 0l-7.18 7.18L2.04.358C1.573-.108.818-.108.35.358c-.467.468-.467 1.223 0 1.69l7.18 7.18-7.18 7.18c-.467.467-.467 1.222 0 1.69.233.232.54.35.845.35.306 0 .612-.118.845-.35l7.18-7.18 7.18 7.18c.232.232.538.35.844.35.306 0 .612-.118.845-.35.467-.468.467-1.223 0-1.69l-7.18-7.18z" transform="translate(-970 -151) translate(427 121) translate(543 30)"/>
                </g>
            </g>
        </g>
    </g>
</svg>
