<svg xmlns="http://www.w3.org/2000/svg" width="48" height="48" viewBox="0 0 48 48">
    <g fill="none" fill-rule="evenodd">
        <g>
            <g>
                <g>
                    <path d="M0 0L48 0 48 48 0 48z" transform="translate(-418 -358) translate(120 322) translate(298 36)"/>
                    <path fill="#FFF" fill-rule="nonzero" d="M40 12h-2v16c0 1.1-.9 2-2 2H12v2c0 2.2 1.8 4 4 4h20l8 8V16c0-2.2-1.8-4-4-4zm-6 10V8c0-2.2-1.8-4-4-4H8C5.8 4 4 5.8 4 8v26l8-8h18c2.2 0 4-1.8 4-4z" transform="translate(-418 -358) translate(120 322) translate(298 36)"/>
                </g>
            </g>
        </g>
    </g>
</svg>
