<svg height="61" viewBox="0 0 48 61" width="48" xmlns="http://www.w3.org/2000/svg"><path d="m951.046473 37.9484201.990101 2.6726088c.576351 1.5557626 1.625061 2.5403305 3.166549 2.9304228 1.257831.3183096 2.226982 1.1290278 2.860814 2.4924187.429871.9246652.7006 2.1347812.786054 3.6373791 3.217659.1736448 5.368503 1.1540038 6.580522 2.7489278 1.179394 1.551993 1.540768 3.7686466.877539 6.7145636 2.53852.3051649 4.318061 1.1579159 5.412287 2.4404329 1.311601 1.5372987 1.734792 3.7538803 1.034232 6.732276-.073161.3110373-.153588.6091744-.241094.8944235-.257223-.0350742-.530326-.053295-.820835-.053295-1.306889 0-2.261541.3687462-3.002786.9817502-1.132274.936382-1.802083 2.3627869-2.506127 3.778866l-.412522.821737c-.9143 1.7870161-1.969175 3.4449516-3.679776 4.4293138-1.067722.6144187-2.396145.9857936-4.13276.930851.105926 2.9633094-1.537856 4.6774846-3.353525 6.3619795l-.507061.4709098c-.808245.7564256-1.605731 1.5355718-2.106385 2.5491438l-1.025093 2.0752983-.94818-2.1115475c-.624061-1.3897504-1.779912-2.6251341-2.852883-3.7999497-1.203324-1.317542-2.30554-2.5753394-2.778718-3.8101717-.208801-.5448987-.315196-1.0888808-.289967-1.6357044-1.933748.1321478-3.340901-.2240875-4.419693-.8425617-1.839952-1.054849-2.76809-2.9450037-3.568129-4.9613518-.650177-1.6538336-1.207646-3.1946226-2.295868-4.1947722-.726795-.6679747-1.710529-1.0437904-3.122065-1.0437904-.237093 0-.462117.010603-.675794.0313548-.120123-.2315203-.229535-.4640316-.327786-.6945854-.511031-1.1991726-.851141-2.652809-.764802-4.0279821.077465-1.233815.490449-2.4020689 1.361931-3.3283325 1.097739-1.1667446 2.992155-2.016463 6.205676-1.8633831-.427079-2.9315487-.026264-5.1558032 1.059686-6.7178984 1.156568-1.6636748 3.116653-2.674228 5.987888-2.8696175.081768-1.2654124.31464-2.3192645.680626-3.1660498.539793-1.2489247 1.364994-2.0870137 2.439026-2.5529511 2.120809-.9200511 2.734618-1.8343044 3.341483-3.3700497z" fill="#ab801b" fill-rule="evenodd" stroke="#353030" stroke-width="2.181818" transform="translate(-927 -34)"/></svg>