<svg height="59" viewBox="0 0 1425 59" width="1425" xmlns="http://www.w3.org/2000/svg"><g fill="none" fill-rule="evenodd"><g><path d="m47.614 0-.0002963.03525926c-.0001481.01140741-.0003704.02540741-.0007037.04174074.596.332 2.686 1.691 1.665 4.013-.1939904.4404416-.3619929 1.61444839-.5092455 3.27774376l2.2242455 2.63525624s3.478 4.196 3.285 6.993c-.192 2.796-.192 3.495 1.739 4.195 1.932.7 2.318 2.796 2.125 5.594-.193 2.799-3.671 5.595-3.671 5.595s1.739-5.498-1.739-8.645c-1.5421071-1.3957888-3.0922746-2.1727-4.6433547-2.3307339-.0122294.3561097-.0234535.7114647-.0345062 1.0661611l-.0201525.6519511 3.5380134 8.2696217s.0275328.0267984.0765988.075562l.1250652.125382c.500736.506016 1.780736 1.845056 2.062336 2.585056.424 1.124-.916-1.306-3.146-.407-2.518 1.013-2.657 8.94-.864 9.146 1.315.152 3.514-2.963 3.514-2.963s.6535284.1437986 1.0544556.6410822c.4973486.4020475.6395444 1.0539178.6395444 1.0539178s-3.113 2.198-2.961 3.513c.205 1.794 8.132 1.655 9.144-.863.899-2.23-1.531-3.571-.406-3.146.925.351 2.787 2.264 2.787 2.264l8.2693944 3.5377985.6515871-.0201642c.3540148-.0110436.7086856-.0222575 1.0634217-.0336542-.1567075-1.5519848-.9341749-3.102819-2.3314032-4.6459801-3.146-3.477-8.644-1.737-8.644-1.737s2.797-3.479 5.596-3.672c2.796-.193 4.893.193 5.593 2.125.699 1.931 1.398 1.931 4.195 1.739 2.796-.192 6.994 3.284 6.994 3.284l2.6347537 2.2259942c1.6636597-.1472082 2.8378809-.3151288 3.2782463-.5089942 2.323-1.02 3.681 1.068 4.014 1.664l.0679259-.000963c.0090741-.000037-.0039259.027963-.0279259.079963.026.048.037.077.037.077h-.077c-.312.605-1.611 2.734-3.963 1.78-.4552063-.1849536-1.6749778-.3447181-3.3991609-.4843771l-2.5648391 2.1653771s-4.198 3.478-6.994 3.285c-2.797-.195-3.496-.195-4.195 1.738-.7 1.932-2.797 2.319-5.593 2.126-2.799-.194-5.596-3.671-5.596-3.671s5.498 1.738 8.644-1.741c1.3628657-1.5043441 2.1360797-3.0163631 2.3196419-4.5295777-.807644-.024197-1.6141202-.0473041-2.4132147-.0696416l-7.5594272 3.1562193s-1.862 2.197-2.787 2.547c-1.125.425 1.305-.913.406-3.145-1.012-2.518-8.939-2.657-9.144-.864-.152 1.315 2.961 3.514 2.961 3.514s-.255 1.17-1.272 1.338c-1.354.227-4.3-7.127-4.324-7.182.0116011-.0270692.7059436-1.7591226 1.5731972-3.5161149-1.7571789.8665736-3.4896433 1.5605133-3.5171972 1.5721149-.026596-.0116055-1.7594719-.7060036-3.51678-1.5734612.8685715 1.7576804 1.5631436 3.4903868 1.57378 3.5174612l-.0198757.0492803c-.2610181.6444338-3.0102576 7.3496308-4.3031243 7.1327197-1.016-.168-1.273-1.338-1.273-1.338s3.114-2.199 2.963-3.514c-.207-1.793-8.133-1.654-9.146.864-.897 2.232 1.533 3.57.408 3.145-.926-.35-2.787-2.547-2.787-2.547l-7.5585675-3.1562799c-.8001506.0223665-1.6077067.0455047-2.4157115.0695505.1828774 1.5133663.955846 3.0253853 2.318279 4.5297294 3.147 3.479 8.644 1.741 8.644 1.741s-2.796 3.477-5.595 3.671c-2.797.193-4.893-.194-5.593-2.126-.7-1.933-1.399-1.933-4.195-1.738-2.798.193-6.993-3.285-6.993-3.285l-2.56485613-2.1653345c-1.72374781.1396489-2.94315074.2993997-3.39814387.4843345-2.352.954-3.652-1.175-3.964-1.78h-.078s.011-.029.039-.077c-.025-.052-.038-.08-.038-.08l.00911111.000037.06888889.000963c.331-.596 1.69-2.684 4.013-1.664.44052885.1938654 1.61488683.361786 3.27865651.5089942l2.63434349-2.2259942s4.195-3.476 6.993-3.284c2.796.192 3.495.192 4.195-1.739.7-1.932 2.796-2.318 5.593-2.125 2.799.193 5.595 3.672 5.595 3.672s-5.497-1.74-8.644 1.737c-1.3967848 1.5431611-2.1740053 3.0939953-2.3316617 4.6455212l.0000077.0003625.5769633.0183834.9780817.0305178c.0547891.0016888.1095558.0033736.164298.0050546l8.268311-3.5378395.0342996-.0349504c.0111947-.0113536.025009-.0253232.0412641-.0416864l.1253883-.1251232c.506048-.50096 1.845248-1.78144 2.586048-2.06224 1.125-.425-1.305.916-.408 3.146 1.013 2.518 8.939 2.657 9.146.863.151-1.315-2.963-3.513-2.963-3.513s.143888-.6544944.6419647-1.055252c.4017973-.4963305 1.0530353-.639748 1.0530353-.639748s2.199 3.115 3.515 2.963c1.793-.206 1.653-8.133-.865-9.146-2.23-.899-3.57 1.531-3.144.407.349-.925 2.547-2.786 2.547-2.786l3.1565638-7.5604966c-.0223349-.7995232-.0454411-1.6064334-.0694549-2.4137917-1.5145523.1818864-3.0276714.9546899-4.5331089 2.3172883-3.477 3.147-1.739 8.645-1.739 8.645s-3.478-2.796-3.671-5.595c-.193-2.798.193-4.894 2.125-5.594 1.933-.7 1.933-1.399 1.739-4.195-.193-2.797 3.285-6.993 3.285-6.993l2.166562-2.56591021c-.1396899-1.72308604-.2995132-2.94206007-.484562-3.39708979-.954-2.351 1.173-3.65 1.78-3.963l.0007037-.04262963.0002963-.03437037s.028.012.076.038c.052-.025.079-.038.079-.038zm26.623 15.761c.064-.051-.04.149-.267.536.263-.363.405-.536.386-.46-.878 3.362-.865 4.354-1.247 10.499-.33 5.296-6.454 4.419-8.139 4.076-.054.084-.084.129-.084.129s-.049-.062-.132-.176c-.136-.03-.213-.05-.213-.05s.03-.046.085-.128c-.988-1.409-4.24-6.673.485-9.092 5.481-2.804 6.396-3.187 9.126-5.334zm-53.935 0c2.731 2.147 3.647 2.53 9.127 5.334 4.725 2.419 1.473 7.683.485 9.092.055.082.085.128.085.128s-.076.02-.214.05c-.082.114-.131.176-.131.176s-.031-.045-.084-.129c-1.685.343-7.81 1.22-8.139-4.076-.382-6.145-.37-7.137-1.246-10.499-.021-.076.121.097.385.46-.227-.387-.331-.587-.268-.536z" fill="#2748a0"/><g fill="#bb1a1a" transform="translate(11.832 11.818)"><path d="m18.457 0 4.151 2.536-2.537 4.152-4.152-2.538z"/><path d="m51.376 0-4.151 2.536 2.537 4.152 4.153-2.538z"/><path d="m69.832 18.456-2.536 4.152-4.151-2.537 2.538-4.152z"/><path d="m0 18.456 2.537 4.152 4.151-2.538-2.538-4.151z"/></g></g><g transform="translate(95)"><path d="m47.614 0-.0002963.03525926c-.0001481.01140741-.0003704.02540741-.0007037.04174074.596.332 2.686 1.691 1.665 4.013-.1939904.4404416-.3619929 1.61444839-.5092455 3.27774376l2.2242455 2.63525624s3.478 4.196 3.285 6.993c-.192 2.796-.192 3.495 1.739 4.195 1.932.7 2.318 2.796 2.125 5.594-.193 2.799-3.671 5.595-3.671 5.595s1.739-5.498-1.739-8.645c-1.5421071-1.3957888-3.0922746-2.1727-4.6433547-2.3307339-.0122294.3561097-.0234535.7114647-.0345062 1.0661611l-.0201525.6519511 3.5380134 8.2696217s.0275328.0267984.0765988.075562l.1250652.125382c.500736.506016 1.780736 1.845056 2.062336 2.585056.424 1.124-.916-1.306-3.146-.407-2.518 1.013-2.657 8.94-.864 9.146 1.315.152 3.514-2.963 3.514-2.963s.6535284.1437986 1.0544556.6410822c.4973486.4020475.6395444 1.0539178.6395444 1.0539178s-3.113 2.198-2.961 3.513c.205 1.794 8.132 1.655 9.144-.863.899-2.23-1.531-3.571-.406-3.146.925.351 2.787 2.264 2.787 2.264l8.2693944 3.5377985.6515871-.0201642c.3540148-.0110436.7086856-.0222575 1.0634217-.0336542-.1567075-1.5519848-.9341749-3.102819-2.3314032-4.6459801-3.146-3.477-8.644-1.737-8.644-1.737s2.797-3.479 5.596-3.672c2.796-.193 4.893.193 5.593 2.125.699 1.931 1.398 1.931 4.195 1.739 2.796-.192 6.994 3.284 6.994 3.284l2.6347537 2.2259942c1.6636597-.1472082 2.8378809-.3151288 3.2782463-.5089942 2.323-1.02 3.681 1.068 4.014 1.664l.0679259-.000963c.0090741-.000037-.0039259.027963-.0279259.079963.026.048.037.077.037.077h-.077c-.312.605-1.611 2.734-3.963 1.78-.4552063-.1849536-1.6749778-.3447181-3.3991609-.4843771l-2.5648391 2.1653771s-4.198 3.478-6.994 3.285c-2.797-.195-3.496-.195-4.195 1.738-.7 1.932-2.797 2.319-5.593 2.126-2.799-.194-5.596-3.671-5.596-3.671s5.498 1.738 8.644-1.741c1.3628657-1.5043441 2.1360797-3.0163631 2.3196419-4.5295777-.807644-.024197-1.6141202-.0473041-2.4132147-.0696416l-7.5594272 3.1562193s-1.862 2.197-2.787 2.547c-1.125.425 1.305-.913.406-3.145-1.012-2.518-8.939-2.657-9.144-.864-.152 1.315 2.961 3.514 2.961 3.514s-.255 1.17-1.272 1.338c-1.354.227-4.3-7.127-4.324-7.182.0116011-.0270692.7059436-1.7591226 1.5731972-3.5161149-1.7571789.8665736-3.4896433 1.5605133-3.5171972 1.5721149-.026596-.0116055-1.7594719-.7060036-3.51678-1.5734612.8685715 1.7576804 1.5631436 3.4903868 1.57378 3.5174612l-.0198757.0492803c-.2610181.6444338-3.0102576 7.3496308-4.3031243 7.1327197-1.016-.168-1.273-1.338-1.273-1.338s3.114-2.199 2.963-3.514c-.207-1.793-8.133-1.654-9.146.864-.897 2.232 1.533 3.57.408 3.145-.926-.35-2.787-2.547-2.787-2.547l-7.5585675-3.1562799c-.8001506.0223665-1.6077067.0455047-2.4157115.0695505.1828774 1.5133663.955846 3.0253853 2.318279 4.5297294 3.147 3.479 8.644 1.741 8.644 1.741s-2.796 3.477-5.595 3.671c-2.797.193-4.893-.194-5.593-2.126-.7-1.933-1.399-1.933-4.195-1.738-2.798.193-6.993-3.285-6.993-3.285l-2.56485613-2.1653345c-1.72374781.1396489-2.94315074.2993997-3.39814387.4843345-2.352.954-3.652-1.175-3.964-1.78h-.078s.011-.029.039-.077c-.025-.052-.038-.08-.038-.08l.00911111.000037.06888889.000963c.331-.596 1.69-2.684 4.013-1.664.44052885.1938654 1.61488683.361786 3.27865651.5089942l2.63434349-2.2259942s4.195-3.476 6.993-3.284c2.796.192 3.495.192 4.195-1.739.7-1.932 2.796-2.318 5.593-2.125 2.799.193 5.595 3.672 5.595 3.672s-5.497-1.74-8.644 1.737c-1.3967848 1.5431611-2.1740053 3.0939953-2.3316617 4.6455212l.0000077.0003625.5769633.0183834.9780817.0305178c.0547891.0016888.1095558.0033736.164298.0050546l8.268311-3.5378395.0342996-.0349504c.0111947-.0113536.025009-.0253232.0412641-.0416864l.1253883-.1251232c.506048-.50096 1.845248-1.78144 2.586048-2.06224 1.125-.425-1.305.916-.408 3.146 1.013 2.518 8.939 2.657 9.146.863.151-1.315-2.963-3.513-2.963-3.513s.143888-.6544944.6419647-1.055252c.4017973-.4963305 1.0530353-.639748 1.0530353-.639748s2.199 3.115 3.515 2.963c1.793-.206 1.653-8.133-.865-9.146-2.23-.899-3.57 1.531-3.144.407.349-.925 2.547-2.786 2.547-2.786l3.1565638-7.5604966c-.0223349-.7995232-.0454411-1.6064334-.0694549-2.4137917-1.5145523.1818864-3.0276714.9546899-4.5331089 2.3172883-3.477 3.147-1.739 8.645-1.739 8.645s-3.478-2.796-3.671-5.595c-.193-2.798.193-4.894 2.125-5.594 1.933-.7 1.933-1.399 1.739-4.195-.193-2.797 3.285-6.993 3.285-6.993l2.166562-2.56591021c-.1396899-1.72308604-.2995132-2.94206007-.484562-3.39708979-.954-2.351 1.173-3.65 1.78-3.963l.0007037-.04262963.0002963-.03437037s.028.012.076.038c.052-.025.079-.038.079-.038zm26.623 15.761c.064-.051-.04.149-.267.536.263-.363.405-.536.386-.46-.878 3.362-.865 4.354-1.247 10.499-.33 5.296-6.454 4.419-8.139 4.076-.054.084-.084.129-.084.129s-.049-.062-.132-.176c-.136-.03-.213-.05-.213-.05s.03-.046.085-.128c-.988-1.409-4.24-6.673.485-9.092 5.481-2.804 6.396-3.187 9.126-5.334zm-53.935 0c2.731 2.147 3.647 2.53 9.127 5.334 4.725 2.419 1.473 7.683.485 9.092.055.082.085.128.085.128s-.076.02-.214.05c-.082.114-.131.176-.131.176s-.031-.045-.084-.129c-1.685.343-7.81 1.22-8.139-4.076-.382-6.145-.37-7.137-1.246-10.499-.021-.076.121.097.385.46-.227-.387-.331-.587-.268-.536z" fill="#2748a0"/><g fill="#bb1a1a" transform="translate(11.832 11.818)"><path d="m18.457 0 4.151 2.536-2.537 4.152-4.152-2.538z"/><path d="m51.376 0-4.151 2.536 2.537 4.152 4.153-2.538z"/><path d="m69.832 18.456-2.536 4.152-4.151-2.537 2.538-4.152z"/><path d="m0 18.456 2.537 4.152 4.151-2.538-2.538-4.151z"/></g></g><g transform="translate(190)"><path d="m47.614 0-.0002963.03525926c-.0001481.01140741-.0003704.02540741-.0007037.04174074.596.332 2.686 1.691 1.665 4.013-.1939904.4404416-.3619929 1.61444839-.5092455 3.27774376l2.2242455 2.63525624s3.478 4.196 3.285 6.993c-.192 2.796-.192 3.495 1.739 4.195 1.932.7 2.318 2.796 2.125 5.594-.193 2.799-3.671 5.595-3.671 5.595s1.739-5.498-1.739-8.645c-1.5421071-1.3957888-3.0922746-2.1727-4.6433547-2.3307339-.0122294.3561097-.0234535.7114647-.0345062 1.0661611l-.0201525.6519511 3.5380134 8.2696217s.0275328.0267984.0765988.075562l.1250652.125382c.500736.506016 1.780736 1.845056 2.062336 2.585056.424 1.124-.916-1.306-3.146-.407-2.518 1.013-2.657 8.94-.864 9.146 1.315.152 3.514-2.963 3.514-2.963s.6535284.1437986 1.0544556.6410822c.4973486.4020475.6395444 1.0539178.6395444 1.0539178s-3.113 2.198-2.961 3.513c.205 1.794 8.132 1.655 9.144-.863.899-2.23-1.531-3.571-.406-3.146.925.351 2.787 2.264 2.787 2.264l8.2693944 3.5377985.6515871-.0201642c.3540148-.0110436.7086856-.0222575 1.0634217-.0336542-.1567075-1.5519848-.9341749-3.102819-2.3314032-4.6459801-3.146-3.477-8.644-1.737-8.644-1.737s2.797-3.479 5.596-3.672c2.796-.193 4.893.193 5.593 2.125.699 1.931 1.398 1.931 4.195 1.739 2.796-.192 6.994 3.284 6.994 3.284l2.6347537 2.2259942c1.6636597-.1472082 2.8378809-.3151288 3.2782463-.5089942 2.323-1.02 3.681 1.068 4.014 1.664l.0679259-.000963c.0090741-.000037-.0039259.027963-.0279259.079963.026.048.037.077.037.077h-.077c-.312.605-1.611 2.734-3.963 1.78-.4552063-.1849536-1.6749778-.3447181-3.3991609-.4843771l-2.5648391 2.1653771s-4.198 3.478-6.994 3.285c-2.797-.195-3.496-.195-4.195 1.738-.7 1.932-2.797 2.319-5.593 2.126-2.799-.194-5.596-3.671-5.596-3.671s5.498 1.738 8.644-1.741c1.3628657-1.5043441 2.1360797-3.0163631 2.3196419-4.5295777-.807644-.024197-1.6141202-.0473041-2.4132147-.0696416l-7.5594272 3.1562193s-1.862 2.197-2.787 2.547c-1.125.425 1.305-.913.406-3.145-1.012-2.518-8.939-2.657-9.144-.864-.152 1.315 2.961 3.514 2.961 3.514s-.255 1.17-1.272 1.338c-1.354.227-4.3-7.127-4.324-7.182.0116011-.0270692.7059436-1.7591226 1.5731972-3.5161149-1.7571789.8665736-3.4896433 1.5605133-3.5171972 1.5721149-.026596-.0116055-1.7594719-.7060036-3.51678-1.5734612.8685715 1.7576804 1.5631436 3.4903868 1.57378 3.5174612l-.0198757.0492803c-.2610181.6444338-3.0102576 7.3496308-4.3031243 7.1327197-1.016-.168-1.273-1.338-1.273-1.338s3.114-2.199 2.963-3.514c-.207-1.793-8.133-1.654-9.146.864-.897 2.232 1.533 3.57.408 3.145-.926-.35-2.787-2.547-2.787-2.547l-7.5585675-3.1562799c-.8001506.0223665-1.6077067.0455047-2.4157115.0695505.1828774 1.5133663.955846 3.0253853 2.318279 4.5297294 3.147 3.479 8.644 1.741 8.644 1.741s-2.796 3.477-5.595 3.671c-2.797.193-4.893-.194-5.593-2.126-.7-1.933-1.399-1.933-4.195-1.738-2.798.193-6.993-3.285-6.993-3.285l-2.56485613-2.1653345c-1.72374781.1396489-2.94315074.2993997-3.39814387.4843345-2.352.954-3.652-1.175-3.964-1.78h-.078s.011-.029.039-.077c-.025-.052-.038-.08-.038-.08l.00911111.000037.06888889.000963c.331-.596 1.69-2.684 4.013-1.664.44052885.1938654 1.61488683.361786 3.27865651.5089942l2.63434349-2.2259942s4.195-3.476 6.993-3.284c2.796.192 3.495.192 4.195-1.739.7-1.932 2.796-2.318 5.593-2.125 2.799.193 5.595 3.672 5.595 3.672s-5.497-1.74-8.644 1.737c-1.3967848 1.5431611-2.1740053 3.0939953-2.3316617 4.6455212l.0000077.0003625.5769633.0183834.9780817.0305178c.0547891.0016888.1095558.0033736.164298.0050546l8.268311-3.5378395.0342996-.0349504c.0111947-.0113536.025009-.0253232.0412641-.0416864l.1253883-.1251232c.506048-.50096 1.845248-1.78144 2.586048-2.06224 1.125-.425-1.305.916-.408 3.146 1.013 2.518 8.939 2.657 9.146.863.151-1.315-2.963-3.513-2.963-3.513s.143888-.6544944.6419647-1.055252c.4017973-.4963305 1.0530353-.639748 1.0530353-.639748s2.199 3.115 3.515 2.963c1.793-.206 1.653-8.133-.865-9.146-2.23-.899-3.57 1.531-3.144.407.349-.925 2.547-2.786 2.547-2.786l3.1565638-7.5604966c-.0223349-.7995232-.0454411-1.6064334-.0694549-2.4137917-1.5145523.1818864-3.0276714.9546899-4.5331089 2.3172883-3.477 3.147-1.739 8.645-1.739 8.645s-3.478-2.796-3.671-5.595c-.193-2.798.193-4.894 2.125-5.594 1.933-.7 1.933-1.399 1.739-4.195-.193-2.797 3.285-6.993 3.285-6.993l2.166562-2.56591021c-.1396899-1.72308604-.2995132-2.94206007-.484562-3.39708979-.954-2.351 1.173-3.65 1.78-3.963l.0007037-.04262963.0002963-.03437037s.028.012.076.038c.052-.025.079-.038.079-.038zm26.623 15.761c.064-.051-.04.149-.267.536.263-.363.405-.536.386-.46-.878 3.362-.865 4.354-1.247 10.499-.33 5.296-6.454 4.419-8.139 4.076-.054.084-.084.129-.084.129s-.049-.062-.132-.176c-.136-.03-.213-.05-.213-.05s.03-.046.085-.128c-.988-1.409-4.24-6.673.485-9.092 5.481-2.804 6.396-3.187 9.126-5.334zm-53.935 0c2.731 2.147 3.647 2.53 9.127 5.334 4.725 2.419 1.473 7.683.485 9.092.055.082.085.128.085.128s-.076.02-.214.05c-.082.114-.131.176-.131.176s-.031-.045-.084-.129c-1.685.343-7.81 1.22-8.139-4.076-.382-6.145-.37-7.137-1.246-10.499-.021-.076.121.097.385.46-.227-.387-.331-.587-.268-.536z" fill="#2748a0"/><g fill="#bb1a1a" transform="translate(11.832 11.818)"><path d="m18.457 0 4.151 2.536-2.537 4.152-4.152-2.538z"/><path d="m51.376 0-4.151 2.536 2.537 4.152 4.153-2.538z"/><path d="m69.832 18.456-2.536 4.152-4.151-2.537 2.538-4.152z"/><path d="m0 18.456 2.537 4.152 4.151-2.538-2.538-4.151z"/></g></g><g transform="translate(285)"><path d="m47.614 0-.0002963.03525926c-.0001481.01140741-.0003704.02540741-.0007037.04174074.596.332 2.686 1.691 1.665 4.013-.1939904.4404416-.3619929 1.61444839-.5092455 3.27774376l2.2242455 2.63525624s3.478 4.196 3.285 6.993c-.192 2.796-.192 3.495 1.739 4.195 1.932.7 2.318 2.796 2.125 5.594-.193 2.799-3.671 5.595-3.671 5.595s1.739-5.498-1.739-8.645c-1.5421071-1.3957888-3.0922746-2.1727-4.6433547-2.3307339-.0122294.3561097-.0234535.7114647-.0345062 1.0661611l-.0201525.6519511 3.5380134 8.2696217s.0275328.0267984.0765988.075562l.1250652.125382c.500736.506016 1.780736 1.845056 2.062336 2.585056.424 1.124-.916-1.306-3.146-.407-2.518 1.013-2.657 8.94-.864 9.146 1.315.152 3.514-2.963 3.514-2.963s.6535284.1437986 1.0544556.6410822c.4973486.4020475.6395444 1.0539178.6395444 1.0539178s-3.113 2.198-2.961 3.513c.205 1.794 8.132 1.655 9.144-.863.899-2.23-1.531-3.571-.406-3.146.925.351 2.787 2.264 2.787 2.264l8.2693944 3.5377985.6515871-.0201642c.3540148-.0110436.7086856-.0222575 1.0634217-.0336542-.1567075-1.5519848-.9341749-3.102819-2.3314032-4.6459801-3.146-3.477-8.644-1.737-8.644-1.737s2.797-3.479 5.596-3.672c2.796-.193 4.893.193 5.593 2.125.699 1.931 1.398 1.931 4.195 1.739 2.796-.192 6.994 3.284 6.994 3.284l2.6347537 2.2259942c1.6636597-.1472082 2.8378809-.3151288 3.2782463-.5089942 2.323-1.02 3.681 1.068 4.014 1.664l.0679259-.000963c.0090741-.000037-.0039259.027963-.0279259.079963.026.048.037.077.037.077h-.077c-.312.605-1.611 2.734-3.963 1.78-.4552063-.1849536-1.6749778-.3447181-3.3991609-.4843771l-2.5648391 2.1653771s-4.198 3.478-6.994 3.285c-2.797-.195-3.496-.195-4.195 1.738-.7 1.932-2.797 2.319-5.593 2.126-2.799-.194-5.596-3.671-5.596-3.671s5.498 1.738 8.644-1.741c1.3628657-1.5043441 2.1360797-3.0163631 2.3196419-4.5295777-.807644-.024197-1.6141202-.0473041-2.4132147-.0696416l-7.5594272 3.1562193s-1.862 2.197-2.787 2.547c-1.125.425 1.305-.913.406-3.145-1.012-2.518-8.939-2.657-9.144-.864-.152 1.315 2.961 3.514 2.961 3.514s-.255 1.17-1.272 1.338c-1.354.227-4.3-7.127-4.324-7.182.0116011-.0270692.7059436-1.7591226 1.5731972-3.5161149-1.7571789.8665736-3.4896433 1.5605133-3.5171972 1.5721149-.026596-.0116055-1.7594719-.7060036-3.51678-1.5734612.8685715 1.7576804 1.5631436 3.4903868 1.57378 3.5174612l-.0198757.0492803c-.2610181.6444338-3.0102576 7.3496308-4.3031243 7.1327197-1.016-.168-1.273-1.338-1.273-1.338s3.114-2.199 2.963-3.514c-.207-1.793-8.133-1.654-9.146.864-.897 2.232 1.533 3.57.408 3.145-.926-.35-2.787-2.547-2.787-2.547l-7.5585675-3.1562799c-.8001506.0223665-1.6077067.0455047-2.4157115.0695505.1828774 1.5133663.955846 3.0253853 2.318279 4.5297294 3.147 3.479 8.644 1.741 8.644 1.741s-2.796 3.477-5.595 3.671c-2.797.193-4.893-.194-5.593-2.126-.7-1.933-1.399-1.933-4.195-1.738-2.798.193-6.993-3.285-6.993-3.285l-2.56485613-2.1653345c-1.72374781.1396489-2.94315074.2993997-3.39814387.4843345-2.352.954-3.652-1.175-3.964-1.78h-.078s.011-.029.039-.077c-.025-.052-.038-.08-.038-.08l.00911111.000037.06888889.000963c.331-.596 1.69-2.684 4.013-1.664.44052885.1938654 1.61488683.361786 3.27865651.5089942l2.63434349-2.2259942s4.195-3.476 6.993-3.284c2.796.192 3.495.192 4.195-1.739.7-1.932 2.796-2.318 5.593-2.125 2.799.193 5.595 3.672 5.595 3.672s-5.497-1.74-8.644 1.737c-1.3967848 1.5431611-2.1740053 3.0939953-2.3316617 4.6455212l.0000077.0003625.5769633.0183834.9780817.0305178c.0547891.0016888.1095558.0033736.164298.0050546l8.268311-3.5378395.0342996-.0349504c.0111947-.0113536.025009-.0253232.0412641-.0416864l.1253883-.1251232c.506048-.50096 1.845248-1.78144 2.586048-2.06224 1.125-.425-1.305.916-.408 3.146 1.013 2.518 8.939 2.657 9.146.863.151-1.315-2.963-3.513-2.963-3.513s.143888-.6544944.6419647-1.055252c.4017973-.4963305 1.0530353-.639748 1.0530353-.639748s2.199 3.115 3.515 2.963c1.793-.206 1.653-8.133-.865-9.146-2.23-.899-3.57 1.531-3.144.407.349-.925 2.547-2.786 2.547-2.786l3.1565638-7.5604966c-.0223349-.7995232-.0454411-1.6064334-.0694549-2.4137917-1.5145523.1818864-3.0276714.9546899-4.5331089 2.3172883-3.477 3.147-1.739 8.645-1.739 8.645s-3.478-2.796-3.671-5.595c-.193-2.798.193-4.894 2.125-5.594 1.933-.7 1.933-1.399 1.739-4.195-.193-2.797 3.285-6.993 3.285-6.993l2.166562-2.56591021c-.1396899-1.72308604-.2995132-2.94206007-.484562-3.39708979-.954-2.351 1.173-3.65 1.78-3.963l.0007037-.04262963.0002963-.03437037s.028.012.076.038c.052-.025.079-.038.079-.038zm26.623 15.761c.064-.051-.04.149-.267.536.263-.363.405-.536.386-.46-.878 3.362-.865 4.354-1.247 10.499-.33 5.296-6.454 4.419-8.139 4.076-.054.084-.084.129-.084.129s-.049-.062-.132-.176c-.136-.03-.213-.05-.213-.05s.03-.046.085-.128c-.988-1.409-4.24-6.673.485-9.092 5.481-2.804 6.396-3.187 9.126-5.334zm-53.935 0c2.731 2.147 3.647 2.53 9.127 5.334 4.725 2.419 1.473 7.683.485 9.092.055.082.085.128.085.128s-.076.02-.214.05c-.082.114-.131.176-.131.176s-.031-.045-.084-.129c-1.685.343-7.81 1.22-8.139-4.076-.382-6.145-.37-7.137-1.246-10.499-.021-.076.121.097.385.46-.227-.387-.331-.587-.268-.536z" fill="#2748a0"/><g fill="#bb1a1a" transform="translate(11.832 11.818)"><path d="m18.457 0 4.151 2.536-2.537 4.152-4.152-2.538z"/><path d="m51.376 0-4.151 2.536 2.537 4.152 4.153-2.538z"/><path d="m69.832 18.456-2.536 4.152-4.151-2.537 2.538-4.152z"/><path d="m0 18.456 2.537 4.152 4.151-2.538-2.538-4.151z"/></g></g><g transform="translate(380)"><path d="m47.614 0-.0002963.03525926c-.0001481.01140741-.0003704.02540741-.0007037.04174074.596.332 2.686 1.691 1.665 4.013-.1939904.4404416-.3619929 1.61444839-.5092455 3.27774376l2.2242455 2.63525624s3.478 4.196 3.285 6.993c-.192 2.796-.192 3.495 1.739 4.195 1.932.7 2.318 2.796 2.125 5.594-.193 2.799-3.671 5.595-3.671 5.595s1.739-5.498-1.739-8.645c-1.5421071-1.3957888-3.0922746-2.1727-4.6433547-2.3307339-.0122294.3561097-.0234535.7114647-.0345062 1.0661611l-.0201525.6519511 3.5380134 8.2696217s.0275328.0267984.0765988.075562l.1250652.125382c.500736.506016 1.780736 1.845056 2.062336 2.585056.424 1.124-.916-1.306-3.146-.407-2.518 1.013-2.657 8.94-.864 9.146 1.315.152 3.514-2.963 3.514-2.963s.6535284.1437986 1.0544556.6410822c.4973486.4020475.6395444 1.0539178.6395444 1.0539178s-3.113 2.198-2.961 3.513c.205 1.794 8.132 1.655 9.144-.863.899-2.23-1.531-3.571-.406-3.146.925.351 2.787 2.264 2.787 2.264l8.2693944 3.5377985.6515871-.0201642c.3540148-.0110436.7086856-.0222575 1.0634217-.0336542-.1567075-1.5519848-.9341749-3.102819-2.3314032-4.6459801-3.146-3.477-8.644-1.737-8.644-1.737s2.797-3.479 5.596-3.672c2.796-.193 4.893.193 5.593 2.125.699 1.931 1.398 1.931 4.195 1.739 2.796-.192 6.994 3.284 6.994 3.284l2.6347537 2.2259942c1.6636597-.1472082 2.8378809-.3151288 3.2782463-.5089942 2.323-1.02 3.681 1.068 4.014 1.664l.0679259-.000963c.0090741-.000037-.0039259.027963-.0279259.079963.026.048.037.077.037.077h-.077c-.312.605-1.611 2.734-3.963 1.78-.4552063-.1849536-1.6749778-.3447181-3.3991609-.4843771l-2.5648391 2.1653771s-4.198 3.478-6.994 3.285c-2.797-.195-3.496-.195-4.195 1.738-.7 1.932-2.797 2.319-5.593 2.126-2.799-.194-5.596-3.671-5.596-3.671s5.498 1.738 8.644-1.741c1.3628657-1.5043441 2.1360797-3.0163631 2.3196419-4.5295777-.807644-.024197-1.6141202-.0473041-2.4132147-.0696416l-7.5594272 3.1562193s-1.862 2.197-2.787 2.547c-1.125.425 1.305-.913.406-3.145-1.012-2.518-8.939-2.657-9.144-.864-.152 1.315 2.961 3.514 2.961 3.514s-.255 1.17-1.272 1.338c-1.354.227-4.3-7.127-4.324-7.182.0116011-.0270692.7059436-1.7591226 1.5731972-3.5161149-1.7571789.8665736-3.4896433 1.5605133-3.5171972 1.5721149-.026596-.0116055-1.7594719-.7060036-3.51678-1.5734612.8685715 1.7576804 1.5631436 3.4903868 1.57378 3.5174612l-.0198757.0492803c-.2610181.6444338-3.0102576 7.3496308-4.3031243 7.1327197-1.016-.168-1.273-1.338-1.273-1.338s3.114-2.199 2.963-3.514c-.207-1.793-8.133-1.654-9.146.864-.897 2.232 1.533 3.57.408 3.145-.926-.35-2.787-2.547-2.787-2.547l-7.5585675-3.1562799c-.8001506.0223665-1.6077067.0455047-2.4157115.0695505.1828774 1.5133663.955846 3.0253853 2.318279 4.5297294 3.147 3.479 8.644 1.741 8.644 1.741s-2.796 3.477-5.595 3.671c-2.797.193-4.893-.194-5.593-2.126-.7-1.933-1.399-1.933-4.195-1.738-2.798.193-6.993-3.285-6.993-3.285l-2.56485613-2.1653345c-1.72374781.1396489-2.94315074.2993997-3.39814387.4843345-2.352.954-3.652-1.175-3.964-1.78h-.078s.011-.029.039-.077c-.025-.052-.038-.08-.038-.08l.00911111.000037.06888889.000963c.331-.596 1.69-2.684 4.013-1.664.44052885.1938654 1.61488683.361786 3.27865651.5089942l2.63434349-2.2259942s4.195-3.476 6.993-3.284c2.796.192 3.495.192 4.195-1.739.7-1.932 2.796-2.318 5.593-2.125 2.799.193 5.595 3.672 5.595 3.672s-5.497-1.74-8.644 1.737c-1.3967848 1.5431611-2.1740053 3.0939953-2.3316617 4.6455212l.0000077.0003625.5769633.0183834.9780817.0305178c.0547891.0016888.1095558.0033736.164298.0050546l8.268311-3.5378395.0342996-.0349504c.0111947-.0113536.025009-.0253232.0412641-.0416864l.1253883-.1251232c.506048-.50096 1.845248-1.78144 2.586048-2.06224 1.125-.425-1.305.916-.408 3.146 1.013 2.518 8.939 2.657 9.146.863.151-1.315-2.963-3.513-2.963-3.513s.143888-.6544944.6419647-1.055252c.4017973-.4963305 1.0530353-.639748 1.0530353-.639748s2.199 3.115 3.515 2.963c1.793-.206 1.653-8.133-.865-9.146-2.23-.899-3.57 1.531-3.144.407.349-.925 2.547-2.786 2.547-2.786l3.1565638-7.5604966c-.0223349-.7995232-.0454411-1.6064334-.0694549-2.4137917-1.5145523.1818864-3.0276714.9546899-4.5331089 2.3172883-3.477 3.147-1.739 8.645-1.739 8.645s-3.478-2.796-3.671-5.595c-.193-2.798.193-4.894 2.125-5.594 1.933-.7 1.933-1.399 1.739-4.195-.193-2.797 3.285-6.993 3.285-6.993l2.166562-2.56591021c-.1396899-1.72308604-.2995132-2.94206007-.484562-3.39708979-.954-2.351 1.173-3.65 1.78-3.963l.0007037-.04262963.0002963-.03437037s.028.012.076.038c.052-.025.079-.038.079-.038zm26.623 15.761c.064-.051-.04.149-.267.536.263-.363.405-.536.386-.46-.878 3.362-.865 4.354-1.247 10.499-.33 5.296-6.454 4.419-8.139 4.076-.054.084-.084.129-.084.129s-.049-.062-.132-.176c-.136-.03-.213-.05-.213-.05s.03-.046.085-.128c-.988-1.409-4.24-6.673.485-9.092 5.481-2.804 6.396-3.187 9.126-5.334zm-53.935 0c2.731 2.147 3.647 2.53 9.127 5.334 4.725 2.419 1.473 7.683.485 9.092.055.082.085.128.085.128s-.076.02-.214.05c-.082.114-.131.176-.131.176s-.031-.045-.084-.129c-1.685.343-7.81 1.22-8.139-4.076-.382-6.145-.37-7.137-1.246-10.499-.021-.076.121.097.385.46-.227-.387-.331-.587-.268-.536z" fill="#2748a0"/><g fill="#bb1a1a" transform="translate(11.832 11.818)"><path d="m18.457 0 4.151 2.536-2.537 4.152-4.152-2.538z"/><path d="m51.376 0-4.151 2.536 2.537 4.152 4.153-2.538z"/><path d="m69.832 18.456-2.536 4.152-4.151-2.537 2.538-4.152z"/><path d="m0 18.456 2.537 4.152 4.151-2.538-2.538-4.151z"/></g></g><g transform="translate(475)"><path d="m47.614 0-.0002963.03525926c-.0001481.01140741-.0003704.02540741-.0007037.04174074.596.332 2.686 1.691 1.665 4.013-.1939904.4404416-.3619929 1.61444839-.5092455 3.27774376l2.2242455 2.63525624s3.478 4.196 3.285 6.993c-.192 2.796-.192 3.495 1.739 4.195 1.932.7 2.318 2.796 2.125 5.594-.193 2.799-3.671 5.595-3.671 5.595s1.739-5.498-1.739-8.645c-1.5421071-1.3957888-3.0922746-2.1727-4.6433547-2.3307339-.0122294.3561097-.0234535.7114647-.0345062 1.0661611l-.0201525.6519511 3.5380134 8.2696217s.0275328.0267984.0765988.075562l.1250652.125382c.500736.506016 1.780736 1.845056 2.062336 2.585056.424 1.124-.916-1.306-3.146-.407-2.518 1.013-2.657 8.94-.864 9.146 1.315.152 3.514-2.963 3.514-2.963s.6535284.1437986 1.0544556.6410822c.4973486.4020475.6395444 1.0539178.6395444 1.0539178s-3.113 2.198-2.961 3.513c.205 1.794 8.132 1.655 9.144-.863.899-2.23-1.531-3.571-.406-3.146.925.351 2.787 2.264 2.787 2.264l8.2693944 3.5377985.6515871-.0201642c.3540148-.0110436.7086856-.0222575 1.0634217-.0336542-.1567075-1.5519848-.9341749-3.102819-2.3314032-4.6459801-3.146-3.477-8.644-1.737-8.644-1.737s2.797-3.479 5.596-3.672c2.796-.193 4.893.193 5.593 2.125.699 1.931 1.398 1.931 4.195 1.739 2.796-.192 6.994 3.284 6.994 3.284l2.6347537 2.2259942c1.6636597-.1472082 2.8378809-.3151288 3.2782463-.5089942 2.323-1.02 3.681 1.068 4.014 1.664l.0679259-.000963c.0090741-.000037-.0039259.027963-.0279259.079963.026.048.037.077.037.077h-.077c-.312.605-1.611 2.734-3.963 1.78-.4552063-.1849536-1.6749778-.3447181-3.3991609-.4843771l-2.5648391 2.1653771s-4.198 3.478-6.994 3.285c-2.797-.195-3.496-.195-4.195 1.738-.7 1.932-2.797 2.319-5.593 2.126-2.799-.194-5.596-3.671-5.596-3.671s5.498 1.738 8.644-1.741c1.3628657-1.5043441 2.1360797-3.0163631 2.3196419-4.5295777-.807644-.024197-1.6141202-.0473041-2.4132147-.0696416l-7.5594272 3.1562193s-1.862 2.197-2.787 2.547c-1.125.425 1.305-.913.406-3.145-1.012-2.518-8.939-2.657-9.144-.864-.152 1.315 2.961 3.514 2.961 3.514s-.255 1.17-1.272 1.338c-1.354.227-4.3-7.127-4.324-7.182.0116011-.0270692.7059436-1.7591226 1.5731972-3.5161149-1.7571789.8665736-3.4896433 1.5605133-3.5171972 1.5721149-.026596-.0116055-1.7594719-.7060036-3.51678-1.5734612.8685715 1.7576804 1.5631436 3.4903868 1.57378 3.5174612l-.0198757.0492803c-.2610181.6444338-3.0102576 7.3496308-4.3031243 7.1327197-1.016-.168-1.273-1.338-1.273-1.338s3.114-2.199 2.963-3.514c-.207-1.793-8.133-1.654-9.146.864-.897 2.232 1.533 3.57.408 3.145-.926-.35-2.787-2.547-2.787-2.547l-7.5585675-3.1562799c-.8001506.0223665-1.6077067.0455047-2.4157115.0695505.1828774 1.5133663.955846 3.0253853 2.318279 4.5297294 3.147 3.479 8.644 1.741 8.644 1.741s-2.796 3.477-5.595 3.671c-2.797.193-4.893-.194-5.593-2.126-.7-1.933-1.399-1.933-4.195-1.738-2.798.193-6.993-3.285-6.993-3.285l-2.56485613-2.1653345c-1.72374781.1396489-2.94315074.2993997-3.39814387.4843345-2.352.954-3.652-1.175-3.964-1.78h-.078s.011-.029.039-.077c-.025-.052-.038-.08-.038-.08l.00911111.000037.06888889.000963c.331-.596 1.69-2.684 4.013-1.664.44052885.1938654 1.61488683.361786 3.27865651.5089942l2.63434349-2.2259942s4.195-3.476 6.993-3.284c2.796.192 3.495.192 4.195-1.739.7-1.932 2.796-2.318 5.593-2.125 2.799.193 5.595 3.672 5.595 3.672s-5.497-1.74-8.644 1.737c-1.3967848 1.5431611-2.1740053 3.0939953-2.3316617 4.6455212l.0000077.0003625.5769633.0183834.9780817.0305178c.0547891.0016888.1095558.0033736.164298.0050546l8.268311-3.5378395.0342996-.0349504c.0111947-.0113536.025009-.0253232.0412641-.0416864l.1253883-.1251232c.506048-.50096 1.845248-1.78144 2.586048-2.06224 1.125-.425-1.305.916-.408 3.146 1.013 2.518 8.939 2.657 9.146.863.151-1.315-2.963-3.513-2.963-3.513s.143888-.6544944.6419647-1.055252c.4017973-.4963305 1.0530353-.639748 1.0530353-.639748s2.199 3.115 3.515 2.963c1.793-.206 1.653-8.133-.865-9.146-2.23-.899-3.57 1.531-3.144.407.349-.925 2.547-2.786 2.547-2.786l3.1565638-7.5604966c-.0223349-.7995232-.0454411-1.6064334-.0694549-2.4137917-1.5145523.1818864-3.0276714.9546899-4.5331089 2.3172883-3.477 3.147-1.739 8.645-1.739 8.645s-3.478-2.796-3.671-5.595c-.193-2.798.193-4.894 2.125-5.594 1.933-.7 1.933-1.399 1.739-4.195-.193-2.797 3.285-6.993 3.285-6.993l2.166562-2.56591021c-.1396899-1.72308604-.2995132-2.94206007-.484562-3.39708979-.954-2.351 1.173-3.65 1.78-3.963l.0007037-.04262963.0002963-.03437037s.028.012.076.038c.052-.025.079-.038.079-.038zm26.623 15.761c.064-.051-.04.149-.267.536.263-.363.405-.536.386-.46-.878 3.362-.865 4.354-1.247 10.499-.33 5.296-6.454 4.419-8.139 4.076-.054.084-.084.129-.084.129s-.049-.062-.132-.176c-.136-.03-.213-.05-.213-.05s.03-.046.085-.128c-.988-1.409-4.24-6.673.485-9.092 5.481-2.804 6.396-3.187 9.126-5.334zm-53.935 0c2.731 2.147 3.647 2.53 9.127 5.334 4.725 2.419 1.473 7.683.485 9.092.055.082.085.128.085.128s-.076.02-.214.05c-.082.114-.131.176-.131.176s-.031-.045-.084-.129c-1.685.343-7.81 1.22-8.139-4.076-.382-6.145-.37-7.137-1.246-10.499-.021-.076.121.097.385.46-.227-.387-.331-.587-.268-.536z" fill="#2748a0"/><g fill="#bb1a1a" transform="translate(11.832 11.818)"><path d="m18.457 0 4.151 2.536-2.537 4.152-4.152-2.538z"/><path d="m51.376 0-4.151 2.536 2.537 4.152 4.153-2.538z"/><path d="m69.832 18.456-2.536 4.152-4.151-2.537 2.538-4.152z"/><path d="m0 18.456 2.537 4.152 4.151-2.538-2.538-4.151z"/></g></g><g transform="translate(570)"><path d="m47.614 0-.0002963.03525926c-.0001481.01140741-.0003704.02540741-.0007037.04174074.596.332 2.686 1.691 1.665 4.013-.1939904.4404416-.3619929 1.61444839-.5092455 3.27774376l2.2242455 2.63525624s3.478 4.196 3.285 6.993c-.192 2.796-.192 3.495 1.739 4.195 1.932.7 2.318 2.796 2.125 5.594-.193 2.799-3.671 5.595-3.671 5.595s1.739-5.498-1.739-8.645c-1.5421071-1.3957888-3.0922746-2.1727-4.6433547-2.3307339-.0122294.3561097-.0234535.7114647-.0345062 1.0661611l-.0201525.6519511 3.5380134 8.2696217s.0275328.0267984.0765988.075562l.1250652.125382c.500736.506016 1.780736 1.845056 2.062336 2.585056.424 1.124-.916-1.306-3.146-.407-2.518 1.013-2.657 8.94-.864 9.146 1.315.152 3.514-2.963 3.514-2.963s.6535284.1437986 1.0544556.6410822c.4973486.4020475.6395444 1.0539178.6395444 1.0539178s-3.113 2.198-2.961 3.513c.205 1.794 8.132 1.655 9.144-.863.899-2.23-1.531-3.571-.406-3.146.925.351 2.787 2.264 2.787 2.264l8.2693944 3.5377985.6515871-.0201642c.3540148-.0110436.7086856-.0222575 1.0634217-.0336542-.1567075-1.5519848-.9341749-3.102819-2.3314032-4.6459801-3.146-3.477-8.644-1.737-8.644-1.737s2.797-3.479 5.596-3.672c2.796-.193 4.893.193 5.593 2.125.699 1.931 1.398 1.931 4.195 1.739 2.796-.192 6.994 3.284 6.994 3.284l2.6347537 2.2259942c1.6636597-.1472082 2.8378809-.3151288 3.2782463-.5089942 2.323-1.02 3.681 1.068 4.014 1.664l.0679259-.000963c.0090741-.000037-.0039259.027963-.0279259.079963.026.048.037.077.037.077h-.077c-.312.605-1.611 2.734-3.963 1.78-.4552063-.1849536-1.6749778-.3447181-3.3991609-.4843771l-2.5648391 2.1653771s-4.198 3.478-6.994 3.285c-2.797-.195-3.496-.195-4.195 1.738-.7 1.932-2.797 2.319-5.593 2.126-2.799-.194-5.596-3.671-5.596-3.671s5.498 1.738 8.644-1.741c1.3628657-1.5043441 2.1360797-3.0163631 2.3196419-4.5295777-.807644-.024197-1.6141202-.0473041-2.4132147-.0696416l-7.5594272 3.1562193s-1.862 2.197-2.787 2.547c-1.125.425 1.305-.913.406-3.145-1.012-2.518-8.939-2.657-9.144-.864-.152 1.315 2.961 3.514 2.961 3.514s-.255 1.17-1.272 1.338c-1.354.227-4.3-7.127-4.324-7.182.0116011-.0270692.7059436-1.7591226 1.5731972-3.5161149-1.7571789.8665736-3.4896433 1.5605133-3.5171972 1.5721149-.026596-.0116055-1.7594719-.7060036-3.51678-1.5734612.8685715 1.7576804 1.5631436 3.4903868 1.57378 3.5174612l-.0198757.0492803c-.2610181.6444338-3.0102576 7.3496308-4.3031243 7.1327197-1.016-.168-1.273-1.338-1.273-1.338s3.114-2.199 2.963-3.514c-.207-1.793-8.133-1.654-9.146.864-.897 2.232 1.533 3.57.408 3.145-.926-.35-2.787-2.547-2.787-2.547l-7.5585675-3.1562799c-.8001506.0223665-1.6077067.0455047-2.4157115.0695505.1828774 1.5133663.955846 3.0253853 2.318279 4.5297294 3.147 3.479 8.644 1.741 8.644 1.741s-2.796 3.477-5.595 3.671c-2.797.193-4.893-.194-5.593-2.126-.7-1.933-1.399-1.933-4.195-1.738-2.798.193-6.993-3.285-6.993-3.285l-2.56485613-2.1653345c-1.72374781.1396489-2.94315074.2993997-3.39814387.4843345-2.352.954-3.652-1.175-3.964-1.78h-.078s.011-.029.039-.077c-.025-.052-.038-.08-.038-.08l.00911111.000037.06888889.000963c.331-.596 1.69-2.684 4.013-1.664.44052885.1938654 1.61488683.361786 3.27865651.5089942l2.63434349-2.2259942s4.195-3.476 6.993-3.284c2.796.192 3.495.192 4.195-1.739.7-1.932 2.796-2.318 5.593-2.125 2.799.193 5.595 3.672 5.595 3.672s-5.497-1.74-8.644 1.737c-1.3967848 1.5431611-2.1740053 3.0939953-2.3316617 4.6455212l.0000077.0003625.5769633.0183834.9780817.0305178c.0547891.0016888.1095558.0033736.164298.0050546l8.268311-3.5378395.0342996-.0349504c.0111947-.0113536.025009-.0253232.0412641-.0416864l.1253883-.1251232c.506048-.50096 1.845248-1.78144 2.586048-2.06224 1.125-.425-1.305.916-.408 3.146 1.013 2.518 8.939 2.657 9.146.863.151-1.315-2.963-3.513-2.963-3.513s.143888-.6544944.6419647-1.055252c.4017973-.4963305 1.0530353-.639748 1.0530353-.639748s2.199 3.115 3.515 2.963c1.793-.206 1.653-8.133-.865-9.146-2.23-.899-3.57 1.531-3.144.407.349-.925 2.547-2.786 2.547-2.786l3.1565638-7.5604966c-.0223349-.7995232-.0454411-1.6064334-.0694549-2.4137917-1.5145523.1818864-3.0276714.9546899-4.5331089 2.3172883-3.477 3.147-1.739 8.645-1.739 8.645s-3.478-2.796-3.671-5.595c-.193-2.798.193-4.894 2.125-5.594 1.933-.7 1.933-1.399 1.739-4.195-.193-2.797 3.285-6.993 3.285-6.993l2.166562-2.56591021c-.1396899-1.72308604-.2995132-2.94206007-.484562-3.39708979-.954-2.351 1.173-3.65 1.78-3.963l.0007037-.04262963.0002963-.03437037s.028.012.076.038c.052-.025.079-.038.079-.038zm26.623 15.761c.064-.051-.04.149-.267.536.263-.363.405-.536.386-.46-.878 3.362-.865 4.354-1.247 10.499-.33 5.296-6.454 4.419-8.139 4.076-.054.084-.084.129-.084.129s-.049-.062-.132-.176c-.136-.03-.213-.05-.213-.05s.03-.046.085-.128c-.988-1.409-4.24-6.673.485-9.092 5.481-2.804 6.396-3.187 9.126-5.334zm-53.935 0c2.731 2.147 3.647 2.53 9.127 5.334 4.725 2.419 1.473 7.683.485 9.092.055.082.085.128.085.128s-.076.02-.214.05c-.082.114-.131.176-.131.176s-.031-.045-.084-.129c-1.685.343-7.81 1.22-8.139-4.076-.382-6.145-.37-7.137-1.246-10.499-.021-.076.121.097.385.46-.227-.387-.331-.587-.268-.536z" fill="#2748a0"/><g fill="#bb1a1a" transform="translate(11.832 11.818)"><path d="m18.457 0 4.151 2.536-2.537 4.152-4.152-2.538z"/><path d="m51.376 0-4.151 2.536 2.537 4.152 4.153-2.538z"/><path d="m69.832 18.456-2.536 4.152-4.151-2.537 2.538-4.152z"/><path d="m0 18.456 2.537 4.152 4.151-2.538-2.538-4.151z"/></g></g><g transform="translate(665)"><path d="m47.614 0-.0002963.03525926c-.0001481.01140741-.0003704.02540741-.0007037.04174074.596.332 2.686 1.691 1.665 4.013-.1939904.4404416-.3619929 1.61444839-.5092455 3.27774376l2.2242455 2.63525624s3.478 4.196 3.285 6.993c-.192 2.796-.192 3.495 1.739 4.195 1.932.7 2.318 2.796 2.125 5.594-.193 2.799-3.671 5.595-3.671 5.595s1.739-5.498-1.739-8.645c-1.5421071-1.3957888-3.0922746-2.1727-4.6433547-2.3307339-.0122294.3561097-.0234535.7114647-.0345062 1.0661611l-.0201525.6519511 3.5380134 8.2696217s.0275328.0267984.0765988.075562l.1250652.125382c.500736.506016 1.780736 1.845056 2.062336 2.585056.424 1.124-.916-1.306-3.146-.407-2.518 1.013-2.657 8.94-.864 9.146 1.315.152 3.514-2.963 3.514-2.963s.6535284.1437986 1.0544556.6410822c.4973486.4020475.6395444 1.0539178.6395444 1.0539178s-3.113 2.198-2.961 3.513c.205 1.794 8.132 1.655 9.144-.863.899-2.23-1.531-3.571-.406-3.146.925.351 2.787 2.264 2.787 2.264l8.2693944 3.5377985.6515871-.0201642c.3540148-.0110436.7086856-.0222575 1.0634217-.0336542-.1567075-1.5519848-.9341749-3.102819-2.3314032-4.6459801-3.146-3.477-8.644-1.737-8.644-1.737s2.797-3.479 5.596-3.672c2.796-.193 4.893.193 5.593 2.125.699 1.931 1.398 1.931 4.195 1.739 2.796-.192 6.994 3.284 6.994 3.284l2.6347537 2.2259942c1.6636597-.1472082 2.8378809-.3151288 3.2782463-.5089942 2.323-1.02 3.681 1.068 4.014 1.664l.0679259-.000963c.0090741-.000037-.0039259.027963-.0279259.079963.026.048.037.077.037.077h-.077c-.312.605-1.611 2.734-3.963 1.78-.4552063-.1849536-1.6749778-.3447181-3.3991609-.4843771l-2.5648391 2.1653771s-4.198 3.478-6.994 3.285c-2.797-.195-3.496-.195-4.195 1.738-.7 1.932-2.797 2.319-5.593 2.126-2.799-.194-5.596-3.671-5.596-3.671s5.498 1.738 8.644-1.741c1.3628657-1.5043441 2.1360797-3.0163631 2.3196419-4.5295777-.807644-.024197-1.6141202-.0473041-2.4132147-.0696416l-7.5594272 3.1562193s-1.862 2.197-2.787 2.547c-1.125.425 1.305-.913.406-3.145-1.012-2.518-8.939-2.657-9.144-.864-.152 1.315 2.961 3.514 2.961 3.514s-.255 1.17-1.272 1.338c-1.354.227-4.3-7.127-4.324-7.182.0116011-.0270692.7059436-1.7591226 1.5731972-3.5161149-1.7571789.8665736-3.4896433 1.5605133-3.5171972 1.5721149-.026596-.0116055-1.7594719-.7060036-3.51678-1.5734612.8685715 1.7576804 1.5631436 3.4903868 1.57378 3.5174612l-.0198757.0492803c-.2610181.6444338-3.0102576 7.3496308-4.3031243 7.1327197-1.016-.168-1.273-1.338-1.273-1.338s3.114-2.199 2.963-3.514c-.207-1.793-8.133-1.654-9.146.864-.897 2.232 1.533 3.57.408 3.145-.926-.35-2.787-2.547-2.787-2.547l-7.5585675-3.1562799c-.8001506.0223665-1.6077067.0455047-2.4157115.0695505.1828774 1.5133663.955846 3.0253853 2.318279 4.5297294 3.147 3.479 8.644 1.741 8.644 1.741s-2.796 3.477-5.595 3.671c-2.797.193-4.893-.194-5.593-2.126-.7-1.933-1.399-1.933-4.195-1.738-2.798.193-6.993-3.285-6.993-3.285l-2.56485613-2.1653345c-1.72374781.1396489-2.94315074.2993997-3.39814387.4843345-2.352.954-3.652-1.175-3.964-1.78h-.078s.011-.029.039-.077c-.025-.052-.038-.08-.038-.08l.00911111.000037.06888889.000963c.331-.596 1.69-2.684 4.013-1.664.44052885.1938654 1.61488683.361786 3.27865651.5089942l2.63434349-2.2259942s4.195-3.476 6.993-3.284c2.796.192 3.495.192 4.195-1.739.7-1.932 2.796-2.318 5.593-2.125 2.799.193 5.595 3.672 5.595 3.672s-5.497-1.74-8.644 1.737c-1.3967848 1.5431611-2.1740053 3.0939953-2.3316617 4.6455212l.0000077.0003625.5769633.0183834.9780817.0305178c.0547891.0016888.1095558.0033736.164298.0050546l8.268311-3.5378395.0342996-.0349504c.0111947-.0113536.025009-.0253232.0412641-.0416864l.1253883-.1251232c.506048-.50096 1.845248-1.78144 2.586048-2.06224 1.125-.425-1.305.916-.408 3.146 1.013 2.518 8.939 2.657 9.146.863.151-1.315-2.963-3.513-2.963-3.513s.143888-.6544944.6419647-1.055252c.4017973-.4963305 1.0530353-.639748 1.0530353-.639748s2.199 3.115 3.515 2.963c1.793-.206 1.653-8.133-.865-9.146-2.23-.899-3.57 1.531-3.144.407.349-.925 2.547-2.786 2.547-2.786l3.1565638-7.5604966c-.0223349-.7995232-.0454411-1.6064334-.0694549-2.4137917-1.5145523.1818864-3.0276714.9546899-4.5331089 2.3172883-3.477 3.147-1.739 8.645-1.739 8.645s-3.478-2.796-3.671-5.595c-.193-2.798.193-4.894 2.125-5.594 1.933-.7 1.933-1.399 1.739-4.195-.193-2.797 3.285-6.993 3.285-6.993l2.166562-2.56591021c-.1396899-1.72308604-.2995132-2.94206007-.484562-3.39708979-.954-2.351 1.173-3.65 1.78-3.963l.0007037-.04262963.0002963-.03437037s.028.012.076.038c.052-.025.079-.038.079-.038zm26.623 15.761c.064-.051-.04.149-.267.536.263-.363.405-.536.386-.46-.878 3.362-.865 4.354-1.247 10.499-.33 5.296-6.454 4.419-8.139 4.076-.054.084-.084.129-.084.129s-.049-.062-.132-.176c-.136-.03-.213-.05-.213-.05s.03-.046.085-.128c-.988-1.409-4.24-6.673.485-9.092 5.481-2.804 6.396-3.187 9.126-5.334zm-53.935 0c2.731 2.147 3.647 2.53 9.127 5.334 4.725 2.419 1.473 7.683.485 9.092.055.082.085.128.085.128s-.076.02-.214.05c-.082.114-.131.176-.131.176s-.031-.045-.084-.129c-1.685.343-7.81 1.22-8.139-4.076-.382-6.145-.37-7.137-1.246-10.499-.021-.076.121.097.385.46-.227-.387-.331-.587-.268-.536z" fill="#2748a0"/><g fill="#bb1a1a" transform="translate(11.832 11.818)"><path d="m18.457 0 4.151 2.536-2.537 4.152-4.152-2.538z"/><path d="m51.376 0-4.151 2.536 2.537 4.152 4.153-2.538z"/><path d="m69.832 18.456-2.536 4.152-4.151-2.537 2.538-4.152z"/><path d="m0 18.456 2.537 4.152 4.151-2.538-2.538-4.151z"/></g></g><g transform="translate(760)"><path d="m47.614 0-.0002963.03525926c-.0001481.01140741-.0003704.02540741-.0007037.04174074.596.332 2.686 1.691 1.665 4.013-.1939904.4404416-.3619929 1.61444839-.5092455 3.27774376l2.2242455 2.63525624s3.478 4.196 3.285 6.993c-.192 2.796-.192 3.495 1.739 4.195 1.932.7 2.318 2.796 2.125 5.594-.193 2.799-3.671 5.595-3.671 5.595s1.739-5.498-1.739-8.645c-1.5421071-1.3957888-3.0922746-2.1727-4.6433547-2.3307339-.0122294.3561097-.0234535.7114647-.0345062 1.0661611l-.0201525.6519511 3.5380134 8.2696217s.0275328.0267984.0765988.075562l.1250652.125382c.500736.506016 1.780736 1.845056 2.062336 2.585056.424 1.124-.916-1.306-3.146-.407-2.518 1.013-2.657 8.94-.864 9.146 1.315.152 3.514-2.963 3.514-2.963s.6535284.1437986 1.0544556.6410822c.4973486.4020475.6395444 1.0539178.6395444 1.0539178s-3.113 2.198-2.961 3.513c.205 1.794 8.132 1.655 9.144-.863.899-2.23-1.531-3.571-.406-3.146.925.351 2.787 2.264 2.787 2.264l8.2693944 3.5377985.6515871-.0201642c.3540148-.0110436.7086856-.0222575 1.0634217-.0336542-.1567075-1.5519848-.9341749-3.102819-2.3314032-4.6459801-3.146-3.477-8.644-1.737-8.644-1.737s2.797-3.479 5.596-3.672c2.796-.193 4.893.193 5.593 2.125.699 1.931 1.398 1.931 4.195 1.739 2.796-.192 6.994 3.284 6.994 3.284l2.6347537 2.2259942c1.6636597-.1472082 2.8378809-.3151288 3.2782463-.5089942 2.323-1.02 3.681 1.068 4.014 1.664l.0679259-.000963c.0090741-.000037-.0039259.027963-.0279259.079963.026.048.037.077.037.077h-.077c-.312.605-1.611 2.734-3.963 1.78-.4552063-.1849536-1.6749778-.3447181-3.3991609-.4843771l-2.5648391 2.1653771s-4.198 3.478-6.994 3.285c-2.797-.195-3.496-.195-4.195 1.738-.7 1.932-2.797 2.319-5.593 2.126-2.799-.194-5.596-3.671-5.596-3.671s5.498 1.738 8.644-1.741c1.3628657-1.5043441 2.1360797-3.0163631 2.3196419-4.5295777-.807644-.024197-1.6141202-.0473041-2.4132147-.0696416l-7.5594272 3.1562193s-1.862 2.197-2.787 2.547c-1.125.425 1.305-.913.406-3.145-1.012-2.518-8.939-2.657-9.144-.864-.152 1.315 2.961 3.514 2.961 3.514s-.255 1.17-1.272 1.338c-1.354.227-4.3-7.127-4.324-7.182.0116011-.0270692.7059436-1.7591226 1.5731972-3.5161149-1.7571789.8665736-3.4896433 1.5605133-3.5171972 1.5721149-.026596-.0116055-1.7594719-.7060036-3.51678-1.5734612.8685715 1.7576804 1.5631436 3.4903868 1.57378 3.5174612l-.0198757.0492803c-.2610181.6444338-3.0102576 7.3496308-4.3031243 7.1327197-1.016-.168-1.273-1.338-1.273-1.338s3.114-2.199 2.963-3.514c-.207-1.793-8.133-1.654-9.146.864-.897 2.232 1.533 3.57.408 3.145-.926-.35-2.787-2.547-2.787-2.547l-7.5585675-3.1562799c-.8001506.0223665-1.6077067.0455047-2.4157115.0695505.1828774 1.5133663.955846 3.0253853 2.318279 4.5297294 3.147 3.479 8.644 1.741 8.644 1.741s-2.796 3.477-5.595 3.671c-2.797.193-4.893-.194-5.593-2.126-.7-1.933-1.399-1.933-4.195-1.738-2.798.193-6.993-3.285-6.993-3.285l-2.56485613-2.1653345c-1.72374781.1396489-2.94315074.2993997-3.39814387.4843345-2.352.954-3.652-1.175-3.964-1.78h-.078s.011-.029.039-.077c-.025-.052-.038-.08-.038-.08l.00911111.000037.06888889.000963c.331-.596 1.69-2.684 4.013-1.664.44052885.1938654 1.61488683.361786 3.27865651.5089942l2.63434349-2.2259942s4.195-3.476 6.993-3.284c2.796.192 3.495.192 4.195-1.739.7-1.932 2.796-2.318 5.593-2.125 2.799.193 5.595 3.672 5.595 3.672s-5.497-1.74-8.644 1.737c-1.3967848 1.5431611-2.1740053 3.0939953-2.3316617 4.6455212l.0000077.0003625.5769633.0183834.9780817.0305178c.0547891.0016888.1095558.0033736.164298.0050546l8.268311-3.5378395.0342996-.0349504c.0111947-.0113536.025009-.0253232.0412641-.0416864l.1253883-.1251232c.506048-.50096 1.845248-1.78144 2.586048-2.06224 1.125-.425-1.305.916-.408 3.146 1.013 2.518 8.939 2.657 9.146.863.151-1.315-2.963-3.513-2.963-3.513s.143888-.6544944.6419647-1.055252c.4017973-.4963305 1.0530353-.639748 1.0530353-.639748s2.199 3.115 3.515 2.963c1.793-.206 1.653-8.133-.865-9.146-2.23-.899-3.57 1.531-3.144.407.349-.925 2.547-2.786 2.547-2.786l3.1565638-7.5604966c-.0223349-.7995232-.0454411-1.6064334-.0694549-2.4137917-1.5145523.1818864-3.0276714.9546899-4.5331089 2.3172883-3.477 3.147-1.739 8.645-1.739 8.645s-3.478-2.796-3.671-5.595c-.193-2.798.193-4.894 2.125-5.594 1.933-.7 1.933-1.399 1.739-4.195-.193-2.797 3.285-6.993 3.285-6.993l2.166562-2.56591021c-.1396899-1.72308604-.2995132-2.94206007-.484562-3.39708979-.954-2.351 1.173-3.65 1.78-3.963l.0007037-.04262963.0002963-.03437037s.028.012.076.038c.052-.025.079-.038.079-.038zm26.623 15.761c.064-.051-.04.149-.267.536.263-.363.405-.536.386-.46-.878 3.362-.865 4.354-1.247 10.499-.33 5.296-6.454 4.419-8.139 4.076-.054.084-.084.129-.084.129s-.049-.062-.132-.176c-.136-.03-.213-.05-.213-.05s.03-.046.085-.128c-.988-1.409-4.24-6.673.485-9.092 5.481-2.804 6.396-3.187 9.126-5.334zm-53.935 0c2.731 2.147 3.647 2.53 9.127 5.334 4.725 2.419 1.473 7.683.485 9.092.055.082.085.128.085.128s-.076.02-.214.05c-.082.114-.131.176-.131.176s-.031-.045-.084-.129c-1.685.343-7.81 1.22-8.139-4.076-.382-6.145-.37-7.137-1.246-10.499-.021-.076.121.097.385.46-.227-.387-.331-.587-.268-.536z" fill="#2748a0"/><g fill="#bb1a1a" transform="translate(11.832 11.818)"><path d="m18.457 0 4.151 2.536-2.537 4.152-4.152-2.538z"/><path d="m51.376 0-4.151 2.536 2.537 4.152 4.153-2.538z"/><path d="m69.832 18.456-2.536 4.152-4.151-2.537 2.538-4.152z"/><path d="m0 18.456 2.537 4.152 4.151-2.538-2.538-4.151z"/></g></g><g transform="translate(855)"><path d="m47.614 0-.0002963.03525926c-.0001481.01140741-.0003704.02540741-.0007037.04174074.596.332 2.686 1.691 1.665 4.013-.1939904.4404416-.3619929 1.61444839-.5092455 3.27774376l2.2242455 2.63525624s3.478 4.196 3.285 6.993c-.192 2.796-.192 3.495 1.739 4.195 1.932.7 2.318 2.796 2.125 5.594-.193 2.799-3.671 5.595-3.671 5.595s1.739-5.498-1.739-8.645c-1.5421071-1.3957888-3.0922746-2.1727-4.6433547-2.3307339-.0122294.3561097-.0234535.7114647-.0345062 1.0661611l-.0201525.6519511 3.5380134 8.2696217s.0275328.0267984.0765988.075562l.1250652.125382c.500736.506016 1.780736 1.845056 2.062336 2.585056.424 1.124-.916-1.306-3.146-.407-2.518 1.013-2.657 8.94-.864 9.146 1.315.152 3.514-2.963 3.514-2.963s.6535284.1437986 1.0544556.6410822c.4973486.4020475.6395444 1.0539178.6395444 1.0539178s-3.113 2.198-2.961 3.513c.205 1.794 8.132 1.655 9.144-.863.899-2.23-1.531-3.571-.406-3.146.925.351 2.787 2.264 2.787 2.264l8.2693944 3.5377985.6515871-.0201642c.3540148-.0110436.7086856-.0222575 1.0634217-.0336542-.1567075-1.5519848-.9341749-3.102819-2.3314032-4.6459801-3.146-3.477-8.644-1.737-8.644-1.737s2.797-3.479 5.596-3.672c2.796-.193 4.893.193 5.593 2.125.699 1.931 1.398 1.931 4.195 1.739 2.796-.192 6.994 3.284 6.994 3.284l2.6347537 2.2259942c1.6636597-.1472082 2.8378809-.3151288 3.2782463-.5089942 2.323-1.02 3.681 1.068 4.014 1.664l.0679259-.000963c.0090741-.000037-.0039259.027963-.0279259.079963.026.048.037.077.037.077h-.077c-.312.605-1.611 2.734-3.963 1.78-.4552063-.1849536-1.6749778-.3447181-3.3991609-.4843771l-2.5648391 2.1653771s-4.198 3.478-6.994 3.285c-2.797-.195-3.496-.195-4.195 1.738-.7 1.932-2.797 2.319-5.593 2.126-2.799-.194-5.596-3.671-5.596-3.671s5.498 1.738 8.644-1.741c1.3628657-1.5043441 2.1360797-3.0163631 2.3196419-4.5295777-.807644-.024197-1.6141202-.0473041-2.4132147-.0696416l-7.5594272 3.1562193s-1.862 2.197-2.787 2.547c-1.125.425 1.305-.913.406-3.145-1.012-2.518-8.939-2.657-9.144-.864-.152 1.315 2.961 3.514 2.961 3.514s-.255 1.17-1.272 1.338c-1.354.227-4.3-7.127-4.324-7.182.0116011-.0270692.7059436-1.7591226 1.5731972-3.5161149-1.7571789.8665736-3.4896433 1.5605133-3.5171972 1.5721149-.026596-.0116055-1.7594719-.7060036-3.51678-1.5734612.8685715 1.7576804 1.5631436 3.4903868 1.57378 3.5174612l-.0198757.0492803c-.2610181.6444338-3.0102576 7.3496308-4.3031243 7.1327197-1.016-.168-1.273-1.338-1.273-1.338s3.114-2.199 2.963-3.514c-.207-1.793-8.133-1.654-9.146.864-.897 2.232 1.533 3.57.408 3.145-.926-.35-2.787-2.547-2.787-2.547l-7.5585675-3.1562799c-.8001506.0223665-1.6077067.0455047-2.4157115.0695505.1828774 1.5133663.955846 3.0253853 2.318279 4.5297294 3.147 3.479 8.644 1.741 8.644 1.741s-2.796 3.477-5.595 3.671c-2.797.193-4.893-.194-5.593-2.126-.7-1.933-1.399-1.933-4.195-1.738-2.798.193-6.993-3.285-6.993-3.285l-2.56485613-2.1653345c-1.72374781.1396489-2.94315074.2993997-3.39814387.4843345-2.352.954-3.652-1.175-3.964-1.78h-.078s.011-.029.039-.077c-.025-.052-.038-.08-.038-.08l.00911111.000037.06888889.000963c.331-.596 1.69-2.684 4.013-1.664.44052885.1938654 1.61488683.361786 3.27865651.5089942l2.63434349-2.2259942s4.195-3.476 6.993-3.284c2.796.192 3.495.192 4.195-1.739.7-1.932 2.796-2.318 5.593-2.125 2.799.193 5.595 3.672 5.595 3.672s-5.497-1.74-8.644 1.737c-1.3967848 1.5431611-2.1740053 3.0939953-2.3316617 4.6455212l.0000077.0003625.5769633.0183834.9780817.0305178c.0547891.0016888.1095558.0033736.164298.0050546l8.268311-3.5378395.0342996-.0349504c.0111947-.0113536.025009-.0253232.0412641-.0416864l.1253883-.1251232c.506048-.50096 1.845248-1.78144 2.586048-2.06224 1.125-.425-1.305.916-.408 3.146 1.013 2.518 8.939 2.657 9.146.863.151-1.315-2.963-3.513-2.963-3.513s.143888-.6544944.6419647-1.055252c.4017973-.4963305 1.0530353-.639748 1.0530353-.639748s2.199 3.115 3.515 2.963c1.793-.206 1.653-8.133-.865-9.146-2.23-.899-3.57 1.531-3.144.407.349-.925 2.547-2.786 2.547-2.786l3.1565638-7.5604966c-.0223349-.7995232-.0454411-1.6064334-.0694549-2.4137917-1.5145523.1818864-3.0276714.9546899-4.5331089 2.3172883-3.477 3.147-1.739 8.645-1.739 8.645s-3.478-2.796-3.671-5.595c-.193-2.798.193-4.894 2.125-5.594 1.933-.7 1.933-1.399 1.739-4.195-.193-2.797 3.285-6.993 3.285-6.993l2.166562-2.56591021c-.1396899-1.72308604-.2995132-2.94206007-.484562-3.39708979-.954-2.351 1.173-3.65 1.78-3.963l.0007037-.04262963.0002963-.03437037s.028.012.076.038c.052-.025.079-.038.079-.038zm26.623 15.761c.064-.051-.04.149-.267.536.263-.363.405-.536.386-.46-.878 3.362-.865 4.354-1.247 10.499-.33 5.296-6.454 4.419-8.139 4.076-.054.084-.084.129-.084.129s-.049-.062-.132-.176c-.136-.03-.213-.05-.213-.05s.03-.046.085-.128c-.988-1.409-4.24-6.673.485-9.092 5.481-2.804 6.396-3.187 9.126-5.334zm-53.935 0c2.731 2.147 3.647 2.53 9.127 5.334 4.725 2.419 1.473 7.683.485 9.092.055.082.085.128.085.128s-.076.02-.214.05c-.082.114-.131.176-.131.176s-.031-.045-.084-.129c-1.685.343-7.81 1.22-8.139-4.076-.382-6.145-.37-7.137-1.246-10.499-.021-.076.121.097.385.46-.227-.387-.331-.587-.268-.536z" fill="#2748a0"/><g fill="#bb1a1a" transform="translate(11.832 11.818)"><path d="m18.457 0 4.151 2.536-2.537 4.152-4.152-2.538z"/><path d="m51.376 0-4.151 2.536 2.537 4.152 4.153-2.538z"/><path d="m69.832 18.456-2.536 4.152-4.151-2.537 2.538-4.152z"/><path d="m0 18.456 2.537 4.152 4.151-2.538-2.538-4.151z"/></g></g><g transform="translate(950)"><path d="m47.614 0-.0002963.03525926c-.0001481.01140741-.0003704.02540741-.0007037.04174074.596.332 2.686 1.691 1.665 4.013-.1939904.4404416-.3619929 1.61444839-.5092455 3.27774376l2.2242455 2.63525624s3.478 4.196 3.285 6.993c-.192 2.796-.192 3.495 1.739 4.195 1.932.7 2.318 2.796 2.125 5.594-.193 2.799-3.671 5.595-3.671 5.595s1.739-5.498-1.739-8.645c-1.5421071-1.3957888-3.0922746-2.1727-4.6433547-2.3307339-.0122294.3561097-.0234535.7114647-.0345062 1.0661611l-.0201525.6519511 3.5380134 8.2696217s.0275328.0267984.0765988.075562l.1250652.125382c.500736.506016 1.780736 1.845056 2.062336 2.585056.424 1.124-.916-1.306-3.146-.407-2.518 1.013-2.657 8.94-.864 9.146 1.315.152 3.514-2.963 3.514-2.963s.6535284.1437986 1.0544556.6410822c.4973486.4020475.6395444 1.0539178.6395444 1.0539178s-3.113 2.198-2.961 3.513c.205 1.794 8.132 1.655 9.144-.863.899-2.23-1.531-3.571-.406-3.146.925.351 2.787 2.264 2.787 2.264l8.2693944 3.5377985.6515871-.0201642c.3540148-.0110436.7086856-.0222575 1.0634217-.0336542-.1567075-1.5519848-.9341749-3.102819-2.3314032-4.6459801-3.146-3.477-8.644-1.737-8.644-1.737s2.797-3.479 5.596-3.672c2.796-.193 4.893.193 5.593 2.125.699 1.931 1.398 1.931 4.195 1.739 2.796-.192 6.994 3.284 6.994 3.284l2.6347537 2.2259942c1.6636597-.1472082 2.8378809-.3151288 3.2782463-.5089942 2.323-1.02 3.681 1.068 4.014 1.664l.0679259-.000963c.0090741-.000037-.0039259.027963-.0279259.079963.026.048.037.077.037.077h-.077c-.312.605-1.611 2.734-3.963 1.78-.4552063-.1849536-1.6749778-.3447181-3.3991609-.4843771l-2.5648391 2.1653771s-4.198 3.478-6.994 3.285c-2.797-.195-3.496-.195-4.195 1.738-.7 1.932-2.797 2.319-5.593 2.126-2.799-.194-5.596-3.671-5.596-3.671s5.498 1.738 8.644-1.741c1.3628657-1.5043441 2.1360797-3.0163631 2.3196419-4.5295777-.807644-.024197-1.6141202-.0473041-2.4132147-.0696416l-7.5594272 3.1562193s-1.862 2.197-2.787 2.547c-1.125.425 1.305-.913.406-3.145-1.012-2.518-8.939-2.657-9.144-.864-.152 1.315 2.961 3.514 2.961 3.514s-.255 1.17-1.272 1.338c-1.354.227-4.3-7.127-4.324-7.182.0116011-.0270692.7059436-1.7591226 1.5731972-3.5161149-1.7571789.8665736-3.4896433 1.5605133-3.5171972 1.5721149-.026596-.0116055-1.7594719-.7060036-3.51678-1.5734612.8685715 1.7576804 1.5631436 3.4903868 1.57378 3.5174612l-.0198757.0492803c-.2610181.6444338-3.0102576 7.3496308-4.3031243 7.1327197-1.016-.168-1.273-1.338-1.273-1.338s3.114-2.199 2.963-3.514c-.207-1.793-8.133-1.654-9.146.864-.897 2.232 1.533 3.57.408 3.145-.926-.35-2.787-2.547-2.787-2.547l-7.5585675-3.1562799c-.8001506.0223665-1.6077067.0455047-2.4157115.0695505.1828774 1.5133663.955846 3.0253853 2.318279 4.5297294 3.147 3.479 8.644 1.741 8.644 1.741s-2.796 3.477-5.595 3.671c-2.797.193-4.893-.194-5.593-2.126-.7-1.933-1.399-1.933-4.195-1.738-2.798.193-6.993-3.285-6.993-3.285l-2.56485613-2.1653345c-1.72374781.1396489-2.94315074.2993997-3.39814387.4843345-2.352.954-3.652-1.175-3.964-1.78h-.078s.011-.029.039-.077c-.025-.052-.038-.08-.038-.08l.00911111.000037.06888889.000963c.331-.596 1.69-2.684 4.013-1.664.44052885.1938654 1.61488683.361786 3.27865651.5089942l2.63434349-2.2259942s4.195-3.476 6.993-3.284c2.796.192 3.495.192 4.195-1.739.7-1.932 2.796-2.318 5.593-2.125 2.799.193 5.595 3.672 5.595 3.672s-5.497-1.74-8.644 1.737c-1.3967848 1.5431611-2.1740053 3.0939953-2.3316617 4.6455212l.0000077.0003625.5769633.0183834.9780817.0305178c.0547891.0016888.1095558.0033736.164298.0050546l8.268311-3.5378395.0342996-.0349504c.0111947-.0113536.025009-.0253232.0412641-.0416864l.1253883-.1251232c.506048-.50096 1.845248-1.78144 2.586048-2.06224 1.125-.425-1.305.916-.408 3.146 1.013 2.518 8.939 2.657 9.146.863.151-1.315-2.963-3.513-2.963-3.513s.143888-.6544944.6419647-1.055252c.4017973-.4963305 1.0530353-.639748 1.0530353-.639748s2.199 3.115 3.515 2.963c1.793-.206 1.653-8.133-.865-9.146-2.23-.899-3.57 1.531-3.144.407.349-.925 2.547-2.786 2.547-2.786l3.1565638-7.5604966c-.0223349-.7995232-.0454411-1.6064334-.0694549-2.4137917-1.5145523.1818864-3.0276714.9546899-4.5331089 2.3172883-3.477 3.147-1.739 8.645-1.739 8.645s-3.478-2.796-3.671-5.595c-.193-2.798.193-4.894 2.125-5.594 1.933-.7 1.933-1.399 1.739-4.195-.193-2.797 3.285-6.993 3.285-6.993l2.166562-2.56591021c-.1396899-1.72308604-.2995132-2.94206007-.484562-3.39708979-.954-2.351 1.173-3.65 1.78-3.963l.0007037-.04262963.0002963-.03437037s.028.012.076.038c.052-.025.079-.038.079-.038zm26.623 15.761c.064-.051-.04.149-.267.536.263-.363.405-.536.386-.46-.878 3.362-.865 4.354-1.247 10.499-.33 5.296-6.454 4.419-8.139 4.076-.054.084-.084.129-.084.129s-.049-.062-.132-.176c-.136-.03-.213-.05-.213-.05s.03-.046.085-.128c-.988-1.409-4.24-6.673.485-9.092 5.481-2.804 6.396-3.187 9.126-5.334zm-53.935 0c2.731 2.147 3.647 2.53 9.127 5.334 4.725 2.419 1.473 7.683.485 9.092.055.082.085.128.085.128s-.076.02-.214.05c-.082.114-.131.176-.131.176s-.031-.045-.084-.129c-1.685.343-7.81 1.22-8.139-4.076-.382-6.145-.37-7.137-1.246-10.499-.021-.076.121.097.385.46-.227-.387-.331-.587-.268-.536z" fill="#2748a0"/><g fill="#bb1a1a" transform="translate(11.832 11.818)"><path d="m18.457 0 4.151 2.536-2.537 4.152-4.152-2.538z"/><path d="m51.376 0-4.151 2.536 2.537 4.152 4.153-2.538z"/><path d="m69.832 18.456-2.536 4.152-4.151-2.537 2.538-4.152z"/><path d="m0 18.456 2.537 4.152 4.151-2.538-2.538-4.151z"/></g></g><g transform="translate(1045)"><path d="m47.614 0-.0002963.03525926c-.0001481.01140741-.0003704.02540741-.0007037.04174074.596.332 2.686 1.691 1.665 4.013-.1939904.4404416-.3619929 1.61444839-.5092455 3.27774376l2.2242455 2.63525624s3.478 4.196 3.285 6.993c-.192 2.796-.192 3.495 1.739 4.195 1.932.7 2.318 2.796 2.125 5.594-.193 2.799-3.671 5.595-3.671 5.595s1.739-5.498-1.739-8.645c-1.5421071-1.3957888-3.0922746-2.1727-4.6433547-2.3307339-.0122294.3561097-.0234535.7114647-.0345062 1.0661611l-.0201525.6519511 3.5380134 8.2696217s.0275328.0267984.0765988.075562l.1250652.125382c.500736.506016 1.780736 1.845056 2.062336 2.585056.424 1.124-.916-1.306-3.146-.407-2.518 1.013-2.657 8.94-.864 9.146 1.315.152 3.514-2.963 3.514-2.963s.6535284.1437986 1.0544556.6410822c.4973486.4020475.6395444 1.0539178.6395444 1.0539178s-3.113 2.198-2.961 3.513c.205 1.794 8.132 1.655 9.144-.863.899-2.23-1.531-3.571-.406-3.146.925.351 2.787 2.264 2.787 2.264l8.2693944 3.5377985.6515871-.0201642c.3540148-.0110436.7086856-.0222575 1.0634217-.0336542-.1567075-1.5519848-.9341749-3.102819-2.3314032-4.6459801-3.146-3.477-8.644-1.737-8.644-1.737s2.797-3.479 5.596-3.672c2.796-.193 4.893.193 5.593 2.125.699 1.931 1.398 1.931 4.195 1.739 2.796-.192 6.994 3.284 6.994 3.284l2.6347537 2.2259942c1.6636597-.1472082 2.8378809-.3151288 3.2782463-.5089942 2.323-1.02 3.681 1.068 4.014 1.664l.0679259-.000963c.0090741-.000037-.0039259.027963-.0279259.079963.026.048.037.077.037.077h-.077c-.312.605-1.611 2.734-3.963 1.78-.4552063-.1849536-1.6749778-.3447181-3.3991609-.4843771l-2.5648391 2.1653771s-4.198 3.478-6.994 3.285c-2.797-.195-3.496-.195-4.195 1.738-.7 1.932-2.797 2.319-5.593 2.126-2.799-.194-5.596-3.671-5.596-3.671s5.498 1.738 8.644-1.741c1.3628657-1.5043441 2.1360797-3.0163631 2.3196419-4.5295777-.807644-.024197-1.6141202-.0473041-2.4132147-.0696416l-7.5594272 3.1562193s-1.862 2.197-2.787 2.547c-1.125.425 1.305-.913.406-3.145-1.012-2.518-8.939-2.657-9.144-.864-.152 1.315 2.961 3.514 2.961 3.514s-.255 1.17-1.272 1.338c-1.354.227-4.3-7.127-4.324-7.182.0116011-.0270692.7059436-1.7591226 1.5731972-3.5161149-1.7571789.8665736-3.4896433 1.5605133-3.5171972 1.5721149-.026596-.0116055-1.7594719-.7060036-3.51678-1.5734612.8685715 1.7576804 1.5631436 3.4903868 1.57378 3.5174612l-.0198757.0492803c-.2610181.6444338-3.0102576 7.3496308-4.3031243 7.1327197-1.016-.168-1.273-1.338-1.273-1.338s3.114-2.199 2.963-3.514c-.207-1.793-8.133-1.654-9.146.864-.897 2.232 1.533 3.57.408 3.145-.926-.35-2.787-2.547-2.787-2.547l-7.5585675-3.1562799c-.8001506.0223665-1.6077067.0455047-2.4157115.0695505.1828774 1.5133663.955846 3.0253853 2.318279 4.5297294 3.147 3.479 8.644 1.741 8.644 1.741s-2.796 3.477-5.595 3.671c-2.797.193-4.893-.194-5.593-2.126-.7-1.933-1.399-1.933-4.195-1.738-2.798.193-6.993-3.285-6.993-3.285l-2.56485613-2.1653345c-1.72374781.1396489-2.94315074.2993997-3.39814387.4843345-2.352.954-3.652-1.175-3.964-1.78h-.078s.011-.029.039-.077c-.025-.052-.038-.08-.038-.08l.00911111.000037.06888889.000963c.331-.596 1.69-2.684 4.013-1.664.44052885.1938654 1.61488683.361786 3.27865651.5089942l2.63434349-2.2259942s4.195-3.476 6.993-3.284c2.796.192 3.495.192 4.195-1.739.7-1.932 2.796-2.318 5.593-2.125 2.799.193 5.595 3.672 5.595 3.672s-5.497-1.74-8.644 1.737c-1.3967848 1.5431611-2.1740053 3.0939953-2.3316617 4.6455212l.0000077.0003625.5769633.0183834.9780817.0305178c.0547891.0016888.1095558.0033736.164298.0050546l8.268311-3.5378395.0342996-.0349504c.0111947-.0113536.025009-.0253232.0412641-.0416864l.1253883-.1251232c.506048-.50096 1.845248-1.78144 2.586048-2.06224 1.125-.425-1.305.916-.408 3.146 1.013 2.518 8.939 2.657 9.146.863.151-1.315-2.963-3.513-2.963-3.513s.143888-.6544944.6419647-1.055252c.4017973-.4963305 1.0530353-.639748 1.0530353-.639748s2.199 3.115 3.515 2.963c1.793-.206 1.653-8.133-.865-9.146-2.23-.899-3.57 1.531-3.144.407.349-.925 2.547-2.786 2.547-2.786l3.1565638-7.5604966c-.0223349-.7995232-.0454411-1.6064334-.0694549-2.4137917-1.5145523.1818864-3.0276714.9546899-4.5331089 2.3172883-3.477 3.147-1.739 8.645-1.739 8.645s-3.478-2.796-3.671-5.595c-.193-2.798.193-4.894 2.125-5.594 1.933-.7 1.933-1.399 1.739-4.195-.193-2.797 3.285-6.993 3.285-6.993l2.166562-2.56591021c-.1396899-1.72308604-.2995132-2.94206007-.484562-3.39708979-.954-2.351 1.173-3.65 1.78-3.963l.0007037-.04262963.0002963-.03437037s.028.012.076.038c.052-.025.079-.038.079-.038zm26.623 15.761c.064-.051-.04.149-.267.536.263-.363.405-.536.386-.46-.878 3.362-.865 4.354-1.247 10.499-.33 5.296-6.454 4.419-8.139 4.076-.054.084-.084.129-.084.129s-.049-.062-.132-.176c-.136-.03-.213-.05-.213-.05s.03-.046.085-.128c-.988-1.409-4.24-6.673.485-9.092 5.481-2.804 6.396-3.187 9.126-5.334zm-53.935 0c2.731 2.147 3.647 2.53 9.127 5.334 4.725 2.419 1.473 7.683.485 9.092.055.082.085.128.085.128s-.076.02-.214.05c-.082.114-.131.176-.131.176s-.031-.045-.084-.129c-1.685.343-7.81 1.22-8.139-4.076-.382-6.145-.37-7.137-1.246-10.499-.021-.076.121.097.385.46-.227-.387-.331-.587-.268-.536z" fill="#2748a0"/><g fill="#bb1a1a" transform="translate(11.832 11.818)"><path d="m18.457 0 4.151 2.536-2.537 4.152-4.152-2.538z"/><path d="m51.376 0-4.151 2.536 2.537 4.152 4.153-2.538z"/><path d="m69.832 18.456-2.536 4.152-4.151-2.537 2.538-4.152z"/><path d="m0 18.456 2.537 4.152 4.151-2.538-2.538-4.151z"/></g></g><g transform="translate(1140)"><path d="m47.614 0-.0002963.03525926c-.0001481.01140741-.0003704.02540741-.0007037.04174074.596.332 2.686 1.691 1.665 4.013-.1939904.4404416-.3619929 1.61444839-.5092455 3.27774376l2.2242455 2.63525624s3.478 4.196 3.285 6.993c-.192 2.796-.192 3.495 1.739 4.195 1.932.7 2.318 2.796 2.125 5.594-.193 2.799-3.671 5.595-3.671 5.595s1.739-5.498-1.739-8.645c-1.5421071-1.3957888-3.0922746-2.1727-4.6433547-2.3307339-.0122294.3561097-.0234535.7114647-.0345062 1.0661611l-.0201525.6519511 3.5380134 8.2696217s.0275328.0267984.0765988.075562l.1250652.125382c.500736.506016 1.780736 1.845056 2.062336 2.585056.424 1.124-.916-1.306-3.146-.407-2.518 1.013-2.657 8.94-.864 9.146 1.315.152 3.514-2.963 3.514-2.963s.6535284.1437986 1.0544556.6410822c.4973486.4020475.6395444 1.0539178.6395444 1.0539178s-3.113 2.198-2.961 3.513c.205 1.794 8.132 1.655 9.144-.863.899-2.23-1.531-3.571-.406-3.146.925.351 2.787 2.264 2.787 2.264l8.2693944 3.5377985.6515871-.0201642c.3540148-.0110436.7086856-.0222575 1.0634217-.0336542-.1567075-1.5519848-.9341749-3.102819-2.3314032-4.6459801-3.146-3.477-8.644-1.737-8.644-1.737s2.797-3.479 5.596-3.672c2.796-.193 4.893.193 5.593 2.125.699 1.931 1.398 1.931 4.195 1.739 2.796-.192 6.994 3.284 6.994 3.284l2.6347537 2.2259942c1.6636597-.1472082 2.8378809-.3151288 3.2782463-.5089942 2.323-1.02 3.681 1.068 4.014 1.664l.0679259-.000963c.0090741-.000037-.0039259.027963-.0279259.079963.026.048.037.077.037.077h-.077c-.312.605-1.611 2.734-3.963 1.78-.4552063-.1849536-1.6749778-.3447181-3.3991609-.4843771l-2.5648391 2.1653771s-4.198 3.478-6.994 3.285c-2.797-.195-3.496-.195-4.195 1.738-.7 1.932-2.797 2.319-5.593 2.126-2.799-.194-5.596-3.671-5.596-3.671s5.498 1.738 8.644-1.741c1.3628657-1.5043441 2.1360797-3.0163631 2.3196419-4.5295777-.807644-.024197-1.6141202-.0473041-2.4132147-.0696416l-7.5594272 3.1562193s-1.862 2.197-2.787 2.547c-1.125.425 1.305-.913.406-3.145-1.012-2.518-8.939-2.657-9.144-.864-.152 1.315 2.961 3.514 2.961 3.514s-.255 1.17-1.272 1.338c-1.354.227-4.3-7.127-4.324-7.182.0116011-.0270692.7059436-1.7591226 1.5731972-3.5161149-1.7571789.8665736-3.4896433 1.5605133-3.5171972 1.5721149-.026596-.0116055-1.7594719-.7060036-3.51678-1.5734612.8685715 1.7576804 1.5631436 3.4903868 1.57378 3.5174612l-.0198757.0492803c-.2610181.6444338-3.0102576 7.3496308-4.3031243 7.1327197-1.016-.168-1.273-1.338-1.273-1.338s3.114-2.199 2.963-3.514c-.207-1.793-8.133-1.654-9.146.864-.897 2.232 1.533 3.57.408 3.145-.926-.35-2.787-2.547-2.787-2.547l-7.5585675-3.1562799c-.8001506.0223665-1.6077067.0455047-2.4157115.0695505.1828774 1.5133663.955846 3.0253853 2.318279 4.5297294 3.147 3.479 8.644 1.741 8.644 1.741s-2.796 3.477-5.595 3.671c-2.797.193-4.893-.194-5.593-2.126-.7-1.933-1.399-1.933-4.195-1.738-2.798.193-6.993-3.285-6.993-3.285l-2.56485613-2.1653345c-1.72374781.1396489-2.94315074.2993997-3.39814387.4843345-2.352.954-3.652-1.175-3.964-1.78h-.078s.011-.029.039-.077c-.025-.052-.038-.08-.038-.08l.00911111.000037.06888889.000963c.331-.596 1.69-2.684 4.013-1.664.44052885.1938654 1.61488683.361786 3.27865651.5089942l2.63434349-2.2259942s4.195-3.476 6.993-3.284c2.796.192 3.495.192 4.195-1.739.7-1.932 2.796-2.318 5.593-2.125 2.799.193 5.595 3.672 5.595 3.672s-5.497-1.74-8.644 1.737c-1.3967848 1.5431611-2.1740053 3.0939953-2.3316617 4.6455212l.0000077.0003625.5769633.0183834.9780817.0305178c.0547891.0016888.1095558.0033736.164298.0050546l8.268311-3.5378395.0342996-.0349504c.0111947-.0113536.025009-.0253232.0412641-.0416864l.1253883-.1251232c.506048-.50096 1.845248-1.78144 2.586048-2.06224 1.125-.425-1.305.916-.408 3.146 1.013 2.518 8.939 2.657 9.146.863.151-1.315-2.963-3.513-2.963-3.513s.143888-.6544944.6419647-1.055252c.4017973-.4963305 1.0530353-.639748 1.0530353-.639748s2.199 3.115 3.515 2.963c1.793-.206 1.653-8.133-.865-9.146-2.23-.899-3.57 1.531-3.144.407.349-.925 2.547-2.786 2.547-2.786l3.1565638-7.5604966c-.0223349-.7995232-.0454411-1.6064334-.0694549-2.4137917-1.5145523.1818864-3.0276714.9546899-4.5331089 2.3172883-3.477 3.147-1.739 8.645-1.739 8.645s-3.478-2.796-3.671-5.595c-.193-2.798.193-4.894 2.125-5.594 1.933-.7 1.933-1.399 1.739-4.195-.193-2.797 3.285-6.993 3.285-6.993l2.166562-2.56591021c-.1396899-1.72308604-.2995132-2.94206007-.484562-3.39708979-.954-2.351 1.173-3.65 1.78-3.963l.0007037-.04262963.0002963-.03437037s.028.012.076.038c.052-.025.079-.038.079-.038zm26.623 15.761c.064-.051-.04.149-.267.536.263-.363.405-.536.386-.46-.878 3.362-.865 4.354-1.247 10.499-.33 5.296-6.454 4.419-8.139 4.076-.054.084-.084.129-.084.129s-.049-.062-.132-.176c-.136-.03-.213-.05-.213-.05s.03-.046.085-.128c-.988-1.409-4.24-6.673.485-9.092 5.481-2.804 6.396-3.187 9.126-5.334zm-53.935 0c2.731 2.147 3.647 2.53 9.127 5.334 4.725 2.419 1.473 7.683.485 9.092.055.082.085.128.085.128s-.076.02-.214.05c-.082.114-.131.176-.131.176s-.031-.045-.084-.129c-1.685.343-7.81 1.22-8.139-4.076-.382-6.145-.37-7.137-1.246-10.499-.021-.076.121.097.385.46-.227-.387-.331-.587-.268-.536z" fill="#2748a0"/><g fill="#bb1a1a" transform="translate(11.832 11.818)"><path d="m18.457 0 4.151 2.536-2.537 4.152-4.152-2.538z"/><path d="m51.376 0-4.151 2.536 2.537 4.152 4.153-2.538z"/><path d="m69.832 18.456-2.536 4.152-4.151-2.537 2.538-4.152z"/><path d="m0 18.456 2.537 4.152 4.151-2.538-2.538-4.151z"/></g></g><g transform="translate(1235)"><path d="m47.614 0-.0002963.03525926c-.0001481.01140741-.0003704.02540741-.0007037.04174074.596.332 2.686 1.691 1.665 4.013-.1939904.4404416-.3619929 1.61444839-.5092455 3.27774376l2.2242455 2.63525624s3.478 4.196 3.285 6.993c-.192 2.796-.192 3.495 1.739 4.195 1.932.7 2.318 2.796 2.125 5.594-.193 2.799-3.671 5.595-3.671 5.595s1.739-5.498-1.739-8.645c-1.5421071-1.3957888-3.0922746-2.1727-4.6433547-2.3307339-.0122294.3561097-.0234535.7114647-.0345062 1.0661611l-.0201525.6519511 3.5380134 8.2696217s.0275328.0267984.0765988.075562l.1250652.125382c.500736.506016 1.780736 1.845056 2.062336 2.585056.424 1.124-.916-1.306-3.146-.407-2.518 1.013-2.657 8.94-.864 9.146 1.315.152 3.514-2.963 3.514-2.963s.6535284.1437986 1.0544556.6410822c.4973486.4020475.6395444 1.0539178.6395444 1.0539178s-3.113 2.198-2.961 3.513c.205 1.794 8.132 1.655 9.144-.863.899-2.23-1.531-3.571-.406-3.146.925.351 2.787 2.264 2.787 2.264l8.2693944 3.5377985.6515871-.0201642c.3540148-.0110436.7086856-.0222575 1.0634217-.0336542-.1567075-1.5519848-.9341749-3.102819-2.3314032-4.6459801-3.146-3.477-8.644-1.737-8.644-1.737s2.797-3.479 5.596-3.672c2.796-.193 4.893.193 5.593 2.125.699 1.931 1.398 1.931 4.195 1.739 2.796-.192 6.994 3.284 6.994 3.284l2.6347537 2.2259942c1.6636597-.1472082 2.8378809-.3151288 3.2782463-.5089942 2.323-1.02 3.681 1.068 4.014 1.664l.0679259-.000963c.0090741-.000037-.0039259.027963-.0279259.079963.026.048.037.077.037.077h-.077c-.312.605-1.611 2.734-3.963 1.78-.4552063-.1849536-1.6749778-.3447181-3.3991609-.4843771l-2.5648391 2.1653771s-4.198 3.478-6.994 3.285c-2.797-.195-3.496-.195-4.195 1.738-.7 1.932-2.797 2.319-5.593 2.126-2.799-.194-5.596-3.671-5.596-3.671s5.498 1.738 8.644-1.741c1.3628657-1.5043441 2.1360797-3.0163631 2.3196419-4.5295777-.807644-.024197-1.6141202-.0473041-2.4132147-.0696416l-7.5594272 3.1562193s-1.862 2.197-2.787 2.547c-1.125.425 1.305-.913.406-3.145-1.012-2.518-8.939-2.657-9.144-.864-.152 1.315 2.961 3.514 2.961 3.514s-.255 1.17-1.272 1.338c-1.354.227-4.3-7.127-4.324-7.182.0116011-.0270692.7059436-1.7591226 1.5731972-3.5161149-1.7571789.8665736-3.4896433 1.5605133-3.5171972 1.5721149-.026596-.0116055-1.7594719-.7060036-3.51678-1.5734612.8685715 1.7576804 1.5631436 3.4903868 1.57378 3.5174612l-.0198757.0492803c-.2610181.6444338-3.0102576 7.3496308-4.3031243 7.1327197-1.016-.168-1.273-1.338-1.273-1.338s3.114-2.199 2.963-3.514c-.207-1.793-8.133-1.654-9.146.864-.897 2.232 1.533 3.57.408 3.145-.926-.35-2.787-2.547-2.787-2.547l-7.5585675-3.1562799c-.8001506.0223665-1.6077067.0455047-2.4157115.0695505.1828774 1.5133663.955846 3.0253853 2.318279 4.5297294 3.147 3.479 8.644 1.741 8.644 1.741s-2.796 3.477-5.595 3.671c-2.797.193-4.893-.194-5.593-2.126-.7-1.933-1.399-1.933-4.195-1.738-2.798.193-6.993-3.285-6.993-3.285l-2.56485613-2.1653345c-1.72374781.1396489-2.94315074.2993997-3.39814387.4843345-2.352.954-3.652-1.175-3.964-1.78h-.078s.011-.029.039-.077c-.025-.052-.038-.08-.038-.08l.00911111.000037.06888889.000963c.331-.596 1.69-2.684 4.013-1.664.44052885.1938654 1.61488683.361786 3.27865651.5089942l2.63434349-2.2259942s4.195-3.476 6.993-3.284c2.796.192 3.495.192 4.195-1.739.7-1.932 2.796-2.318 5.593-2.125 2.799.193 5.595 3.672 5.595 3.672s-5.497-1.74-8.644 1.737c-1.3967848 1.5431611-2.1740053 3.0939953-2.3316617 4.6455212l.0000077.0003625.5769633.0183834.9780817.0305178c.0547891.0016888.1095558.0033736.164298.0050546l8.268311-3.5378395.0342996-.0349504c.0111947-.0113536.025009-.0253232.0412641-.0416864l.1253883-.1251232c.506048-.50096 1.845248-1.78144 2.586048-2.06224 1.125-.425-1.305.916-.408 3.146 1.013 2.518 8.939 2.657 9.146.863.151-1.315-2.963-3.513-2.963-3.513s.143888-.6544944.6419647-1.055252c.4017973-.4963305 1.0530353-.639748 1.0530353-.639748s2.199 3.115 3.515 2.963c1.793-.206 1.653-8.133-.865-9.146-2.23-.899-3.57 1.531-3.144.407.349-.925 2.547-2.786 2.547-2.786l3.1565638-7.5604966c-.0223349-.7995232-.0454411-1.6064334-.0694549-2.4137917-1.5145523.1818864-3.0276714.9546899-4.5331089 2.3172883-3.477 3.147-1.739 8.645-1.739 8.645s-3.478-2.796-3.671-5.595c-.193-2.798.193-4.894 2.125-5.594 1.933-.7 1.933-1.399 1.739-4.195-.193-2.797 3.285-6.993 3.285-6.993l2.166562-2.56591021c-.1396899-1.72308604-.2995132-2.94206007-.484562-3.39708979-.954-2.351 1.173-3.65 1.78-3.963l.0007037-.04262963.0002963-.03437037s.028.012.076.038c.052-.025.079-.038.079-.038zm26.623 15.761c.064-.051-.04.149-.267.536.263-.363.405-.536.386-.46-.878 3.362-.865 4.354-1.247 10.499-.33 5.296-6.454 4.419-8.139 4.076-.054.084-.084.129-.084.129s-.049-.062-.132-.176c-.136-.03-.213-.05-.213-.05s.03-.046.085-.128c-.988-1.409-4.24-6.673.485-9.092 5.481-2.804 6.396-3.187 9.126-5.334zm-53.935 0c2.731 2.147 3.647 2.53 9.127 5.334 4.725 2.419 1.473 7.683.485 9.092.055.082.085.128.085.128s-.076.02-.214.05c-.082.114-.131.176-.131.176s-.031-.045-.084-.129c-1.685.343-7.81 1.22-8.139-4.076-.382-6.145-.37-7.137-1.246-10.499-.021-.076.121.097.385.46-.227-.387-.331-.587-.268-.536z" fill="#2748a0"/><g fill="#bb1a1a" transform="translate(11.832 11.818)"><path d="m18.457 0 4.151 2.536-2.537 4.152-4.152-2.538z"/><path d="m51.376 0-4.151 2.536 2.537 4.152 4.153-2.538z"/><path d="m69.832 18.456-2.536 4.152-4.151-2.537 2.538-4.152z"/><path d="m0 18.456 2.537 4.152 4.151-2.538-2.538-4.151z"/></g></g><g transform="translate(1330)"><path d="m47.614 0-.0002963.03525926c-.0001481.01140741-.0003704.02540741-.0007037.04174074.596.332 2.686 1.691 1.665 4.013-.1939904.4404416-.3619929 1.61444839-.5092455 3.27774376l2.2242455 2.63525624s3.478 4.196 3.285 6.993c-.192 2.796-.192 3.495 1.739 4.195 1.932.7 2.318 2.796 2.125 5.594-.193 2.799-3.671 5.595-3.671 5.595s1.739-5.498-1.739-8.645c-1.5421071-1.3957888-3.0922746-2.1727-4.6433547-2.3307339-.0122294.3561097-.0234535.7114647-.0345062 1.0661611l-.0201525.6519511 3.5380134 8.2696217s.0275328.0267984.0765988.075562l.1250652.125382c.500736.506016 1.780736 1.845056 2.062336 2.585056.424 1.124-.916-1.306-3.146-.407-2.518 1.013-2.657 8.94-.864 9.146 1.315.152 3.514-2.963 3.514-2.963s.6535284.1437986 1.0544556.6410822c.4973486.4020475.6395444 1.0539178.6395444 1.0539178s-3.113 2.198-2.961 3.513c.205 1.794 8.132 1.655 9.144-.863.899-2.23-1.531-3.571-.406-3.146.925.351 2.787 2.264 2.787 2.264l8.2693944 3.5377985.6515871-.0201642c.3540148-.0110436.7086856-.0222575 1.0634217-.0336542-.1567075-1.5519848-.9341749-3.102819-2.3314032-4.6459801-3.146-3.477-8.644-1.737-8.644-1.737s2.797-3.479 5.596-3.672c2.796-.193 4.893.193 5.593 2.125.699 1.931 1.398 1.931 4.195 1.739 2.796-.192 6.994 3.284 6.994 3.284l2.6347537 2.2259942c1.6636597-.1472082 2.8378809-.3151288 3.2782463-.5089942 2.323-1.02 3.681 1.068 4.014 1.664l.0679259-.000963c.0090741-.000037-.0039259.027963-.0279259.079963.026.048.037.077.037.077h-.077c-.312.605-1.611 2.734-3.963 1.78-.4552063-.1849536-1.6749778-.3447181-3.3991609-.4843771l-2.5648391 2.1653771s-4.198 3.478-6.994 3.285c-2.797-.195-3.496-.195-4.195 1.738-.7 1.932-2.797 2.319-5.593 2.126-2.799-.194-5.596-3.671-5.596-3.671s5.498 1.738 8.644-1.741c1.3628657-1.5043441 2.1360797-3.0163631 2.3196419-4.5295777-.807644-.024197-1.6141202-.0473041-2.4132147-.0696416l-7.5594272 3.1562193s-1.862 2.197-2.787 2.547c-1.125.425 1.305-.913.406-3.145-1.012-2.518-8.939-2.657-9.144-.864-.152 1.315 2.961 3.514 2.961 3.514s-.255 1.17-1.272 1.338c-1.354.227-4.3-7.127-4.324-7.182.0116011-.0270692.7059436-1.7591226 1.5731972-3.5161149-1.7571789.8665736-3.4896433 1.5605133-3.5171972 1.5721149-.026596-.0116055-1.7594719-.7060036-3.51678-1.5734612.8685715 1.7576804 1.5631436 3.4903868 1.57378 3.5174612l-.0198757.0492803c-.2610181.6444338-3.0102576 7.3496308-4.3031243 7.1327197-1.016-.168-1.273-1.338-1.273-1.338s3.114-2.199 2.963-3.514c-.207-1.793-8.133-1.654-9.146.864-.897 2.232 1.533 3.57.408 3.145-.926-.35-2.787-2.547-2.787-2.547l-7.5585675-3.1562799c-.8001506.0223665-1.6077067.0455047-2.4157115.0695505.1828774 1.5133663.955846 3.0253853 2.318279 4.5297294 3.147 3.479 8.644 1.741 8.644 1.741s-2.796 3.477-5.595 3.671c-2.797.193-4.893-.194-5.593-2.126-.7-1.933-1.399-1.933-4.195-1.738-2.798.193-6.993-3.285-6.993-3.285l-2.56485613-2.1653345c-1.72374781.1396489-2.94315074.2993997-3.39814387.4843345-2.352.954-3.652-1.175-3.964-1.78h-.078s.011-.029.039-.077c-.025-.052-.038-.08-.038-.08l.00911111.000037.06888889.000963c.331-.596 1.69-2.684 4.013-1.664.44052885.1938654 1.61488683.361786 3.27865651.5089942l2.63434349-2.2259942s4.195-3.476 6.993-3.284c2.796.192 3.495.192 4.195-1.739.7-1.932 2.796-2.318 5.593-2.125 2.799.193 5.595 3.672 5.595 3.672s-5.497-1.74-8.644 1.737c-1.3967848 1.5431611-2.1740053 3.0939953-2.3316617 4.6455212l.0000077.0003625.5769633.0183834.9780817.0305178c.0547891.0016888.1095558.0033736.164298.0050546l8.268311-3.5378395.0342996-.0349504c.0111947-.0113536.025009-.0253232.0412641-.0416864l.1253883-.1251232c.506048-.50096 1.845248-1.78144 2.586048-2.06224 1.125-.425-1.305.916-.408 3.146 1.013 2.518 8.939 2.657 9.146.863.151-1.315-2.963-3.513-2.963-3.513s.143888-.6544944.6419647-1.055252c.4017973-.4963305 1.0530353-.639748 1.0530353-.639748s2.199 3.115 3.515 2.963c1.793-.206 1.653-8.133-.865-9.146-2.23-.899-3.57 1.531-3.144.407.349-.925 2.547-2.786 2.547-2.786l3.1565638-7.5604966c-.0223349-.7995232-.0454411-1.6064334-.0694549-2.4137917-1.5145523.1818864-3.0276714.9546899-4.5331089 2.3172883-3.477 3.147-1.739 8.645-1.739 8.645s-3.478-2.796-3.671-5.595c-.193-2.798.193-4.894 2.125-5.594 1.933-.7 1.933-1.399 1.739-4.195-.193-2.797 3.285-6.993 3.285-6.993l2.166562-2.56591021c-.1396899-1.72308604-.2995132-2.94206007-.484562-3.39708979-.954-2.351 1.173-3.65 1.78-3.963l.0007037-.04262963.0002963-.03437037s.028.012.076.038c.052-.025.079-.038.079-.038zm26.623 15.761c.064-.051-.04.149-.267.536.263-.363.405-.536.386-.46-.878 3.362-.865 4.354-1.247 10.499-.33 5.296-6.454 4.419-8.139 4.076-.054.084-.084.129-.084.129s-.049-.062-.132-.176c-.136-.03-.213-.05-.213-.05s.03-.046.085-.128c-.988-1.409-4.24-6.673.485-9.092 5.481-2.804 6.396-3.187 9.126-5.334zm-53.935 0c2.731 2.147 3.647 2.53 9.127 5.334 4.725 2.419 1.473 7.683.485 9.092.055.082.085.128.085.128s-.076.02-.214.05c-.082.114-.131.176-.131.176s-.031-.045-.084-.129c-1.685.343-7.81 1.22-8.139-4.076-.382-6.145-.37-7.137-1.246-10.499-.021-.076.121.097.385.46-.227-.387-.331-.587-.268-.536z" fill="#2748a0"/><g fill="#bb1a1a" transform="translate(11.832 11.818)"><path d="m18.457 0 4.151 2.536-2.537 4.152-4.152-2.538z"/><path d="m51.376 0-4.151 2.536 2.537 4.152 4.153-2.538z"/><path d="m69.832 18.456-2.536 4.152-4.151-2.537 2.538-4.152z"/><path d="m0 18.456 2.537 4.152 4.151-2.538-2.538-4.151z"/></g></g></g></svg>