<svg height="77" viewBox="0 0 62 77" width="62" xmlns="http://www.w3.org/2000/svg"><path d="m28.0510083-3.05157992.9901007 2.67260887c.8140414 2.1973666 2.2985169 3.58293694 4.4738448 4.13343024 1.5747514.39851008 2.7815921 1.41975465 3.5738841 3.1239977.5886346 1.26616991.9424568 2.94482334 1.0313259 5.04411331 4.3252915.1738628 7.2231427 1.4218707 8.8309957 3.5376823 1.5747814 2.0722919 1.9877054 5.0649155 1.0118696 9.0489978 3.4823529.3488418 5.9173885 1.4506352 7.3874555 3.1736679 1.6879441 1.9784014 2.2002693 4.836587 1.3016335 8.657088-.0711932.3026739-.1476212.5959937-.2293527.8793783-.2657056-.025254-.5429703-.0382498-.8325759-.0382498-1.8455457 0-3.189925.5277634-4.2354585 1.3924115-1.5469156 1.2792873-2.4727182 3.2205911-3.4328783 5.1518332-1.2791889 2.5729287-2.6103041 5.1248012-4.9576119 6.6356396-1.510839.9724474-3.4415471 1.5470839-6.0721353 1.3926792.3001449 4.1103677-1.955341 6.3937363-4.400755 8.6603905l-.5756613.5345012c-1.1215628 1.0482067-2.2254906 2.1296125-2.9194538 3.5345395-.5985772 1.2118181-.8206425 2.519577-.9672132 3.8362172-.1930855-1.3594687-.4767867-2.6938027-1.00606-3.8724664-.8470853-1.8864146-2.4101138-3.5676238-3.8670658-5.1628675-1.5692977-1.7182529-3.0164159-3.35369-3.6339021-4.9651177-.3122624-.8148982-.4403841-1.6282798-.3196959-2.4485924-2.8168458.2654047-4.8051761-.2359707-6.2953225-1.1457189-2.433446-1.4856414-3.57026412-4.1558789-4.6432242-6.8862895-.7674481-1.9529603-1.49711777-3.9334652-2.98040153-5.2377584-1.01041182-.8884836-2.38710742-1.4194011-4.36187759-1.4194011-.23780649 0-.46693998.0076991-.68766187.0225886-.11351501-.2289858-.21890219-.4581628-.3159186-.6858192-.66037259-1.5496151-1.10294028-3.4277794-.99134035-5.2052975.09793023-1.5597926.61521769-3.0394628 1.71782737-4.2113839 1.46610267-1.5582638 4.04427929-2.6423053 8.43746619-2.3443599-.65889114-4.0069294-.17817388-7.0365212 1.28341788-9.1389608 1.5326236-2.2046161 4.1705334-3.4930274 8.0299955-3.6899896.085737-1.7810686.3917711-3.25289806.8965737-4.4208657.6784453-1.56972674 1.7116257-2.62836704 3.0629626-3.21460527 2.9527236-1.28095333 3.804223-2.55610891 4.6487778-4.69335794z" fill="#ab801b" fill-rule="evenodd" stroke="#353030" stroke-width="2.181818" transform="translate(3 7)"/></svg>