<svg height="18" viewBox="0 0 81 18" width="81" xmlns="http://www.w3.org/2000/svg"><g fill="none" fill-rule="evenodd" transform="translate(.5)"><g fill="#2748a0"><path d="m51.3722628 4.75537816s5.3856934-5.20525548 7.9013138-1.08145986c3.02073 4.95240876 5.2583942 5.12233577 5.2583942 5.12233577s-2 .38306569-3.2467153-.3690511c-1.5567883-.9389781-1.7121168-1.5229197-4.2113869-3.36058394-2.4992701-1.83824817-5.7016058-.31124087-5.7016058-.31124087"/><path d="m51.5135766 5.7889548s2.5179562-1.05751825 3.8481752.35678832c1.3308029 1.41489051 1.0773723 3.36467153.8513869 4.31708028-.2265694.9535767.029781 1.8884672.3538686 2.2849635.7182482.880584 1.7074453.5582482 1.7074453.5582482s-1.3343066.4811679-2.0875913.2487591c-.8858394-.2721168-2.0344525-1.6461314-2.2656934-3.0370803-.2335767-1.39094888-.5950365-4.02394158-2.4075913-4.7287591"/><path d="m40.8455474 8.13348035s6.9816059 5.67766425 9.9235037 4.11795625c3.749489-1.9871533.0875912-5.69693436.0875912-5.69693436s.4945986 1.99883212-1.9474452 2.61489052c-2.4414599.61547445-8.0636497-1.03591241-8.0636497-1.03591241"/><path d="m45.0248175 15.7632614c-.1290511-.5016059-1.0113868-1.1194161-1.0113868-1.1194161s-1.6642336.8788321-2.6586862.8040876c-1.3559124-.100438-1.2513868-1.2221898.6534307-1.7214599 1.6870073-.4426277 2.7007299-.8852554 2.379562-1.439416-.2656934-.4566423-1.7127007-1.3751825-1.7127007-1.3751825l-3.0119708-1.30919707-2.9389781 1.30919707s-1.6618978.9185402-1.9270073 1.3751825c-.3217518.5541606.6919708.9967883 2.3789781 1.439416 1.9030657.4992701 2.009927 1.6210219.6528467 1.7214599-.9938686.0747445-2.6569343-.8040876-2.6569343-.8040876s-.8846715.6178102-1.0119708 1.1194161c-.1716788.6680292 5.390365 2.1202919 5.430073 2.1313868v.000584l.0023358-.000584v.000584-.000584c.0414598-.0110949 5.6035036-1.4633576 5.4324087-2.1313868"/></g><path d="m65.230365 7.61260443c.950073-.06656934 2.1214598-.51445255 2.1214598-.51445255s-1.6665693-.84671533-1.5264233-1.3529927c.1915328-.68846715 2.3164963-.63532847 3.2618978.33284671.839708.85781022 1.6764963 1.37343066 2.7270073 1.21051095.8659854-.13547445 2.6037956-.87124087 2.6037956-.87124087l5.0043796-1.53167884-5.0043796-1.49489051s-1.7378102-.8449635-2.6037956-.98043795c-1.050511-.16408759-1.8872993.35270073-2.7270073 1.21051095-.9454015.96817518-3.070365 1.02189781-3.2618978.33167883-.140146-.50510949 1.5264233-1.35124088 1.5264233-1.35124088s-1.1713868-.44905109-2.1214598-.51445255c-1.2648176-.08759124-4.0169343 2.74160584-4.0373723 2.76204379h-.0011679.0011679-.0011679.0011679c.020438.02160584 2.7725547 2.85080292 4.0373723 2.76379562" fill="#bb1a1a"/><path d="m28.050219 4.75537816s-5.3856935-5.20525548-7.9013139-1.08145986c-3.0207299 4.95240876-5.2583942 5.12233577-5.2583942 5.12233577s2 .38306569 3.2467154-.3690511c1.5556204-.9389781 1.7109489-1.5229197 4.2113868-3.36058394 2.500438-1.83824817 5.7016059-.31124087 5.7016059-.31124087" fill="#2748a0"/><path d="m27.9083212 5.7889548s-2.5173723-1.05751825-3.8470073.35678832c-1.3313869 1.41489051-1.0779562 3.36467153-.8519708 4.31708028.2265693.9535767-.0286132 1.8884672-.3538686 2.2849635-.7182482.880584-1.7080292.5582482-1.7080292.5582482s1.3354744.4811679 2.0881751.2487591c.8858395-.2721168 2.0338687-1.6461314 2.2662774-3.0370803.2324088-1.39094888.5944526-4.02394158 2.4064234-4.7287591" fill="#2748a0"/><path d="m38.5775182 8.13348035s-6.9821897 5.67766425-9.9240875 4.11795625c-3.7489052-1.9871533-.0881752-5.69693436-.0881752-5.69693436s-.4940146 1.99883212 1.9486131 2.61489052c2.4408759.61547445 8.0636496-1.03591241 8.0636496-1.03591241" fill="#2748a0"/><path d="m14.1909489 7.61260443c-.9489051-.06656934-2.119708-.51445255-2.119708-.51445255s1.6648175-.84671533 1.5246715-1.3529927c-.1915328-.68846715-2.3153285-.63532847-3.2613139.33284671-.83912405.85781022-1.67708025 1.37343066-2.72642332 1.21051095-.86540146-.13547445-2.60321168-.87124087-2.60321168-.87124087l-5.0049635-1.53167884 5.0049635-1.49489051s1.73781022-.8449635 2.60262774-.98043795c1.04992701-.16408759 1.88788321.35270073 2.72700726 1.21051095.9459854.96817518 3.0697811 1.02189781 3.2613139.33167883.140146-.50510949-1.5246715-1.35124088-1.5246715-1.35124088s1.1708029-.44905109 2.119708-.51445255c1.2648175-.08759124 4.0181022 2.74160584 4.0379562 2.76204379h.0011679-.0005839.0005839-.0011679c-.019854.02160584-2.7731387 2.85080292-4.0379562 2.76379562" fill="#bb1a1a"/><path d="m42.0128467 3.10749495c-1.5229197-1.74072993-1.8067153-2.01751825-2.3678832-3.10248176-.0122628-.02569343-.0239416.04846716-.0350365.19737227-.0116788-.14890511-.0227737-.2230657-.0367883-.19737227-.5646715 1.09138686-.8461314 1.36525548-2.3947445 3.1340146-4.4548906-1.67766423-8.5255475-1.11532847-8.5255475-1.11532847s5.1941606 1.02773723 6.8455475 2.39532847c1.6513868 1.36992701.7071532 2.85313869 3.0686131 2.96642336 0 0 .4741606-.12029197.9827737-.35678832.5080292.23649635.9839416.35678832.9839416.35678832 2.3597081-.11328467 1.4166424-1.59649635 3.0686132-2.96642336 1.6525547-1.36759124 6.8443795-2.39532847 6.8443795-2.39532847s-4.0169343-.5529927-8.4338686 1.08379563" fill="#2748a0"/></g></svg>