<svg height="40" viewBox="0 0 21 40" width="21" xmlns="http://www.w3.org/2000/svg"><g fill="none"><path d="m1.52219959.25482688c-.34517311-.33344195-.89531568-.32382892-1.22875764.0213442-.32521384.33678208-.32521384.87063136 0 1.20733197l18.50224035 18.50395115-18.50395114 18.5022403c-.34517312.333442-.35470468.8835031-.0213442 1.2287576.33344196.3451732.88350306.3547047 1.22875764.0213442.00725051-.0070061.01433809-.0140937.0213442-.0213442l19.1174745-19.1174745c.3392261-.3393075.3392261-.8893686 0-1.2287576z" fill="#f44336"/><path d="m.90696538 39.9739323c-.47991854.0008946-.86965377-.3875372-.87055125-.8674557-.00040598-.2313646.09148811-.4533605.25531703-.6167821l18.50395114-18.5022403-18.50395114-18.50215888c-.33979633-.33979634-.33979633-.8906721 0-1.23046844.33979634-.33979633.8906721-.33979633 1.23046843 0l19.11747451 19.11747452c.3392261.3393076.3392261.8893687 0 1.2287577l-19.11747451 19.117393c-.16293279.1635031-.38435845.2554802-.61523421.2554802z" fill="#000"/></g></svg>