<svg xmlns="http://www.w3.org/2000/svg" width="348" height="17" viewBox="0 0 348 17">
    <g fill="none" fill-rule="evenodd">
        <g fill="#C7B77F">
            <g>
                <g>
                    <path d="M3.033 7.92c1.227.602 2.981 1.241 4.289.981.597-.12.81-.585.81-.98s-.213-.86-.81-.98c-1.315-.262-3.065.377-4.289.98zm3.642 2.603c-2.645 0-5.533-1.859-5.669-1.948L0 7.921l1.006-.655c.153-.1 3.765-2.43 6.623-1.857 1.236.248 2.065 1.257 2.065 2.512 0 1.255-.829 2.264-2.065 2.511-.31.063-.631.091-.954.091zM12.161 4.98l-.03.001c-.472.043-.825.473-.787.96.027.355.19.676.457.905.219.187.488.291.77.301l-.108-1.343c.127-.01.206-.106.234-.186.052-.145-.013-.318-.185-.485-.097-.096-.232-.153-.351-.153zm.451 3.73c-.668 0-1.309-.236-1.826-.676-.585-.499-.94-1.199-1-1.97-.105-1.337.885-2.52 2.206-2.639.58-.045 1.181.17 1.611.59.618.602.828 1.401.563 2.134-.136.378-.388.693-.708.908.808-.192 2.219-.81 3.325-2.807.72-1.279 1.669-2.44 2.541-3.109l.085-.07C20.67.044 22.347-.267 23.899.236c1.481.481 2.603 1.656 3 3.144.03.114.056.228.079.344.217 1.12-.067 2.305-.779 3.253-1.019 1.357-2.479 1.968-3.909 1.638-1.333-.31-2.363-1.388-2.623-2.748-.149-.78.045-1.605.53-2.265.72-.976 1.768-1.418 2.801-1.184.969.22 1.715.998 1.903 1.983.223 1.174-.539 2.316-1.7 2.544l-.302-1.533c.321-.064.53-.385.466-.718-.071-.375-.351-.67-.713-.753-.424-.096-.847.113-1.197.588-.228.31-.32.691-.253 1.045.144.753.709 1.35 1.441 1.52.82.187 1.661-.195 2.307-1.055.453-.604.629-1.32.494-2.015l-.056-.243c-.262-.987-.981-1.737-1.972-2.059-1.044-.339-2.173-.129-3.02.561l-.103.083c-.72.553-1.535 1.562-2.146 2.646-1.972 3.561-4.855 3.707-5.346 3.692l-.189.006z" transform="translate(-642 -666) matrix(-1 0 0 1 990 666.335)"/>
                    <path d="M12.571 8.706c-.282.01-.551.114-.77.302-.267.228-.43.548-.457.903-.038.488.315.92.787.96.122.014.276-.047.382-.15.171-.168.236-.34.184-.487-.029-.079-.107-.175-.234-.185l.108-1.343zm9.843 7.147c-1.081 0-2.14-.367-3.004-1.07l-.105-.085c-.853-.655-1.802-1.815-2.52-3.09-1.105-1.996-2.513-2.618-3.325-2.81.319.214.571.528.706.905.266.734.055 1.532-.562 2.136-.432.421-1.037.641-1.612.59-1.321-.119-2.311-1.302-2.206-2.64.06-.77.415-1.47 1-1.97.565-.482 1.278-.72 2.015-.67h.01c.49 0 3.376.155 5.339 3.697.608 1.08 1.423 2.087 2.125 2.626l.122.1c.846.687 1.975.9 3.02.56.99-.323 1.709-1.074 1.972-2.062l.055-.242c.135-.694-.041-1.41-.494-2.014-.646-.859-1.485-1.246-2.308-1.053-.731.17-1.296.765-1.44 1.518-.067.354.025.734.253 1.045.35.475.773.683 1.197.587.362-.082.642-.377.713-.752.064-.333-.145-.655-.467-.718l.303-1.533c1.161.23 1.923 1.371 1.699 2.544-.187.985-.933 1.763-1.902 1.983-1.033.235-2.081-.208-2.801-1.185-.485-.659-.679-1.484-.53-2.264.26-1.36 1.29-2.439 2.623-2.748 1.429-.33 2.89.281 3.909 1.638.712.948.996 2.133.779 3.251-.023.117-.049.232-.079.344-.397 1.49-1.518 2.665-3 3.146-.489.158-.989.236-1.485.236z" transform="translate(-642 -666) matrix(-1 0 0 1 990 666.335)"/>
                </g>
                <path d="M24.289 8.708L347.411 8.708 347.411 7.145 24.289 7.145z" transform="translate(-642 -666) matrix(-1 0 0 1 990 666.335)"/>
            </g>
        </g>
    </g>
</svg>
