<svg xmlns="http://www.w3.org/2000/svg" width="249" height="332" viewBox="0 0 249 332">
    <g fill="none" fill-rule="evenodd">
        <g>
            <g>
                <g>
                    <g fill="#EEA603" fill-rule="nonzero">
                        <path d="M15.726 15.148H9.32v-.444h.602c.56 0 .942-.022 1.138-.07.455-.106.682-.35.682-.729 0-.188-.084-.507-.248-.955L9.922 8.719H5.1l-1.344 3.65c-.311.85-.465 1.337-.465 1.466 0 .578.63.865 1.886.865h.364v.445H.162V14.7c.948-.031 1.561-.284 1.841-.763.182-.319.406-.833.672-1.547L6.916.812 6.709.301h2.024L13.6 13.233c.287.76.668 1.211 1.137 1.355.242.077.571.112.977.112v.448h.01zM9.527 7.697L7.48 2.26 5.502 7.697h4.025zM35.497 11.746l-1.795 3.402H23.296v-.444h.774c.552 0 .938-.116 1.148-.347.213-.231.318-.627.318-1.19V2.853c0-.669-.14-1.128-.417-1.376-.276-.252-.752-.375-1.427-.375h-.33V.659h6.871v.445h-.864c-.994 0-1.575.181-1.74.546-.105.227-.161.58-.161 1.056v10.738c0 .578.308.865.92.865h3.434c.795 0 1.46-.308 1.991-.92.267-.305.686-.851 1.264-1.639h.42v-.003zM49.378 15.148h-5.663v-.444c.721-.032 1.197-.193 1.431-.49.214-.267.319-.77.319-1.513V2.784c0-.63-.137-1.065-.41-1.31-.248-.213-.696-.336-1.34-.374V.654h5.663V1.1c-.977 0-1.575.234-1.785.707-.13.28-.193.675-.193 1.183v9.873c0 .918.256 1.474.764 1.674.286.112.692.171 1.218.171v.441h-.004zM67.774 11.543c0 1.229-.497 2.219-1.491 2.968-.903.676-1.988 1.012-3.252 1.012-.545 0-1.354-.147-2.422-.445-.468-.13-.742-.192-.819-.192-.196 0-.353.087-.465.262h-.399l-.49-3.538h.444c.235.969.697 1.75 1.386 2.341.721.623 1.572.934 2.549.934.885 0 1.63-.23 2.229-.692.658-.501.99-1.184.99-2.048 0-.787-.448-1.564-1.34-2.331-.448-.378-1.267-.938-2.457-1.673-1.092-.676-1.894-1.263-2.401-1.764-.858-.84-1.285-1.74-1.285-2.695 0-1.326.68-2.306 2.038-2.933.636-.297 1.34-.445 2.114-.445.766 0 1.55.137 2.355.41.357.123.626.182.808.182.168 0 .308-.08.42-.238h.375l.399 2.958h-.399c-.311-.805-.794-1.457-1.456-1.957-.69-.522-1.456-.784-2.296-.784-.728 0-1.33.179-1.81.536-.531.395-.794.945-.794 1.648 0 .773.441 1.53 1.32 2.264.248.214 1.018.721 2.31 1.526 1.214.76 2.068 1.393 2.569 1.901.846.85 1.27 1.785 1.27 2.793zM93.6 15.148h-6.597v-.444h.728c.924 0 1.488-.245 1.684-.739.097-.248.146-.588.146-1.011V8.232h-9.12v4.424c0 .749.118 1.27.353 1.557.266.326.767.49 1.502.49h.066v.445h-5.845v-.444h.147c.903 0 1.46-.225 1.673-.673.112-.241.171-.584.171-1.022V2.752c0-.605-.132-1.029-.398-1.263-.235-.214-.665-.34-1.285-.385V.657h5.54v.445c-1.021 0-1.62.28-1.784.84-.091.311-.137.776-.137 1.4v4.049h9.121V2.807c0-.658-.144-1.113-.43-1.365-.26-.228-.725-.34-1.4-.34h-.445V.659h5.981v.445c-.903.031-1.442.286-1.613.773-.105.287-.157.669-.157 1.138v9.666c0 1.033.248 1.649.748 1.856.28.112.651.171 1.114.171h.237v.441zM119.798 15.41c-.343.014-.669.025-.977.025-1.371 0-2.477-.186-3.321-.556-.787-.35-1.754-1.096-2.901-2.24l-1.537-1.537c-1.015-1.015-1.816-1.712-2.401-2.082-.773.031-1.299.045-1.582.045-.304 0-.697-.014-1.183-.045v3.934c0 .871.259 1.406.773 1.602.26.099.62.148 1.082.148h.535v.444H101.7v-.444h.4c.72 0 1.21-.14 1.473-.42.263-.28.392-.785.392-1.513V2.968c0-.69-.123-1.172-.364-1.449-.241-.276-.703-.416-1.386-.416h-.511V.657c.311 0 .994-.032 2.047-.091.273-.014.567-.031.89-.045.993-.046 1.97-.07 2.933-.07 1.683 0 3.059.269 4.13.808 1.41.707 2.114 1.816 2.114 3.332 0 .935-.298 1.736-.886 2.412-.553.637-1.291 1.091-2.219 1.364.714.553 1.6 1.362 2.66 2.422l1.844 1.842c.97.969 1.94 1.638 2.913 2.002.507.188 1.063.307 1.672.353v.424h-.003zm-8.18-10.671c0-1.645-.608-2.765-1.83-3.356-.675-.326-1.585-.49-2.73-.49-.5 0-.886.013-1.159.045v7.634c.266.038.746.056 1.446.056 2.849.003 4.273-1.296 4.273-3.889zM142.572 15.148h-6.405v-.444h.602c.56 0 .942-.022 1.138-.07.455-.106.682-.35.682-.729 0-.188-.083-.507-.251-.955l-1.572-4.231h-4.816l-1.344 3.65c-.311.85-.465 1.337-.465 1.466 0 .578.63.865 1.886.865h.364v.445h-5.376V14.7c.948-.031 1.561-.284 1.841-.763.182-.319.406-.833.672-1.547L133.77.812l-.203-.511h2.023l4.868 12.932c.287.76.669 1.211 1.138 1.355.242.077.567.112.976.112v.448zm-6.198-7.451l-2.047-5.436-1.982 5.436h4.029zM165.326 15.148h-6.405v-.444h.602c.56 0 .941-.022 1.138-.07.454-.106.682-.35.682-.729 0-.188-.084-.507-.252-.955l-1.568-4.231H154.7l-1.344 3.65c-.311.85-.465 1.337-.465 1.466 0 .578.63.865 1.886.865h.364v.445h-5.376V14.7c.949-.031 1.561-.284 1.841-.763.182-.319.406-.833.672-1.547L156.52.812l-.203-.511h2.023l4.868 12.932c.287.76.669 1.211 1.138 1.355.242.077.567.112.976.112v.448h.004zm-6.198-7.451L157.08 2.26l-1.981 5.436h4.029zM191.083 19.366l-.364.49c-.371.09-.732.136-1.082.136-1.092 0-2.215-.364-3.367-1.092-.2-.122-1.151-.85-2.867-2.184-.742-.578-1.42-.984-2.036-1.218-1.404-.098-2.678-.451-3.822-1.057-1.236-.658-2.198-1.554-2.888-2.684-.658-1.092-.99-2.296-.99-3.62 0-1.47.363-2.796 1.091-3.979.728-1.183 1.747-2.121 3.06-2.821 1.287-.69 2.712-1.036 4.276-1.036 2.262 0 4.176.637 5.744 1.911 1.684 1.365 2.527 3.15 2.527 5.358 0 2.517-.984 4.561-2.947 6.133-.948.759-2.04 1.302-3.276 1.627.728.266 1.823 1.015 3.287 2.25 1.357 1.155 2.576 1.75 3.654 1.786zM188.17 8.278c0-2.069-.575-3.795-1.719-5.177-1.214-1.47-2.835-2.205-4.869-2.205-1.858 0-3.31.731-4.357 2.195-.917 1.287-1.375 2.761-1.375 4.413 0 1.344.273 2.572.819 3.686.584 1.197 1.42 2.128 2.513 2.786 1.039.63 2.162.944 3.377.944 2.38 0 4.042-1.14 4.98-3.422.42-1.019.63-2.09.63-3.22z" transform="translate(-368 -239) translate(250 141) translate(118 98) translate(29.75 311.85)"/>
                    </g>
                    <path fill="#F4C15B" fill-rule="nonzero" d="M219.576 305.301H31.192c0-6.408 21.907-11.602 32.21-11.602h122.154c10.304 0 34.02 5.194 34.02 11.602zM83.811 273.164h81.337c0 8.709-13.717 15.768-18.166 15.768h-43.158c-4.452 0-20.013-7.06-20.013-15.768z" transform="translate(-368 -239) translate(250 141) translate(118 98)"/>
                    <path fill="#F4C15B" d="M101.168 125.877c-2.752-.486-4.999-1.529-7.008-2.929-.927-.647-1.802-1.365-2.649-2.142 1.278 3.749-.539 7.385-2.31 10.938-1.844 3.699-3.808 7.784-2.093 12.032.602 1.495 1.593 3.038 2.922 3.738 3.287 1.607 6.266-1.966 4.928-4.875-.934-2.457-3.293-2.867-5.355-2.188 1.278-2.943 3.427-3.993 6.238-5.186 4.879-2.069 6.905-4.071 5.327-9.387zM85.999 249.095c1.13.077 2.264.073 3.391-.053.532-5.722.84-18.224-6.202-20.352-4.154-1.27-8.547 1.256-9.331 5.537-.973 6.636 8.305 10.819 9.489 3.945l4.227.059c.333 3.836-.248 7.315-1.574 10.864zM58.978 167.097c1.96.115 3.703-.858 4.508-2.769 3.57-9.883-11.189-18.28-18.427-10.899.763.62 1.509 1.25 2.163 1.841 4.865-2.089 9.24-1.361 12.337 2.065l.697.77c-2.1-.125-3.815.767-4.708 2.881-1.218 2.888.543 5.691 3.43 6.111zM67.403 233.852c.885.291 1.092-3.307 1.96-2.971 2.608-9.779-2.709-16.17-8.512-24.199-5.303-7.567-11.053-14.27-3.605-22.722-.14 3.153-.165 6.223 3.22 7.847 2.191 1.05 4.49.763 6.307-.791 1.981-1.694 2.901-4.434 2.237-6.664-.501-1.659-1.733-2.958-3.469-3.665-2.614-1.06-4.781-.469-7.08.805.024-2.936-.144-6.079-2.762-7.997-1.102-.809-2.443-1.166-3.819-1.075 2.716 2.594 3.714 5.419 3.13 8.793-.91 4.668-3.542 7.105-3.878 11.41-.413 5.288 3.461 10.09 6.404 14.22 5.114 6.996 12.188 15.684 9.85 24.994l.017 2.016zM178.315 220.476c-5.244 3.587-10.599 8.648-12.667 14.819 3.808-6.206 9.237-11.596 15.512-15.306 4.445-2.629 9.608-3.409 14.721-3.685-9.604 2.166-16.471 11.609-22.393 20.324l-2.264 3.147c-2.825 3.863-6.01 4.154-8.047 3.139-4.998-2.488-3.927-8.648-.675-11.879 4.472-4.452 9.922-8.036 15.813-10.56zM164.976 92.144c1.494 2.258 3.273 3.84 5.268 5.072.92.567 1.882 1.06 2.887 1.505-3.742.357-6.178 3.42-8.561 6.408-2.481 3.115-5.25 6.49-9.594 6.654-1.525.06-3.251-.21-4.371-1.113-2.67-2.289-.742-6.36 2.296-6.328 2.488-.144 3.762 1.792 3.98 3.895 2.047-2.306 2.117-4.637 2.054-7.615-.112-5.166.83-7.767 6.041-8.478zM126.599 160.121c.71-.269 1.403-.602 2.061-1.004 2.709-1.641 5.271-5.18 6.622-9.138-.718 5.83-5.212 9.236-6.262 9.873-1.998 1.211-4.805 2.327-7.003 1.652-.234.441-.472.882-.714 1.32 4.704 1.028 9.292.3 12.614-2.006 5.579-3.875 6.017-9.989 6.237-16.118.119-3.317.231-6.446 1.127-8.546l.406-.949.364 1.127c.315.987.644 2.006 1.894 2.338 1.361.36 3.391-.581 3.818-2.198.441-1.656-.556-3.364-2.222-3.805-3.084-.819-4.627 2.64-6.262 6.304-1.208 2.706-2.625 4.991-4.813 6.573-4.353 3.153-4 3.402-5.285 9.53-.427-5.852-4.819-3.73-8.176-4.57-1.28-.322-2.313-1.022-3.367-2.331l1.187.293c1.41.35 2.629-1.344 1.848-2.635-.602-.994-2.061-.847-2.786.018-.78.934-1.001 2.698-.76 3.87.34 1.74 1.443 2.87 2.752 3.662 2.453 1.487 8.039 1.862 6.919 6.188-.049.203-.115.388-.2.553z" transform="translate(-368 -239) translate(250 141) translate(118 98)"/>
                    <g fill="#F4C15B">
                        <g>
                            <path d="M7.08 23.254c-1.935-.354-3.527-1.803-4.448-3.108 1.12 7.087 5.246 14.896 10.552 19.75 1.103-.504 2.304-1.07 3.42-1.634-4.676-4.354-7.798-9.279-9.523-15.008z" transform="translate(-368 -239) translate(250 141) translate(118 98) translate(0 163.45) translate(11.55 35)"/>
                            <path d="M11.781 25.648c3.29-.952 4.693-3.206 4.693-7.532 0-1.83-.252-3.854-.493-5.82-.235-1.887-.455-3.672-.473-5.338v-.126c0-2.968 1.33-4.291 3.672-5.25-3.762-3.56-10.09.896-14.287 4.956-7.378 7.143-7.206 22.977 6.888 19.11z" transform="translate(-368 -239) translate(250 141) translate(118 98) translate(0 163.45) translate(11.55 35)"/>
                        </g>
                        <path d="M10 12.674c1.494-.816 2.124-1.079 3.681-1.673 2.464-.938 4.547-.966 6.217-.074 1.834.98 3.192 3.122 4.028 6.367l.07.308c-4.739-.711-8.837.577-12.18 3.881C5.911 27.314 4.091 37.965 4.9 45.395c1.561 13.664 7.36 24.626 19.299 30.747.143-4.108.224-7.951 3.857-10.335 3.479-2.279 8.484-1.858 13.811 1.106-2.723 5.127-5.957 8.141-11.567 8.047l1.921 1.501c12.107 9.744-1.718 17.801-11.473 8.537l3.038 3.174c9.684 10.381 21.017 16.807 34.055 20.584-4.148-2.433-8.663-10.606-1.498-14.75-1.943 6.808 1.564 12.867 6.94 15.093 6.742 2.789 14.602 1.56 21.046.535.238 1.186.469 2.317.644 3.535-12.677 2.17-25.55.819-37.793-4.337-20.863-8.791-37.222-27.628-43.26-50.96C1.047 46.77.284 35.838 2.454 24.886c1.084-5.488 2.32-11.704 1.112-16.363-.584-2.26-1.75-3.937-3.408-5.057C1.05 1.397 3.017.049 5.376.021c6.331.196 7.518 9.212 4.623 12.652z" transform="translate(-368 -239) translate(250 141) translate(118 98) translate(0 163.45)"/>
                        <path d="M54.715 86.965c2.608 1.802 5.978 5.197 6.157 7.938l.007.23c0 1.033-.459 1.915-1.396 2.692-1.002.816-2.937 1.225-4.872 1.225-1.936 0-3.871-.406-4.872-1.225-.942-.777-1.397-1.659-1.397-2.692l.007-.23c.193-2.951 3.808-6.717 6.367-7.939z" transform="translate(-368 -239) translate(250 141) translate(118 98) translate(0 163.45)"/>
                    </g>
                    <g fill="#F4C15B">
                        <g>
                            <path d="M12.208 23.254c-1.726 5.73-4.848 10.65-9.527 15.008 1.116.563 2.317 1.13 3.42 1.635 5.305-4.855 9.432-12.663 10.552-19.751-.913 1.305-2.506 2.758-4.445 3.108z" transform="translate(-368 -239) translate(250 141) translate(118 98) translate(163.45 163.45) translate(54.25 35)"/>
                            <path d="M7.511 25.648c14.095 3.867 14.266-11.966 6.888-19.107C10.203 2.481 3.875-1.977.112 1.585c2.341.96 3.671 2.283 3.671 5.25v.127c-.017 1.665-.237 3.45-.472 5.337-.245 1.967-.494 3.986-.494 5.82 0 4.326 1.404 6.577 4.694 7.529z" transform="translate(-368 -239) translate(250 141) translate(118 98) translate(163.45 163.45) translate(54.25 35)"/>
                        </g>
                        <path d="M75.089 12.674C72.195 9.233 73.381.22 79.719.02c2.36.028 4.327 1.376 5.219 3.444-1.659 1.12-2.825 2.793-3.409 5.058-1.204 4.658.028 10.874 1.113 16.362 2.17 10.951 1.407 21.885-1.466 32.987-6.038 23.332-22.397 42.168-43.26 50.96C25.672 113.989 12.8 115.34.123 113.17c.174-1.218.405-2.349.643-3.535 6.444 1.025 14.305 2.257 21.046-.535 5.38-2.227 8.883-8.285 6.94-15.093 7.168 4.148 2.65 12.317-1.497 14.75 13.037-3.777 24.37-10.203 34.055-20.584l3.037-3.174c-9.754 9.267-23.579 1.207-11.472-8.537l1.921-1.501c-5.614.094-8.844-2.92-11.568-8.047 5.324-2.964 10.329-3.384 13.811-1.106 3.633 2.38 3.714 6.223 3.858 10.335 11.935-6.124 17.738-17.083 19.298-30.747.806-7.427-1.014-18.078-6.915-23.912-3.343-3.304-7.442-4.592-12.18-3.881l.07-.308c.84-3.245 2.194-5.387 4.028-6.367 1.67-.893 3.752-.864 6.216.074 1.554.591 2.18.854 3.675 1.673z" transform="translate(-368 -239) translate(250 141) translate(118 98) translate(163.45 163.45)"/>
                        <path d="M30.373 86.965c2.558 1.218 6.174 4.987 6.366 7.938l.008.23c0 1.033-.456 1.915-1.397 2.692-1.001.816-2.937 1.225-4.872 1.225-1.936 0-3.871-.406-4.872-1.225-.942-.777-1.397-1.659-1.397-2.692l.008-.23c.178-2.741 3.549-6.136 6.156-7.939z" transform="translate(-368 -239) translate(250 141) translate(118 98) translate(163.45 163.45)"/>
                    </g>
                    <g fill-rule="nonzero">
                        <path fill="#EEA603" d="M74.939 29.229c4.875 4.886 8.526 8.54 12.012 12.032l11.837-11.469c-3.343-3.136-6.535-6.304-9.954-9.205-.154-.13-.371-.235-.617-.319 3.276-3.174 6.588-6.384 10.57-10.24-3.342-3.137-6.534-6.304-9.954-9.206-.707-.601-2.649-.734-3.342-.202-3.665 2.817-7.112 5.915-10.552 8.847 4.305 4.316 7.654 7.669 10.78 10.798-.081.038-.165.073-.224.122-3.669 2.811-7.116 5.912-10.556 8.841zM168.427 125.367c-9.468-18.694-23.195-34.458-36.26-50.698-8.712-10.832-19.222-20.898-18.816-37.02-7.014 8.838-8.232 17.868-3.35 26.786 4.386 8.015 9.843 15.526 15.376 22.858 11.19 14.833 23.38 28.973 33.974 44.191 10.06 14.452 15.726 30.8 16.328 48.615.941 27.808-12.12 49.673-36.404 59.175-6.422 2.513-23.901 5.397-24.541 8.186-1.642 7.186-3.987 11.25-9.874 15.362.287.024 1.267.175 2.243.172 30.167-.12 52.654-13.042 65.1-40.135 15.085-32.83 12.39-65.569-3.776-97.493zM62.45 158.515c-1.869 2.394-3.3 5.317-4.35 8.075-4.253 11.182-4.172 23.285 1.523 34.25 2.086 4.015 4.893 7.585 8.06 10.92 1.767-1.42 3.363-3.044 5.17-4.42 1.543-1.176 3.174-2.233 4.788-3.315-2.857-2.618-5.517-5.32-7.757-8.218-8.242-10.664-10.892-24.664-6.279-36.795.777-2.051.162-2.184-1.154-.497zM35.71 232.05c6.545-7.707 12.233-16.149 14.55-26.124 2.223-9.555 1.54-19.463-.297-29.018-2.293-11.9-6.398-23.839-8.663-35.865.837-1.194 1.46-2.38 1.376-3.262-.939-9.629-1.107-19.271-.512-28.928.074-1.207-3.699 3.08-3.927 3.36-1.781 2.181-3.99 4.736-4.858 7.477-5.837 18.43-.129 37.212 4.652 55.173 2.419 9.087 4.68 18.355 4.848 27.801.077 4.256-.249 8.547-1.103 12.719-.375 1.834-.844 3.654-1.432 5.432-.43 1.302-.938 2.58-1.522 3.822-.343.728-1.418 2.215-1.103 1.939-1.813 2.002-4.105 4.498-4.556 6.797-.476 2.419 1.837-.486 2.548-1.323z" transform="translate(-368 -239) translate(250 141) translate(118 98) translate(34.3)"/>
                        <path fill="#996A00" d="M48.492 107.397c-.461-1.396.456 1.397 0 0z" transform="translate(-368 -239) translate(250 141) translate(118 98) translate(34.3)"/>
                        <path fill="#EEA603" d="M48.492 107.397c.907 2.73 3.578 9.51 5.24 11.897l.263.382c1.613 2.24 3.556 4.294 5.827 6.096 9.209 7.312 21.528 8.901 32.144 3.752 11.512-5.585 17.21-17.93 23.079-29.624.014-.028.025-.059.035-.09 3.997-7.41 3.339-14.543-1.883-21.228-2.492-3.188-5.275-6.167-8.082-9.09-7.479-7.794-15.532-15.263-13.53-27.86-4.837 6.854-8.999 13.584-7.497 22.117-5.72 8.089-10.273 17.685-11.946 27.59-1.508 8.908-.48 18.036 2.583 26.23-.84-.284-1.67-.603-2.485-.96-23.184-10.951-7.273-34.674-7.273-34.674h-.004c3.819-5.561 7.463-11.235 10.634-17.143 4.515-8.41 2.436-17.028-3.721-24.913-1.176 9.422-2.153 13.594-5.684 19.39-.014.025-24.094 28.525-17.7 48.128zM80.54 81.49c.644-4.41 3.555-10.804 4.591-15.14h.011c4.945 5.887 11.123 14.413 15.547 20.272 3.377 4.472 6.653 9.233 8.816 14.353 2.013 4.76.144 7.396-4.683 9.475-6.18 2.666-13.013 1.123-18.084-4.159-6.79-7.073-7.518-15.76-6.198-24.8zM134.904 126.728c-1.463 3.748-2.674 7.588-3.903 11.35-3.972-.868-7.875-1.774-11.819-2.411-.917-.147-2.646.738-2.965 1.554-1.68 4.305-3.027 8.743-4.455 13.03 6.699 1.66 11.715 2.898 16.502 4.085l3.738-14.193 14.952 3.7c1.313-4.984 2.605-9.887 4.197-15.939-4.484-.956-8.855-2.013-13.282-2.73-.914-.15-2.647.738-2.965 1.554z" transform="translate(-368 -239) translate(250 141) translate(118 98) translate(34.3)"/>
                        <path fill="#EEA603" d="M117.453 117.96c-1.68 4.306-3.028 8.744-4.456 13.031 6.703 1.659 11.715 2.898 16.503 4.084 1.313-4.983 2.604-9.887 4.196-15.938-4.483-.956-8.855-2.013-13.282-2.73-.913-.151-2.642.738-2.961 1.553zM156.334 144.256c-2.702 1.607-5.785 3.598-7.86 6.013-6.99 8.13-3.738 18.056.945 26.499 2.677 4.822 5.683 9.579 6.936 15.022.494 2.131.739 4.445.47 6.66-1.673 1.474-3.35 2.944-5.023 4.417.767-2.639.97-5.453.536-8.218-1.968-12.488-20.143-28.514-9.265-41.167 1.88-2.188-2.422.262-2.828.504-2.702 1.607-5.786 3.598-7.861 6.013-6.99 8.13-3.738 18.056.945 26.499 2.677 4.823 5.684 9.579 6.937 15.022.637 2.761.875 5.827.091 8.588-.007.025-.049.123-.108.27-.644.343-1.348.809-1.715 1.043l-1.534.977c-.444.283-.885.57-1.326.86.875-2.495 1.113-5.218.647-8.179-1.966-12.488-20.142-28.514-9.264-41.167 1.88-2.188-2.422.262-2.828.504-2.702 1.607-5.785 3.598-7.861 6.013-6.99 8.13-3.738 18.056.945 26.499 2.677 4.822 4.855 9.841 6.937 15.022.658 1.638 2.502 5.491.707 7.92-2.18 1.347-3.913 1.827-5.281 1.701-1.908-.714-2.737-1.939-3.812-4.42-1.928-4.453-.308-9.944-1.078-14.62-.917-5.544-3.976-7.704-7.805-8.082 0 0 .357 8.31-2.457 15.904-.368.945-.767 1.873-1.204 2.79.137 1.922.123 3.857.259 5.621.438 5.68 2.398 10.864 8.596 12.005 6.069 1.117 11.767-2.408 16.597-5.635 4.715-3.146 17.22-11.907 26.796-18.977 2.737-1.782 5.243-3.948 7.259-5.81 3.888-3.588 5.936-7.889 5.806-12.94.011-.087.011-.175-.003-.269-.028-.721-.101-1.456-.22-2.209-1.968-12.488-20.143-28.514-9.265-41.167 1.893-2.197-2.405.252-2.81.494zM68.943 235.435c2.32-5.349 3.308-11.127 5.044-16.667 5.736-17.822 23.737-15.618 23.737-15.618.052-1.043.027-2.089-.067-3.121-.08-.865-.224-1.68-.49-2.503-.13-.406-.305-.854-.385-1.306-1.95.69-3.819 1.481-5.467 2.209-10.272 4.557-21.889 11.795-26.806 22.327-2.216 4.745-3.276 9.915-4.663 14.938-.7 2.534-1.476 5.043-2.523 7.458-.514 1.187-1.081 2.356-1.726 3.479-.29.511-.616 1.001-.938 1.491-1.084.147-2.621.381-2.855.381-1.66-.006-3.294-.304-4.883-.773-2.663-.787-5.159-2.117-7.448-3.675-4.669-3.174-8.47-7.462-11.767-12.008-13.531-18.635-17.472-42.83-15.018-65.356 3.244-29.771 32.416-83.937 46.798-109.697.546-.977-4.455 1.837-4.753 2.034-2.17 1.428-20.538 30.194-21.864 32.57C8.788 134.73-16.93 192.358 14.745 238.745c6.086 8.911 16.019 19.6 27.971 18.116 5.905-.734 11.337-4.773 15.87-8.354 4.525-3.577 8.046-7.749 10.356-13.072z" transform="translate(-368 -239) translate(250 141) translate(118 98) translate(34.3)"/>
                        <path fill="#EEA603" d="M107.796 238.973c-1.508-6.643-5.32-12.156-10.108-17.175 3.206-5.834 5.632-12.05 6.997-18.721 2.198-10.731.92-22.309-6.335-31.591-7.728-9.887-26.194-18.9-22.176-32.938.71-2.478-2.016 1.263-2.219 1.567-1.614 2.44-3.126 5.177-3.916 7.939-3.094 10.808 5.505 19.144 13.635 26.33 8.733 7.718 14.69 15.925 15.551 26.982.403 5.155-.185 10.363-1.708 15.322-.378 1.229-.85 2.391-1.403 3.514-4.246-4.189-8.457-7.524-13.094-11.465-2.247 2.499-6.846 8.029-6.626 11.165 2.422 2.086 4.88 4.137 7.27 6.209 1.652 1.431 3.283 2.883 4.865 4.378-7.763 8.466-17.206 15.606-26.617 22.596-1.065.791-7.161 10.86-5.828 11.312 11.882 4.007 25.091 4.242 36.806.06 5.929-2.118 9.023-5.923 11.7-10.892 2.513-4.666 4.397-9.339 3.206-14.592zm-12.75 15.74c-3.385.913-6.902 1.487-10.444 1.732-5.436.375-10.84-.08-16.1-1.236 8.162-6.769 15.785-14.094 21.99-22.193 1.621 1.642 3.164 3.343 4.568 5.135 1.733 2.215 3.241 4.563 4.417 7.041.69 1.453 1.284 2.944 1.68 4.48.13.505.13 1.691.182 2.776-1.953 1.001-4.133 1.68-6.293 2.264z" transform="translate(-368 -239) translate(250 141) translate(118 98) translate(34.3)"/>
                    </g>
                </g>
            </g>
        </g>
    </g>
</svg>
