<svg xmlns="http://www.w3.org/2000/svg" width="70" height="92" viewBox="0 0 70 92">
    <g fill="none" fill-rule="evenodd">
        <g>
            <g>
                <g fill="#5B0000" fill-rule="nonzero">
                    <path d="M4.313 4.155H2.556v-.122h.166c.153 0 .258-.006.312-.02.124-.028.187-.095.187-.199 0-.052-.023-.14-.068-.262l-.431-1.16H1.399l-.369 1c-.085.234-.128.367-.128.403 0 .158.173.237.518.237h.1v.122H.044v-.122c.26-.009.428-.078.505-.21.05-.087.111-.228.184-.424L1.897.223 1.84.083h.555L3.731 3.63c.078.208.183.332.312.371.066.021.156.031.267.031v.123h.003zm-1.7-2.044L2.052.621l-.543 1.49h1.104zM9.736 3.222l-.492.933H6.39v-.122h.212c.152 0 .257-.032.315-.095.058-.063.087-.172.087-.326V.782c0-.183-.038-.309-.114-.377-.076-.069-.206-.103-.392-.103h-.09V.18h1.884v.122h-.237c-.272 0-.432.05-.477.15-.029.063-.044.16-.044.29v2.945c0 .159.085.237.253.237h.941c.218 0 .4-.084.547-.252.073-.084.188-.233.346-.45h.115zM13.544 4.155H11.99v-.122c.198-.009.329-.053.393-.134.059-.073.087-.212.087-.415V.764c0-.174-.037-.293-.112-.36-.068-.058-.191-.092-.368-.103V.18h1.554V.3c-.268 0-.432.065-.49.194-.035.077-.053.186-.053.325v2.708c0 .252.07.404.21.459.078.03.19.047.334.047v.12h-.001zM18.59 3.166c0 .337-.137.609-.41.814-.247.185-.545.278-.891.278-.15 0-.372-.04-.665-.122-.128-.036-.203-.053-.224-.053-.054 0-.097.024-.128.072h-.11l-.134-.97h.122c.064.265.191.48.38.642.198.17.431.256.7.256.242 0 .446-.063.61-.19.181-.137.272-.325.272-.562 0-.216-.123-.429-.367-.64-.123-.103-.348-.256-.674-.458-.3-.185-.52-.347-.659-.484-.235-.23-.352-.477-.352-.74 0-.363.186-.632.559-.804.174-.081.367-.121.58-.121.21 0 .425.037.645.112.098.033.172.05.222.05.046 0 .085-.022.115-.066h.103l.11.812h-.11c-.085-.221-.218-.4-.4-.537-.188-.143-.399-.215-.629-.215-.2 0-.365.049-.496.147-.146.108-.218.26-.218.452 0 .212.12.42.362.621.068.059.28.198.633.419.333.208.568.382.705.521.232.233.348.49.348.766zM25.673 4.155h-1.81v-.122h.2c.254 0 .408-.067.462-.203.027-.068.04-.16.04-.277V2.258h-2.501V3.47c0 .206.032.349.097.428.073.089.21.134.411.134h.019v.122h-1.603v-.122h.04c.248 0 .4-.061.459-.184.03-.067.047-.16.047-.28V.754c0-.167-.037-.283-.11-.347-.064-.059-.182-.093-.352-.106V.18h1.52v.122c-.28 0-.445.077-.49.23-.025.086-.037.214-.037.385v1.11h2.501V.77c0-.18-.039-.305-.118-.374-.07-.063-.198-.094-.384-.094h-.122V.18h1.641v.122c-.248.009-.395.08-.443.213-.028.078-.043.183-.043.312v2.651c0 .283.068.452.206.509.077.03.178.047.305.047h.065v.12zM32.859 4.227c-.094.004-.183.007-.268.007-.376 0-.68-.051-.911-.153-.216-.096-.481-.3-.796-.614l-.421-.422c-.279-.278-.499-.47-.659-.571-.212.009-.356.012-.434.012-.083 0-.19-.003-.324-.012v1.079c0 .239.07.386.212.44.071.027.17.04.297.04h.146v.122h-1.806v-.122h.11c.197 0 .331-.038.403-.115.072-.077.108-.215.108-.415V.814c0-.189-.034-.322-.1-.397-.066-.076-.193-.115-.38-.115h-.14V.18c.085 0 .272-.008.561-.024.075-.004.156-.01.244-.013.273-.012.54-.02.805-.02.461 0 .839.075 1.132.223.387.194.58.498.58.914 0 .256-.081.476-.243.661-.151.175-.354.3-.608.374.196.152.438.374.73.665l.505.505c.266.266.532.449.799.549.14.052.292.084.459.097v.116h-.001zM30.615 1.3c0-.451-.167-.759-.502-.92-.185-.09-.435-.135-.749-.135-.137 0-.242.004-.317.012v2.094c.073.01.204.015.396.015.782.001 1.172-.355 1.172-1.066zM39.106 4.155h-1.757v-.122h.165c.154 0 .258-.006.312-.02.125-.028.187-.095.187-.199 0-.052-.023-.14-.069-.262l-.431-1.16h-1.321l-.369 1c-.085.234-.127.367-.127.403 0 .158.172.237.517.237h.1v.122h-1.475v-.122c.26-.009.429-.078.505-.21.05-.087.112-.228.185-.424L36.69.223l-.055-.14h.554l1.336 3.547c.078.208.183.332.312.371.066.021.155.031.268.031v.123zm-1.7-2.044l-.562-1.49-.544 1.49h1.105zM45.347 4.155H43.59v-.122h.165c.153 0 .258-.006.312-.02.125-.028.187-.095.187-.199 0-.052-.023-.14-.069-.262l-.43-1.16h-1.323l-.369 1c-.085.234-.127.367-.127.403 0 .158.172.237.517.237h.1v.122h-1.475v-.122c.26-.009.429-.078.505-.21.05-.087.112-.228.185-.424L42.93.223l-.055-.14h.554l1.336 3.547c.078.208.183.332.312.371.066.021.155.031.268.031v.123zm-1.7-2.044l-.562-1.49-.544 1.49h1.105zM52.411 5.312l-.1.134c-.101.025-.2.038-.296.038-.3 0-.608-.1-.924-.3-.055-.034-.316-.233-.786-.599-.204-.158-.39-.27-.559-.334-.385-.027-.734-.124-1.048-.29-.339-.18-.603-.426-.792-.736-.18-.3-.272-.63-.272-.993 0-.403.1-.767.3-1.092.2-.324.479-.581.839-.773.353-.19.744-.284 1.173-.284.62 0 1.145.174 1.575.524.462.374.693.864.693 1.47 0 .69-.27 1.25-.808 1.681-.26.209-.56.358-.898.447.2.073.5.278.901.617.372.317.707.48 1.002.49zm-.799-3.042c0-.567-.157-1.04-.47-1.42-.334-.403-.778-.604-1.336-.604-.51 0-.908.2-1.195.602-.252.353-.378.757-.378 1.21 0 .369.075.706.225 1.011.16.328.39.584.69.764.284.173.592.26.926.26.652 0 1.108-.313 1.366-.94.115-.279.172-.573.172-.883z" transform="translate(-81 -23) translate(81 23) translate(8.16 85.536)"/>
                </g>
                <g fill="#D6BC61">
                    <path fill-rule="nonzero" d="M60.21 58.734H8.537c0-1.758 6.009-3.182 8.835-3.182h33.505c2.826 0 9.331 1.424 9.331 3.182zM22.97 49.92h22.31c0 2.388-3.762 4.324-4.982 4.324H28.46c-1.221 0-5.49-1.936-5.49-4.325z" transform="translate(-81 -23) translate(81 23) translate(.017 25.006)"/>
                    <path d="M53.145 43.68c.702.333 1.694 1.367 1.747 2.177l.002.063c0 .283-.125.525-.383.738-.275.224-.806.336-1.337.336-.53 0-1.062-.111-1.336-.336-.258-.213-.383-.455-.383-.738l.002-.063c.049-.752.973-1.683 1.688-2.178zM27.731 9.52c-.754-.133-1.37-.419-1.922-.803-.254-.177-.494-.374-.726-.587.35 1.028-.148 2.025-.634 3-.506 1.014-1.044 2.135-.574 3.3.165.41.437.833.802 1.025.901.441 1.718-.54 1.351-1.337-.256-.674-.903-.786-1.468-.6.35-.807.94-1.095 1.71-1.423 1.338-.567 1.894-1.116 1.461-2.574zM23.57 43.317c.31.022.622.02.931-.014.146-1.57.23-4.999-1.701-5.582-1.14-.349-2.344.344-2.56 1.518-.266 1.82 2.279 2.968 2.603 1.082l1.16.017c.09 1.052-.068 2.006-.432 2.98zM16.16 20.827c.537.031 1.015-.236 1.236-.76.98-2.71-3.07-5.014-5.054-2.99.209.17.413.343.593.506 1.334-.573 2.534-.374 3.384.566l.19.211c-.575-.034-1.045.21-1.29.79-.334.792.149 1.561.94 1.677zM18.47 39.137c.243.08.3-.908.538-.815.715-2.683-.743-4.436-2.335-6.638-1.454-2.075-3.032-3.914-.989-6.232-.038.865-.045 1.707.884 2.152.6.288 1.231.21 1.73-.217.543-.464.795-1.216.613-1.828-.137-.455-.475-.81-.951-1.005-.718-.29-1.312-.128-1.943.221.007-.805-.039-1.667-.757-2.194-.302-.221-.67-.32-1.047-.294.745.711 1.018 1.486.858 2.411-.25 1.28-.972 1.949-1.064 3.13-.113 1.45.95 2.768 1.757 3.9 1.403 1.92 3.343 4.302 2.701 6.856l.005.553zM48.892 35.468c-1.438.984-2.907 2.372-3.475 4.064 1.045-1.702 2.534-3.18 4.255-4.198 1.22-.72 2.635-.935 4.038-1.01-2.634.593-4.518 3.184-6.142 5.574l-.621.863c-.775 1.06-1.649 1.14-2.207.861-1.371-.682-1.077-2.372-.186-3.258 1.227-1.221 2.722-2.204 4.338-2.896zM45.233.268c.41.62.898 1.053 1.445 1.391.252.156.516.291.792.413-1.026.098-1.694.938-2.348 1.758-.68.854-1.44 1.78-2.632 1.825-.418.016-.891-.058-1.199-.306-.732-.627-.203-1.744.63-1.735.683-.04 1.032.491 1.092 1.068.561-.632.58-1.272.563-2.089-.03-1.417.228-2.13 1.657-2.325zM34.707 18.913c.195-.074.385-.165.565-.275.743-.45 1.446-1.421 1.816-2.507-.196 1.6-1.429 2.534-1.717 2.708-.548.333-1.318.639-1.92.453-.065.121-.13.242-.197.362 1.29.283 2.549.083 3.46-.55 1.53-1.062 1.65-2.74 1.71-4.42.033-.91.064-1.769.31-2.345l.111-.26.1.31c.087.27.177.55.52.64.373.1.93-.159 1.047-.602.12-.455-.153-.923-.61-1.044-.846-.225-1.269.724-1.717 1.729-.331.742-.72 1.369-1.32 1.803-1.194.865-1.097.933-1.45 2.614-.117-1.605-1.322-1.023-2.242-1.254-.352-.088-.635-.28-.924-.64l.326.081c.386.096.72-.368.506-.722-.165-.273-.565-.233-.764.004-.214.257-.274.74-.208 1.062.093.477.395.787.755 1.004.672.408 2.205.511 1.897 1.698-.013.055-.031.106-.054.151zM5.093 35.804c-.531-.096-.968-.494-1.22-.852.307 1.944 1.439 4.086 2.894 5.417.302-.138.632-.293.938-.448-1.283-1.194-2.14-2.545-2.612-4.117z" transform="translate(-81 -23) translate(81 23) translate(.017 25.006)"/>
                    <path d="M6.382 36.461c.902-.261 1.287-.88 1.287-2.066 0-.502-.069-1.057-.135-1.596-.064-.518-.125-1.007-.13-1.464V31.3c0-.814.365-1.177 1.007-1.44-1.032-.976-2.767.246-3.918 1.36-2.024 1.959-1.977 6.302 1.889 5.241z" transform="translate(-81 -23) translate(81 23) translate(.017 25.006)"/>
                    <path d="M2.725 23.302c.41-.223.583-.295 1.01-.458.676-.258 1.247-.265 1.705-.02.503.268.876.856 1.105 1.746l.02.084c-1.3-.195-2.425.158-3.341 1.065-1.62 1.6-2.12 4.52-1.897 6.558.428 3.748 2.018 6.755 5.293 8.434.04-1.127.061-2.181 1.058-2.835.954-.625 2.327-.51 3.788.304-.747 1.406-1.634 2.232-3.173 2.207l.527.411c3.321 2.673-.471 4.883-3.147 2.342l.834.87c2.656 2.848 5.765 4.61 9.34 5.646-1.137-.667-2.375-2.908-.41-4.045-.533 1.867.429 3.529 1.903 4.14 1.85.765 4.005.428 5.773.146.065.326.128.636.176.97-3.477.595-7.008.225-10.366-1.19C7.201 47.266 2.713 42.1 1.058 35.7.27 32.655.06 29.656.656 26.652c.297-1.505.636-3.21.305-4.488-.16-.62-.48-1.08-.935-1.387.245-.568.784-.937 1.431-.945 1.737.054 2.062 2.527 1.268 3.47z" transform="translate(-81 -23) translate(81 23) translate(.017 25.006)"/>
                    <path d="M14.99 43.68c.715.494 1.64 1.425 1.689 2.177l.002.063c0 .283-.126.525-.383.738-.275.224-.806.336-1.337.336-.53 0-1.061-.111-1.336-.336-.258-.213-.383-.455-.383-.738l.002-.063c.053-.81 1.044-1.843 1.746-2.178zM63.043 35.804c-.473 1.572-1.33 2.922-2.613 4.117.306.155.635.31.938.448 1.455-1.331 2.587-3.473 2.894-5.417-.25.358-.687.756-1.219.852z" transform="translate(-81 -23) translate(81 23) translate(.017 25.006)"/>
                    <path d="M61.755 36.461c3.866 1.06 3.913-3.282 1.889-5.24-1.151-1.114-2.887-2.337-3.919-1.36.643.263 1.007.626 1.007 1.44v.035c-.004.457-.065.946-.13 1.464-.066.54-.135 1.093-.135 1.596 0 1.187.385 1.804 1.288 2.065z" transform="translate(-81 -23) translate(81 23) translate(.017 25.006)"/>
                    <path d="M65.41 23.302c-.794-.943-.468-3.415 1.27-3.47.648.008 1.187.377 1.432.945-.455.307-.775.766-.935 1.387-.33 1.278.007 2.983.305 4.488.595 3.004.386 6.003-.402 9.048-1.656 6.4-6.143 11.566-11.866 13.977-3.358 1.415-6.889 1.785-10.366 1.19.048-.334.112-.644.177-.97 1.767.282 3.923.62 5.772-.147 1.476-.61 2.437-2.272 1.904-4.14 1.966 1.138.727 3.38-.41 4.046 3.575-1.036 6.684-2.798 9.34-5.645l.833-.871c-2.675 2.542-6.467.331-3.147-2.342l.527-.411c-1.54.025-2.426-.801-3.172-2.207 1.46-.814 2.832-.929 3.788-.304.996.653 1.018 1.707 1.058 2.835 3.273-1.68 4.865-4.686 5.293-8.434.22-2.037-.278-4.958-1.897-6.558-.917-.907-2.04-1.26-3.34-1.065l.018-.084c.23-.89.602-1.478 1.105-1.747.458-.244 1.03-.237 1.705.02.427.163.598.235 1.008.46z" transform="translate(-81 -23) translate(81 23) translate(.017 25.006)"/>
                </g>
                <g fill-rule="nonzero">
                    <path fill="#AB801B" d="M20.555 8.017l3.294 3.3 3.247-3.145c-.917-.86-1.792-1.73-2.73-2.525-.042-.036-.102-.065-.17-.088.9-.87 1.808-1.75 2.9-2.809-.917-.86-1.792-1.729-2.73-2.524-.194-.166-.727-.202-.917-.056-1.005.773-1.95 1.622-2.894 2.427l2.956 2.961c-.022.011-.045.02-.061.034-1.006.77-1.952 1.621-2.895 2.425zM46.197 34.386c-2.597-5.127-6.362-9.451-9.945-13.905-2.39-2.972-5.273-5.733-5.161-10.154-1.924 2.424-2.258 4.9-.92 7.347 1.204 2.198 2.7 4.258 4.218 6.27 3.07 4.068 6.413 7.946 9.319 12.12 2.759 3.964 4.313 8.448 4.478 13.335.258 7.627-3.324 13.624-9.985 16.23-1.761.69-6.556 1.48-6.731 2.246-.45 1.97-1.094 3.085-2.708 4.213.078.007.347.048.615.047 8.274-.032 14.442-3.577 17.856-11.008 4.138-9.005 3.398-17.985-1.036-26.74zM17.13 43.478c-.513.657-.906 1.459-1.194 2.215-1.166 3.067-1.144 6.387.418 9.395.572 1.1 1.342 2.08 2.21 2.995.485-.39.923-.835 1.418-1.213.424-.322.871-.612 1.314-.909-.784-.718-1.513-1.459-2.128-2.254-2.26-2.925-2.987-6.765-1.722-10.092.213-.563.044-.6-.317-.137zM9.795 63.648c1.795-2.114 3.355-4.43 3.99-7.165.61-2.621.423-5.339-.081-7.96-.629-3.264-1.755-6.538-2.376-9.837.23-.327.4-.653.377-.895-.257-2.64-.303-5.285-.14-7.934.02-.331-1.015.845-1.077.922-.489.598-1.094 1.298-1.332 2.05-1.602 5.055-.036 10.207 1.275 15.134.664 2.492 1.284 5.034 1.33 7.625.021 1.167-.068 2.344-.302 3.488-.103.504-.232 1.003-.393 1.49-.118.358-.257.708-.418 1.049-.094.2-.388.607-.302.532-.497.549-1.126 1.233-1.25 1.864-.13.663.504-.134.699-.363z" transform="translate(-81 -23) translate(81 23) translate(9.408)"/>
                    <path fill="#996A00" d="M13.303 29.458c-.132-.383.13.383 0 0z" transform="translate(-81 -23) translate(81 23) translate(9.408)"/>
                    <path fill="#AB801B" d="M13.3 29.458c.25.748.982 2.608 1.438 3.263l.072.104c.442.615.975 1.178 1.598 1.673 2.526 2.005 5.905 2.44 8.817 1.029 3.157-1.532 4.72-4.918 6.33-8.126.004-.007.007-.016.01-.025 1.096-2.032.916-3.988-.517-5.822-.683-.875-1.446-1.692-2.216-2.493-2.052-2.138-4.26-4.187-3.712-7.642-1.326 1.88-2.468 3.726-2.056 6.066-1.569 2.219-2.818 4.851-3.276 7.568-.414 2.443-.132 4.947.708 7.194-.23-.077-.458-.165-.682-.263-6.359-3.004-1.994-9.51-1.994-9.51h-.001c1.047-1.526 2.046-3.082 2.916-4.702 1.238-2.307.668-4.67-1.02-6.834-.323 2.585-.59 3.729-1.56 5.319-.003.006-6.608 7.824-4.854 13.2zm8.79-7.106c.177-1.21.976-2.964 1.26-4.153h.003c1.356 1.614 3.05 3.953 4.264 5.56.927 1.227 1.825 2.533 2.419 3.937.552 1.306.039 2.028-1.285 2.599-1.695.731-3.57.308-4.96-1.14-1.863-1.94-2.062-4.324-1.7-6.803zM37.002 34.76c-.401 1.028-.733 2.081-1.07 3.113-1.09-.238-2.16-.487-3.242-.661-.252-.04-.726.202-.813.426-.461 1.18-.83 2.398-1.222 3.574l4.526 1.12 1.025-3.893 4.102 1.015 1.15-4.372c-1.23-.262-2.428-.552-3.643-.749-.25-.04-.725.203-.813.427z" transform="translate(-81 -23) translate(81 23) translate(9.408)"/>
                    <path fill="#AB801B" d="M32.216 32.355c-.461 1.18-.83 2.398-1.222 3.574l4.526 1.12 1.151-4.372c-1.23-.262-2.429-.552-3.643-.748-.25-.042-.725.202-.812.426zM42.88 39.567c-.74.441-1.587.987-2.156 1.65-1.917 2.23-1.025 4.952.26 7.268.734 1.323 1.558 2.627 1.902 4.12.135.585.203 1.22.129 1.827l-1.378 1.212c.21-.724.266-1.496.147-2.255-.54-3.425-5.525-7.82-2.541-11.291.515-.6-.664.072-.776.138-.74.44-1.587.987-2.156 1.65-1.917 2.23-1.025 4.952.26 7.268.734 1.322 1.558 2.627 1.902 4.12.175.757.24 1.598.025 2.356l-.03.074c-.176.094-.37.221-.47.286l-.42.268c-.123.077-.244.156-.365.236.24-.685.306-1.432.178-2.244-.54-3.425-5.525-7.82-2.541-11.291.515-.6-.664.072-.776.138-.74.44-1.587.987-2.156 1.65-1.917 2.23-1.025 4.952.26 7.267.734 1.323 1.33 2.7 1.902 4.12.18.45.686 1.507.194 2.173-.598.37-1.073.501-1.449.467-.523-.196-.75-.532-1.045-1.213-.53-1.22-.085-2.727-.296-4.01-.251-1.52-1.09-2.113-2.14-2.216 0 0 .097 2.279-.675 4.362-.1.26-.21.514-.33.765.038.527.034 1.058.071 1.542.12 1.558.658 2.98 2.358 3.293 1.665.306 3.228-.66 4.552-1.546 1.293-.863 4.724-3.266 7.35-5.205.75-.489 1.438-1.083 1.991-1.594 1.067-.984 1.628-2.164 1.593-3.549.003-.024.003-.048-.001-.074-.008-.197-.028-.4-.06-.605-.54-3.426-5.525-7.822-2.542-11.292.52-.603-.66.07-.77.135zM18.91 64.576c.637-1.467.907-3.052 1.383-4.571 1.574-4.889 6.511-4.284 6.511-4.284.015-.286.008-.573-.018-.856-.022-.237-.062-.46-.134-.686-.036-.112-.084-.235-.106-.359-.535.19-1.047.407-1.5.606-2.817 1.25-6.003 3.235-7.352 6.124-.608 1.302-.899 2.72-1.279 4.097-.192.695-.405 1.384-.692 2.046-.141.326-.297.646-.473.954-.08.14-.17.275-.258.41-.297.04-.719.104-.783.104-.455-.002-.903-.084-1.34-.212-.73-.216-1.414-.581-2.042-1.008-1.28-.87-2.323-2.047-3.228-3.294C3.888 58.536 2.807 51.9 3.48 45.721c.89-8.166 8.892-23.023 12.836-30.088.15-.268-1.222.504-1.304.557-.595.392-5.633 8.282-5.997 8.934-6.604 11.83-13.659 27.637-4.97 40.36 1.669 2.445 4.393 5.376 7.672 4.97 1.62-.202 3.11-1.31 4.352-2.292 1.242-.981 2.207-2.126 2.841-3.586z" transform="translate(-81 -23) translate(81 23) translate(9.408)"/>
                    <path fill="#AB801B" d="M29.567 65.547c-.414-1.822-1.46-3.334-2.772-4.71.879-1.601 1.544-3.306 1.919-5.136.602-2.943.252-6.119-1.738-8.665-2.12-2.712-7.185-5.184-6.083-9.034.195-.68-.553.346-.608.43-.443.669-.857 1.42-1.074 2.177-.85 2.964 1.51 5.251 3.74 7.222 2.395 2.117 4.029 4.368 4.265 7.4.11 1.415-.05 2.843-.468 4.204-.104.337-.234.655-.385.963-1.165-1.149-2.32-2.064-3.592-3.145-.616.686-1.878 2.203-1.817 3.063.664.572 1.338 1.135 1.994 1.703.453.393.9.79 1.334 1.2-2.129 2.323-4.72 4.281-7.3 6.199-.292.217-1.965 2.978-1.599 3.102 3.26 1.1 6.882 1.164 10.095.017 1.627-.581 2.475-1.625 3.21-2.988.689-1.28 1.205-2.561.879-4.002zm-3.497 4.317c-.929.25-1.893.408-2.865.475-1.49.103-2.973-.022-4.416-.339 2.239-1.856 4.33-3.866 6.032-6.087.444.45.868.917 1.253 1.408.475.608.889 1.252 1.211 1.932.19.398.352.807.46 1.229.036.138.036.463.05.76-.535.275-1.133.462-1.725.622z" transform="translate(-81 -23) translate(81 23) translate(9.408)"/>
                </g>
            </g>
        </g>
    </g>
</svg>
