<svg xmlns="http://www.w3.org/2000/svg" width="95" height="116" viewBox="0 0 95 116">
    <g fill="none" fill-rule="evenodd">
        <g fill="#AB801B" fill-rule="nonzero">
            <path d="M1254.977 420.679c-.916-.971-1.831-1.348-3.232-1.079-.646.162-1.346.432-1.561.162-.216-.27.107-1.025.323-1.672.485-1.24.808-1.941.7-2.912-.054-.54-.27-1.132-.7-1.456-.485-.378-1.347-.324-1.885 0-.593.324-.862.97-1.077 1.618-.27.7-.485 1.51-1.023 1.78-.539.215-1.347-.054-1.94.161-.645.216-.969 1.025-1.453 1.672-.27.324-.539.593-.862.701-.108.054-.27.054-.485.054-1.238-.27-1.561-.377-1.885-.54-.484-.215-.807-.43-1.13-.646-.485-.378-.862-.701-1.185-1.133-.108-.162-.216-.27-.377-.431l1.454-1.456 3.123-3.128c.485-.486 1.024-.97 1.67-1.348 1.13-.648 2.585-.917 3.824-.702.807.108 1.454.432 1.507 0 .054-.215-.053-.647-.269-.97-.27-.486-.7-.755-1.185-.917-1.023-.377-2.208-.216-3.123.108-.7.216-1.293.54-1.939 1.24-.485.486-1.023 1.133-1.13 1.133-.163 0 .376-1.079.753-2.05 1.077-2.48 1.346-4.206.215-5.5-.646-.755-1.777-1.295-2.423-2.157-.592-.755-.754-1.726-.97-2.697-.484.97-.969 1.888-.753 2.858.215 1.025 1.13 2.104.969 3.074-.108.54-.539 1.025-.862 1.564-.808 1.187-1.023 2.535-.538 3.56.43.97 1.4 1.725.808 2.858-.593 1.132-1.293 2.21-2.1 3.181-.54-.755-1.024-1.51-1.563-2.265-.43-.647-.861-1.294-1.346-1.995-.808-1.132-1.777-2.319-2.908-3.128-.754-.593-1.616-.97-2.585-.809-.754.108-1.616.54-2.047 1.24-.161.216-.215.432-.323.648-.161.377-.269.863-.484 1.24-.27.54-.7.863-1.24.863-.43 0-.915-.27-1.238-.593-.269-.27-.377-.647-.377-1.025 0-.593.323-1.24.97-1.456.269-.054.538-.054.754-.108.377-.054.646-.215.861-.431.431-.485.7-1.24.916-1.995.27-1.24.215-2.589-.27-3.775-.43-.971-1.13-1.834-1.938-2.589-1.239-1.186-2.531-2.157-3.824-3.182-1.185-.97-2.37-1.941-3.5-2.966l.43-.431c.754-.647 1.67-1.133 2.64-1.295.43-.054.86-.107 1.292-.054.97.054 1.939.324 2.854.648-.323.7-.377 1.402-.27 2.103.109.593.378 1.186.755 1.618.538.7 1.4 1.132 2.262 1.294.7.108 1.346.108 1.992-.324.27-.161.593-.431.916-.539.808-.27 1.616.378 2.423 1.402.97 1.24 1.885 3.02 2.155 2.535.161-.216.107-1.025.053-1.726-.161-1.078-.43-1.833-.807-2.642-.216-.378-.431-.755-.7-1.133-.27-.377-.593-.755-.97-1.078-1.346-1.24-3.016-1.888-4.416-2.05-.646-.054-1.185-.054-1.723-.323-.216-.162-.431-.324-.7-.54-.485-.323-1.078-.485-1.67-.593-.592-.108-1.131-.162-1.993-.215.647-.486 1.347-.971 1.94-1.51.915-.863 1.669-1.996 1.938-3.236.323-1.51-.162-3.128-.97-4.476-.269-.432-.592-.81-.753-1.294-.216-.54-.162-1.24-.108-1.888-.539.97-1.131 1.941-1.562 3.02-.539 1.24-.915 2.535-.862 3.829.054 1.025.323 2.05 0 3.02-.215.647-.754 1.294-1.292 1.78-.754.593-1.616.916-2.316 1.402-.592.431-1.13.97-1.562 1.618-.861-.863-1.723-1.726-2.585-2.697-.7-.755-1.346-1.618-1.562-2.588-.161-.701-.053-1.51.216-2.211.323-.81.97-1.51 1.723-2.05.485-.377 1.077-.647 1.616-.755.7-.162 1.454-.162 2.477-.108.593.054 1.293.108 1.616-.107.538-.378.323-1.403 0-2.158-.377-.862-.808-1.348-1.4-1.671-.539-.324-1.239-.54-1.993-.594-.7 0-1.508.162-1.723-.054-.27-.27.161-1.024.377-1.887.215-.97.161-1.995-.162-2.966-.215-.809-.592-1.51-1.023-2.103-.97-1.295-2.316-1.78-2.64-2.912-.214-.702-.053-1.672-.591-2.481-.216-.324-.485-.593-.916-.863-.377.216-.7.54-.862.863-.538.863-.377 1.78-.592 2.48-.323 1.133-1.67 1.618-2.639 2.913-.43.593-.808 1.348-1.023 2.103-.27.97-.377 1.995-.162 2.966.216.863.646 1.618.377 1.887-.215.216-.97 0-1.723.054-.754 0-1.454.27-1.993.594-.646.377-1.077.809-1.4 1.671-.323.755-.539 1.78 0 2.158.377.215 1.023.161 1.616.107 1.023-.054 1.777-.107 2.477.108.539.162 1.13.432 1.616.755.754.54 1.346 1.24 1.723 2.05.27.7.377 1.51.215 2.21-.215.971-.915 1.834-1.561 2.59-.862.97-1.724 1.833-2.585 2.696-.054-.108-.108-.162-.162-.216-.43-.54-.862-1.025-1.4-1.348-.7-.486-1.562-.81-2.316-1.403-.592-.485-1.077-1.078-1.293-1.78-.323-.97-.053-1.994 0-3.02.054-1.293-.323-2.588-.861-3.828-.431-1.025-.97-1.995-1.562-3.02.054.647.108 1.294-.108 1.887-.161.432-.484.863-.754 1.295-.861 1.348-1.292 2.966-.969 4.476.27 1.24 1.023 2.373 1.939 3.235.592.594 1.238 1.08 1.939 1.51-.808 0-1.4.108-1.993.216-.593.108-1.185.27-1.67.593-.269.162-.484.378-.7.54-.538.323-1.077.27-1.723.323-1.4.162-3.07.81-4.416 2.05-.377.323-.7.7-.97 1.078-.269.378-.484.755-.7 1.133-.43.809-.7 1.564-.808 2.642-.107.701-.107 1.456.054 1.726.27.431 1.185-1.348 2.155-2.535.807-1.024 1.615-1.672 2.423-1.402.323.108.592.324.916.54.7.377 1.346.43 1.992.323.808-.162 1.67-.593 2.262-1.294.377-.486.646-1.079.754-1.618.162-.701.108-1.402-.215-2.103.969-.27 1.938-.54 2.854-.648.43-.054.862 0 1.292.054.97.162 1.885.647 2.64 1.295.16.107.269.27.43.431-1.13 1.025-2.316 2.05-3.5 2.966-1.293 1.025-2.585 1.995-3.77 3.182-.754.755-1.508 1.564-1.939 2.588-.485 1.133-.485 2.535-.27 3.775.162.81.432 1.564.916 1.996.216.216.431.377.808.431.215.054.539.054.754.108.592.216.916.863.97 1.456 0 .378-.108.755-.378 1.025-.323.323-.807.593-1.238.593-.539 0-.97-.378-1.239-.863-.215-.377-.323-.863-.485-1.24-.107-.27-.161-.432-.323-.647-.43-.647-1.292-1.079-2.046-1.24-.97-.162-1.831.215-2.585.808-1.077.81-2.047 1.996-2.908 3.128-.485.647-.916 1.294-1.347 1.995-.484.755-1.023 1.51-1.562 2.265-.807-.97-1.507-2.049-2.1-3.181-.646-1.133.377-1.888.808-2.859.43-1.078.215-2.372-.539-3.559-.323-.54-.807-1.024-.861-1.564-.108-.917.808-1.995.97-3.074.16-.97-.27-1.941-.755-2.858-.215.97-.377 1.942-.97 2.697-.646.862-1.776 1.402-2.423 2.157-1.077 1.24-.808 3.02.216 5.5.43.971.97 2.05.754 2.05-.162 0-.7-.701-1.131-1.133-.7-.7-1.239-1.024-1.94-1.24-.968-.324-2.153-.486-3.123-.108-.484.162-.915.431-1.184.917-.162.323-.27.755-.27.97.108.432.754.162 1.508 0 1.185-.215 2.693.054 3.824.701.646.378 1.185.917 1.67 1.349 1.184 1.132 2.1 2.103 3.123 3.128l1.454 1.456c-.108.161-.215.27-.377.431-.538.647-1.077 1.186-2.316 1.78-.323.161-.646.323-1.885.539-.215 0-.377 0-.484-.054-.323-.108-.593-.377-.862-.701-.485-.647-.808-1.456-1.508-1.672-.592-.162-1.4.108-1.939-.162-.538-.27-.808-1.024-1.077-1.78-.27-.7-.538-1.294-1.077-1.617-.538-.324-1.4-.378-1.885 0-.43.323-.646.917-.7 1.456-.108.97.216 1.672.7 2.912.27.647.539 1.402.323 1.672-.215.27-.97-.054-1.561-.162-1.4-.323-2.262.108-3.232 1.079-.377.377-.754.863-1.023 1.348.215.485.646.97 1.023 1.348.97.97 1.831 1.348 3.232 1.079.646-.162 1.346-.432 1.561-.162.216.27-.107 1.025-.323 1.672-.485 1.24-.808 1.941-.7 2.912.054.54.27 1.132.7 1.456.539.377 1.347.323 1.885 0 .593-.324.862-.97 1.077-1.618.27-.701.485-1.51 1.077-1.78.539-.215 1.347.054 1.94-.161.645-.216.968-1.025 1.507-1.672.27-.324.539-.593.862-.701.107-.054.269-.054.484-.054 1.24.27 1.562.377 1.885.54 1.239.646 1.778 1.132 2.316 1.779.108.162.216.27.377.431l-1.454 1.456-3.124 3.128c-.484.485-1.023.97-1.67 1.348-1.13.647-2.584.863-3.823.701-.808-.108-1.454-.431-1.508 0-.054.216.054.647.27.971.269.485.7.755 1.184.917 1.024.377 2.208.162 3.124-.108.7-.216 1.292-.54 1.939-1.24.484-.486 1.023-1.133 1.13-1.133.162 0-.376 1.079-.753 2.05-1.077 2.48-1.347 4.206-.216 5.5.647.755 1.777 1.294 2.424 2.157.592.755.754 1.726.97 2.697.484-.971.969-1.888.753-2.859-.215-1.024-1.13-2.103-.97-3.073.108-.54.54-1.025.862-1.564.808-1.187 1.024-2.535.539-3.56-.43-.97-1.4-1.725-.808-2.858.593-1.132 1.293-2.21 2.1-3.182.539.701 1.024 1.51 1.562 2.265.431.648.862 1.295 1.347 1.996.807 1.132 1.777 2.319 2.908 3.128.754.593 1.615.97 2.585.808.754-.107 1.615-.539 2.046-1.24l.323-.647c.162-.378.27-.863.485-1.24.27-.54.7-.863 1.239-.863.43 0 .915.216 1.238.593.27.27.377.647.377 1.025 0 .593-.377 1.24-.969 1.456-.27.054-.539.054-.754.108-.377.053-.646.215-.808.431-.43.485-.754 1.24-.915 1.995-.27 1.24-.216 2.589.269 3.775.43.971 1.185 1.834 1.939 2.589 1.238 1.186 2.53 2.157 3.77 3.182 1.184.97 2.37 1.941 3.5 2.966l-.43.431c-.755.647-1.67 1.133-2.64 1.294-.43.054-.861.108-1.292.054-.97-.054-1.939-.323-2.854-.647.323-.7.377-1.402.215-2.103-.108-.593-.377-1.186-.754-1.618-.538-.7-1.4-1.132-2.262-1.294-.7-.108-1.346-.108-1.992.323-.27.162-.593.432-.916.486-.808.27-1.616-.378-2.423-1.402-.97-1.24-1.885-3.02-2.155-2.535-.161.216-.107 1.025-.054 1.726.162 1.078.431 1.833.808 2.642.216.378.431.755.7 1.133.27.377.593.755.97 1.078 1.346 1.24 3.016 1.888 4.416 2.05.592.054 1.185.054 1.723.323.216.162.431.324.7.486.485.323 1.077.485 1.67.593.592.108 1.13.162 1.993.215-.647.486-1.347.971-1.94 1.51-.915.863-1.669 1.996-1.938 3.236-.323 1.51.162 3.128.97 4.476.269.432.592.863.753 1.294.216.54.162 1.187.108 1.834.539-.97 1.077-1.941 1.562-2.966.538-1.24.915-2.535.861-3.829-.053-1.025-.323-2.05 0-3.02.216-.647.754-1.294 1.293-1.78.754-.593 1.616-.916 2.316-1.402.538-.377 1.023-.809 1.4-1.348.054-.054.108-.162.162-.216.861.863 1.723 1.726 2.585 2.697.7.755 1.346 1.618 1.561 2.588.162.701.054 1.51-.215 2.211-.377.81-.97 1.51-1.723 2.05-.485.377-1.077.647-1.616.755-.7.161-1.454.161-2.477.108-.593-.054-1.239-.108-1.616.107-.539.378-.323 1.403 0 2.158.377.862.808 1.348 1.4 1.671.539.324 1.239.54 1.993.54.7 0 1.508-.162 1.723.054.27.27-.161 1.024-.377 1.887-.215.97-.161 1.995.162 2.966.215.809.592 1.564 1.023 2.103.97 1.295 2.316 1.78 2.639 2.912.215.702.054 1.618.592 2.481.216.324.485.593.862.863.377-.216.7-.54.916-.863.538-.863.377-1.78.592-2.48.323-1.133 1.67-1.618 2.639-2.913.43-.593.808-1.348 1.023-2.103.27-.97.377-1.995.162-2.966-.216-.863-.647-1.618-.377-1.887.215-.216.969 0 1.723-.054.754 0 1.454-.27 1.993-.54.646-.377 1.077-.809 1.4-1.671.323-.755.538-1.78 0-2.158-.377-.215-1.023-.161-1.616-.107-1.023.053-1.777.107-2.477-.108-.539-.162-1.131-.432-1.616-.755-.754-.54-1.346-1.24-1.723-2.05-.27-.7-.377-1.51-.216-2.21.216-.971.916-1.834 1.562-2.59.862-.97 1.724-1.833 2.585-2.696.431.648.97 1.187 1.562 1.618.7.486 1.562.81 2.316 1.402.592.486 1.077 1.079 1.292 1.78.323.97.054 1.995 0 3.02-.053 1.294.323 2.589.862 3.829.43 1.025.97 1.995 1.562 2.966-.054-.647-.108-1.294.108-1.834.161-.431.484-.862.754-1.294.861-1.348 1.292-2.966.969-4.476-.27-1.24-1.023-2.373-1.939-3.236-.592-.593-1.239-1.078-1.939-1.51.862 0 1.4-.107 1.993-.215.592-.108 1.239-.27 1.67-.594.269-.161.484-.377.7-.485.538-.323 1.077-.27 1.723-.323 1.4-.162 3.07-.81 4.416-2.05.377-.323.7-.7.97-1.078.269-.378.484-.755.7-1.133.43-.809.7-1.564.807-2.642.108-.701.108-1.456-.053-1.726-.27-.431-1.185 1.348-2.155 2.535-.807 1.024-1.615 1.671-2.423 1.402-.323-.108-.593-.324-.916-.486-.7-.377-1.346-.431-1.992-.323-.808.162-1.67.593-2.262 1.294-.377.485-.646 1.079-.754 1.618-.162.701-.108 1.402.27 2.103-.97.27-1.94.54-2.855.647-.431.054-.862 0-1.293-.054-.97-.161-1.885-.647-2.639-1.294l-.43-.431c1.184-1.025 2.315-2.05 3.5-2.966 1.293-1.025 2.585-1.996 3.824-3.182.754-.755 1.508-1.564 1.939-2.589.484-1.132.484-2.534.269-3.775-.162-.809-.431-1.564-.916-1.995-.215-.216-.43-.378-.861-.432-.216-.053-.539-.053-.754-.107-.593-.216-.916-.863-.97-1.456 0-.378.108-.755.377-1.025.323-.324.808-.593 1.239-.593.538 0 .97.323 1.239.863.215.377.323.862.484 1.24.108.27.162.431.323.647.431.647 1.293 1.079 2.047 1.24.97.162 1.831-.27 2.585-.809 1.077-.808 2.046-1.995 2.908-3.127.485-.647.916-1.295 1.346-1.996.539-.755 1.024-1.51 1.562-2.265.808.971 1.508 2.05 2.1 3.182.647 1.133-.376 1.888-.807 2.858-.431 1.079-.216 2.373.538 3.56.323.539.808 1.024.862 1.563.108.917-.808 1.996-.97 3.074-.161.971.27 1.942.755 2.859.215-.971.377-1.942.969-2.697.646-.863 1.777-1.402 2.423-2.157 1.078-1.24.808-3.02-.215-5.5-.43-.971-.97-2.05-.754-2.05.162 0 .7.701 1.131 1.133.7.7 1.239 1.024 1.939 1.24.97.323 2.154.485 3.123.108.485-.162.916-.432 1.185-.917.162-.324.27-.755.27-.97-.108-.432-.755-.163-1.508 0-1.185.215-2.693-.055-3.824-.702-.646-.377-1.185-.917-1.67-1.348-1.184-1.132-2.1-2.103-3.123-3.128l-1.454-1.456c.107-.162.215-.27.377-.431.323-.432.7-.755 1.184-1.133.324-.216.7-.431 1.131-.647.27-.162.647-.324 1.885-.54.216 0 .377 0 .485.055.323.108.592.377.862.7.484.648.808 1.457 1.454 1.673.592.161 1.4-.108 1.939.161.538.27.807 1.025 1.023 1.78.27.701.538 1.294 1.077 1.618.538.323 1.4.377 1.885 0 .43-.324.646-.917.7-1.456.108-.971-.216-1.672-.7-2.912-.27-.648-.539-1.403-.323-1.672.215-.27.97.054 1.561.162 1.4.323 2.316-.108 3.232-1.079.377-.377.754-.863 1.023-1.348-.27-.593-.646-1.025-1.023-1.456zm-86.06 2.912c-.862 0-1.508-.701-1.508-1.51s.7-1.51 1.508-1.51c.807 0 1.508.701 1.508 1.51s-.7 1.51-1.508 1.51zm50.785-7.658c1.454-.54 3.07-.593 4.631-.485.97.054 1.94.215 2.909.377 1.346.27 2.692.593 4.039 1.025.915.323 1.83.7 2.746 1.024-.323.27-.646.486-1.023.755-.754.486-1.508.917-2.316 1.24-.592.27-1.238.486-1.885.648-.161-.216-.377-.431-.646-.593-.485-.378-1.13-.54-1.777-.593-.754-.054-1.508.053-2.154.377-.539.27-1.024.701-1.347 1.24-.538-.107-1.13-.215-1.67-.323-1.076-.27-2.153-.701-3.123-1.24l-1.615-.971c.43-.486.915-1.025 1.454-1.402.484-.54 1.077-.863 1.777-1.079zm-15.672 5.447c.43.27.916.431 1.346.647-.484.162-.915.377-1.346.647-.862.485-1.67 1.133-2.423 1.834l-.808-.647c-1.347-.863-2.908-1.349-4.47-1.834 1.562-.485 3.123-.97 4.47-1.834.269-.161.538-.377.808-.647.754.755 1.561 1.348 2.423 1.834zm-.43-3.56c0-.215.268-.43.484-.7.323-.378.646-.702.915-1.025.647-.81 1.293-1.672 1.94-2.589.645-.97 1.238-1.995 1.507-3.128.27 1.133.862 2.158 1.508 3.128.592.917 1.239 1.78 1.885 2.589.27.323.592.7.916 1.024.215.216.484.432.484.702.054.27-.323.593-.7.808-.646.486-1.13.917-1.723 1.349-.7.539-1.562 1.132-2.424 1.725-.861-.593-1.67-1.186-2.423-1.725-.593-.432-1.077-.863-1.724-1.349-.323-.27-.7-.539-.646-.808zm.645 7.658c.647-.485 1.131-.916 1.724-1.348.7-.54 1.562-1.132 2.423-1.726.862.594 1.67 1.187 2.424 1.726.592.432 1.077.863 1.723 1.348.323.27.7.54.7.863 0 .216-.27.432-.484.701-.324.324-.647.701-.916 1.025-.646.809-1.293 1.672-1.885 2.589-.646.97-1.239 1.995-1.508 3.127-.27-1.132-.862-2.157-1.508-3.127-.592-.917-1.238-1.78-1.939-2.59-.269-.377-.592-.7-.915-1.024-.216-.215-.485-.431-.485-.7-.054-.324.323-.648.646-.864zm8.51-2.804c-.431-.27-.916-.431-1.347-.647.485-.162.916-.378 1.347-.647.861-.486 1.669-1.133 2.423-1.834l.808.647c1.346.863 2.908 1.349 4.47 1.834-1.562.485-3.124.97-4.47 1.834-.27.161-.539.377-.808.647-.754-.701-1.562-1.349-2.423-1.834zm1.615-26.856c.539.431.916.917 1.293 1.456 1.292 1.78 2.315 4.044 2.8 6.202.27 1.348.377 2.696.377 3.936 0 1.403-.108 2.697-.97 3.937-.43.593-1.022 1.187-1.346 1.888-.377.809-.323 1.887-.646 2.642-.215.54-.538.917-.97 1.24-.592-.647-1.238-1.294-1.776-1.995-.647-.863-1.185-1.78-1.616-2.804-.323-.81-.593-1.618-.862-2.48.162-.109.377-.217.539-.324.377-.27.7-.648.97-1.025.322-.593.484-1.294.376-1.941-.161-.755-.592-1.403-1.185-1.888-.269-.216-.592-.377-.915-.54.538-3.073 1.885-5.931 3.931-8.304zm-5.978-17.58c1.077 0 1.94.862 1.94 1.94 0 1.08-.863 1.942-1.94 1.942s-1.938-.863-1.938-1.941c0-1.079.861-1.942 1.938-1.942zm-3.716 14.883c.593-.647 1.131-1.186 1.67-1.725.646-.701 1.346-1.403 2.046-2.697.7 1.348 1.4 2.05 2.047 2.697.538.539 1.023 1.078 1.67 1.725.269.27.538.594.592.917 0 .378-.377.755-.7 1.133-.754.809-1.185 1.617-1.616 2.48-.646 1.295-1.293 2.697-1.939 4.045-.646-1.402-1.292-2.75-1.939-4.045-.43-.809-.861-1.618-1.615-2.48-.323-.378-.754-.755-.7-1.133-.054-.323.215-.647.484-.917zm-6.355 10.355c.485-2.158 1.508-4.423 2.8-6.202.378-.54.755-.97 1.293-1.456 2.047 2.373 3.393 5.23 3.932 8.305-.323.162-.646.323-.916.539-.592.431-1.077 1.133-1.185 1.888-.107.647 0 1.348.377 1.94.216.432.539.756.97 1.026.161.107.377.215.538.323-.269.81-.484 1.672-.861 2.48-.431.972-.97 1.942-1.616 2.805-.538.701-1.13 1.348-1.777 1.995-.431-.323-.754-.755-.97-1.24-.323-.755-.269-1.833-.646-2.642-.323-.755-.915-1.295-1.346-1.888-.862-1.186-.97-2.48-.97-3.937 0-1.294.108-2.642.377-3.936zm-12.763 13.374c1.346-.432 2.693-.755 4.039-1.025.97-.162 1.885-.323 2.908-.377 1.562-.108 3.178-.054 4.632.485.646.216 1.292.54 1.83.97.54.432.97.918 1.455 1.403-.539.323-1.077.701-1.616.97-.97.54-2.046.971-3.123 1.241-.539.162-1.131.216-1.67.324-.323-.594-.808-.971-1.346-1.24-.647-.324-1.4-.432-2.155-.378-.646.054-1.238.27-1.777.593-.269.162-.43.377-.646.593-.646-.162-1.239-.377-1.885-.647-.808-.324-1.616-.755-2.316-1.24-.323-.216-.7-.486-1.023-.755.862-.216 1.777-.594 2.693-.917zm-4.416 8.574c-.7-.377-1.4-.755-2.1-1.186-.97-.54-1.886-1.025-2.909-1.456-.808-.324-1.67-.54-2.531-.755.862-.216 1.723-.431 2.531-.755 1.023-.378 1.939-.917 2.908-1.456.7-.378 1.4-.809 2.1-1.187.485.54 1.024 1.133 1.563 1.618.807.701 1.723 1.24 2.638 1.78-.915.54-1.83 1.079-2.638 1.78-.539.485-1.024 1.024-1.562 1.617zm15.995 2.75c-1.454.54-3.07.594-4.632.486-.97-.054-1.939-.216-2.908-.377-1.346-.27-2.693-.594-4.04-1.025-.915-.324-1.83-.647-2.746-1.025.323-.27.646-.485 1.023-.755.754-.485 1.508-.916 2.316-1.24.593-.27 1.239-.431 1.885-.647.162.216.377.431.646.593.485.378 1.131.54 1.778.647.754.054 1.508-.054 2.154-.377.538-.27 1.023-.701 1.346-1.24.539.107 1.131.215 1.67.323 1.077.27 2.154.701 3.123 1.24l1.616.971c-.43.485-.916 1.025-1.454 1.402-.539.432-1.131.81-1.777 1.025zm5.277 20.116c-.538-.431-.915-.917-1.292-1.456-1.293-1.78-2.316-4.045-2.8-6.202-.27-1.348-.378-2.642-.378-3.937 0-1.402.108-2.696.97-3.882.43-.594 1.023-1.187 1.346-1.888.377-.809.323-1.887.646-2.642.216-.54.539-.917.97-1.24.592.646 1.239 1.294 1.777 1.995.646.863 1.185 1.78 1.616 2.804.323.809.592 1.618.861 2.48-.161.108-.377.216-.538.324-.377.27-.7.647-.97 1.025-.323.593-.484 1.294-.377 1.941.162.755.593 1.402 1.185 1.888.27.215.593.377.916.54-.539 3.019-1.885 5.877-3.932 8.25zm5.978 17.58c-1.077 0-1.938-.862-1.938-1.94 0-1.08.861-1.942 1.938-1.942s1.94.863 1.94 1.941c0 1.025-.863 1.942-1.94 1.942zm3.716-14.883c-.592.647-1.13 1.186-1.67 1.725-.645.701-1.346 1.402-2.046 2.75-.7-1.348-1.4-2.049-2.046-2.75-.539-.54-1.023-1.078-1.67-1.725-.269-.27-.538-.594-.592-.917-.054-.378.377-.755.7-1.133.754-.809 1.185-1.618 1.616-2.48.646-1.295 1.292-2.697 1.938-4.045.647 1.348 1.293 2.75 1.94 4.045.43.862.86 1.617 1.615 2.48.323.378.754.755.7 1.133.054.323-.215.647-.485.917zm6.355-10.355c-.485 2.157-1.508 4.422-2.8 6.202-.377.485-.754.97-1.293 1.456-2.046-2.373-3.393-5.231-3.931-8.305.323-.162.646-.323.915-.54.593-.43 1.077-1.132 1.185-1.887.108-.647 0-1.348-.377-1.941-.215-.432-.538-.755-.97-1.025-.16-.108-.376-.215-.538-.323.27-.81.485-1.672.862-2.481.43-.97.97-1.941 1.616-2.804.538-.701 1.184-1.348 1.777-1.996.43.324.754.755.97 1.24.322.756.268 1.834.645 2.643.324.755.916 1.295 1.347 1.888.861 1.186.97 2.48.97 3.883 0 1.348-.109 2.642-.378 3.99zm12.764-13.374c-1.293.431-2.693.755-4.04 1.025-.969.161-1.884.323-2.908.377-1.561.108-3.177.054-4.631-.485-.646-.216-1.293-.54-1.831-.97-.539-.432-.97-.918-1.454-1.403.538-.324 1.077-.701 1.615-.97.97-.54 2.047-.971 3.124-1.241.539-.162 1.131-.27 1.67-.324.323.54.807.971 1.346 1.24.646.324 1.4.432 2.154.378.646-.054 1.239-.27 1.777-.647.27-.162.431-.377.647-.593.646.162 1.238.377 1.885.647.807.324 1.615.755 2.315 1.24.323.216.7.486 1.024.755-.862.27-1.778.647-2.693.971zm9.424-4.422c-1.023.377-1.938.917-2.908 1.456-.7.377-1.4.809-2.1 1.186-.485-.539-1.023-1.132-1.562-1.617-.808-.702-1.723-1.24-2.639-1.78.916-.54 1.831-1.079 2.64-1.78.538-.485 1.076-1.078 1.56-1.618.701.378 1.401.755 2.101 1.187.97.54 1.885 1.024 2.908 1.456.808.323 1.67.54 2.532.755-.862.216-1.724.431-2.532.755zm7.217.755c-.862 0-1.508-.701-1.508-1.51s.7-1.51 1.508-1.51 1.508.701 1.508 1.51-.646 1.51-1.508 1.51z" transform="translate(-1161 -364)"/>
        </g>
    </g>
</svg>
