<svg xmlns="http://www.w3.org/2000/svg" width="48" height="58" viewBox="0 0 48 58">
    <g fill="none" fill-rule="evenodd">
        <g fill="#AB801B" fill-rule="nonzero">
            <g>
                <path d="M1158.483 63.34c-.463-.486-.925-.675-1.633-.54-.326.081-.68.216-.789.081-.109-.135.055-.512.163-.836.245-.62.409-.97.354-1.456-.027-.27-.136-.566-.354-.728-.244-.189-.68-.162-.952 0-.3.162-.435.485-.544.809-.136.35-.245.755-.517.89-.272.108-.68-.027-.98.08-.326.108-.49.513-.734.837-.136.161-.273.296-.436.35-.054.027-.136.027-.245.027-.626-.135-.789-.189-.952-.27-.245-.107-.408-.215-.571-.323-.245-.189-.436-.35-.6-.566-.054-.081-.108-.135-.19-.216l.735-.728 1.578-1.564c.245-.243.517-.485.844-.674.571-.324 1.306-.459 1.932-.35.408.053.735.215.762 0 .027-.109-.027-.324-.136-.486-.136-.243-.354-.378-.599-.458-.517-.19-1.116-.108-1.578.053-.354.108-.653.27-.98.62-.245.243-.517.567-.571.567-.082 0 .19-.54.38-1.025.545-1.24.681-2.103.11-2.75-.327-.378-.898-.647-1.225-1.079-.3-.377-.38-.863-.49-1.348-.245.485-.49.944-.38 1.43.108.512.57 1.05.49 1.536-.055.27-.273.512-.436.782-.408.593-.517 1.267-.272 1.78.217.485.707.863.408 1.429-.3.566-.653 1.105-1.061 1.59-.272-.377-.517-.754-.79-1.132-.217-.323-.435-.647-.68-.997-.408-.567-.898-1.16-1.47-1.564-.38-.297-.816-.486-1.305-.405-.381.054-.817.27-1.034.62-.082.108-.11.216-.164.324-.081.189-.136.431-.244.62-.137.27-.354.432-.626.432-.218 0-.463-.135-.626-.297-.136-.135-.19-.324-.19-.512 0-.297.163-.62.49-.728.135-.027.271-.027.38-.054.19-.027.327-.108.435-.216.218-.243.354-.62.463-.998.136-.62.109-1.294-.136-1.887-.218-.486-.571-.917-.98-1.295-.625-.593-1.279-1.078-1.932-1.59-.598-.486-1.197-.971-1.768-1.483l.217-.216c.381-.324.844-.566 1.334-.647.217-.027.435-.054.653-.027.49.027.98.162 1.442.323-.163.35-.19.701-.136 1.052.054.297.19.593.38.809.273.35.708.566 1.144.647.353.054.68.054 1.007-.162.136-.08.299-.216.462-.27.408-.134.816.19 1.225.702.49.62.952 1.51 1.088 1.267.082-.108.054-.512.027-.863-.081-.54-.217-.917-.408-1.321-.109-.189-.218-.378-.354-.566-.136-.19-.299-.378-.49-.54-.68-.62-1.523-.943-2.23-1.024-.327-.027-.6-.027-.871-.162-.11-.081-.218-.162-.354-.27-.245-.162-.544-.242-.844-.296-.3-.054-.571-.081-1.007-.108.327-.243.68-.486.98-.755.463-.432.844-.998.98-1.618.163-.755-.082-1.564-.49-2.238-.136-.216-.3-.405-.381-.647-.109-.27-.082-.62-.055-.944-.272.485-.571.97-.789 1.51-.272.62-.462 1.267-.435 1.914.027.513.163 1.025 0 1.51-.109.324-.381.648-.653.89-.381.297-.816.459-1.17.701-.3.216-.572.486-.79.81-.435-.432-.87-.864-1.305-1.349-.354-.377-.68-.809-.79-1.294-.081-.35-.027-.755.11-1.106.163-.404.49-.755.87-1.024.245-.19.544-.324.816-.378.354-.08.735-.08 1.252-.054.3.027.653.054.816-.054.273-.188.164-.7 0-1.078-.19-.432-.408-.674-.707-.836-.272-.162-.626-.27-1.007-.297-.354 0-.762.081-.87-.027-.137-.135.081-.512.19-.944.109-.485.082-.997-.082-1.483-.109-.404-.3-.755-.517-1.051-.49-.647-1.17-.89-1.333-1.456-.109-.35-.027-.836-.3-1.24-.108-.162-.244-.297-.462-.432-.19.108-.354.27-.435.431-.272.432-.19.89-.3 1.24-.163.567-.843.81-1.333 1.457-.218.296-.408.674-.517 1.051-.136.486-.19.998-.082 1.483.11.432.327.81.19.944-.108.108-.489 0-.87.027-.38 0-.735.135-1.007.297-.326.189-.544.404-.707.836-.163.377-.272.89 0 1.078.19.108.517.081.816.054.517-.027.898-.054 1.252.054.272.081.571.216.816.378.381.27.68.62.87 1.024.137.35.191.755.11 1.106-.11.485-.463.917-.79 1.294-.435.485-.87.917-1.306 1.348-.027-.054-.054-.08-.081-.108-.218-.27-.436-.512-.708-.674-.353-.242-.789-.404-1.17-.7-.299-.243-.544-.54-.653-.89-.163-.486-.027-.998 0-1.51.027-.648-.163-1.295-.435-1.915-.218-.512-.49-.998-.79-1.51.028.324.055.647-.054.944-.081.215-.245.431-.38.647-.436.674-.654 1.483-.49 2.238.136.62.517 1.186.98 1.618.298.296.625.539.979.755-.408 0-.708.054-1.007.108-.3.054-.599.134-.844.296-.136.081-.244.189-.353.27-.272.162-.545.135-.871.162-.708.08-1.551.404-2.231 1.024-.19.162-.354.35-.49.54-.136.188-.245.377-.354.566-.218.404-.354.782-.408 1.321-.054.35-.054.728.027.863.136.216.599-.674 1.089-1.267.408-.513.816-.836 1.224-.701.163.053.3.161.463.27.353.188.68.215 1.006.16.409-.08.844-.296 1.143-.646.19-.243.327-.54.381-.81.082-.35.055-.7-.109-1.05.49-.136.98-.27 1.443-.324.217-.027.435 0 .653.027.49.08.952.323 1.333.647.082.054.136.135.218.216-.572.512-1.17 1.024-1.769 1.483-.653.512-1.306.997-1.905 1.59-.38.378-.762.782-.98 1.295-.244.566-.244 1.267-.135 1.887.081.405.217.782.462.998.109.108.218.189.408.216.11.027.272.027.381.054.3.107.463.431.49.728 0 .188-.054.377-.19.512-.164.162-.409.296-.626.296-.272 0-.49-.188-.626-.43-.109-.19-.163-.432-.245-.621-.054-.135-.082-.216-.163-.324-.218-.323-.653-.539-1.034-.62-.49-.08-.925.108-1.306.405-.545.404-1.034.997-1.47 1.564-.245.323-.462.647-.68.997-.245.378-.517.755-.79 1.133-.407-.486-.761-1.025-1.06-1.591-.327-.566.19-.944.408-1.43.217-.539.109-1.186-.272-1.779-.164-.27-.409-.512-.436-.782-.054-.458.408-.998.49-1.537.082-.485-.136-.97-.38-1.429-.11.485-.191.97-.49 1.348-.327.432-.899.701-1.225 1.079-.544.62-.408 1.51.109 2.75.217.486.49 1.025.38 1.025-.081 0-.353-.35-.57-.566-.355-.351-.627-.513-.98-.62-.49-.162-1.089-.243-1.579-.055-.245.081-.462.216-.598.459-.082.162-.136.377-.136.485.054.216.38.081.762 0 .598-.108 1.36.027 1.932.35.326.19.598.46.843.675.599.566 1.061 1.051 1.578 1.564l.735.728c-.054.08-.109.135-.19.216-.273.323-.545.593-1.17.89-.164.08-.327.161-.953.269-.109 0-.19 0-.245-.027-.163-.054-.3-.189-.435-.35-.245-.324-.408-.729-.762-.836-.3-.081-.708.054-.98-.081s-.408-.513-.544-.89c-.136-.35-.272-.647-.544-.809-.272-.162-.708-.189-.952 0-.218.162-.327.458-.354.728-.055.485.109.836.354 1.456.136.324.272.701.163.836-.11.135-.49-.027-.79-.08-.707-.163-1.142.053-1.632.538-.19.19-.38.432-.517.674.109.243.327.486.517.675.49.485.925.674 1.633.539.326-.081.68-.216.789-.081.109.135-.055.512-.163.836-.245.62-.409.97-.354 1.456.027.27.136.566.354.728.272.189.68.162.952 0 .3-.162.435-.485.544-.809.136-.35.245-.755.544-.89.272-.108.68.027.98-.08.326-.109.49-.513.762-.837.136-.161.272-.296.435-.35.055-.027.136-.027.245-.027.626.135.79.189.952.27.626.323.898.566 1.17.89.055.08.11.134.191.215l-.735.728-1.578 1.564c-.245.243-.517.485-.843.674-.572.324-1.307.432-1.932.35-.409-.053-.735-.215-.762 0-.028.109.027.324.136.486.136.243.353.378.598.458.517.19 1.116.081 1.579-.054.353-.107.653-.27.98-.62.244-.242.516-.566.57-.566.082 0-.19.54-.38 1.025-.545 1.24-.68 2.103-.11 2.75.327.378.899.647 1.225 1.079.3.377.381.862.49 1.348.245-.486.49-.944.381-1.43-.109-.512-.571-1.05-.49-1.536.055-.27.272-.513.436-.782.408-.593.517-1.268.272-1.78-.218-.485-.708-.863-.408-1.429.299-.566.653-1.105 1.06-1.59.273.35.518.754.79 1.132.218.323.435.647.68.997.408.567.898 1.16 1.47 1.564.38.297.816.486 1.306.405.38-.054.816-.27 1.034-.62l.163-.324c.082-.189.136-.431.245-.62.136-.27.354-.432.626-.432.217 0 .462.108.626.297.136.135.19.324.19.512 0 .297-.19.62-.49.728-.136.027-.272.027-.38.054-.191.027-.327.108-.409.216-.218.243-.38.62-.462.998-.136.62-.11 1.294.136 1.887.217.486.598.917.98 1.294.625.594 1.278 1.079 1.904 1.591.599.486 1.197.971 1.769 1.483l-.218.216c-.38.324-.844.566-1.333.647-.218.027-.436.054-.653.027-.49-.027-.98-.162-1.443-.323.164-.35.19-.701.11-1.052-.055-.297-.191-.593-.382-.809-.272-.35-.707-.566-1.143-.647-.353-.054-.68-.054-1.006.162-.136.08-.3.215-.463.242-.408.135-.816-.188-1.224-.7-.49-.62-.953-1.51-1.089-1.268-.081.108-.054.512-.027.863.082.54.218.917.408 1.321.109.189.218.378.354.566.136.19.3.378.49.54.68.62 1.523.943 2.23 1.024.3.027.6.027.872.162.109.081.217.162.353.243.245.162.545.242.844.296.3.054.571.081 1.007.108-.327.243-.68.486-.98.755-.462.432-.843.998-.98 1.618-.163.755.082 1.564.49 2.238.136.216.3.432.381.647.11.27.082.593.055.917.272-.485.544-.97.789-1.483.272-.62.462-1.267.435-1.914-.027-.513-.163-1.025 0-1.51.11-.324.381-.648.653-.89.381-.297.817-.459 1.17-.701.272-.19.517-.405.708-.674.027-.027.054-.081.081-.108.436.431.871.863 1.307 1.348.353.377.68.809.789 1.294.081.35.027.755-.11 1.106-.19.404-.489.755-.87 1.024-.245.19-.544.324-.816.378-.354.08-.735.08-1.252.054-.3-.027-.626-.054-.816.054-.272.188-.163.7 0 1.078.19.432.408.674.707.836.272.162.626.27 1.007.27.354 0 .762-.081.87.027.137.135-.08.512-.19.944-.109.485-.081.997.082 1.483.109.404.3.782.517 1.051.49.647 1.17.89 1.333 1.456.11.35.028.81.3 1.24.108.162.245.297.435.432.19-.108.354-.27.463-.431.272-.432.19-.89.299-1.24.163-.567.843-.81 1.333-1.457.218-.296.408-.674.517-1.051.136-.486.19-.998.082-1.483-.109-.432-.327-.81-.19-.944.108-.108.49 0 .87-.027.381 0 .735-.135 1.007-.27.326-.189.544-.404.707-.836.164-.377.273-.89 0-1.078-.19-.108-.517-.081-.816-.054-.517.027-.898.054-1.252-.054-.272-.081-.571-.216-.816-.378-.38-.27-.68-.62-.87-1.024-.137-.35-.191-.755-.11-1.106.11-.485.463-.917.79-1.294.435-.485.87-.917 1.306-1.348.217.323.49.593.789.809.354.242.789.404 1.17.7.3.243.544.54.653.89.163.486.027.998 0 1.51-.027.648.163 1.295.435 1.915.218.512.49.998.79 1.483-.028-.324-.055-.647.054-.917.082-.216.245-.431.38-.647.436-.674.654-1.483.49-2.238-.135-.62-.516-1.186-.979-1.618-.3-.296-.626-.54-.98-.755.436 0 .708-.054 1.007-.108.3-.054.626-.134.844-.296.136-.081.245-.189.354-.243.272-.162.544-.135.87-.162.708-.08 1.551-.404 2.232-1.024.19-.162.353-.35.49-.54.135-.188.244-.377.353-.566.218-.404.354-.782.408-1.321.055-.35.055-.728-.027-.863-.136-.216-.599.674-1.088 1.267-.409.513-.817.836-1.225.701-.163-.054-.3-.161-.462-.242-.354-.19-.68-.216-1.007-.162-.408.08-.844.297-1.143.647-.19.243-.327.54-.381.809-.082.35-.054.701.136 1.052-.49.134-.98.27-1.442.323-.218.027-.436 0-.653-.027-.49-.08-.953-.323-1.334-.647l-.217-.216c.598-.512 1.17-1.024 1.768-1.483.653-.512 1.307-.997 1.932-1.59.381-.378.762-.783.98-1.295.245-.566.245-1.267.136-1.887-.082-.405-.218-.782-.463-.998-.108-.108-.217-.189-.435-.216-.109-.027-.272-.027-.38-.054-.3-.108-.463-.431-.49-.728 0-.188.054-.377.19-.512.163-.162.408-.297.626-.297.272 0 .49.162.626.432.108.189.163.431.244.62.055.135.082.216.164.324.217.323.653.539 1.034.62.49.08.925-.135 1.306-.405.544-.404 1.034-.997 1.47-1.564.244-.323.462-.647.68-.997.272-.378.517-.755.789-1.133.408.486.762 1.025 1.06 1.591.327.566-.19.944-.407 1.43-.218.538-.11 1.186.272 1.779.163.27.408.512.435.782.055.458-.408.997-.49 1.537-.081.485.136.97.381 1.429.11-.486.19-.97.49-1.348.327-.432.898-.701 1.225-1.079.544-.62.408-1.51-.11-2.75-.217-.486-.489-1.025-.38-1.025.081 0 .354.35.571.566.354.35.626.513.98.62.49.162 1.088.243 1.578.054.245-.08.463-.215.599-.458.081-.162.136-.378.136-.485-.055-.216-.381-.081-.762 0-.599.107-1.36-.027-1.932-.35-.327-.19-.599-.46-.844-.675-.598-.566-1.06-1.052-1.578-1.564l-.735-.728c.055-.08.11-.135.19-.216.164-.215.355-.377.6-.566.163-.108.353-.216.571-.323.136-.081.326-.162.952-.27.11 0 .19 0 .245.027.163.054.3.189.436.35.245.324.408.728.734.836.3.081.708-.054.98.081s.408.512.517.89c.136.35.272.647.544.809.272.162.708.189.952 0 .218-.162.327-.458.354-.728.055-.485-.109-.836-.354-1.456-.136-.324-.272-.701-.163-.836.11-.135.49.027.79.08.707.163 1.17-.053 1.632-.538.19-.19.38-.432.517-.675-.136-.296-.327-.512-.517-.728zM1115 64.794c-.435 0-.762-.35-.762-.755 0-.404.354-.755.762-.755.408 0 .762.351.762.755 0 .405-.354.755-.762.755zm25.66-3.828c.735-.27 1.55-.297 2.34-.243.49.027.98.108 1.47.189.68.134 1.36.296 2.04.512.463.162.925.35 1.388.512-.163.135-.327.243-.517.378-.381.242-.762.458-1.17.62-.3.135-.626.243-.953.323-.081-.107-.19-.215-.326-.296-.245-.189-.571-.27-.898-.297-.38-.027-.762.027-1.088.189-.273.135-.517.35-.68.62-.273-.054-.572-.108-.844-.162-.544-.134-1.089-.35-1.578-.62l-.817-.485c.218-.243.463-.512.735-.701.245-.27.544-.432.898-.54zm-7.918 2.723c.217.135.462.216.68.323-.245.081-.463.19-.68.324-.436.243-.844.566-1.225.917l-.408-.324c-.68-.431-1.47-.674-2.259-.917.79-.242 1.579-.485 2.259-.916.136-.081.272-.19.408-.324.381.378.79.674 1.225.917zm-.218-1.78c0-.108.136-.215.245-.35.163-.189.326-.35.462-.513.327-.404.653-.835.98-1.294.326-.485.626-.998.762-1.564.136.566.435 1.079.762 1.564.299.459.626.89.952 1.294.136.162.3.351.463.513.108.108.245.215.245.35.027.135-.164.297-.354.405-.327.242-.572.458-.87.674-.355.27-.79.566-1.225.863-.436-.297-.844-.594-1.225-.863-.3-.216-.544-.432-.87-.674-.164-.135-.354-.27-.327-.405zm.326 3.83c.327-.243.572-.46.871-.675.354-.27.79-.566 1.225-.863.435.297.843.593 1.224.863.3.216.544.432.87.674.164.135.355.27.355.432 0 .107-.137.215-.245.35-.164.162-.327.35-.463.512-.326.405-.653.836-.952 1.295-.327.485-.626.997-.762 1.564-.136-.567-.436-1.079-.762-1.564-.3-.459-.626-.89-.98-1.295-.136-.188-.299-.35-.462-.512-.11-.108-.245-.216-.245-.35-.027-.162.163-.324.326-.432zm4.3-1.403c-.218-.135-.463-.216-.68-.324.244-.08.462-.188.68-.323.435-.243.843-.566 1.224-.917l.408.324c.68.431 1.47.674 2.259.916-.79.243-1.578.486-2.259.917-.136.081-.272.189-.408.324-.38-.35-.789-.674-1.224-.917zm.816-13.428c.272.216.463.458.653.728.653.89 1.17 2.022 1.415 3.1.136.675.19 1.349.19 1.97 0 .7-.054 1.347-.49 1.968-.217.296-.516.593-.68.943-.19.405-.163.944-.326 1.322-.109.27-.272.458-.49.62-.3-.324-.626-.647-.898-.998-.326-.431-.598-.89-.816-1.402-.163-.405-.3-.809-.436-1.24.082-.054.19-.108.273-.162.19-.135.353-.324.49-.513.163-.296.244-.647.19-.97-.082-.378-.3-.701-.599-.944-.136-.108-.3-.189-.462-.27.272-1.537.952-2.966 1.986-4.152zm-3.02-8.79c.544 0 .98.431.98.97 0 .54-.436.971-.98.971-.545 0-.98-.431-.98-.97 0-.54.435-.971.98-.971zm-1.878 7.442c.3-.324.571-.594.844-.863.326-.35.68-.701 1.034-1.348.353.674.707 1.024 1.034 1.348.272.27.517.54.843.863.136.134.272.296.3.458 0 .189-.191.378-.354.566-.381.405-.599.81-.817 1.24-.326.648-.653 1.349-.98 2.023-.326-.701-.652-1.375-.979-2.022-.217-.405-.435-.81-.816-1.24-.163-.19-.381-.378-.354-.567-.027-.162.109-.324.245-.458zm-3.21 5.177c.244-1.079.761-2.211 1.414-3.101.19-.27.381-.485.653-.728 1.034 1.186 1.714 2.615 1.987 4.152-.164.081-.327.162-.463.27-.3.216-.544.566-.599.944-.054.323 0 .674.19.97.11.216.273.378.49.513.082.054.191.108.273.162-.136.404-.245.835-.436 1.24-.217.485-.49.97-.816 1.402-.272.35-.571.674-.898.998-.218-.162-.38-.378-.49-.62-.163-.378-.136-.917-.326-1.322-.164-.377-.463-.647-.68-.943-.436-.594-.49-1.24-.49-1.969 0-.647.054-1.321.19-1.968zm-6.45 6.687c.68-.216 1.36-.378 2.041-.512.49-.081.952-.162 1.47-.19.788-.053 1.605-.026 2.34.244.326.107.653.27.925.485.272.216.49.458.734.701-.272.162-.544.35-.816.485-.49.27-1.034.486-1.578.62-.272.081-.572.108-.844.162-.163-.296-.408-.485-.68-.62-.327-.162-.707-.216-1.088-.189-.327.027-.626.135-.898.297-.136.08-.218.189-.327.297-.326-.081-.626-.19-.952-.324-.408-.162-.817-.378-1.17-.62-.164-.108-.354-.243-.517-.378.435-.108.898-.296 1.36-.458zm-2.231 4.287c-.354-.189-.708-.377-1.061-.593-.49-.27-.953-.512-1.47-.728-.408-.162-.843-.27-1.279-.378.436-.107.871-.215 1.28-.377.516-.189.979-.458 1.469-.728.353-.189.707-.405 1.06-.593.246.27.518.566.79.809.408.35.87.62 1.333.89-.462.27-.925.539-1.333.89-.272.242-.517.512-.79.808zm8.082 1.375c-.735.27-1.552.297-2.34.243-.49-.027-.98-.108-1.47-.189-.68-.134-1.36-.296-2.04-.512-.463-.162-.926-.324-1.389-.512.164-.135.327-.243.517-.378.381-.242.762-.458 1.17-.62.3-.135.626-.216.953-.324.082.108.19.216.326.297.245.189.572.27.898.324.381.027.762-.027 1.089-.19.272-.134.517-.35.68-.62.272.055.571.109.844.162.544.135 1.088.351 1.578.62l.816.486c-.218.243-.462.512-.735.701-.272.216-.571.405-.898.512zm2.666 10.058c-.272-.216-.462-.458-.653-.728-.653-.89-1.17-2.022-1.415-3.1-.136-.675-.19-1.322-.19-1.97 0-.7.054-1.347.49-1.94.217-.297.516-.594.68-.944.19-.405.163-.944.326-1.322.11-.27.272-.458.49-.62.3.324.626.647.898.998.327.431.599.89.816 1.402.164.404.3.809.436 1.24-.082.054-.19.108-.272.162-.19.135-.354.324-.49.512-.163.297-.245.648-.19.971.081.378.299.701.598.944.136.108.3.189.463.27-.273 1.51-.953 2.939-1.987 4.125zm3.02 8.79c-.544 0-.979-.431-.979-.97 0-.54.435-.971.98-.971.544 0 .98.431.98.97 0 .513-.436.971-.98.971zm1.878-7.442c-.3.324-.571.593-.843.863-.327.35-.68.701-1.034 1.375-.354-.674-.708-1.024-1.034-1.375-.273-.27-.517-.54-.844-.863-.136-.135-.272-.296-.3-.458-.026-.189.191-.378.354-.566.381-.405.6-.81.817-1.24.326-.648.653-1.349.98-2.023.326.674.652 1.375.979 2.022.218.432.435.81.816 1.24.164.19.381.378.354.567.027.162-.109.323-.245.458zm3.211-5.177c-.245 1.079-.762 2.211-1.415 3.101-.19.243-.38.485-.653.728-1.034-1.186-1.714-2.615-1.986-4.152.163-.081.326-.162.462-.27.3-.216.544-.566.599-.944.054-.323 0-.674-.19-.97-.11-.216-.273-.378-.49-.513-.082-.054-.19-.108-.273-.162.136-.404.245-.836.436-1.24.218-.485.49-.97.816-1.402.272-.35.599-.674.898-.998.218.162.381.378.49.62.163.378.136.917.326 1.322.164.377.463.647.68.943.436.594.49 1.24.49 1.942 0 .674-.054 1.321-.19 1.995zm6.449-6.687c-.653.216-1.36.378-2.04.512-.49.081-.953.162-1.47.19-.79.053-1.606.026-2.34-.244-.327-.107-.653-.27-.926-.485-.272-.216-.49-.458-.734-.701.272-.162.544-.35.816-.485.49-.27 1.034-.486 1.578-.62.272-.081.572-.135.844-.162.163.27.408.485.68.62.327.162.708.216 1.089.189.326-.027.625-.135.898-.324.136-.08.217-.189.326-.297.327.081.626.19.952.324.409.162.817.377 1.17.62.164.108.354.243.518.378-.436.134-.898.323-1.361.485zm4.762-2.211c-.517.189-.98.458-1.47.728-.353.189-.707.404-1.06.593-.246-.27-.518-.566-.79-.809-.408-.35-.87-.62-1.333-.89.462-.27.925-.539 1.333-.89.272-.242.544-.539.79-.808.353.188.707.377 1.06.593.49.27.953.512 1.47.728.408.162.843.27 1.279.377-.436.108-.87.216-1.28.378zm3.646.377c-.435 0-.762-.35-.762-.755 0-.404.354-.755.762-.755.408 0 .762.351.762.755 0 .405-.326.755-.762.755z" transform="translate(-1232 -656) translate(121 621)"/>
            </g>
        </g>
    </g>
</svg>
