<svg xmlns="http://www.w3.org/2000/svg" width="77" height="109" viewBox="0 0 77 109">
    <g fill="none" fill-rule="evenodd">
        <g fill="#AB801B" fill-rule="nonzero">
            <g>
                <path d="M36.778.173c.237.204.555.363.7.619 1.4 2.502 3.745 3.738 6.274 4.733.477.188.963.356 1.527.564-.268.465-.504.88-.744 1.29-1.962 3.35-2.972 6.92-2.928 10.849.086 7.832.033 15.666.012 23.5-.002.728.145 1.165.859 1.548 2.051 1.1 3.549 2.98 4.956 5.95l2.067-3.51c-.602-.461-1.221-.909-1.812-1.394-.823-.675-1.669-1.332-2.412-2.089-.31-.317-.377-.87-.556-1.317.454-.06.936-.25 1.355-.157 2.02.447 4.034.57 6.087.258.592-.09.933-.328 1.178-.835.296-.612.627-1.208.937-1.797-1.01-.392-1.982-.675-2.858-1.137-.882-.465-1.67-1.108-2.542-1.702-.542.563-1.11 1.345-2.148.507-.37 1.182-.988 2.097-2.266 2.216-.387.036-.802-.215-1.25-.468 1.813-1.131 1.586-2.83 1.55-4.47-.025-1.066-.09-2.134-.035-3.195.14-2.795 1.13-5.089 3.984-6.237l-2.764-1.39c-.451.435-.942 1.049-1.727.592-.817-.475-1.003-1.307-.977-2.17.031-1.141.713-2.038 1.484-2.05.806-.013 1.57.925 1.486 2.098-.054.783.265 1.125.895 1.318.937.287 1.887.536 2.925.662-1.71-1.836-2.824-3.836-2.712-6.353-1.671.151-2.431-.245-2.657-1.359-.211-1.035.39-1.79 1.535-2.106.075-.861.081-1.663.23-2.437.149-.77.44-1.514.675-2.286 2.071.371 2.972 2.676 1.997 5.15.501.444 1.037.8 1.396 1.286.165.224.072.743-.066 1.059-.364.837-1.204.966-2.258.414-.005 2.202 2.195 5.54 4.906 7.282-.29-.51-.505-.847-.684-1.203-.55-1.093-.844-2.217-.23-3.385.434-.825 1.134-1.309 2.07-1.348.713-.03 1.274.282 1.618 1.063-1.729 1.274-1.118 2.804-.425 4.37.72 1.625 1.648 3.216 2.019 4.924.599 2.766.175 5.554-.722 8.247-.074.218-.157.433-.226.652-.015.049.011.11.018.166 2.255.219 4.294-.922 4.965-2.829-.118-.006-.218-.02-.316-.013-.736.05-1.26-.242-1.377-.993-.118-.758.274-1.312.968-1.545.827-.278 1.653-.19 2.373.369.687.533.754 1.247.57 2.028-.026.107-.046.216-.07.323 1.362.35 1.931.843 1.932 1.741 0 .798-.383 1.384-1.158 1.64-.87.288-1.52-.054-2.272-1.174-1.85 1.016-3.811 1.7-5.957 1.753-.176.004-.409.203-.509.374-.3.515-.55 1.061-.872 1.7 1.252-.163 2.382-.332 3.516-.456 6.488-.713 12.192 3.27 13.615 9.516.63 2.765.326 5.466-.895 8.001-.985 2.042-2.175 3.986-3.256 5.982-.808 1.49-1.683 2.953-2.367 4.5-1.574 3.555.567 7.38 3.427 9.006.512.29 1.355.167 2 .026 2.641-.577 4.102-3.482 2.897-5.655-.078-.14-.191-.26-.304-.412-.93 1.629-1.737 2.132-2.87 1.829-1.059-.283-1.728-1.196-1.697-2.314.038-1.327.768-1.965 2.864-2.466-.653-.484-1.514-.862-1.202-1.86.076-.245.566-.362.833-.519 0-.911-.107-1.949.026-2.953.197-1.482 1.412-2.603 2.702-2.574.526.012 1.046.275 1.605.582-1.6.433-2.231 1.415-2.027 2.928.076.567.194 1.138.375 1.68.285.843.602 1.68.97 2.49 2.01 4.405 1.083 7.73-2.926 10.557.554 0 1.11.016 1.664-.005.544-.021 1.086-.082 1.652-.128-.646 1.062-1.38 2.062-1.892 3.164-.515 1.107-.81 2.317-1.239 3.588h-8.96c-.382 3.888-2.391 6.262-6.302 7.103 0-1.903-.478-3.865.113-5.422.887-2.34.24-4.645.675-7.07h3.8c-.411-.49-.667-.788-.915-1.093-3.073-3.767-3.585-8.476-1.263-12.755 1.096-2.02 2.409-3.922 3.589-5.898 1.332-2.227 2.587-4.491 2.921-7.133.333-2.626-1.188-5.161-3.702-6.03.225.626.465 1.195.634 1.784.586 2.043.294 3.916-1.077 5.601-.831 1.022-1.521 2.135-1.735 3.3.5.032 1.246-.051 1.303.109.17.48.22 1.113.038 1.577-.255.651-.9.94-1.634.89-.733-.049-1.153-.51-1.362-1.149-.496-1.518-.157-2.894.926-4.224-.394-.067-.693-.106-.987-.17-1.25-.27-1.914-1.09-1.672-2.282.093-.46.485-1.01.892-1.208.316-.154.972.05 1.29.318.482.404.467 1.016.1 1.567-.045.07-.083.146-.167.296.86-.078 1.522-.47 1.852-1.126.348-.693.64-1.511.626-2.269-.025-1.425-.493-2.922-1.85-3.479-1.236-.507-2.52.23-3.583 1.034-1.03.777-1.654 1.823-1.916 3.085-.04.197-.025.436-.135.581-.206.274-.484.493-.732.735-.176-.295-.476-.58-.506-.889-.149-1.551-.708-2.884-1.85-3.963-3.247 2.958-3.29 9.732.077 12.429.735-.847 1.482-1.7 2.219-2.561.185-.217.304-.502.516-.68.46-.384.982-.193 1.095.393.059.307.042.63.042.947.002 7.459-.027 14.918.032 22.377.01 1.194-.377 2.11-1.07 2.98-1.132 1.42-2.673 2.223-4.126 2.827-.413-.228-.67-.493-.926-.493-4.233-.022-8.467-.012-12.7-.005-.054 0-.108.03-.252.072-.15 2.347-1.094 4.336-3.084 5.737-1.395.981-2.96 1.39-4.656 1.246-2.887-.245-6.177-2.434-6.488-7.059-.69 0-1.396-.022-2.1.017-.151.008-.329.206-.433.359-2.34 3.456-5.611 4.666-9.863 3.98.305.798.529 1.516.845 2.19 1.242 2.642 3.171 4.484 6.183 4.76.984.09 2.069-.147 3.004-.504 1.28-.49 1.817-1.706 1.55-2.97l-1.475-.206c-.087.197-.174.428-.287.645-.389.749-1.024 1.081-1.848.989-.816-.09-1.422-.714-1.55-1.52-.041-.251-.037-.518-.121-.753-.388-1.084-.19-1.634.919-1.946.815-.231 1.686-.266 2.64-.403l.06-.44c2.872.21 3.847 3.868 1.883 6.951.038.03.093.096.112.087 1.98-.972 4.102-.978 6.243-1.001 1.369-.015 2.744-.199 4.099-.42.659-.107 1.161-.548.808-1.677.667.27 1.342.337 1.534.677.214.379-.012 1.005-.152 1.52.617 1.225.387 1.642-1.499 2.385 1.584 1.586 1.706 3.5 1.305 5.548-.098.501-.167 1.064-.036 1.54.15.554.537 1.042.953 1.796-.11.4-.588.715-1.303.718-1.098.004-1.561-.697-1.769-1.695-1.605.926-3.24.75-4.793.157-1.332-.509-2.58-1.246-3.837-1.935-.805-.44-1.523-1.053-2.347-1.448-.799-.382-1.684-.585-2.574-.882.203-1.575 1.984-1.91 4.068-.574.698-.811 1.095-.815 2.41.018.552-1.185 1.488-1.753 2.807-1.647 1.183.096 2.106.806 2.202 1.711.094.893-.472 1.553-1.693 1.976-.103.036-.199.093-.305.143.868 1.177 2.628 1.496 3.854.727 1.19-.747 1.543-2.131.812-3.485-1.011-1.878-2.62-2.96-4.749-2.91-1.86.044-3.72.312-5.565.592-3.83.583-7.354.04-10.322-2.646-1.797-1.626-2.916-3.68-3.644-5.974-.112-.352-.32-.796-.614-.951-3.73-1.973-5.5-6.125-4.623-10.703.722-3.77 2.675-6.886 5.053-9.786 1.898-2.315 3.831-4.603 5.744-6.906.18-.217.328-.46.629-.888-3.873.863-7.386 1.905-9.903 5.02 1.862 1.082 2.124 2.331.9 4.077-.844 1.2-2 1.96-3.215 2.29-.24-.959-.474-1.894-.705-2.829-.144-.58-.424-1.168-.394-1.74.077-1.463.937-1.985 2.96-1.879.332-1.828 1.095-3.462 2.78-4.675-.704-.156-1.27-.228-1.8-.408-1.855-.632-2.841-2.452-2.288-4.156.517-1.592 2.142-2.017 3.408-.89-1.104 1.678-.81 2.755 1.078 3.69 2.194 1.086 4.457.837 6.75.322 1.17-.262 1.914-.847 2.399-1.949.852-1.934 1.755-3.867 1.534-6.029-.088-.86-.47-1.8-1.003-2.479-.936-1.192-2.67-1.28-3.614-.384-1.033.979-1.023 2.935.03 3.985.24.237.52.431.783.645-1.864 1.842-4.957 1.754-7.22-.16-2.302-1.944-2.516-4.933-.431-8.237.742.585 1.583.624 2.426.299 1.737-.671 3.46-1.38 5.05-2.019-.532-1.76-1.222-3.45-1.536-5.208-.683-3.823.59-7.06 3.511-9.576 1.237-1.064 2.694-1.87 3.99-2.87 1.112-.856 2.195-1.765 3.184-2.759.763-.766 1.14-1.777 1.103-2.849-.413.054-.948.28-1.135.113-.322-.288-.544-.804-.6-1.25-.108-.858.287-1.57.975-2.092.681-.517 1.677-.507 2.24-.008.588.52.766 1.598.298 2.3-.164.245-.533.356-.762.498l-.95 3.635c2.667-1.032 7.194-5.803 7.437-10.321-.803.752-1.632 1.329-2.694.609-.673-.457-.928-1.522-.63-2.436.342-1.047 1.114-1.49 2.669-1.485-.931-3.256 1.628-4.507 3.607-6.236.528 2.22 1.26 4.356-.581 6.284 1.467.674 1.974 1.628 1.47 2.73-.496 1.089-1.473 1.294-2.747.65-.6 1.655-1.027 3.417-1.86 4.96-.818 1.517-2.048 2.813-2.998 4.074 1.292-.56 2.848-.793 4.401-.134.752-1.125 1.275-1.388 2.201-1.145.883.232 1.32.853 1.453 2.01.042.364.176.718.215 1.081.02.193-.013.447-.127.588-.74.919-1.696 1.418-2.883 1.132-1.115-.268-1.755-1.013-1.892-2.195-.022-.194-.387-.507-.58-.497-1.03.046-2.077.075-3.076.298-2.703.602-5.11 1.874-7.317 3.576.363-.146.72-.308 1.09-.434.406-.139.818-.289 1.24-.352.395-.06.807-.013 1.416-.013l-.731 1.276c1.724.411 3.178 1.239 3.583 3.108.39 1.799-.327 3.323-1.58 4.73 1.5.203 1.783 1.352 2.051 2.51.11.475.129.994.341 1.417.193.384.593.663.915 1.003-1.17 1.282-3.296.927-5.181-1.042-.98 2.04-2.576 3.054-4.84 2.775-1.37-.168-2.206-1.019-2.56-2.373 2.027-.328 2.338-2.5 3.923-3.462-1.535-.448-2.34-1.371-2.359-2.844-.014-1.01.252-1.93 1.363-2.487.22 1.367 1.21 1.573 2.287 1.65 1.49.106 2.807.48 3.236 2.18 1.089-1.099 1.153-3.038.09-4.091-1.456-1.442-3.225-1.675-5.124-1.129-4.124 1.185-6.368 5.082-5.273 9.321.355 1.379.997 2.687 1.568 4.003.107.247.482.502.759.534 2.276.255 4.003 1.38 5.214 3.282.314.493.637.666 1.183.583 1.001-.15 2.007-.275 2.996-.5-1.75-.672-2.49-1.702-2.2-3.147.248-1.246.9-1.78 2.057-1.68-.228 1.498.258 2.13 1.841 2.026 1.793-.117 3.572-.435 5.537-.689-1.557-1.057-2.453-2.405-3.085-3.945-.78-1.902-.716-3.784-.027-5.724.376-1.062.595-2.22.648-3.345.049-1.02-.555-1.382-1.68-1.235.46-.748.994-1.31 1.824-1.452.315-.053.75-.006.98.18.727.591 1.253 1.383 1.946 2.033.76.715.306 1.778 0 2.679 2.085.604 2.937 2.31 2.15 4.254-.355.877-1.061 1.375-1.837 1.296-.785-.079-1.389-.641-1.53-1.422-.145-.81.248-1.471 1.137-1.915.098-.049.198-.092.31-.145-.612-.603-1.45-.71-2.056-.101-.414.417-.782 1.04-.854 1.611-.402 3.208 2.407 6.646 5.766 7.042.015-.36.045-.717.045-1.074.002-13.133.002-26.265 0-39.398 0-.577-.07-1.17.55-1.518.05.004.108.004.166.004zm-9.844 56.63v1.11c0 8.898-.002 17.795.003 26.693 0 1.174.61 1.916 1.533 1.917.923 0 1.52-.736 1.526-1.917.013-2.621.032-5.24.016-7.861-.021-3.498-.483-6.892-2.494-9.894-.023-.033.01-.103.021-.195.166-.065.347-.147.534-.21 2.548-.85 4.45-2.47 5.753-4.81.098-.176.166-.4.315-.508.26-.189.654-.491.844-.408.26.114.42.528.546.844.08.2.018.455.018.686v17.27h3.894c.526-5.7-.05-11.106-3.586-15.912.563-.208.99-.361 1.412-.523 2.059-.788 4.027-1.73 5.489-3.457.37-.437.609-.985.994-1.404.195-.21.606-.372.873-.32.19.038.344.456.435.73.07.207.016.456.016.687v20.192h4.007c0-1.996-.08-3.927.017-5.848.208-4.19-1.064-7.936-3.212-11.452-.126-.207-.228-.426-.343-.64 1.295-.547 2.518-1.061 3.506-1.477-.744-1.831-1.494-3.47-2.077-5.168-.599-1.737-1.01-3.538-1.548-5.297-.555-1.815-1.593-3.308-3.143-4.424-.167-.12-.367-.195-.651-.342v1.077c0 4.405.004 8.81-.009 13.216-.001.295-.027.704-.211.866-1.479 1.305-3.243 2.067-5.354 2.766v-4.324-13.735c0-.23.062-.487-.02-.683-.09-.212-.307-.516-.482-.525-2.301-.12-4.349.481-5.838 2.347-.958 1.201-1.007 2.867-.197 4.038.396.574.877 1.052 1.7.87-.586-1.447.105-2.458 1.587-2.386.992.047 1.716.754 1.892 1.806.214 1.292-.254 2.281-1.404 3.01.887.498 1.362 1.138 1.21 2.089-.146.926-.854 1.338-1.66 1.625 1.152 1.655 1.14 3.207.008 4.369-.995 1.02-2.547 1.247-3.716.514.21-.202.419-.393.619-.59 1.206-1.19 1.378-2.4.405-3.79-.54-.77-1.23-1.44-1.883-2.126-.92-.965-1.87-1.902-2.74-2.78-.738.773-1.409 1.855-2.382 2.414-2.339 1.347-3.676 3.49-5.197 5.569-1.936 2.643-4.128 5.099-6.189 7.652-2.05 2.54-3.884 5.213-4.941 8.348-.773 2.29-.049 4.782 1.858 6.273 1.22.954 2.934 1.015 4.276.152 1.265-.814 1.817-2.201 1.461-3.669-.404-1.66-1.408-2.531-3.166-2.672-.54-.044-1.089.054-1.634.063-.304.005-.61-.042-.914-.065l-.162-.288c3.745-2.043 7.493-4.083 6.837-9.36.51.303.925.561 1.209.923 2.682 3.424 2.908 7.57 3.343 11.67h1.622c0-2.634.188-5.218-.502-7.758-.7-2.57-2.054-4.687-4.494-6.196.4-.14.555-.232.716-.245 2.691-.212 4.594-1.715 6.081-3.81.747-1.05 1.337-2.21 1.995-3.323.344-.585.617-1.244 1.578-1.394zM49.94 34.649c1.198 1.16 2.668 2.054 4.449 2.356.21.035.64-.19.684-.366.417-1.634 1.017-3.272 1.096-4.93.167-3.522-1.723-5.464-5.342-5.76-1.874-.152-3.259 1.148-3.33 2.873-.05 1.172.883 2.308 2.008 2.447 1.024.127 1.684-.516 1.905-1.85.008-.046.07-.083.108-.123 1.005.34 1.272.76 1.162 1.784-.018.174-.014.388.07.53.5.835.478 1.58-.331 2.079-.722.445-1.603.633-2.48.96zM21.784 47.617c.63 2.275.45 4.443-.265 6.698 2.925-1.754 3.292-4.631 3.839-7.452-.586.167-1.123.355-1.674.47-.584.124-1.181.18-1.9.284z" transform="translate(-865 -345) translate(865 345)"/>
                <path d="M42.008 102.624c-1.172 3.8-3.206 5.754-5.95 5.698v-.843-20.217-.259c.019-1.33.019-1.33 1.325-1.332h4.23v11.246h9.032c.564-3.836-1.02-6.922-3.414-9.86.515-.187.905-.327 1.295-.47 1.932-.707 3.8-1.534 5.22-3.09.424-.464.705-1.056 1.127-1.519.24-.262.639-.382.965-.566.16.337.454.672.457 1.01.034 3.657.021 7.314.021 10.971v7.902c2.756-.768 5.322-1.666 7.207-3.802 1.168-1.322 1.036-3.094-.222-4.001.019.261.047.467.046.674-.001.794-.34 1.394-1.078 1.715-.74.322-1.425.171-1.978-.401-.584-.606-.653-1.326-.298-2.077.754-1.594 3.19-2.22 4.909-1.27.22.123.428.269.578.365-.118-.868-.365-1.768-.337-2.659.073-2.415 2.562-4.053 4.81-3.244 1.025.37 1.519 1.096 1.52 2.097-.749.151-1.544.149-2.167.475-.915.479-1.216 1.482-1.473 2.443-.111.416-.246.829-.324 1.252-.564 3.015-2.219 5.324-4.807 6.856-1.793 1.062-3.753 1.845-5.661 2.703-.4.18-.898.194-1.351.196-4.234.014-8.467.008-12.701.008h-.981z" transform="translate(-865 -345) translate(865 345)"/>
                <path d="M43.37 106.75c.87-1.652 2.312-2.305 4.095-2.333 1.517-.025 3.034-.005 4.475-.005-1.146 2.684-6.064 4.135-8.57 2.338z" transform="translate(-865 -345) translate(865 345)"/>
            </g>
        </g>
    </g>
</svg>
