<svg xmlns="http://www.w3.org/2000/svg" width="104" height="76" viewBox="0 0 104 76">
    <g fill="none" fill-rule="evenodd" opacity=".8">
        <g fill="#5B0801" fill-rule="nonzero">
            <g>
                <path d="M28.064 40.684c-2.55-.02-4.971-.599-7.285-1.65-2.703-1.23-5.093-2.921-7.267-4.932-1.797-1.662-3.326-3.547-4.699-5.567-.771-1.135-1.58-2.242-2.543-3.227-.476-.487-.98-.942-1.506-1.372-.801-.656-1.71-.904-2.737-.738-.29.047-.537.174-.78.323-.178.11-.348.236-.55.304-.411.138-.614.02-.648-.407-.079-.982.275-1.766 1.107-2.312.727-.478 1.547-.642 2.398-.663.9-.023 1.771.14 2.6.498.435.187.843.424 1.176.762.161.164.266.148.432.02.368-.284.788-.454 1.25-.528.568-.09 1.106.018 1.63.228.758.304 1.392.792 1.976 1.352.312.3.6.622.872.959.05.06.075.181.185.143.078-.027.057-.127.07-.197.166-.975.383-1.937.673-2.883.577-1.881 1.392-3.643 2.605-5.206 1.897-2.442 4.393-3.881 7.414-4.467 1.69-.328 3.365-.243 5.048.032 1.39.227 2.777.474 4.19.518.757.024 1.506-.029 2.236-.25.297-.09.57-.231.848-.367.294-.144.378-.362.323-.664-.047-.255-.09-.511-.129-.767-.028-.185-.033-.37.051-.545.099-.204.187-.248.413-.187.796.214 1.276.748 1.44 1.535.21 1.015-.043 1.934-.705 2.734-.233.28-.527.485-.87.613-.118.044-.194.093-.157.238.143.568-.096 1.037-.39 1.492-.107.164-.311.298-.305.493.007.207.198.361.318.532.375.536.755 1.07 1.138 1.6 2.174 3.01 1.685 6.732-.292 9.241-1.886 2.395-4.388 3.536-7.432 3.458-1.266-.032-2.463-.373-3.58-.975-.62-.334-1.23-.686-1.847-1.024-.65-.358-1.306-.707-2.049-.84-.508-.09-1.01-.068-1.49.145-.427.19-.645.554-.62 1 .016.268.128.476.361.61.14.079.286.146.43.218.144.073.283.154.383.284.193.25.158.412-.117.56-.92.492-1.948.343-2.672-.449-.882-.963-1.209-2.106-.93-3.394.174-.797.641-1.385 1.382-1.73.209-.097.291-.21.291-.44.001-.411.086-.813.292-1.175.425-.741 1.1-1.074 1.925-1.138.685-.053 1.322.12 1.92.45.054.03.104.068.159.096.052.027.131.079.159.06.057-.038.01-.11-.01-.167-.138-.398-.24-.804-.273-1.225-.072-.941.112-1.818.661-2.602.268-.382.613-.677 1.022-.896.532-.286 1.09-.373 1.684-.226.598.148 1.192.11 1.728-.195 1.497-.855 3.344.223 3.953 1.393.341.655.433 1.333.21 2.043-.123.388-.164.41-.501.194-.302-.192-.587-.41-.88-.617-.251-.179-.504-.356-.792-.475-.581-.239-1.17-.115-1.6.33-.084.086-.118.184-.138.295-.286 1.603.475 2.8 1.991 3.173 1.096.27 2.132.115 3.099-.477.38-.234.59-.546.645-1.01.138-1.142.142-2.267-.208-3.374-.534-1.688-1.638-2.907-3.152-3.777-1.489-.855-3.11-1.245-4.814-1.317-1.83-.078-3.593.22-5.276.958-1.706.748-3.037 1.921-4.016 3.498-1.203 1.937-1.82 4.045-1.801 6.327.014 1.686.438 3.274 1.236 4.758 1.355 2.52 3.244 4.527 5.745 5.937.833.47 1.72.81 2.65 1.034.144.035.29.061.436.09.114.022.16-.031.15-.142-.013-.163-.065-.317-.147-.455-.12-.201-.241-.404-.383-.59-.55-.72-.597-1.506-.264-2.312.462-1.115 1.355-1.758 2.464-2.146.15-.053.23.009.307.122.118.178.192.373.24.578.063.266.098.538.074.81-.02.216.051.37.208.52.867.822 1.882 1.349 3.062 1.547 1.322.22 2.615.063 3.877-.346 2.849-.925 5.211-2.57 7.115-4.876 1.008-1.222 1.923-2.51 2.68-3.905.367-.674.632-1.394.936-2.096.191-.443.392-.88.643-1.293.168-.276.362-.53.608-.742.479-.414 1.103-.47 1.657-.166.154.084.188.21.22.36.177.842.094 1.671-.123 2.493-.161.61-.395 1.196-.667 1.765-2.233 4.677-5.48 8.489-9.783 11.383-2.259 1.519-4.714 2.592-7.4 3.105-.558.106-1.12.19-1.687.233-.493.037-.987.052-1.48.076l-.001.001zm2.225-12.63l.121-.001c.317-.01.334-.024.313-.344-.042-.626-.337-1.097-.882-1.408-.28-.16-.581-.266-.89-.354-.653-.184-1.327-.28-1.97-.502-.042-.015-.098-.042-.124.016-.01.021.02.067.042.094.388.479.726.997 1.155 1.443.605.627 1.316 1.03 2.235 1.055zM87.694 24.864c-.16-4.093-2.245-7.677-6.373-9.987-3.735-2.089-8.09-1.087-10.584.996-.887.74-1.603 1.616-1.928 2.75-.334 1.17-.271 2.326.245 3.435.856 1.835 2.585 2.234 4.23 1.68.383-.128.647-.408.817-.765.335-.706.364-1.432.069-2.155-.281-.688-.872-.965-1.593-.797-.324.076-.522.258-.608.576-.06.226-.114.457-.256.65-.184.252-.257.263-.511.085-.556-.39-.773-.961-.616-1.619.07-.292.195-.56.363-.806.392-.573.901-1.014 1.528-1.313.648-.31 1.308-.34 1.974-.059.239.1.47.218.708.323.203.09.405.184.615.256.417.143.828.135 1.209-.112.136-.089.267-.099.42-.068 2.287.453 3.378 3.034 2.319 4.86l-.076.127c-.018.03-.046.07-.006.092.024.014.068 0 .1-.012.091-.036.18-.08.272-.116.774-.301 1.568-.448 2.395-.287.947.185 1.4.781 1.336 1.738-.007.099-.002.205-.037.293-.132.326.004.576.208.81.162.185.322.374.497.548.49.489.906 1.012.968 1.74.076.885-.134 1.695-.639 2.42-.375.541-.85.96-1.523 1.102-.465.097-.882-.026-1.265-.28-.202-.135-.216-.312-.06-.504.079-.097.181-.167.29-.228.15-.085.305-.163.451-.255.529-.329.619-.95.198-1.417-.304-.336-.698-.5-1.145-.541-.362-.033-.713.029-1.06.132-.798.236-1.533.618-2.28.975-.903.43-1.798.882-2.765 1.157-5.282 1.503-10.13-1.798-11.018-6.74-.444-2.466.208-4.671 1.784-6.61.063-.077.128-.151.193-.226.356-.406.359-.409.068-.885-.122-.2-.262-.39-.387-.588-.234-.373-.337-.774-.184-1.2.069-.191-.002-.279-.133-.403-1.017-.96-1.499-2.133-1.31-3.532.109-.816.569-1.407 1.325-1.753.294-.134.344-.112.45.202.116.342.142.7.17 1.058.023.296.061.589.145.875.106.362.326.627.663.805.583.307 1.207.422 1.858.43.997.013 1.964-.19 2.929-.406.843-.19 1.685-.387 2.53-.57 1.481-.32 2.933-.188 4.347.292 4.96 1.683 8.296 4.975 9.827 10.024.295.97.509 1.96.696 2.955.02.11.047.218.064.327.025.155.107.148.204.071.126-.099.252-.2.366-.312.451-.44.893-.89 1.347-1.327.392-.377.81-.725 1.29-.99 1.014-.557 1.862-.458 2.717.319l.027.025c.23.235.217.216.44.025.149-.129.307-.252.477-.35 1.574-.912 3.245-1.132 5-.662.52.139.988.39 1.381.765.529.505.786 1.128.795 1.854.002.246-.009.258-.247.257-.348-.003-.692-.054-1.016-.184-1.28-.511-2.44-.247-3.53.526-1.502 1.067-2.785 2.363-3.98 3.754-1.273 1.48-2.438 3.048-3.677 4.557-1.232 1.501-2.536 2.933-4.05 4.162-2.502 2.028-5.355 3.237-8.546 3.636-2.276.285-4.513.025-6.708-.611-3.432-.997-6.481-2.72-9.256-4.942-2.734-2.188-4.905-4.863-6.644-7.889-.529-.92-.979-1.885-1.348-2.883-.176-.477-.316-.961-.366-1.47-.016-.173-.003-.343.011-.516.07-.852 1.052-1.212 1.676-.866.355.197.619.486.853.808.416.572.742 1.198 1.03 1.84.65 1.45 1.481 2.791 2.389 4.089 1.817 2.6 4.149 4.623 6.932 6.127 1.323.715 2.74 1.114 4.256 1.136 1.313.02 2.522-.268 3.556-1.131.202-.17.329-.355.358-.617.022-.208.056-.416.097-.622.034-.169.07-.34.13-.5.183-.482.352-.565.85-.436.775.2 1.304.69 1.61 1.413.4.948.357 1.907-.02 2.85-.144.36-.205.387.28.372 1.623-.051 3.109-.539 4.454-1.439 2.136-1.429 3.53-3.418 4.34-5.835.423-1.268.614-2.514.618-4.482zm-14.923 1.82v.11c.002.447.001.45.449.558 1.016.247 1.959.073 2.828-.506.84-.56 1.45-1.33 2.001-2.156.027-.04.077-.086.05-.131-.044-.075-.111-.019-.16 0-.972.371-1.988.588-2.987.862-.583.16-1.163.332-1.721.568-.462.194-.462.195-.46.694z" transform="translate(-756 -372) translate(756 372)"/>
                <path d="M36.711 47.671c-.002-1.424.389-2.5 1.05-3.487.74-1.103 1.708-1.98 2.754-2.777.324-.247.658-.48.988-.72.04-.03.09-.064.08-.114-.01-.05-.068-.066-.117-.075-.28-.051-.56-.098-.838-.154-.242-.05-.484-.1-.721-.167-.216-.06-.413-.165-.582-.316-.172-.152-.237-.31-.146-.553.283-.757.725-1.4 1.304-1.956.565-.542 1.209-.98 1.88-1.376.861-.509 1.747-.98 2.59-1.515 2.479-1.574 4.062-3.783 4.633-6.682.136-.692.19-1.395.172-2.101-.005-.2.021-.385.107-.573.186-.41.228-.857.263-1.3.05-.628.063-1.259.153-1.883.05-.344.13-.679.293-.99.293-.559.78-.774 1.38-.748.597.026 1.074.262 1.325.844.215.5.25 1.03.266 1.56.017.605-.015 1.213.025 1.816.197 2.993 1.147 5.697 3.135 7.988.66.76 1.407 1.425 2.266 1.953.884.544 1.783 1.062 2.67 1.599.636.385 1.235.82 1.757 1.354.561.575.972 1.239 1.227 2.004.07.21.025.345-.122.493-.376.375-.85.488-1.35.527-.27.021-.543.002-.815.004-.034 0-.085.006-.098.027-.035.062.028.086.066.108.666.384 1.287.83 1.855 1.348 1.063.968 1.936 2.078 2.484 3.418.564 1.379.67 2.774.117 4.186-.104.265-.232.518-.372.766-.166.293-.358.549-.666.721-.234.131-.43.33-.645.497-.214.167-.429.332-.684.438-.178.074-.36.095-.544.055-.44-.097-.547-.31-.347-.706.105-.209.222-.416.364-.601.602-.787.38-1.866-.22-2.475-.316-.32-.674-.582-1.065-.796-.422-.231-.854-.445-1.283-.664-.726-.37-1.48-.696-2.035-1.327-.07-.08-.122-.056-.145.046-.019.085-.041.168-.068.25-.272.854-1.019 1.303-1.905 1.141-.656-.12-1.195-.452-1.641-.94-.394-.431-.709-.92-1-1.422-.647-1.116-1.158-2.29-1.56-3.516-.243-.745-.37-1.508-.4-2.29-.01-.272-.04-.542-.11-.806-.076-.292-.208-.552-.448-.75-.123-.101-.21-.097-.298.042-.18.284-.314.587-.408.909-.207.702-.313 1.424-.384 2.148-.192 1.936-.87 3.691-1.913 5.317-.273.427-.568.84-.936 1.192-.357.34-.774.573-1.256.679-.869.191-1.572-.164-1.938-.972-.15-.33-.15-.33-.464-.145-.386.229-.807.371-1.234.497-.438.13-.878.252-1.315.387-.342.106-.67.248-.983.427-1.133.645-1.068 2.1-.342 2.797.38.364.817.637 1.268.894.426.244.45.405.107.776-.228.247-.52.393-.847.418-1.28.1-2.414-.2-3.208-1.292-.791-1.087-1.091-2.335-1.126-3.437z" transform="translate(-756 -372) translate(756 372)"/>
                <path d="M38.88 55.07c3.193-.052 5.882-1.157 8.088-3.41 1.856-1.896 3.23-4.078 4.013-6.62.223-.723.391-1.452.292-2.221-.05-.376.017-.74.266-1.05.235-.292.311-.3.593-.06.368.313.606.71.758 1.165.118.352.2.714.264 1.078.217 1.223.7 2.34 1.366 3.379 1.546 2.411 3.476 4.461 5.865 6.048 2.16 1.435 4.557 2.06 7.146 1.847 1.613-.133 3.076-.7 4.356-1.703 1.88-1.473 2.555-3.633 1.877-5.924-.231-.778-.582-1.466-1.242-1.968-.573-.437-1.2-.68-1.933-.565-.275.043-.522.15-.74.32-.202.158-.333.364-.38.618-.062.343.05.574.361.73.121.062.251.105.373.165.65.32.748 1.034.204 1.516-.204.182-.443.313-.672.46-.092.058-.18.06-.28.019-.39-.158-.787-.295-1.143-.527-.315-.206-.515-.483-.606-.85-.262-1.054-.038-1.984.698-2.782 1.09-1.181 3.078-1.647 4.58-1.08.62.234 1.118.62 1.481 1.18.14.213.154.213.296 0 .316-.472.618-.954.936-1.424.403-.596.84-1.168 1.422-1.6 1.415-1.05 2.93-1.219 4.53-.455.405.193.754.47 1.046.814.887 1.044.819 2.265-.186 3.2-.388.36-.832.624-1.371.677-.743.073-1.26-.52-1.095-1.248.05-.218.194-.367.367-.494.17-.124.343-.242.462-.422.19-.29.18-.479-.05-.733-.234-.258-.53-.399-.872-.444-.668-.088-1.276.074-1.826.455-.282.194-.482.453-.608.775-.209.534-.326 1.09-.368 1.657-.125 1.682-.415 3.331-.897 4.947-.352 1.179-.821 2.304-1.56 3.299-1.33 1.79-3.117 2.85-5.301 3.247-1.82.33-3.619.174-5.396-.29-2.549-.663-4.851-1.813-6.866-3.52-1.258-1.066-2.24-2.364-3.094-3.762-.56-.916-1.098-1.847-1.646-2.77-.038-.065-.07-.132-.111-.193-.103-.155-.134-.156-.207.021-.235.571-.484 1.136-.777 1.68-1.501 2.791-3.527 5.117-6.162 6.892-1.66 1.118-3.466 1.9-5.458 2.188-4.086.591-7.388-.765-9.873-4.059-1.23-1.631-2.026-3.467-2.438-5.47-.212-1.028-.444-2.052-.823-3.035-.15-.394-.333-.771-.577-1.116-.622-.883-1.418-1.093-2.393-.63-.155.074-.301.169-.452.253-.138.077-.147.185-.076.312.087.153.208.276.343.386.114.094.236.18.349.275.375.319.473.67.319 1.125-.136.401-.468.63-.94.65-1.516.061-2.583-1.5-1.93-2.872.953-2.002 3.224-2.732 5.17-1.662.822.451 1.43 1.128 1.947 1.896.331.493.603 1.019.854 1.557.112.24.117.237.31.04 1.092-1.106 2.426-1.568 3.963-1.487.298.016.588.077.873.16 2.083.613 2.582 2.73 1.743 4.239-.151.272-.336.519-.572.723-.468.406-1.005.511-1.592.328-.495-.154-.739-.549-.652-1.058.102-.604.479-.984 1.035-1.202.32-.126.321-.124.22-.438-.264-.815-.916-1.196-1.76-1.026-1.117.224-1.976 1.189-2.06 2.324-.084 1.126.084 2.221.472 3.276.524 1.428 1.555 2.412 2.87 3.118 1.147.617 2.382.943 3.675 1.069.419.04.838.06 1.203.063z" transform="translate(-756 -372) translate(756 372)"/>
                <path d="M60.642 62.166c-.022.644-.128 1.274-.295 1.897-.051.189-.132.252-.335.24-1.016-.056-1.89-.444-2.652-1.102-.44-.38-.833-.808-1.233-1.229-.297-.314-.603-.62-.944-.887-.047-.037-.096-.102-.159-.073-.087.04-.044.13-.035.195.064.48.19.945.392 1.384.282.618.584 1.226.878 1.838.251.525.456 1.067.553 1.644.156.929.01 1.819-.361 2.678-.336.777-.82 1.463-1.317 2.14-.38.519-.764 1.033-1.1 1.581-.397.648-.697 1.334-.822 2.089-.016.095.003.21-.094.268-.126.076-.268.122-.384.217-.03.025-.066-.007-.094-.032-.202-.18-.44-.321-.571-.571-.035-.066-.084-.124-.114-.19-.523-1.135-1.306-2.09-2.088-3.047-.61-.747-1.164-1.535-1.59-2.405-.218-.446-.389-.908-.492-1.394-.2-.947-.047-1.843.415-2.685.255-.466.537-.916.8-1.377.366-.64.625-1.315.66-2.061.003-.062.008-.124.008-.185-.003-.27-.033-.29-.27-.146-.47.286-.85.677-1.22 1.076-.386.416-.749.854-1.16 1.246-.594.564-1.25 1.015-2.087 1.115-.714.084-.693.11-1.033-.544-.37-.712-.364-1.48-.227-2.245.202-1.123.709-2.124 1.285-3.096.339-.57.757-1.06 1.294-1.454.598-.438 1.183-.892 1.775-1.338.562-.425 1.11-.867 1.625-1.347.599-.557 1.042-1.214 1.345-1.972.247-.62.456-1.255.775-1.843.269-.494.197-.603.71-.084.238.241.43.526.524.843.47 1.6 1.599 2.696 2.805 3.737.804.694 1.642 1.348 2.414 2.079.548.52 1.054 1.076 1.469 1.71.661 1.012.991 2.118.95 3.33zM55.39 6.19c-.012.573-.131 1.127-.305 1.67-.146.459-.305.914-.441 1.375-.116.391-.19.794-.164 1.205.018.278.077.305.317.17.289-.162.496-.406.647-.695.114-.219.224-.441.311-.672.452-1.196 1.317-1.979 2.473-2.46 1.105-.459 2.243-.573 3.409-.261.52.139.986.383 1.406.722.133.108.155.2.047.338-.16.207-.335.397-.549.547-.11.078-.222.16-.344.218-.898.434-1.449 1.171-1.798 2.075-.236.61-.445 1.23-.669 1.845-.194.535-.411 1.059-.746 1.526-.705.984-1.86 1.444-2.995 1.109-1.32-.39-2.67-.47-4.028-.515-.753-.025-1.506-.005-2.259.04-.747.044-1.463.217-2.17.446-.481.156-.966.3-1.47.373-.86.124-1.555-.15-2.086-.837-.307-.396-.497-.85-.649-1.323-.219-.683-.345-1.389-.516-2.084-.097-.395-.205-.788-.357-1.167-.106-.264-.238-.515-.403-.748-.281-.398-.64-.679-1.134-.767-.23-.04-.462-.097-.656-.24-.208-.151-.225-.25-.072-.458.473-.644 1.122-.99 1.904-1.096 1.055-.144 2.033.121 2.97.58.446.219.854.497 1.226.827.473.418.828.909.996 1.528.073.273.15.547.271.806.12.255.291.457.555.57.214.092.26.07.294-.155.064-.421.032-.84-.073-1.25-.088-.346-.198-.687-.302-1.03-.217-.714-.353-1.436-.266-2.189.05-.421.17-.82.327-1.21.166-.414.374-.807.597-1.192.445-.77.892-1.538 1.343-2.304.226-.383.473-.753.782-1.077.49-.515.906-.533 1.45-.07.208.179.388.385.538.61.666 1.01 1.34 2.015 1.981 3.04.466.744.625 1.41.608 2.18zM51.901 15.442c2.096.038 4.28.355 6.371 1.214 1.228.505 2.057 1.389 2.6 2.56.535 1.155.194 2.43-.82 3.211-.097.075-.203.142-.314.195-.404.191-.66.135-.951-.202-.267-.31-.484-.655-.716-.99-.816-1.18-1.043-1.351-2.453-1.641-2.33-.48-4.677-.58-7.035-.214-.538.083-1.06.23-1.565.44-.593.247-1.002.658-1.225 1.262-.136.37-.247.752-.448 1.096-.322.55-.973.738-1.54.447-.179-.092-.324-.227-.448-.382-.371-.468-.617-1.01-.888-1.536-.067-.13-.027-.266-.003-.4.227-1.252.894-2.23 1.884-3.004.788-.616 1.679-1.036 2.627-1.34 1.451-.466 3.077-.708 4.924-.716z" transform="translate(-756 -372) translate(756 372)"/>
            </g>
        </g>
    </g>
</svg>
