<svg xmlns="http://www.w3.org/2000/svg" width="15" height="15" viewBox="0 0 15 15">
    <g fill="none" fill-rule="evenodd">
        <g>
            <g>
                <g>
                    <g>
                        <path fill="#3D4994" d="M1.746 5.421C.936 5.886.324 6.522 0 7.168c.324.643.943 1.277 1.762 1.737.25-.606.61-1.199 1.096-1.736-.501-.55-.865-1.145-1.112-1.747M11.457 7.146c.504.552.87 1.149 1.12 1.752.826-.464 1.449-1.1 1.76-1.73-.316-.643-.947-1.29-1.781-1.76-.251.606-.613 1.201-1.098 1.737M10.216 10.185c-.034.752-.2 1.438-.452 2.045.424.115.857.181 1.291.181.415 0 .812-.059 1.16-.17l.007-.018.02-.008c.22-.691.231-1.579-.022-2.482-.605.252-1.281.416-2.004.452" transform="translate(-508 -452) translate(144 406) translate(0 30) translate(364 16)"/>
                        <path fill="#AB801B" d="M12.029 9.166c-.257-.634-.649-1.258-1.198-1.808l-.213-.212.213-.212c.543-.543.931-1.163 1.188-1.791-.624-.265-1.333-.428-2.096-.428h-.3v-.3c0-.772-.164-1.486-.431-2.112-.672.268-1.298.668-1.811 1.182l-.213.212-.211-.212c-.524-.524-1.144-.927-1.808-1.194-.27.629-.436 1.347-.436 2.124v.3h-.3c-.777 0-1.493.165-2.122.434.255.635.645 1.259 1.194 1.808l.212.212-.212.212c-.543.544-.931 1.16-1.185 1.787.626.264 1.339.425 2.112.425h.301v.3c0 .779.165 1.499.433 2.131.655-.27 1.266-.672 1.788-1.194l.212-.212.213.212c.529.53 1.155.938 1.825 1.207.272-.635.439-1.36.439-2.145v-.3h.3c.768 0 1.48-.163 2.106-.426" transform="translate(-508 -452) translate(144 406) translate(0 30) translate(364 16)"/>
                        <path fill="#3D4994" d="M5.413 12.563c.465.82 1.106 1.442 1.755 1.772.646-.327 1.282-.945 1.747-1.759-.64-.264-1.241-.64-1.769-1.119-.518.471-1.108.842-1.733 1.105M7.168 0c-.647.326-1.285.94-1.75 1.752.634.262 1.23.633 1.752 1.106.514-.463 1.114-.832 1.754-1.094C8.459.946 7.818.327 7.169 0M12.214 2.091c-.334-.11-.72-.168-1.13-.168-.438 0-.881.069-1.313.187.248.598.411 1.273.445 2.012.719.036 1.393.202 1.998.455.256-.905.25-1.79.03-2.456l-.022-.007-.008-.022M2.105 9.746c-.248.9-.235 1.782-.011 2.47l.019.008.006.018c.343.11.733.168 1.141.168.44 0 .88-.068 1.309-.188-.25-.604-.415-1.288-.45-2.037-.74-.033-1.416-.194-2.014-.439M2.123 2.093l-.009.02-.02.009c-.221.686-.235 1.565.009 2.459.608-.256 1.287-.424 2.017-.46.034-.743.199-1.422.449-2.023-.419-.112-.848-.178-1.278-.178-.417 0-.817.06-1.168.173" transform="translate(-508 -452) translate(144 406) translate(0 30) translate(364 16)"/>
                    </g>
                </g>
            </g>
        </g>
    </g>
</svg>
