<svg xmlns="http://www.w3.org/2000/svg" width="506" height="36" viewBox="0 0 506 36">
    <g fill="none" fill-rule="evenodd">
        <g fill="#BA9345">
            <g>
                <g>
                    <path d="M53.619 31.648c-.154-.416-.242-.85-.295-1.29.772-.745 1.442-1.59 1.974-2.535 1.738-3.087 1.815-6.971.481-10.252-.531-1.307-1.28-2.511-2.178-3.599-.107-.65-.15-1.306-.056-1.96.214-1.472 1.215-2.923 2.677-3.24-1.197-.869-2.906-1.144-4.33-.735-1.173.337-2.175 1.149-2.806 2.185-.148-.084-.291-.176-.442-.255-3.147-1.654-6.759-2.332-10.318-2.262-1.754.035-3.538.255-5.127.993-3.197 1.484-5.206 5.16-4.718 8.633.489 3.472 3.434 6.46 6.918 7.018 1.064.17 2.173.13 3.194-.212 1.985-.662 3.51-2.52 3.765-4.585.255-2.065-.774-4.234-2.538-5.353-1.172-.744-2.71-1.02-3.974-.446-1.655.751-2.418 2.99-1.562 4.586.568 1.06 1.813 1.774 3.005 1.572 1.192-.202 2.015-1.356 1.799-2.539 1.17 1.028 1.24 2.987.294 4.223-.945 1.235-2.696 1.717-4.213 1.349-1.517-.369-2.782-1.489-3.54-2.845-.92-1.642-1.146-3.655-.613-5.458.534-1.803 1.82-3.374 3.487-4.261 1.033-.55 2.198-.84 3.369-.898 1.9-.092 3.823.437 5.405 1.487 1.58 1.05 2.81 2.614 3.45 4.393.395 1.097.57 2.296.328 3.436-.242 1.14-1.25 2.165-2.282 2.72 1.456 1.347 3.676 1.82 5.559 1.18 1.883-.639 3.104-2.338 3.426-4.289.87 2.173.787 4.677-.09 6.848-.876 2.17-2.512 4.005-4.496 5.263-2.723 1.727-6.413 2.453-9.586 1.85 1.313-.21 2.526-.972 3.28-2.06.43-.622.717-1.366.679-2.12-.038-.742-.4-1.46-.976-1.934-.574-.473-1.353-.693-2.093-.591-1.037.143-1.968.969-2.143 1.995-.176 1.026.4 1.992 1.41 2.27-.587.973-1.634 1.626-2.75 1.865-1.115.24-2.291.093-3.37-.278-2.339-.807-4.436-2.573-5.273-4.89-.837 2.317-2.934 4.083-5.274 4.89-1.078.371-2.254.518-3.37.278-1.115-.24-2.163-.892-2.75-1.865 1.01-.278 1.587-1.244 1.411-2.27-.175-1.026-1.106-1.852-2.144-1.995-.739-.102-1.518.118-2.093.591-.574.473-.937 1.192-.975 1.933-.038.755.248 1.499.68 2.121.753 1.088 1.966 1.85 3.279 2.06-3.173.603-6.863-.123-9.586-1.85-1.984-1.258-3.62-3.093-4.496-5.263-.877-2.17-.96-4.675-.09-6.848.322 1.951 1.543 3.65 3.426 4.289 1.883.64 4.103.167 5.559-1.18-1.032-.555-2.04-1.58-2.282-2.72-.242-1.14-.067-2.339.328-3.436.64-1.779 1.87-3.343 3.45-4.393 1.582-1.05 3.506-1.579 5.405-1.487 1.17.057 2.336.348 3.37.898 1.667.887 2.952 2.458 3.486 4.261.533 1.803.307 3.816-.612 5.458-.76 1.356-2.024 2.476-3.541 2.845-1.517.368-3.268-.114-4.213-1.35-.946-1.235-.876-3.194.294-4.222-.216 1.183.607 2.337 1.8 2.539 1.191.202 2.436-.511 3.004-1.572.856-1.596.093-3.835-1.562-4.586-1.264-.574-2.802-.298-3.974.446-1.765 1.12-2.793 3.288-2.538 5.353.255 2.065 1.78 3.923 3.765 4.585 1.021.341 2.13.382 3.194.212 3.484-.557 6.43-3.546 6.918-7.018.488-3.473-1.521-7.149-4.718-8.633-1.59-.738-3.373-.958-5.127-.993-3.56-.07-7.171.608-10.318 2.262-.15.079-.294.171-.442.255-.63-1.036-1.634-1.848-2.806-2.185-1.424-.41-3.133-.134-4.33.734 1.462.318 2.463 1.769 2.677 3.24.095.655.05 1.31-.057 1.961-.898 1.088-1.646 2.292-2.177 3.6-1.334 3.28-1.257 7.164.481 10.251.532.945 1.202 1.79 1.974 2.534-.053.44-.14.875-.295 1.291-.51 1.371-1.561 2.535-2.878 3.185 1.267.847 2.895 1.071 4.371.682 1.313-.346 2.452-1.227 3.17-2.371 1.389.574 2.861.97 4.341 1.156 4.294.542 8.01.163 12.812-1.483 1.344-.461 2.846-.958 3.453-2.235.607 1.277 2.11 1.774 3.453 2.235 4.801 1.646 8.518 2.025 12.812 1.483 1.48-.187 2.952-.582 4.34-1.156.72 1.144 1.858 2.025 3.17 2.371 1.476.39 3.105.165 4.372-.682-1.317-.65-2.369-1.814-2.878-3.185" transform="translate(-120 -1166) translate(120 246) translate(0 920)"/>
                    <path d="M28.35 0c-3.267 3.093-3.267 8.107 0 11.2 3.267-3.093 3.267-8.107 0-11.2M109.619 31.648c-.154-.416-.241-.85-.295-1.29.772-.745 1.442-1.59 1.974-2.535 1.738-3.087 1.815-6.971.481-10.252-.53-1.307-1.28-2.511-2.177-3.599-.108-.65-.152-1.306-.057-1.96.214-1.472 1.215-2.923 2.677-3.24-1.197-.869-2.906-1.144-4.33-.735-1.172.337-2.175 1.149-2.806 2.185-.148-.084-.291-.176-.442-.255-3.147-1.654-6.759-2.332-10.318-2.262-1.754.035-3.538.255-5.127.993-3.197 1.484-5.206 5.16-4.718 8.633.489 3.472 3.434 6.46 6.918 7.018 1.064.17 2.173.13 3.194-.212 1.985-.662 3.51-2.52 3.765-4.585.255-2.065-.774-4.234-2.538-5.353-1.172-.744-2.71-1.02-3.974-.446-1.655.751-2.418 2.99-1.563 4.586.57 1.06 1.813 1.774 3.006 1.572 1.192-.202 2.015-1.356 1.799-2.539 1.17 1.028 1.24 2.987.294 4.223-.945 1.235-2.696 1.717-4.213 1.349-1.517-.369-2.782-1.489-3.54-2.845-.92-1.642-1.146-3.655-.613-5.458.534-1.803 1.82-3.374 3.487-4.261 1.033-.55 2.198-.84 3.369-.898 1.9-.092 3.824.437 5.405 1.487 1.58 1.05 2.81 2.614 3.45 4.393.395 1.097.57 2.296.328 3.436-.242 1.14-1.25 2.165-2.282 2.72 1.456 1.347 3.676 1.82 5.559 1.18 1.883-.639 3.104-2.338 3.426-4.289.87 2.173.787 4.677-.09 6.848-.876 2.17-2.512 4.005-4.496 5.263-2.723 1.727-6.413 2.453-9.586 1.85 1.313-.21 2.526-.972 3.28-2.06.43-.622.717-1.366.68-2.12-.039-.742-.402-1.46-.977-1.934-.574-.473-1.353-.693-2.092-.591-1.038.143-1.969.969-2.144 1.995-.176 1.026.4 1.992 1.41 2.27-.586.973-1.634 1.626-2.75 1.865-1.115.24-2.291.093-3.37-.278-2.339-.807-4.437-2.573-5.273-4.89-.837 2.317-2.934 4.083-5.274 4.89-1.078.371-2.254.518-3.37.278-1.115-.24-2.163-.892-2.75-1.865 1.01-.278 1.587-1.244 1.411-2.27-.175-1.026-1.106-1.852-2.143-1.995-.74-.102-1.519.118-2.093.591-.576.473-.939 1.192-.976 1.933-.038.755.248 1.499.68 2.121.753 1.088 1.966 1.85 3.279 2.06-3.173.603-6.863-.123-9.585-1.85-1.985-1.258-3.62-3.093-4.497-5.263-.877-2.17-.96-4.675-.09-6.848.322 1.951 1.543 3.65 3.426 4.289 1.883.64 4.103.167 5.559-1.18-1.032-.555-2.04-1.58-2.282-2.72-.242-1.14-.067-2.339.328-3.436.64-1.779 1.87-3.343 3.45-4.393 1.581-1.05 3.506-1.579 5.405-1.487 1.17.057 2.336.348 3.37.898 1.667.887 2.952 2.458 3.486 4.261.533 1.803.307 3.816-.612 5.458-.76 1.356-2.024 2.476-3.541 2.845-1.517.368-3.268-.114-4.213-1.35-.946-1.235-.876-3.194.294-4.222-.217 1.183.607 2.337 1.8 2.539 1.191.202 2.436-.511 3.004-1.572.856-1.596.093-3.835-1.562-4.586-1.264-.574-2.802-.298-3.974.446-1.765 1.12-2.793 3.288-2.538 5.353.255 2.065 1.78 3.923 3.765 4.585 1.02.341 2.13.382 3.194.212 3.483-.557 6.43-3.546 6.918-7.018.487-3.473-1.521-7.149-4.718-8.633-1.59-.738-3.373-.958-5.127-.993-3.56-.07-7.171.608-10.318 2.262-.15.079-.294.171-.442.255-.63-1.036-1.634-1.848-2.806-2.185-1.424-.41-3.133-.134-4.33.734 1.462.318 2.463 1.769 2.676 3.24.095.655.052 1.31-.055 1.961-.899 1.088-1.647 2.292-2.179 3.6-1.333 3.28-1.256 7.164.482 10.251.532.945 1.202 1.79 1.974 2.534-.054.44-.14.875-.295 1.291-.51 1.371-1.561 2.535-2.879 3.185 1.268.847 2.897 1.071 4.372.682 1.313-.346 2.452-1.227 3.17-2.371 1.389.574 2.861.97 4.341 1.156 4.294.542 8.01.163 12.811-1.483 1.345-.461 2.847-.958 3.454-2.235.607 1.277 2.11 1.774 3.453 2.235 4.801 1.646 8.518 2.025 12.812 1.483 1.48-.187 2.952-.582 4.34-1.156.72 1.144 1.858 2.025 3.17 2.371 1.477.39 3.105.165 4.372-.682-1.317-.65-2.369-1.814-2.878-3.185" transform="translate(-120 -1166) translate(120 246) translate(0 920)"/>
                    <path d="M84.35 0c-3.267 3.093-3.267 8.107 0 11.2 3.267-3.093 3.267-8.107 0-11.2M165.62 31.648c-.155-.416-.242-.85-.296-1.29.772-.745 1.442-1.59 1.974-2.535 1.738-3.087 1.815-6.971.481-10.252-.531-1.307-1.279-2.511-2.178-3.599-.107-.65-.15-1.306-.056-1.96.214-1.472 1.215-2.923 2.677-3.24-1.197-.869-2.906-1.144-4.33-.735-1.172.337-2.176 1.149-2.806 2.185-.148-.084-.291-.176-.442-.255-3.147-1.654-6.759-2.332-10.318-2.262-1.754.035-3.538.255-5.127.993-3.197 1.484-5.206 5.16-4.717 8.633.488 3.472 3.434 6.46 6.917 7.018 1.064.17 2.173.13 3.194-.212 1.985-.662 3.51-2.52 3.765-4.585.255-2.065-.773-4.234-2.538-5.353-1.172-.744-2.71-1.02-3.974-.446-1.655.751-2.418 2.99-1.563 4.586.569 1.06 1.814 1.774 3.006 1.572 1.192-.202 2.015-1.356 1.799-2.539 1.17 1.028 1.24 2.987.294 4.223-.946 1.235-2.696 1.717-4.213 1.349-1.517-.369-2.782-1.489-3.54-2.845-.92-1.642-1.146-3.655-.613-5.458.534-1.803 1.82-3.374 3.487-4.261 1.033-.55 2.198-.84 3.369-.898 1.899-.092 3.824.437 5.405 1.487 1.58 1.05 2.81 2.614 3.45 4.393.395 1.097.57 2.296.328 3.436-.242 1.14-1.25 2.165-2.282 2.72 1.456 1.347 3.676 1.82 5.558 1.18 1.884-.639 3.105-2.338 3.427-4.289.87 2.173.787 4.677-.09 6.848-.876 2.17-2.512 4.005-4.496 5.263-2.723 1.727-6.413 2.453-9.586 1.85 1.312-.21 2.526-.972 3.28-2.06.43-.622.717-1.366.679-2.12-.038-.742-.4-1.46-.976-1.934-.575-.473-1.353-.693-2.093-.591-1.037.143-1.968.969-2.144 1.995-.175 1.026.402 1.992 1.411 2.27-.586.973-1.634 1.626-2.75 1.865-1.115.24-2.291.093-3.37-.278-2.339-.807-4.437-2.573-5.273-4.89-.837 2.317-2.935 4.083-5.274 4.89-1.078.371-2.254.518-3.37.278-1.115-.24-2.163-.892-2.75-1.865 1.01-.278 1.587-1.244 1.411-2.27-.175-1.026-1.106-1.852-2.143-1.995-.74-.102-1.518.118-2.093.591-.576.473-.939 1.192-.976 1.933-.038.755.248 1.499.68 2.121.753 1.088 1.967 1.85 3.279 2.06-3.173.603-6.863-.123-9.585-1.85-1.985-1.258-3.621-3.093-4.497-5.263-.877-2.17-.96-4.675-.09-6.848.322 1.951 1.543 3.65 3.426 4.289 1.883.64 4.103.167 5.559-1.18-1.032-.555-2.04-1.58-2.282-2.72-.242-1.14-.068-2.339.328-3.436.64-1.779 1.87-3.343 3.45-4.393 1.581-1.05 3.506-1.579 5.405-1.487 1.171.057 2.336.348 3.37.898 1.667.887 2.952 2.458 3.486 4.261.533 1.803.307 3.816-.612 5.458-.76 1.356-2.024 2.476-3.541 2.845-1.517.368-3.268-.114-4.213-1.35-.946-1.235-.876-3.194.294-4.222-.217 1.183.607 2.337 1.8 2.539 1.191.202 2.436-.511 3.005-1.572.855-1.596.092-3.835-1.563-4.586-1.264-.574-2.802-.298-3.974.446-1.765 1.12-2.793 3.288-2.538 5.353.255 2.065 1.78 3.923 3.765 4.585 1.02.341 2.13.382 3.194.212 3.483-.557 6.43-3.546 6.917-7.018.489-3.473-1.52-7.149-4.717-8.633-1.59-.738-3.373-.958-5.127-.993-3.56-.07-7.171.608-10.318 2.262-.15.079-.294.171-.442.255-.63-1.036-1.634-1.848-2.806-2.185-1.424-.41-3.133-.134-4.33.734 1.462.318 2.463 1.769 2.676 3.24.095.655.052 1.31-.055 1.961-.899 1.088-1.647 2.292-2.178 3.6-1.334 3.28-1.257 7.164.481 10.251.532.945 1.202 1.79 1.974 2.534-.054.44-.14.875-.295 1.291-.51 1.371-1.561 2.535-2.879 3.185 1.268.847 2.897 1.071 4.372.682 1.314-.346 2.452-1.227 3.17-2.371 1.388.574 2.861.97 4.341 1.156 4.294.542 8.01.163 12.811-1.483 1.345-.461 2.847-.958 3.454-2.235.607 1.277 2.11 1.774 3.453 2.235 4.801 1.646 8.518 2.025 12.812 1.483 1.48-.187 2.953-.582 4.34-1.156.72 1.144 1.857 2.025 3.17 2.371 1.476.39 3.105.165 4.373-.682-1.318-.65-2.37-1.814-2.879-3.185" transform="translate(-120 -1166) translate(120 246) translate(0 920)"/>
                    <path d="M140.35 0c-3.267 3.093-3.267 8.107 0 11.2 3.267-3.093 3.267-8.107 0-11.2M220.92 31.648c-.155-.416-.242-.85-.296-1.29.772-.745 1.442-1.59 1.974-2.535 1.738-3.087 1.815-6.971.481-10.252-.531-1.307-1.28-2.511-2.178-3.599-.107-.65-.15-1.306-.055-1.96.213-1.472 1.214-2.923 2.676-3.24-1.197-.869-2.906-1.144-4.33-.735-1.172.337-2.176 1.149-2.806 2.185-.148-.084-.291-.176-.442-.255-3.147-1.654-6.759-2.332-10.318-2.262-1.754.035-3.538.255-5.127.993-3.197 1.484-5.206 5.16-4.717 8.633.488 3.472 3.434 6.46 6.917 7.018 1.064.17 2.173.13 3.194-.212 1.985-.662 3.51-2.52 3.765-4.585.255-2.065-.773-4.234-2.538-5.353-1.172-.744-2.71-1.02-3.974-.446-1.655.751-2.418 2.99-1.563 4.586.569 1.06 1.814 1.774 3.006 1.572 1.192-.202 2.016-1.356 1.8-2.539 1.169 1.028 1.238 2.987.293 4.223-.945 1.235-2.696 1.717-4.213 1.349-1.517-.369-2.782-1.489-3.541-2.845-.919-1.642-1.145-3.655-.612-5.458.534-1.803 1.82-3.374 3.487-4.261 1.033-.55 2.198-.84 3.369-.898 1.899-.092 3.824.437 5.405 1.487 1.58 1.05 2.81 2.614 3.45 4.393.396 1.097.57 2.296.328 3.436-.242 1.14-1.25 2.165-2.282 2.72 1.456 1.347 3.676 1.82 5.559 1.18 1.883-.639 3.104-2.338 3.425-4.289.872 2.173.788 4.677-.089 6.848-.876 2.17-2.512 4.005-4.496 5.263-2.723 1.727-6.413 2.453-9.586 1.85 1.312-.21 2.526-.972 3.28-2.06.43-.622.717-1.366.679-2.12-.038-.742-.4-1.46-.976-1.934-.575-.473-1.353-.693-2.093-.591-1.037.143-1.968.969-2.143 1.995-.176 1.026.4 1.992 1.41 2.27-.586.973-1.634 1.626-2.75 1.865-1.115.24-2.291.093-3.37-.278-2.339-.807-4.437-2.573-5.273-4.89-.836 2.317-2.934 4.083-5.274 4.89-1.078.371-2.254.518-3.37.278-1.115-.24-2.163-.892-2.75-1.865 1.01-.278 1.587-1.244 1.411-2.27-.175-1.026-1.106-1.852-2.143-1.995-.74-.102-1.518.118-2.093.591-.576.473-.938 1.192-.976 1.933-.038.755.249 1.499.68 2.121.753 1.088 1.967 1.85 3.279 2.06-3.173.603-6.863-.123-9.586-1.85-1.984-1.258-3.62-3.093-4.496-5.263-.877-2.17-.96-4.675-.09-6.848.322 1.951 1.543 3.65 3.426 4.289 1.883.64 4.103.167 5.559-1.18-1.032-.555-2.04-1.58-2.282-2.72-.242-1.14-.068-2.339.328-3.436.64-1.779 1.87-3.343 3.45-4.393 1.581-1.05 3.506-1.579 5.405-1.487 1.171.057 2.336.348 3.37.898 1.667.887 2.952 2.458 3.486 4.261.533 1.803.307 3.816-.612 5.458-.76 1.356-2.024 2.476-3.541 2.845-1.517.368-3.268-.114-4.213-1.35-.945-1.235-.876-3.194.294-4.222-.217 1.183.607 2.337 1.8 2.539 1.191.202 2.436-.511 3.005-1.572.855-1.596.092-3.835-1.563-4.586-1.264-.574-2.802-.298-3.974.446-1.765 1.12-2.793 3.288-2.538 5.353.255 2.065 1.78 3.923 3.765 4.585 1.021.341 2.13.382 3.194.212 3.483-.557 6.43-3.546 6.917-7.018.489-3.473-1.52-7.149-4.717-8.633-1.59-.738-3.373-.958-5.127-.993-3.56-.07-7.17.608-10.318 2.262-.15.079-.294.171-.442.255-.63-1.036-1.634-1.848-2.806-2.185-1.424-.41-3.133-.134-4.33.734 1.462.318 2.463 1.769 2.676 3.24.096.655.052 1.31-.055 1.961-.899 1.088-1.647 2.292-2.178 3.6-1.334 3.28-1.257 7.164.481 10.251.532.945 1.202 1.79 1.974 2.534-.054.44-.14.875-.295 1.291-.51 1.371-1.561 2.535-2.879 3.185 1.268.847 2.897 1.071 4.372.682 1.314-.346 2.452-1.227 3.17-2.371 1.388.574 2.861.97 4.341 1.156 4.294.542 8.01.163 12.811-1.483 1.345-.461 2.847-.958 3.454-2.235.607 1.277 2.11 1.774 3.454 2.235 4.8 1.646 8.517 2.025 12.81 1.483 1.48-.187 2.954-.582 4.342-1.156.718 1.144 1.856 2.025 3.17 2.371 1.475.39 3.104.165 4.372-.682-1.318-.65-2.37-1.814-2.879-3.185" transform="translate(-120 -1166) translate(120 246) translate(0 920)"/>
                    <path d="M196.35 0c-3.267 3.093-3.267 8.107 0 11.2 3.267-3.093 3.267-8.107 0-11.2M276.92 31.648c-.155-.416-.242-.85-.296-1.29.772-.745 1.442-1.59 1.974-2.535 1.738-3.087 1.815-6.971.481-10.252-.531-1.307-1.28-2.511-2.178-3.599-.107-.65-.15-1.306-.055-1.96.213-1.472 1.214-2.923 2.676-3.24-1.197-.869-2.906-1.144-4.33-.735-1.172.337-2.176 1.149-2.806 2.185-.148-.084-.291-.176-.442-.255-3.147-1.654-6.759-2.332-10.318-2.262-1.754.035-3.538.255-5.127.993-3.197 1.484-5.206 5.16-4.717 8.633.488 3.472 3.434 6.46 6.917 7.018 1.064.17 2.173.13 3.194-.212 1.985-.662 3.51-2.52 3.765-4.585.255-2.065-.773-4.234-2.538-5.353-1.172-.744-2.71-1.02-3.974-.446-1.655.751-2.418 2.99-1.563 4.586.569 1.06 1.814 1.774 3.006 1.572 1.192-.202 2.016-1.356 1.8-2.539 1.169 1.028 1.239 2.987.293 4.223-.945 1.235-2.696 1.717-4.213 1.349-1.517-.369-2.782-1.489-3.541-2.845-.92-1.642-1.145-3.655-.612-5.458.534-1.803 1.82-3.374 3.487-4.261 1.033-.55 2.198-.84 3.369-.898 1.9-.092 3.824.437 5.405 1.487 1.58 1.05 2.81 2.614 3.45 4.393.396 1.097.57 2.296.328 3.436-.242 1.14-1.25 2.165-2.282 2.72 1.456 1.347 3.676 1.82 5.559 1.18 1.883-.639 3.104-2.338 3.426-4.289.87 2.173.787 4.677-.09 6.848-.876 2.17-2.512 4.005-4.497 5.263-2.722 1.727-6.412 2.453-9.585 1.85 1.312-.21 2.526-.972 3.28-2.06.43-.622.717-1.366.679-2.12-.037-.742-.4-1.46-.976-1.934-.575-.473-1.353-.693-2.093-.591-1.037.143-1.968.969-2.143 1.995-.176 1.026.4 1.992 1.41 2.27-.586.973-1.634 1.626-2.75 1.865-1.115.24-2.29.093-3.37-.278-2.338-.807-4.436-2.573-5.273-4.89-.836 2.317-2.934 4.083-5.274 4.89-1.078.371-2.254.518-3.37.278-1.115-.24-2.163-.892-2.75-1.865 1.01-.278 1.587-1.244 1.412-2.27-.176-1.026-1.107-1.852-2.144-1.995-.74-.102-1.518.118-2.093.591-.576.473-.938 1.192-.976 1.933-.038.755.249 1.499.68 2.121.753 1.088 1.967 1.85 3.279 2.06-3.173.603-6.863-.123-9.586-1.85-1.984-1.258-3.62-3.093-4.496-5.263-.877-2.17-.96-4.675-.09-6.848.322 1.951 1.543 3.65 3.427 4.289 1.882.64 4.102.167 5.558-1.18-1.032-.555-2.04-1.58-2.282-2.72-.242-1.14-.067-2.339.328-3.436.64-1.779 1.87-3.343 3.45-4.393 1.581-1.05 3.506-1.579 5.405-1.487 1.171.057 2.336.348 3.37.898 1.667.887 2.952 2.458 3.486 4.261.533 1.803.307 3.816-.612 5.458-.76 1.356-2.024 2.476-3.541 2.845-1.517.368-3.267-.114-4.213-1.35-.945-1.235-.876-3.194.294-4.222-.216 1.183.607 2.337 1.8 2.539 1.191.202 2.436-.511 3.005-1.572.855-1.596.092-3.835-1.563-4.586-1.264-.574-2.802-.298-3.974.446-1.765 1.12-2.793 3.288-2.538 5.353.255 2.065 1.78 3.923 3.765 4.585 1.021.341 2.13.382 3.194.212 3.483-.557 6.43-3.546 6.917-7.018.489-3.473-1.52-7.149-4.717-8.633-1.59-.738-3.373-.958-5.127-.993-3.56-.07-7.171.608-10.318 2.262-.15.079-.294.171-.442.255-.63-1.036-1.634-1.848-2.806-2.185-1.424-.41-3.133-.134-4.33.734 1.462.318 2.463 1.769 2.677 3.24.095.655.05 1.31-.056 1.961-.899 1.088-1.647 2.292-2.178 3.6-1.334 3.28-1.257 7.164.481 10.251.532.945 1.202 1.79 1.974 2.534-.054.44-.14.875-.295 1.291-.51 1.371-1.56 2.535-2.879 3.185 1.268.847 2.897 1.071 4.372.682 1.314-.346 2.452-1.227 3.17-2.371 1.388.574 2.861.97 4.341 1.156 4.294.542 8.01.163 12.812-1.483 1.344-.461 2.846-.958 3.453-2.235.607 1.277 2.11 1.774 3.454 2.235 4.8 1.646 8.517 2.025 12.81 1.483 1.48-.187 2.954-.582 4.342-1.156.718 1.144 1.856 2.025 3.17 2.371 1.475.39 3.104.165 4.372-.682-1.318-.65-2.37-1.814-2.879-3.185" transform="translate(-120 -1166) translate(120 246) translate(0 920)"/>
                    <path d="M252.35 0c-3.267 3.093-3.267 8.107 0 11.2 3.267-3.093 3.267-8.107 0-11.2M332.919 31.648c-.154-.416-.241-.85-.294-1.29.772-.745 1.442-1.59 1.973-2.535 1.738-3.087 1.815-6.971.481-10.252-.53-1.307-1.277-2.511-2.178-3.599-.108-.65-.15-1.306-.056-1.96.213-1.472 1.215-2.923 2.678-3.24-1.198-.869-2.908-1.144-4.332-.735-1.17.337-2.175 1.149-2.803 2.185-.15-.084-.293-.176-.443-.255-3.149-1.654-6.758-2.332-10.319-2.262-1.752.035-3.54.255-5.127.993-3.198 1.484-5.205 5.16-4.716 8.633.488 3.472 3.434 6.46 6.918 7.018 1.061.17 2.171.13 3.194-.212 1.983-.662 3.508-2.52 3.763-4.585.255-2.065-.772-4.234-2.538-5.353-1.173-.744-2.709-1.02-3.976-.446-1.654.751-2.415 2.99-1.56 4.586.57 1.06 1.812 1.774 3.006 1.572 1.19-.202 2.014-1.356 1.797-2.539 1.17 1.028 1.24 2.987.297 4.223-.946 1.235-2.698 1.717-4.213 1.349-1.519-.369-2.782-1.489-3.543-2.845-.918-1.642-1.145-3.655-.611-5.458.534-1.803 1.818-3.374 3.487-4.261 1.033-.55 2.196-.84 3.368-.898 1.9-.092 3.823.437 5.404 1.487s2.81 2.614 3.452 4.393c.395 1.097.57 2.296.328 3.436-.244 1.14-1.25 2.165-2.283 2.72 1.456 1.347 3.676 1.82 5.558 1.18 1.884-.639 3.106-2.338 3.427-4.289.87 2.173.786 4.677-.09 6.848-.877 2.17-2.51 4.005-4.496 5.263-2.723 1.727-6.413 2.453-9.586 1.85 1.313-.21 2.528-.972 3.278-2.06.433-.622.72-1.366.68-2.12-.038-.742-.4-1.46-.973-1.934-.576-.473-1.355-.693-2.095-.591-1.036.143-1.968.969-2.143 1.995-.174 1.026.402 1.992 1.41 2.27-.586.973-1.633 1.626-2.75 1.865-1.114.24-2.29.093-3.369-.278-2.338-.807-4.436-2.573-5.274-4.89-.838 2.317-2.936 4.083-5.274 4.89-1.079.371-2.254.518-3.37.278-1.115-.24-2.163-.892-2.75-1.865 1.01-.278 1.587-1.244 1.412-2.27-.176-1.026-1.107-1.852-2.144-1.995-.74-.102-1.519.118-2.093.591-.575.473-.938 1.192-.976 1.933-.038.755.248 1.499.68 2.121.753 1.088 1.967 1.85 3.279 2.06-3.173.603-6.863-.123-9.586-1.85-1.984-1.258-3.62-3.093-4.496-5.263-.877-2.17-.96-4.675-.09-6.848.322 1.951 1.543 3.65 3.426 4.289 1.883.64 4.103.167 5.559-1.18-1.032-.555-2.04-1.58-2.282-2.72-.242-1.14-.067-2.339.328-3.436.64-1.779 1.87-3.343 3.45-4.393 1.581-1.05 3.506-1.579 5.405-1.487 1.171.057 2.336.348 3.368.898 1.669.887 2.953 2.458 3.487 4.261.534 1.803.307 3.816-.61 5.458-.762 1.356-2.025 2.476-3.544 2.845-1.515.368-3.266-.114-4.21-1.35-.946-1.235-.877-3.194.293-4.222-.216 1.183.607 2.337 1.8 2.539 1.192.202 2.435-.511 3.004-1.572.855-1.596.094-3.835-1.562-4.586-1.264-.574-2.802-.298-3.974.446-1.765 1.12-2.793 3.288-2.538 5.353.255 2.065 1.78 3.923 3.765 4.585 1.021.341 2.13.382 3.195.212 3.484-.557 6.427-3.546 6.915-7.018.49-3.473-1.518-7.149-4.715-8.633-1.589-.738-3.374-.958-5.128-.993-3.56-.07-7.171.608-10.318 2.262-.15.079-.294.171-.442.255-.63-1.036-1.634-1.848-2.806-2.185-1.424-.41-3.133-.134-4.33.734 1.462.318 2.463 1.769 2.677 3.24.095.655.05 1.31-.057 1.961-.898 1.088-1.646 2.292-2.177 3.6-1.334 3.28-1.257 7.164.481 10.251.532.945 1.202 1.79 1.974 2.534-.054.44-.14.875-.295 1.291-.51 1.371-1.561 2.535-2.878 3.185 1.267.847 2.895 1.071 4.371.682 1.313-.346 2.452-1.227 3.17-2.371 1.389.574 2.861.97 4.341 1.156 4.294.542 8.01.163 12.813-1.483 1.344-.461 2.845-.958 3.452-2.235.607 1.277 2.108 1.774 3.452 2.235 4.803 1.646 8.517 2.025 12.814 1.483 1.48-.187 2.95-.582 4.34-1.156.718 1.144 1.856 2.025 3.169 2.371 1.476.39 3.106.165 4.373-.682-1.319-.65-2.37-1.814-2.88-3.185" transform="translate(-120 -1166) translate(120 246) translate(0 920)"/>
                    <path d="M307.65 0c-3.267 3.093-3.267 8.107 0 11.2 3.267-3.093 3.267-8.107 0-11.2M388.919 31.648c-.154-.416-.241-.85-.297-1.29.771-.745 1.442-1.59 1.976-2.535 1.738-3.087 1.815-6.971.481-10.252-.534-1.307-1.28-2.511-2.178-3.599-.108-.65-.153-1.306-.056-1.96.213-1.472 1.215-2.923 2.674-3.24-1.194-.869-2.904-1.144-4.328-.735-1.173.337-2.175 1.149-2.807 2.185-.146-.084-.29-.176-.44-.255-3.148-1.654-6.76-2.332-10.318-2.262-1.756.035-3.54.255-5.128.993-3.197 1.484-5.204 5.16-4.719 8.633.489 3.472 3.435 6.46 6.919 7.018 1.064.17 2.174.13 3.194-.212 1.986-.662 3.511-2.52 3.766-4.585.255-2.065-.775-4.234-2.538-5.353-1.173-.744-2.712-1.02-3.976-.446-1.654.751-2.419 2.99-1.563 4.586.569 1.06 1.815 1.774 3.005 1.572 1.194-.202 2.018-1.356 1.801-2.539 1.17 1.028 1.24 2.987.293 4.223-.946 1.235-2.694 1.717-4.213 1.349-1.515-.369-2.782-1.489-3.54-2.845-.92-1.642-1.144-3.655-.61-5.458.53-1.803 1.818-3.374 3.483-4.261 1.034-.55 2.2-.84 3.372-.898 1.9-.092 3.823.437 5.404 1.487s2.81 2.614 3.449 4.393c.398 1.097.572 2.296.328 3.436-.241 1.14-1.25 2.165-2.28 2.72 1.456 1.347 3.676 1.82 5.558 1.18 1.884-.639 3.103-2.338 3.427-4.289.87 2.173.786 4.677-.09 6.848-.877 2.17-2.514 4.005-4.496 5.263-2.723 1.727-6.416 2.453-9.586 1.85 1.313-.21 2.524-.972 3.278-2.06.433-.622.72-1.366.68-2.12-.038-.742-.4-1.46-.977-1.934-.572-.473-1.354-.693-2.09-.591-1.04.143-1.97.969-2.144 1.995-.178 1.026.398 1.992 1.41 2.27-.586.973-1.633 1.626-2.75 1.865-1.117.24-2.294.093-3.372-.278-2.339-.807-4.437-2.573-5.271-4.89-.838 2.317-2.936 4.083-5.274 4.89-1.079.371-2.255.518-3.372.278-1.114-.24-2.161-.892-2.747-1.865 1.008-.278 1.584-1.244 1.41-2.27-.175-1.026-1.107-1.852-2.143-1.995-.74-.102-1.519.118-2.095.591-.576.473-.939 1.192-.974 1.933-.038.755.248 1.499.677 2.121.754 1.088 1.97 1.85 3.282 2.06-3.173.603-6.863-.123-9.586-1.85-1.986-1.258-3.62-3.093-4.5-5.263-.875-2.17-.959-4.675-.086-6.848.32 1.951 1.543 3.65 3.424 4.289 1.885.64 4.105.167 5.56-1.18-1.033-.555-2.041-1.58-2.282-2.72-.241-1.14-.067-2.339.328-3.436.642-1.779 1.87-3.343 3.449-4.393 1.58-1.05 3.508-1.579 5.407-1.487 1.169.057 2.335.348 3.368.898 1.669.887 2.953 2.458 3.487 4.261.53 1.803.307 3.816-.61 5.458-.762 1.356-2.025 2.476-3.544 2.845-1.515.368-3.267-.114-4.213-1.35-.946-1.235-.876-3.194.293-4.222-.216 1.183.608 2.337 1.801 2.539 1.19.202 2.437-.511 3.006-1.572.855-1.596.09-3.835-1.564-4.586-1.263-.574-2.803-.298-3.972.446-1.766 1.12-2.793 3.288-2.538 5.353.255 2.065 1.78 3.923 3.763 4.585 1.023.341 2.13.382 3.194.212 3.484-.557 6.43-3.546 6.918-7.018.489-3.473-1.522-7.149-4.719-8.633-1.588-.738-3.372-.958-5.124-.993-3.56-.07-7.173.608-10.319 2.262-.15.079-.293.171-.443.255-.628-1.036-1.633-1.848-2.806-2.185-1.425-.41-3.131-.134-4.329.734 1.463.318 2.461 1.769 2.678 3.24.094.655.048 1.31-.056 1.961-.9 1.088-1.648 2.292-2.178 3.6-1.334 3.28-1.257 7.164.481 10.251.53.945 1.201 1.79 1.973 2.534-.053.44-.14.875-.297 1.291-.506 1.371-1.56 2.535-2.876 3.185 1.267.847 2.897 1.071 4.37.682 1.316-.346 2.454-1.227 3.17-2.371 1.389.574 2.862.97 4.342 1.156 4.293.542 8.01.163 12.81-1.483 1.344-.461 2.849-.958 3.456-2.235.607 1.277 2.108 1.774 3.452 2.235 4.8 1.646 8.517 2.025 12.81 1.483 1.48-.187 2.954-.582 4.343-1.156.72 1.144 1.857 2.025 3.17 2.371 1.476.39 3.103.165 4.37-.682-1.316-.65-2.367-1.814-2.876-3.185" transform="translate(-120 -1166) translate(120 246) translate(0 920)"/>
                    <path d="M445.619 31.648c-.154-.416-.241-.85-.297-1.29.771-.745 1.442-1.59 1.976-2.535 1.738-3.087 1.815-6.971.481-10.252-.534-1.307-1.28-2.511-2.178-3.599-.108-.65-.153-1.306-.056-1.96.213-1.472 1.215-2.923 2.674-3.24-1.194-.869-2.904-1.144-4.328-.735-1.173.337-2.175 1.149-2.807 2.185-.146-.084-.29-.176-.44-.255-3.148-1.654-6.76-2.332-10.318-2.262-1.756.035-3.54.255-5.128.993-3.197 1.484-5.204 5.16-4.719 8.633.489 3.472 3.435 6.46 6.919 7.018 1.064.17 2.174.13 3.194-.212 1.986-.662 3.511-2.52 3.766-4.585.255-2.065-.775-4.234-2.538-5.353-1.173-.744-2.712-1.02-3.976-.446-1.654.751-2.419 2.99-1.563 4.586.569 1.06 1.815 1.774 3.005 1.572 1.194-.202 2.018-1.356 1.801-2.539 1.17 1.028 1.24 2.987.293 4.223-.946 1.235-2.694 1.717-4.213 1.349-1.515-.369-2.782-1.489-3.54-2.845-.92-1.642-1.144-3.655-.61-5.458.53-1.803 1.818-3.374 3.483-4.261 1.034-.55 2.2-.84 3.372-.898 1.9-.092 3.823.437 5.404 1.487s2.81 2.614 3.449 4.393c.398 1.097.572 2.296.328 3.436-.241 1.14-1.25 2.165-2.28 2.72 1.456 1.347 3.676 1.82 5.558 1.18 1.884-.639 3.103-2.338 3.427-4.289.87 2.173.786 4.677-.09 6.848-.877 2.17-2.514 4.005-4.496 5.263-2.723 1.727-6.416 2.453-9.586 1.85 1.313-.21 2.524-.972 3.278-2.06.433-.622.72-1.366.68-2.12-.038-.742-.4-1.46-.977-1.934-.572-.473-1.354-.693-2.09-.591-1.04.143-1.97.969-2.144 1.995-.178 1.026.398 1.992 1.41 2.27-.586.973-1.633 1.626-2.75 1.865-1.117.24-2.294.093-3.372-.278-2.339-.807-4.437-2.573-5.271-4.89-.838 2.317-2.936 4.083-5.274 4.89-1.079.371-2.255.518-3.372.278-1.114-.24-2.161-.892-2.747-1.865 1.008-.278 1.584-1.244 1.41-2.27-.175-1.026-1.107-1.852-2.143-1.995-.74-.102-1.519.118-2.095.591-.576.473-.939 1.192-.974 1.933-.038.755.248 1.499.677 2.121.754 1.088 1.97 1.85 3.282 2.06-3.173.603-6.863-.123-9.586-1.85-1.986-1.258-3.62-3.093-4.5-5.263-.875-2.17-.959-4.675-.086-6.848.32 1.951 1.543 3.65 3.424 4.289 1.885.64 4.105.167 5.56-1.18-1.033-.555-2.041-1.58-2.282-2.72-.241-1.14-.067-2.339.328-3.436.642-1.779 1.87-3.343 3.449-4.393 1.58-1.05 3.508-1.579 5.407-1.487 1.169.057 2.335.348 3.368.898 1.669.887 2.953 2.458 3.487 4.261.53 1.803.307 3.816-.61 5.458-.762 1.356-2.025 2.476-3.544 2.845-1.515.368-3.267-.114-4.213-1.35-.946-1.235-.876-3.194.293-4.222-.216 1.183.608 2.337 1.801 2.539 1.19.202 2.437-.511 3.006-1.572.855-1.596.09-3.835-1.564-4.586-1.263-.574-2.803-.298-3.972.446-1.766 1.12-2.793 3.288-2.538 5.353.255 2.065 1.78 3.923 3.763 4.585 1.023.341 2.13.382 3.194.212 3.484-.557 6.43-3.546 6.918-7.018.489-3.473-1.522-7.149-4.719-8.633-1.588-.738-3.372-.958-5.124-.993-3.56-.07-7.173.608-10.319 2.262-.15.079-.293.171-.443.255-.628-1.036-1.633-1.848-2.806-2.185-1.425-.41-3.131-.134-4.329.734 1.463.318 2.461 1.769 2.678 3.24.094.655.048 1.31-.056 1.961-.9 1.088-1.648 2.292-2.178 3.6-1.334 3.28-1.257 7.164.481 10.251.53.945 1.201 1.79 1.973 2.534-.053.44-.14.875-.297 1.291-.506 1.371-1.56 2.535-2.876 3.185 1.267.847 2.897 1.071 4.37.682 1.316-.346 2.454-1.227 3.17-2.371 1.389.574 2.862.97 4.342 1.156 4.293.542 8.01.163 12.81-1.483 1.344-.461 2.849-.958 3.456-2.235.607 1.277 2.108 1.774 3.452 2.235 4.8 1.646 8.517 2.025 12.81 1.483 1.48-.187 2.954-.582 4.343-1.156.72 1.144 1.857 2.025 3.17 2.371 1.476.39 3.103.165 4.37-.682-1.316-.65-2.367-1.814-2.876-3.185" transform="translate(-120 -1166) translate(120 246) translate(0 920)"/>
                    <path d="M502.319 31.648c-.154-.416-.241-.85-.297-1.29.771-.745 1.442-1.59 1.976-2.535 1.738-3.087 1.815-6.971.481-10.252-.534-1.307-1.28-2.511-2.178-3.599-.108-.65-.153-1.306-.056-1.96.213-1.472 1.215-2.923 2.674-3.24-1.194-.869-2.904-1.144-4.328-.735-1.173.337-2.175 1.149-2.807 2.185-.146-.084-.29-.176-.44-.255-3.148-1.654-6.76-2.332-10.318-2.262-1.756.035-3.54.255-5.128.993-3.197 1.484-5.204 5.16-4.719 8.633.489 3.472 3.435 6.46 6.919 7.018 1.064.17 2.174.13 3.194-.212 1.986-.662 3.511-2.52 3.766-4.585.255-2.065-.775-4.234-2.538-5.353-1.173-.744-2.712-1.02-3.976-.446-1.654.751-2.419 2.99-1.563 4.586.569 1.06 1.815 1.774 3.005 1.572 1.194-.202 2.018-1.356 1.801-2.539 1.17 1.028 1.24 2.987.293 4.223-.946 1.235-2.694 1.717-4.213 1.349-1.515-.369-2.782-1.489-3.54-2.845-.92-1.642-1.144-3.655-.61-5.458.53-1.803 1.818-3.374 3.483-4.261 1.034-.55 2.2-.84 3.372-.898 1.9-.092 3.823.437 5.404 1.487s2.81 2.614 3.449 4.393c.398 1.097.572 2.296.328 3.436-.241 1.14-1.25 2.165-2.28 2.72 1.456 1.347 3.676 1.82 5.558 1.18 1.884-.639 3.103-2.338 3.427-4.289.87 2.173.786 4.677-.09 6.848-.877 2.17-2.514 4.005-4.496 5.263-2.723 1.727-6.416 2.453-9.586 1.85 1.313-.21 2.524-.972 3.278-2.06.433-.622.72-1.366.68-2.12-.038-.742-.4-1.46-.977-1.934-.572-.473-1.354-.693-2.09-.591-1.04.143-1.97.969-2.144 1.995-.178 1.026.398 1.992 1.41 2.27-.586.973-1.633 1.626-2.75 1.865-1.117.24-2.294.093-3.372-.278-2.339-.807-4.437-2.573-5.271-4.89-.838 2.317-2.936 4.083-5.274 4.89-1.079.371-2.255.518-3.372.278-1.114-.24-2.161-.892-2.747-1.865 1.008-.278 1.584-1.244 1.41-2.27-.175-1.026-1.107-1.852-2.143-1.995-.74-.102-1.519.118-2.095.591-.576.473-.939 1.192-.974 1.933-.038.755.248 1.499.677 2.121.754 1.088 1.97 1.85 3.282 2.06-3.173.603-6.863-.123-9.586-1.85-1.986-1.258-3.62-3.093-4.5-5.263-.875-2.17-.959-4.675-.086-6.848.32 1.951 1.543 3.65 3.424 4.289 1.885.64 4.105.167 5.56-1.18-1.033-.555-2.041-1.58-2.282-2.72-.241-1.14-.067-2.339.328-3.436.642-1.779 1.87-3.343 3.449-4.393 1.58-1.05 3.508-1.579 5.407-1.487 1.169.057 2.335.348 3.368.898 1.669.887 2.953 2.458 3.487 4.261.53 1.803.307 3.816-.61 5.458-.762 1.356-2.025 2.476-3.544 2.845-1.515.368-3.267-.114-4.213-1.35-.946-1.235-.876-3.194.293-4.222-.216 1.183.608 2.337 1.801 2.539 1.19.202 2.437-.511 3.006-1.572.855-1.596.09-3.835-1.564-4.586-1.263-.574-2.803-.298-3.972.446-1.766 1.12-2.793 3.288-2.538 5.353.255 2.065 1.78 3.923 3.763 4.585 1.023.341 2.13.382 3.194.212 3.484-.557 6.43-3.546 6.918-7.018.489-3.473-1.522-7.149-4.719-8.633-1.588-.738-3.372-.958-5.124-.993-3.56-.07-7.173.608-10.319 2.262-.15.079-.293.171-.443.255-.628-1.036-1.633-1.848-2.806-2.185-1.425-.41-3.131-.134-4.329.734 1.463.318 2.461 1.769 2.678 3.24.094.655.048 1.31-.056 1.961-.9 1.088-1.648 2.292-2.178 3.6-1.334 3.28-1.257 7.164.481 10.251.53.945 1.201 1.79 1.973 2.534-.053.44-.14.875-.297 1.291-.506 1.371-1.56 2.535-2.876 3.185 1.267.847 2.897 1.071 4.37.682 1.316-.346 2.454-1.227 3.17-2.371 1.389.574 2.862.97 4.342 1.156 4.293.542 8.01.163 12.81-1.483 1.344-.461 2.849-.958 3.456-2.235.607 1.277 2.108 1.774 3.452 2.235 4.8 1.646 8.517 2.025 12.81 1.483 1.48-.187 2.954-.582 4.343-1.156.72 1.144 1.857 2.025 3.17 2.371 1.476.39 3.103.165 4.37-.682-1.316-.65-2.367-1.814-2.876-3.185M363.65 0c-3.267 3.093-3.267 8.107 0 11.2 3.267-3.093 3.267-8.107 0-11.2M420.35 0c-3.267 3.093-3.267 8.107 0 11.2 3.267-3.093 3.267-8.107 0-11.2" transform="translate(-120 -1166) translate(120 246) translate(0 920)"/>
                    <path d="M477.05 0c-3.267 3.093-3.267 8.107 0 11.2 3.267-3.093 3.267-8.107 0-11.2" transform="translate(-120 -1166) translate(120 246) translate(0 920)"/>
                </g>
            </g>
        </g>
    </g>
</svg>
