<svg xmlns="http://www.w3.org/2000/svg" width="24" height="24" viewBox="0 0 24 24">
    <g fill="none" fill-rule="evenodd">
        <g>
            <g>
                <path d="M0 0L24 0 24 24 0 24z" transform="translate(-713 -330) translate(713 330)"/>
                <g fill="#5B0801" fill-rule="nonzero">
                    <path d="M8 3V1.21c0-.45-.54-.67-.85-.35l-2.8 2.79c-.2.2-.2.51 0 .71l2.79 2.79c.32.31.86.09.86-.36V5c3.31 0 6 2.69 6 6 0 2.72-1.83 5.02-4.31 5.75-.42.12-.69.52-.69.95 0 .65.62 1.16 1.25.97C13.57 17.7 16 14.64 16 11c0-4.42-3.58-8-8-8zM2 11c0-1.34.44-2.58 1.19-3.59.3-.4.26-.95-.09-1.31-.42-.42-1.14-.38-1.5.1C.6 7.54 0 9.2 0 11c0 3.64 2.43 6.7 5.75 7.67.63.19 1.25-.32 1.25-.97 0-.43-.27-.83-.69-.95C3.83 16.02 2 13.72 2 11z" transform="translate(-713 -330) translate(713 330) translate(4 2)"/>
                </g>
            </g>
        </g>
    </g>
</svg>
