<?xml version="1.0" standalone="no"?>
<!DOCTYPE svg PUBLIC "-//W3C//DTD SVG 20010904//EN"
 "http://www.w3.org/TR/2001/REC-SVG-20010904/DTD/svg10.dtd">
<svg version="1.0" xmlns="http://www.w3.org/2000/svg"
 width="1328.000000pt" height="1328.000000pt" viewBox="0 0 1328.000000 1328.000000"
 preserveAspectRatio="xMidYMid meet">
<metadata>
Created by potrace 1.11, written by Peter Selinger 2001-2013
</metadata>
<g transform="translate(0.000000,1328.000000) scale(0.100000,-0.100000)"
fill="#000000" stroke="none">
<path d="M6458 13256 c-15 -8 -40 -26 -55 -40 -15 -14 -31 -26 -34 -26 -3 0
-17 -10 -31 -22 -13 -13 -49 -44 -79 -70 -30 -25 -64 -54 -75 -65 -67 -57
-129 -109 -142 -119 -11 -8 30 -54 204 -228 193 -194 215 -220 198 -229 -10
-6 -21 -13 -24 -16 -3 -4 -25 -22 -50 -41 -25 -19 -56 -45 -70 -56 -137 -116
-210 -180 -237 -206 l-32 -30 117 -116 c65 -65 172 -172 240 -240 l122 -122
116 112 c64 62 170 165 236 229 l120 116 -55 54 c-151 148 -330 310 -348 317
-22 9 -18 13 296 316 l109 106 -45 43 c-26 23 -98 90 -160 149 -165 154 -181
168 -209 182 -35 18 -80 18 -112 2z"/>
<path d="M7515 11706 c-22 -33 -42 -63 -45 -66 -14 -14 -81 -153 -103 -215
-86 -243 -62 -495 69 -727 19 -33 34 -64 34 -69 0 -5 5 -9 10 -9 6 0 10 -5 10
-11 0 -6 9 -23 20 -39 11 -15 17 -30 13 -34 -3 -3 -2 -6 4 -6 6 0 16 -13 23
-30 7 -16 17 -30 22 -30 5 0 6 -4 3 -10 -3 -5 -2 -10 2 -10 5 0 19 -20 33 -45
14 -25 28 -45 32 -45 5 0 8 -5 8 -11 0 -5 32 -55 70 -109 39 -54 70 -102 70
-105 0 -4 6 -12 13 -19 6 -7 21 -25 32 -41 11 -15 30 -40 43 -55 12 -15 22
-32 22 -38 0 -5 7 -12 15 -16 8 -3 15 -12 15 -20 0 -8 4 -16 8 -18 5 -1 28
-30 53 -63 24 -33 81 -108 126 -167 46 -59 83 -109 83 -112 0 -3 -6 -6 -13 -6
-15 0 -86 -37 -103 -55 -24 -23 -53 -89 -59 -135 -4 -25 -8 -101 -10 -170 -2
-125 -18 -194 -52 -228 -7 -7 -13 -18 -13 -23 0 -5 -4 -9 -10 -9 -5 0 -10 9
-10 21 0 39 -55 104 -99 117 -69 21 -123 4 -166 -53 -75 -97 -4 -223 128 -229
15 0 27 -4 27 -7 0 -9 118 9 141 21 10 6 19 8 19 5 0 -14 120 78 165 127 63
68 115 129 115 134 0 14 146 164 160 164 6 0 10 4 10 10 0 18 25 -1 50 -38 14
-20 35 -46 48 -58 12 -12 22 -25 22 -30 0 -5 9 -16 20 -24 11 -8 20 -20 20
-27 0 -7 3 -13 8 -13 4 0 25 -25 47 -55 22 -30 43 -55 47 -55 3 0 9 -8 12 -17
3 -10 18 -31 33 -48 16 -16 48 -57 73 -90 25 -33 48 -62 51 -65 3 -3 40 -50
82 -105 42 -55 83 -107 92 -116 8 -9 15 -21 15 -27 0 -5 4 -12 8 -14 9 -3 139
-175 253 -333 91 -126 239 -351 239 -363 0 -6 4 -12 9 -14 12 -4 192 -356 216
-423 10 -27 22 -54 25 -60 4 -5 12 -23 18 -40 5 -16 26 -74 45 -128 20 -53 37
-101 38 -105 1 -4 3 -11 5 -17 7 -23 34 -121 35 -127 0 -4 5 -22 10 -40 6 -18
13 -46 15 -63 3 -16 10 -45 15 -62 6 -18 8 -37 4 -43 -3 -5 -2 -10 2 -10 5 0
9 -10 10 -22 1 -13 4 -34 7 -48 4 -14 8 -38 10 -55 18 -135 23 -170 26 -170 1
0 7 -84 14 -213 3 -45 7 -86 11 -91 3 -5 1 -12 -4 -16 -6 -3 -7 -13 -4 -22 5
-13 8 -77 3 -85 0 -2 -3 -57 -6 -123 -4 -121 -9 -182 -18 -243 -3 -18 -8 -50
-11 -70 -3 -21 -8 -49 -10 -62 -3 -14 -8 -38 -11 -55 -4 -16 -8 -39 -10 -50
-3 -17 -18 -76 -28 -110 -1 -5 -8 -30 -15 -55 -49 -178 -141 -385 -253 -567
-38 -62 -74 -113 -79 -113 -5 0 -9 -5 -9 -11 0 -42 -285 -338 -422 -440 -46
-34 -86 -66 -89 -71 -3 -5 -10 -10 -15 -11 -5 0 -38 -19 -74 -42 -36 -23 -99
-60 -140 -82 -64 -34 -108 -54 -245 -114 -44 -19 -108 -39 -113 -35 -2 3 18
36 45 73 27 37 71 100 98 138 50 72 151 211 170 232 5 6 24 29 40 50 36 45
140 158 175 189 78 70 101 89 164 131 61 40 125 73 220 112 40 17 30 20 -39
11 -103 -13 -198 -31 -286 -54 -85 -22 -289 -136 -377 -210 -170 -143 -263
-240 -361 -376 -70 -99 -77 -105 -49 -45 12 28 26 52 31 53 4 2 7 8 7 14 0 39
204 278 306 358 10 9 41 32 68 53 27 20 46 37 42 37 -11 0 -129 -61 -158 -82
-16 -11 -28 -17 -28 -14 0 12 -259 -167 -317 -219 -78 -70 -147 -148 -174
-199 -30 -55 -33 -70 -33 -146 -1 -92 15 -132 72 -185 l25 -24 -29 -6 c-42
-10 -276 -75 -294 -82 -8 -3 -22 -7 -31 -9 -23 -5 -141 -61 -160 -76 -9 -7
-20 -29 -24 -48 -24 -114 -80 -255 -140 -350 -33 -53 -154 -176 -208 -213
l-38 -26 38 -7 c21 -5 42 -7 48 -5 5 1 73 4 150 6 77 3 159 7 183 9 23 3 66 8
95 11 28 3 63 8 77 10 14 2 45 7 70 10 25 4 77 13 115 21 39 8 84 17 100 20
148 29 427 130 605 219 125 62 335 190 370 225 3 3 39 32 80 65 111 88 323
303 382 388 12 17 25 34 28 37 3 3 27 34 52 70 26 36 52 71 58 78 6 6 8 12 4
12 -4 0 1 9 11 20 20 22 27 33 64 101 13 24 27 46 31 49 14 10 169 337 214
450 25 63 50 129 57 145 7 17 12 33 11 37 -1 5 3 8 9 8 5 0 8 4 5 8 -2 4 7 41
21 82 32 95 82 266 89 305 3 17 9 44 14 60 12 40 51 231 56 275 2 19 6 48 8
65 32 215 41 341 40 600 0 239 -10 400 -31 515 -4 19 -7 46 -9 60 -3 37 -31
203 -39 230 -2 8 -7 31 -10 50 -8 51 -80 324 -107 405 -12 39 -23 75 -23 80 0
6 -3 15 -6 20 -4 6 -16 42 -29 80 -12 39 -28 84 -35 100 -7 17 -25 62 -40 100
-25 65 -34 88 -70 170 -8 17 -21 48 -31 70 -28 66 -189 386 -223 443 -17 29
-31 57 -31 62 0 6 -4 10 -10 10 -5 0 -10 5 -10 10 0 6 -16 36 -35 66 -19 30
-35 57 -35 60 0 2 -5 10 -10 17 -6 7 -50 73 -97 147 -48 74 -89 137 -92 140
-4 3 -31 41 -61 85 -30 44 -60 87 -66 95 -38 47 -144 192 -144 196 0 3 -6 11
-12 19 -7 7 -24 27 -38 45 -14 17 -37 46 -52 63 -15 18 -28 35 -28 39 0 4 -6
13 -13 20 -11 11 -44 52 -160 198 -32 40 -94 117 -109 135 -9 11 -99 121 -198
245 -100 124 -192 236 -203 250 -12 14 -66 79 -121 145 -54 66 -106 129 -115
140 -295 356 -444 697 -455 1047 -1 31 -4 59 -6 61 -3 3 -23 -23 -45 -57z"/>
<path d="M5899 11643 c0 -16 -2 -35 -3 -43 -2 -8 -6 -37 -10 -65 -5 -43 -24
-148 -40 -220 -14 -64 -31 -123 -43 -145 -7 -14 -13 -31 -13 -38 0 -7 -14 -41
-32 -75 -18 -34 -32 -64 -33 -67 -1 -10 -50 -86 -77 -120 -16 -19 -32 -39 -36
-45 -4 -5 -28 -37 -53 -70 -80 -106 -244 -356 -272 -415 -4 -8 -21 -37 -37
-65 -55 -91 -205 -411 -217 -460 -1 -5 -4 -20 -7 -32 -2 -12 -10 -31 -16 -42
-6 -12 -8 -21 -5 -21 3 0 0 -10 -7 -22 -6 -13 -13 -30 -14 -38 -1 -8 -13 -60
-25 -115 -30 -134 -33 -395 -5 -495 10 -36 19 -69 20 -75 4 -16 20 -57 46
-120 6 -16 11 -31 11 -33 -1 -1 6 -16 14 -32 9 -17 13 -30 10 -30 -4 0 1 -7 9
-16 9 -8 16 -22 16 -31 0 -8 21 -55 46 -104 47 -91 102 -168 173 -245 43 -45
43 -43 17 -151 -7 -29 -34 -91 -87 -200 -67 -138 -98 -224 -105 -286 -3 -29
-7 -58 -9 -64 -2 -7 -1 -13 3 -13 4 0 8 -20 9 -44 1 -51 44 -144 86 -187 38
-40 81 -57 131 -53 34 3 49 12 83 49 38 41 41 49 40 97 -2 63 -32 120 -75 142
-34 18 -100 27 -108 15 -2 -4 -11 -6 -19 -3 -13 5 -13 10 0 33 30 59 89 104
215 163 142 68 201 111 226 167 18 41 30 44 73 21 12 -6 21 -8 21 -4 0 3 6 2
13 -3 12 -11 56 -23 94 -28 11 -2 30 -6 41 -9 47 -15 74 -18 212 -21 80 -2
168 1 195 6 28 5 68 12 90 16 22 3 48 9 58 14 9 6 17 7 17 3 0 -3 6 -2 13 3 6
6 26 13 42 17 32 8 207 86 215 97 3 3 16 12 30 19 95 49 305 250 380 362 14
21 28 38 33 38 4 0 7 7 7 15 0 8 5 15 10 15 6 0 10 7 10 15 0 8 4 15 9 15 5 0
14 14 21 30 7 17 16 30 20 30 4 0 11 8 14 18 3 9 12 26 19 37 20 33 111 198
127 230 8 17 17 32 20 35 10 9 178 354 199 406 33 85 50 188 45 282 -4 97 -3
94 -28 177 -30 100 -113 240 -205 345 -12 14 -46 52 -74 84 -29 33 -59 68 -69
78 -9 10 -88 94 -176 186 -135 141 -207 222 -298 335 -8 9 -14 20 -14 23 0 8
-44 69 -52 72 -5 2 -8 12 -8 22 0 10 -4 20 -8 22 -12 5 -58 108 -81 184 -28
90 -35 146 -34 277 0 59 0 107 -2 107 -2 0 -18 -24 -36 -52 -18 -29 -36 -55
-39 -58 -13 -12 -70 -108 -70 -118 0 -7 -4 -12 -10 -12 -5 0 -10 -9 -10 -20 0
-11 -4 -20 -8 -20 -7 0 -63 -117 -68 -140 0 -3 -6 -18 -12 -33 -7 -15 -15 -40
-18 -55 -4 -15 -9 -31 -12 -36 -13 -22 -21 -221 -12 -282 6 -39 3 -48 -40
-111 -74 -109 -229 -381 -235 -413 0 -3 -11 -27 -23 -54 -12 -27 -22 -50 -22
-51 0 -1 -8 -20 -17 -41 -9 -22 -18 -42 -19 -46 -1 -5 -3 -10 -4 -13 -1 -3 -3
-8 -4 -12 -4 -17 -38 -119 -46 -138 -8 -19 -53 -214 -65 -280 -26 -150 -26
-511 0 -635 3 -14 8 -41 11 -60 3 -19 14 -71 26 -115 11 -44 21 -87 21 -95 1
-8 4 -17 7 -20 3 -3 13 -29 22 -58 l16 -53 -21 7 c-26 7 -190 86 -197 94 -3 3
-34 26 -70 52 -36 25 -90 72 -119 104 -52 57 -121 154 -121 172 0 4 -9 26 -20
49 -10 22 -21 52 -24 67 -3 14 -7 35 -11 45 -10 32 -15 92 -14 166 0 69 5 140
9 140 1 0 3 9 4 20 6 49 19 105 39 165 12 36 22 67 22 70 2 12 52 120 81 175
17 33 81 136 142 229 62 92 112 170 112 173 0 2 11 19 25 37 14 18 25 38 25
44 0 7 5 12 10 12 6 0 10 4 10 9 0 6 58 110 130 231 11 18 59 118 60 125 0 3
9 25 20 50 11 25 19 46 19 48 -1 2 9 56 18 102 17 91 -14 340 -49 380 -4 5 -8
15 -8 22 0 25 -99 213 -112 213 -4 0 -8 5 -8 11 0 14 -50 79 -61 79 -5 0 -9
-12 -10 -27z m602 -1093 c24 -30 49 -62 56 -70 37 -46 235 -306 338 -445 65
-88 123 -164 127 -170 15 -17 162 -221 175 -241 18 -28 104 -165 120 -191 7
-13 12 -25 11 -27 -2 -2 4 -12 13 -22 25 -29 85 -168 95 -217 7 -35 7 -81 0
-112 -2 -11 -5 -25 -5 -31 -2 -24 -98 -107 -161 -139 -108 -54 -190 -73 -305
-70 -113 3 -176 20 -274 72 -235 124 -409 390 -448 684 -14 107 -8 349 13 466
11 64 38 153 90 301 30 86 57 168 60 181 3 13 9 32 15 43 5 10 7 18 4 18 -3 0
-1 9 6 21 6 12 14 17 18 13 4 -5 27 -34 52 -64z"/>
<path d="M5314 10967 c-44 -23 -87 -46 -96 -52 -16 -11 -122 -149 -173 -225
-16 -25 -47 -68 -67 -96 -21 -28 -38 -56 -38 -62 0 -5 -3 -12 -7 -14 -7 -3
-105 -148 -229 -338 -26 -41 -52 -78 -57 -81 -5 -3 -7 -8 -6 -10 2 -2 -31 -56
-72 -119 -41 -63 -97 -151 -124 -195 -27 -44 -53 -81 -57 -83 -5 -2 -8 -7 -8
-11 0 -5 -34 -69 -76 -142 -42 -74 -80 -143 -85 -154 -5 -11 -24 -47 -42 -80
-150 -273 -358 -692 -477 -960 -29 -66 -64 -144 -78 -174 -13 -30 -25 -59 -27
-65 -1 -6 -8 -24 -15 -41 -7 -16 -13 -33 -12 -37 1 -5 -3 -8 -8 -8 -5 0 -9 -3
-8 -7 2 -7 -20 -70 -57 -158 -7 -16 -18 -43 -23 -60 -6 -16 -23 -61 -37 -100
-39 -101 -156 -457 -158 -477 -1 -10 -6 -18 -11 -18 -5 0 -7 -3 -4 -6 4 -3 2
-20 -4 -37 -24 -76 -53 -187 -69 -257 -11 -53 -17 -75 -19 -75 -1 0 -3 -11 -5
-25 -6 -33 -13 -65 -15 -65 -1 0 -3 -9 -5 -20 -8 -55 -17 -102 -21 -117 -6
-21 -12 -52 -19 -98 -3 -20 -7 -45 -9 -57 -7 -35 -15 -86 -21 -138 -3 -27 -8
-66 -10 -85 -28 -200 -39 -652 -21 -835 9 -98 27 -245 32 -275 3 -14 7 -38 10
-55 4 -26 27 -140 39 -197 19 -91 98 -349 115 -380 6 -10 10 -27 10 -37 0 -11
5 -23 10 -26 6 -4 8 -11 5 -16 -4 -5 -1 -9 4 -9 6 0 10 -3 9 -8 -7 -20 142
-325 229 -471 66 -108 144 -225 154 -229 5 -2 9 -8 9 -13 0 -9 27 -45 108
-148 88 -111 373 -371 406 -371 5 0 21 -11 38 -25 16 -14 38 -25 49 -25 10 0
19 -4 19 -10 0 -5 12 -13 28 -16 15 -4 32 -10 37 -13 41 -27 216 -63 300 -62
116 2 270 45 375 104 19 11 44 25 55 31 22 12 134 86 150 99 6 4 51 39 100 76
199 151 334 310 433 509 23 45 42 84 42 87 0 3 3 10 5 17 31 88 70 216 95 313
58 226 98 350 140 436 88 180 217 309 390 392 75 36 173 68 220 73 14 1 25 3
25 4 0 5 81 12 164 13 l93 2 -5 90 c-6 95 -9 113 -26 157 -10 27 -11 27 -48
14 -64 -23 -248 -101 -273 -117 -17 -10 -25 -14 -60 -29 -14 -6 -61 -31 -105
-55 -44 -25 -88 -48 -97 -51 -10 -4 -18 -10 -18 -15 0 -5 -5 -9 -11 -9 -7 0
-34 -16 -60 -35 -27 -19 -51 -35 -54 -35 -3 0 -31 -19 -63 -43 -264 -197 -424
-385 -526 -616 -34 -77 -104 -290 -110 -336 -2 -11 -8 -33 -15 -48 -6 -16 -11
-33 -11 -38 0 -17 -70 -260 -96 -334 -27 -77 -106 -245 -115 -245 -3 0 -5 53
-4 117 0 65 -2 136 -6 158 -4 22 -12 71 -19 108 -35 195 -121 313 -250 343
-48 11 -98 11 -140 1 -48 -12 -139 -67 -146 -89 -3 -10 -9 -16 -13 -14 -4 3
-18 -19 -31 -47 -34 -72 -34 -163 0 -231 42 -83 153 -154 221 -142 13 3 29 5
36 5 25 2 73 54 84 92 7 23 19 39 28 40 33 2 145 -2 151 -6 5 -3 5 -98 -1
-195 -2 -23 -28 -141 -40 -178 l-11 -33 -56 5 c-76 7 -133 20 -192 43 -8 4
-17 7 -20 7 -18 4 -170 80 -170 86 0 4 -11 12 -24 18 -14 6 -33 18 -43 26 -10
8 -43 33 -73 55 -101 76 -243 224 -358 377 -62 82 -175 254 -204 309 -84 158
-171 337 -183 375 -3 8 -16 44 -25 65 -27 67 -51 133 -54 152 -3 12 -9 30 -14
40 -6 10 -10 20 -10 23 1 3 -7 32 -17 65 -9 33 -19 69 -22 80 -3 11 -9 36 -13
55 -10 39 -27 112 -34 150 -3 14 -8 38 -12 53 -3 16 -8 41 -10 55 -48 313 -56
411 -56 737 -1 251 7 401 26 525 2 14 7 46 10 70 8 57 14 91 27 160 7 30 12
60 13 65 31 152 39 169 87 174 112 12 163 5 244 -35 52 -25 154 -113 132 -115
-73 -5 -136 -42 -166 -97 -29 -54 -30 -147 -3 -174 7 -7 12 -17 12 -23 1 -25
100 -74 138 -68 12 1 30 4 40 6 39 6 92 47 112 87 28 55 37 164 20 227 -51
185 -272 342 -472 337 l-58 -1 5 28 c10 54 173 533 220 644 7 17 40 98 73 180
112 278 126 310 136 317 6 4 8 8 4 8 -4 0 7 30 24 68 33 74 60 134 90 202 11
25 36 79 56 120 20 41 36 77 37 80 5 20 296 622 305 630 3 3 14 25 25 50 10
25 26 56 36 70 9 14 20 36 24 50 4 14 11 30 15 35 5 6 41 73 80 150 64 124
128 247 194 370 11 22 26 43 31 47 6 4 7 8 3 8 -4 0 9 27 28 61 18 33 34 65
34 70 0 5 5 9 10 9 6 0 9 3 8 8 -2 4 25 57 58 117 34 61 74 133 89 160 15 28
35 64 45 80 33 57 100 183 100 189 0 11 -16 5 -96 -37z"/>
<path d="M4624 8858 c-39 -40 -93 -102 -120 -138 -27 -36 -52 -67 -55 -70 -26
-22 -116 -227 -104 -238 2 -3 0 -13 -6 -24 -6 -11 -12 -32 -14 -46 -2 -15 -8
-47 -14 -72 -9 -43 -13 -68 -27 -170 -22 -165 -18 -464 10 -660 2 -19 8 -59
11 -89 4 -30 9 -63 11 -75 3 -12 7 -34 10 -51 12 -69 46 -235 60 -294 9 -36
17 -72 19 -80 2 -9 11 -45 20 -81 9 -36 18 -72 20 -80 2 -8 13 -51 25 -95 12
-44 23 -87 26 -95 3 -13 46 -173 59 -220 14 -53 56 -218 60 -235 2 -11 4 -20
6 -20 1 0 3 -9 5 -20 4 -21 11 -60 16 -85 2 -8 6 -19 9 -25 4 -5 5 -18 4 -27
-2 -10 0 -18 4 -18 4 0 8 -12 9 -27 3 -30 9 -68 12 -68 2 0 6 -25 14 -87 2
-21 7 -45 10 -55 3 -10 8 -40 11 -68 4 -27 8 -63 10 -80 20 -153 25 -429 10
-570 -9 -93 -13 -120 -15 -120 -1 0 -3 -16 -5 -35 -1 -19 -3 -35 -5 -35 -1 0
-3 -11 -5 -25 -1 -14 -10 -54 -20 -90 -22 -85 -26 -102 -27 -117 -1 -7 -5 -13
-10 -13 -4 0 -7 -3 -7 -7 1 -5 0 -11 -1 -15 -1 -5 -3 -11 -5 -15 -25 -89 -88
-203 -147 -264 l-34 -36 4 87 c7 141 -35 301 -112 430 -15 25 -29 53 -33 63
-3 9 -9 17 -14 17 -5 0 -9 7 -9 15 0 8 -5 15 -12 15 -6 0 -9 3 -5 6 3 4 1 12
-6 20 -15 17 -29 36 -42 56 -5 9 -60 85 -121 170 -178 245 -243 355 -277 468
-18 59 -21 167 -7 222 14 53 63 152 90 180 11 12 20 25 20 30 0 4 4 8 9 8 6 0
10 -26 10 -58 -1 -122 37 -194 123 -238 61 -31 126 -37 185 -17 59 20 134 94
148 146 2 4 3 8 5 10 5 6 12 46 15 87 2 30 -3 60 -16 90 -21 46 -81 110 -105
110 -8 0 -14 5 -14 12 0 6 -3 9 -6 5 -3 -3 -22 0 -42 7 -44 15 -109 11 -166
-10 -76 -29 -79 -27 -82 46 -3 72 -5 79 -23 133 -7 20 -17 37 -22 37 -5 0 -9
6 -9 13 0 28 -83 84 -137 93 -21 3 -40 7 -43 7 -15 5 -3 -23 25 -58 41 -51 55
-77 71 -138 25 -96 5 -197 -75 -374 -62 -137 -78 -200 -75 -287 6 -123 56
-236 192 -428 135 -191 143 -203 159 -223 72 -87 268 -415 247 -415 -3 0 -1
-6 5 -14 10 -12 37 -92 47 -140 17 -84 20 -154 10 -241 -14 -109 -14 -155 -2
-155 20 0 62 44 176 185 35 44 68 82 72 83 5 2 8 10 8 18 0 8 5 14 10 14 6 0
10 6 10 14 0 8 4 16 8 18 10 3 109 146 136 194 9 16 26 45 38 64 60 99 150
295 140 304 -3 3 0 6 6 6 7 0 12 6 12 14 0 8 5 27 12 43 6 15 10 32 9 37 -1 4
2 13 7 20 13 15 43 146 57 241 3 22 8 51 11 65 7 34 15 122 17 195 2 33 6 66
10 73 5 6 5 12 0 12 -4 0 -9 57 -10 128 -1 133 -7 205 -28 352 -4 30 -9 66
-11 80 -2 14 -6 36 -8 50 -3 14 -7 42 -11 64 -3 21 -7 42 -10 46 -3 5 -8 30
-11 56 -3 27 -8 53 -12 59 -4 5 -7 15 -8 20 -1 6 -5 26 -9 45 -3 19 -11 53
-16 75 -6 22 -13 48 -15 58 -5 26 -61 244 -90 351 -14 50 -27 98 -29 106 -2 8
-13 51 -25 95 -12 44 -22 89 -24 100 -1 12 -5 25 -8 30 -3 6 -10 28 -14 50
-10 51 -11 55 -14 58 -3 4 -9 29 -15 67 -4 19 -11 53 -17 75 -6 22 -13 56 -15
75 -3 19 -9 41 -13 49 -7 14 6 70 19 81 18 15 28 62 25 120 -3 58 -5 95 -18
233 -2 22 1 37 8 37 7 0 7 3 1 8 -6 4 -12 43 -14 87 -6 122 -5 515 1 648 5 86
3 117 -6 117 -6 0 -43 -33 -82 -72z"/>
<path d="M7789 8610 c-19 -10 -41 -25 -47 -33 -10 -12 -59 -132 -67 -162 -1
-5 -5 -19 -9 -30 -5 -11 -12 -31 -16 -45 -4 -14 -11 -34 -16 -45 -4 -11 -8
-25 -9 -30 -7 -30 -58 -183 -67 -199 -10 -19 1 -34 30 -37 6 -1 15 -2 20 -3 4
-1 25 -6 47 -11 22 -4 45 -10 50 -11 12 -4 293 -74 318 -80 9 -2 25 -6 35 -9
66 -18 148 -33 153 -27 6 7 27 79 34 117 2 11 4 20 5 20 1 0 3 7 5 15 7 26 43
162 70 265 59 221 59 210 14 219 -80 16 -179 38 -210 47 -20 5 -49 11 -65 13
-16 2 -54 9 -84 15 -30 6 -68 13 -85 16 -16 2 -39 7 -50 9 -11 2 -36 -4 -56
-14z"/>
<path d="M8503 8264 c-35 -12 -99 -72 -88 -82 3 -3 1 -10 -3 -16 -5 -6 -37
-99 -73 -208 -71 -218 -56 -199 -144 -184 -28 5 -42 8 -97 21 -13 3 -43 10
-68 15 -25 4 -56 11 -70 14 -13 3 -42 8 -64 12 -22 3 -44 8 -49 11 -31 19
-127 -6 -155 -40 -11 -13 -79 -190 -87 -227 -2 -8 -4 -16 -5 -17 -2 -2 -3 -6
-5 -10 -1 -5 -4 -15 -8 -23 -5 -14 -29 -88 -32 -100 -1 -3 -4 -12 -7 -20 -3
-8 -15 -43 -26 -77 l-20 -61 22 -6 c11 -3 24 -6 28 -6 4 -1 22 -6 40 -11 18
-5 49 -12 68 -15 19 -3 41 -11 48 -16 6 -6 12 -8 12 -5 0 3 15 1 33 -4 17 -6
43 -12 57 -15 14 -3 94 -23 179 -45 85 -21 160 -39 167 -39 6 0 15 17 20 38 9
45 8 42 17 67 3 11 9 34 12 50 9 47 10 49 18 63 5 6 6 12 3 12 -3 0 1 18 9 40
8 22 12 40 10 40 -3 0 0 12 6 28 6 15 12 36 14 47 5 24 8 36 24 95 8 25 14 50
15 57 4 23 15 25 68 12 29 -7 55 -14 58 -14 3 -1 23 -5 45 -10 22 -4 44 -10
50 -13 5 -3 16 -7 25 -8 17 -2 28 -5 121 -28 35 -9 73 -18 84 -21 11 -2 46
-11 78 -19 32 -9 62 -16 67 -16 8 0 18 21 26 55 3 12 14 55 19 75 2 8 4 15 5
15 2 0 6 17 15 60 13 57 13 60 15 60 1 0 3 8 5 18 2 10 7 26 11 35 4 9 8 24 9
32 6 35 53 218 62 240 19 45 21 44 -222 95 -38 8 -81 17 -95 20 -14 3 -38 8
-55 11 -16 2 -58 10 -92 18 -51 10 -70 10 -100 0z"/>
<path d="M7392 7963 c-18 -9 -44 -30 -57 -47 -32 -43 -95 -162 -95 -181 0 -8
-4 -15 -10 -15 -5 0 -10 -8 -11 -17 0 -18 -67 -130 -104 -175 -11 -13 -56 -52
-99 -87 -107 -85 -136 -122 -150 -192 -2 -8 -6 -21 -9 -29 -6 -14 -15 -59 -21
-102 -4 -27 -12 -30 -13 -5 -1 12 -10 38 -20 59 -26 52 -75 75 -171 77 -127 4
-161 13 -219 57 -35 27 -42 44 -18 44 8 0 15 -4 15 -9 0 -12 55 6 69 23 36 43
10 106 -44 106 -61 0 -95 -59 -90 -156 6 -102 65 -159 228 -220 43 -16 96 -45
119 -65 40 -34 42 -38 42 -92 0 -31 1 -57 3 -57 11 0 82 41 103 60 14 12 30
25 35 28 21 14 105 117 105 129 0 7 4 13 8 13 10 0 55 88 55 107 0 7 4 13 9
13 36 0 -70 -203 -142 -270 -49 -45 -94 -80 -104 -80 -5 0 -17 -6 -25 -13 -24
-20 -99 -45 -157 -53 -57 -7 -63 -3 -188 116 -107 102 -151 150 -222 242 -43
55 -129 208 -117 208 3 0 0 7 -7 15 -7 8 -9 15 -5 15 4 0 2 7 -5 15 -7 8 -10
22 -6 30 3 8 2 15 -3 15 -13 0 -17 114 -6 190 10 73 11 75 18 87 14 22 -11 22
-34 0 -31 -29 -89 -112 -89 -126 0 -6 -4 -11 -8 -11 -13 0 -115 -217 -107
-229 3 -6 2 -11 -4 -11 -5 0 -12 -19 -16 -42 -4 -24 -9 -52 -11 -63 -6 -30 -5
-156 1 -185 3 -14 8 -36 11 -50 19 -101 114 -272 219 -395 65 -77 202 -213
296 -295 169 -148 419 -422 419 -459 0 -5 3 -11 8 -13 19 -8 116 -188 153
-283 8 -21 32 -95 35 -107 1 -5 2 -9 4 -10 1 -2 3 -12 5 -23 2 -11 6 -31 9
-45 22 -97 29 -158 29 -280 1 -148 -9 -247 -34 -360 -6 -25 -13 -54 -15 -66
-7 -35 -44 -147 -60 -182 -18 -39 -20 -38 -106 43 -35 33 -92 85 -127 115 -35
30 -69 60 -75 65 -6 6 -33 28 -61 50 -27 22 -63 52 -80 67 -16 15 -43 39 -60
53 l-30 25 -36 -39 c-21 -22 -50 -57 -65 -78 -16 -21 -31 -40 -34 -43 -5 -5
-33 -46 -57 -85 -57 -91 -93 -215 -63 -215 5 0 22 -12 38 -27 15 -16 47 -43
70 -61 22 -19 52 -44 65 -55 13 -12 53 -47 88 -77 35 -30 84 -73 109 -96 25
-22 58 -52 75 -67 l30 -27 -50 -52 c-28 -29 -53 -55 -58 -58 -4 -4 -40 -38
-80 -76 -39 -39 -99 -95 -132 -124 -33 -29 -73 -65 -90 -79 -28 -25 -167 -139
-244 -199 -18 -15 -38 -31 -45 -37 -6 -5 -56 -44 -111 -85 -55 -41 -104 -78
-110 -83 -5 -4 -28 -21 -50 -38 -22 -16 -55 -42 -74 -57 -19 -15 -37 -29 -40
-32 -11 -9 -125 -193 -151 -245 -14 -28 -28 -52 -33 -53 -4 -2 -5 -7 -2 -12 3
-5 0 -14 -7 -22 -14 -14 -17 -23 -25 -74 l-5 -30 99 -27 c54 -15 108 -30 121
-32 13 -2 32 -7 42 -10 159 -51 637 -67 835 -29 17 3 41 7 55 8 14 2 32 6 40
9 8 4 29 8 45 11 17 2 30 5 30 6 0 1 11 4 60 14 6 1 16 5 23 9 6 5 12 6 12 2
0 -3 8 -1 18 4 11 6 30 12 44 15 38 6 177 66 193 83 8 8 15 12 15 8 0 -12 75
50 135 110 58 59 145 176 145 195 0 6 5 10 12 10 6 0 8 3 5 6 -4 4 2 19 12 33
22 31 75 145 102 216 77 205 55 408 -70 652 -43 82 -72 135 -81 143 -3 3 -17
21 -30 40 -13 19 -27 37 -30 40 -3 3 -17 21 -31 40 -15 19 -37 46 -50 60 -13
14 -36 40 -51 58 l-27 32 43 83 c23 45 57 118 75 162 18 44 38 86 43 93 6 6 7
12 3 12 -4 0 -2 7 5 15 7 8 9 15 5 15 -4 0 -2 7 5 15 7 8 10 15 6 15 -4 0 0
13 9 30 8 16 15 31 15 32 -1 2 1 10 4 18 4 12 25 85 31 110 4 17 16 68 20 88
3 12 7 32 11 45 42 171 52 501 19 657 -3 14 -7 36 -10 50 -2 14 -7 39 -11 55
-3 17 -15 56 -26 89 -11 32 -21 63 -22 70 -2 6 -15 37 -29 70 -15 32 -27 62
-27 66 0 5 -3 10 -7 12 -5 2 -21 28 -37 58 -62 116 -181 254 -361 418 l-69 62
62 0 c34 0 64 0 67 1 95 16 217 65 266 107 69 58 139 139 139 161 0 6 5 11 11
11 5 0 7 5 4 10 -3 6 -1 10 4 10 6 0 10 3 10 8 -1 4 0 10 1 15 1 4 3 10 5 15
1 4 4 14 8 22 10 25 30 103 32 130 2 14 6 47 9 75 4 27 9 103 11 170 9 206 18
276 45 344 l18 46 13 -49 c19 -69 59 -100 117 -92 24 3 50 13 58 21 9 8 19 15
24 15 12 0 34 61 32 89 -4 50 -24 80 -66 101 -51 24 -71 25 -114 3z m-704
-4042 c67 -71 100 -109 133 -151 46 -57 129 -177 129 -185 0 -4 9 -20 21 -36
11 -16 17 -29 13 -29 -4 0 0 -8 8 -17 35 -40 85 -187 92 -268 3 -38 0 -49 -18
-60 -26 -17 -156 -66 -156 -59 0 3 -6 2 -12 -3 -7 -4 -17 -8 -23 -10 -5 -1
-35 -9 -66 -17 -31 -9 -71 -18 -90 -20 -19 -3 -34 -5 -34 -6 0 -7 -232 -37
-265 -35 -11 1 -20 -2 -20 -7 0 -5 -8 -5 -17 1 -9 5 -26 6 -37 2 -23 -8 -96
-7 -231 3 -97 7 -138 12 -265 32 -30 4 -58 7 -62 6 -22 -6 -2 20 44 59 28 24
56 49 62 54 6 6 47 41 91 80 146 128 434 421 535 545 25 30 50 59 56 65 6 5
23 27 39 48 15 20 32 37 37 37 6 0 22 -13 36 -29z"/>
<path d="M9388 7560 c-111 -33 -370 -224 -450 -331 -138 -185 -163 -437 -71
-699 18 -52 35 -102 37 -110 7 -23 72 -153 120 -238 83 -147 110 -197 152
-279 23 -46 39 -83 37 -83 -3 0 -1 -6 5 -12 11 -14 45 -112 61 -173 19 -73 22
-99 27 -191 5 -103 8 -97 -106 -194 -29 -25 -61 -54 -72 -65 -20 -20 -20 -20
-14 10 2 17 8 41 11 55 15 61 7 226 -15 310 -12 46 -24 89 -28 95 -4 5 -7 16
-8 23 -3 18 -133 276 -189 377 -74 131 -170 325 -200 404 -38 101 -50 150 -61
246 -3 28 -7 56 -10 63 -2 7 1 22 6 33 8 13 7 19 0 19 -6 0 -8 5 -4 11 3 6 9
28 11 48 9 62 44 141 99 223 51 75 52 78 27 72 -26 -7 -136 -65 -160 -86 -7
-6 -13 -7 -13 -4 0 4 -6 1 -14 -6 -7 -7 -24 -20 -36 -28 -59 -39 -119 -86
-163 -129 -52 -50 -137 -170 -137 -194 0 -8 -7 -20 -15 -27 -9 -7 -13 -15 -10
-18 3 -3 0 -11 -6 -19 -6 -7 -9 -13 -5 -13 3 0 1 -12 -5 -27 -15 -41 -21 -97
-19 -198 2 -123 4 -135 14 -135 5 0 7 -2 4 -6 -8 -7 24 -126 56 -209 38 -97
78 -177 169 -340 89 -158 169 -315 160 -315 -3 0 -1 -6 4 -12 6 -7 20 -42 33
-78 23 -68 28 -86 36 -135 3 -16 9 -48 13 -71 9 -45 7 -140 -3 -208 -7 -43
-10 -47 -95 -100 -49 -31 -91 -56 -94 -56 -4 0 -2 11 3 25 5 14 9 29 9 33 -1
4 0 9 1 12 8 22 11 57 11 135 0 84 -3 112 -15 153 -3 9 -7 28 -10 42 -6 38
-60 169 -111 270 -25 49 -45 93 -44 96 0 4 -3 10 -8 13 -10 6 -63 103 -146
261 -128 246 -177 401 -179 561 -2 130 33 224 138 367 26 36 10 37 -58 3 -98
-48 -147 -78 -141 -85 4 -3 -1 -6 -10 -6 -9 0 -25 -6 -34 -14 -10 -8 -48 -39
-86 -70 -121 -97 -199 -213 -236 -346 -11 -39 -17 -70 -14 -70 3 0 1 -6 -4
-12 -13 -18 -8 -180 7 -253 17 -80 16 -78 23 -95 3 -8 11 -33 17 -55 6 -22 15
-49 20 -60 5 -11 21 -49 37 -85 15 -36 46 -99 69 -140 79 -145 239 -484 235
-498 -1 -1 6 -16 14 -32 8 -16 15 -32 15 -35 0 -3 6 -19 15 -35 31 -60 65
-169 71 -227 9 -85 -11 -123 -82 -157 -30 -14 -61 -26 -69 -26 -7 0 -16 -4
-19 -8 -7 -12 -91 2 -113 19 -56 44 -101 122 -128 224 -13 46 -16 109 -16 275
0 118 -5 235 -10 260 -6 25 -12 52 -14 61 -7 34 -55 115 -86 147 -40 41 -110
77 -166 87 l-43 7 -1 -79 c-1 -43 -2 -89 -4 -103 -2 -14 -6 -52 -9 -84 -3 -32
-7 -71 -10 -85 -14 -69 -18 -87 -20 -101 -7 -41 -40 -149 -63 -210 -4 -8 -7
-17 -8 -20 0 -3 -8 -18 -16 -35 -8 -16 -14 -48 -13 -70 9 -177 15 -255 22
-285 5 -19 10 -39 10 -45 9 -52 16 -76 23 -81 5 -3 9 -14 9 -25 0 -10 4 -19 9
-19 5 0 12 -11 15 -24 3 -13 28 -46 55 -75 52 -55 128 -95 205 -110 62 -11
214 -4 256 12 8 3 33 11 55 18 65 19 192 87 313 165 62 41 118 78 125 84 6 6
35 25 62 42 28 18 52 35 55 38 3 3 32 23 65 45 33 21 62 42 65 45 3 4 34 26
70 50 36 24 84 57 106 74 23 17 52 38 64 46 20 13 235 167 285 204 11 8 76 55
145 105 69 49 131 95 138 101 6 6 12 8 12 5 0 -3 8 3 18 13 10 9 36 31 57 47
42 33 104 88 164 144 45 44 121 143 121 160 0 6 7 14 15 17 8 4 13 9 10 13 -2
4 2 20 10 35 56 107 66 315 22 459 -8 26 -13 47 -10 47 3 0 0 6 -6 13 -6 8 -8
17 -4 20 3 4 1 7 -5 7 -7 0 -12 8 -12 18 0 10 -5 23 -11 29 -6 6 -11 17 -13
24 -3 20 -59 133 -69 140 -5 3 -8 9 -7 13 1 5 -48 100 -120 228 -19 35 -118
233 -136 273 -30 67 -63 162 -68 199 -4 21 -9 43 -12 48 -14 23 -13 195 2 258
16 72 35 120 46 120 5 0 7 3 6 8 -3 9 20 52 42 77 19 22 54 75 49 74 -2 0 -16
-4 -31 -9z"/>
<path d="M5539 6948 c-13 -17 -29 -36 -35 -42 -5 -6 -19 -27 -30 -46 -10 -19
-21 -37 -24 -40 -14 -13 -101 -213 -107 -244 -2 -11 -8 -25 -14 -33 -6 -7 -8
-13 -4 -13 4 0 2 -7 -5 -15 -7 -8 -10 -15 -6 -15 3 0 0 -16 -8 -35 -8 -19 -13
-35 -11 -35 2 0 -2 -21 -10 -47 -8 -27 -16 -66 -20 -88 -3 -23 -7 -51 -10 -63
-22 -115 -22 -392 0 -492 3 -14 8 -41 11 -60 5 -38 41 -173 54 -205 4 -11 18
-47 31 -80 26 -71 100 -219 111 -223 4 -2 8 -8 8 -14 0 -12 61 -102 72 -106 4
-2 8 -10 8 -17 0 -8 6 -18 13 -22 6 -4 31 -33 54 -63 24 -30 60 -74 82 -97
l40 -43 33 28 c18 15 38 32 44 38 13 11 105 90 134 114 11 8 57 41 103 73 l84
58 -60 57 c-33 31 -81 79 -106 106 -25 27 -58 61 -72 76 -14 15 -36 43 -49 61
-13 19 -32 41 -42 50 -10 9 -18 20 -18 24 0 5 -11 22 -24 39 -13 17 -23 34
-22 37 1 4 -6 15 -16 25 -49 56 -185 377 -202 479 -2 17 -9 54 -15 84 -30 148
-32 330 -5 501 3 19 6 41 6 48 1 6 5 12 10 12 5 0 6 4 3 10 -3 5 1 34 10 64 9
31 16 58 16 61 0 2 8 25 19 51 11 25 20 52 20 60 0 24 -26 15 -51 -18z"/>
<path d="M1822 6733 c-30 -8 -59 -18 -65 -24 -7 -5 -21 -17 -33 -27 -11 -9
-29 -29 -39 -45 l-17 -27 45 -49 c37 -40 75 -103 79 -131 0 -3 5 -16 10 -29
18 -48 24 -169 14 -296 -3 -33 -5 -60 -6 -60 -1 0 -3 -13 -5 -30 -5 -42 -13
-92 -25 -150 -5 -27 -12 -63 -15 -80 -3 -16 -7 -40 -9 -51 -2 -12 -7 -39 -10
-60 -3 -22 -8 -50 -11 -64 -19 -98 -27 -574 -11 -680 3 -25 9 -65 11 -90 3
-25 9 -67 14 -95 5 -27 12 -66 16 -85 3 -19 8 -43 11 -53 3 -10 7 -31 9 -48 3
-17 7 -39 10 -49 3 -10 7 -27 9 -37 2 -10 12 -45 22 -78 10 -33 17 -66 16 -72
-2 -7 3 -13 9 -13 7 0 10 -2 7 -5 -10 -10 64 -225 103 -297 5 -10 9 -23 9 -28
0 -15 122 -262 137 -278 7 -7 16 -24 19 -38 3 -13 10 -24 15 -24 5 0 9 -5 9
-11 0 -5 18 -37 40 -69 22 -32 40 -63 40 -68 0 -5 9 -17 20 -27 11 -10 20 -24
20 -32 0 -7 4 -13 8 -13 4 0 16 -15 27 -32 10 -18 21 -35 24 -38 3 -3 44 -52
91 -110 91 -113 268 -295 365 -375 33 -28 69 -59 81 -70 12 -11 32 -27 44 -35
13 -8 32 -23 42 -32 10 -10 20 -18 22 -18 2 0 51 -31 108 -69 56 -38 128 -83
158 -100 79 -46 303 -154 318 -154 6 0 12 -3 12 -7 0 -4 6 -7 13 -7 20 -2 81
-27 89 -38 4 -5 8 -7 8 -3 0 4 22 -1 49 -12 27 -10 52 -16 55 -13 3 4 6 2 6
-4 0 -6 15 -13 33 -17 65 -12 73 -14 100 -25 15 -6 27 -9 27 -6 0 2 15 -1 33
-6 17 -5 43 -11 57 -14 14 -3 36 -7 50 -10 37 -9 60 -13 115 -20 28 -3 57 -8
65 -10 27 -7 223 -18 325 -18 123 0 265 9 400 28 l50 6 35 -56 c30 -48 149
-175 165 -175 5 0 37 -25 61 -48 8 -7 14 -11 14 -7 0 3 6 1 13 -5 51 -43 222
-129 335 -168 l77 -26 925 -1 925 0 70 24 c64 22 253 115 265 130 3 3 39 31
80 63 41 31 84 67 95 80 59 69 103 124 103 128 0 3 6 18 13 33 12 26 16 28 51
22 154 -26 415 -35 603 -21 50 3 101 8 115 11 14 2 41 6 60 9 94 13 124 19
235 46 66 17 128 32 138 35 17 4 74 22 107 33 8 3 18 6 23 7 4 2 9 4 12 5 3 1
8 3 13 4 4 1 23 9 43 18 20 9 47 19 60 23 13 4 74 31 134 60 61 28 113 51 116
51 4 -1 15 6 25 15 11 9 46 31 79 49 130 73 307 197 430 303 77 66 288 278
340 341 22 26 45 53 50 60 6 6 24 29 40 51 17 22 35 45 40 51 6 6 35 49 65 95
30 46 61 90 67 97 7 7 13 19 13 27 0 7 4 15 9 17 4 1 28 39 51 83 24 44 48 83
53 86 5 3 8 8 7 10 -1 2 17 45 40 94 39 84 115 261 119 277 3 14 13 42 27 81
8 21 12 43 9 48 -4 5 -2 9 3 9 5 0 13 15 17 33 4 17 9 37 10 42 22 82 58 226
61 245 2 14 6 36 9 50 3 14 7 39 10 55 3 17 7 41 10 55 8 46 25 190 30 255 5
65 5 392 1 428 -3 15 -7 60 -11 100 -4 40 -9 81 -11 92 -3 11 -7 34 -9 50 -3
17 -7 41 -10 55 -12 62 -15 77 -19 100 -3 14 -7 34 -9 45 -3 11 -8 40 -11 65
-3 25 -8 56 -11 70 -3 14 -7 60 -9 103 -2 43 -6 80 -9 83 -2 3 -1 21 3 40 5
20 4 34 -2 34 -5 0 -6 6 -1 13 4 6 9 21 10 32 1 11 5 36 9 55 3 19 5 36 4 38
-5 11 70 129 99 155 36 33 36 34 21 60 -67 110 -222 139 -324 61 -31 -23 -55
-54 -77 -101 -30 -60 -33 -74 -33 -157 0 -86 4 -104 42 -179 5 -10 -31 -5 -38
5 -3 4 -42 20 -87 36 -105 38 -188 40 -253 7 -46 -24 -59 -36 -96 -90 -19 -28
-60 -123 -66 -155 -2 -12 14 -15 88 -16 154 -3 274 -51 380 -152 122 -116 209
-284 260 -497 37 -155 46 -397 19 -535 -3 -19 -7 -48 -7 -63 -1 -15 -5 -30
-10 -33 -4 -3 -6 -9 -4 -13 8 -13 -50 -232 -83 -316 -26 -63 -135 -276 -152
-293 -10 -12 -19 -26 -19 -32 0 -5 -4 -10 -8 -10 -4 0 -15 -12 -24 -27 -30
-51 -141 -161 -255 -254 -26 -21 -185 -119 -194 -119 -3 0 -6 15 -5 33 1 21
12 44 33 67 60 66 83 95 120 150 21 30 40 57 43 60 3 3 12 19 20 35 8 17 17
32 20 35 8 8 67 132 91 193 12 31 27 57 32 57 16 0 85 77 108 121 12 24 21 45
20 47 0 1 -1 3 0 5 18 62 16 193 -6 282 -9 39 -67 169 -77 173 -5 2 -8 10 -8
18 0 12 -143 161 -194 202 -53 43 -155 104 -204 122 -87 33 -149 36 -205 12
-26 -12 -47 -25 -47 -30 0 -5 13 -15 29 -22 40 -16 80 -61 96 -106 17 -50 12
-201 -12 -354 -3 -19 -6 -89 -8 -154 -3 -133 10 -191 58 -251 43 -53 99 -78
231 -99 16 -3 30 -7 32 -9 5 -4 -39 -98 -72 -156 -10 -18 -43 -67 -73 -108
l-54 -75 -21 40 c-24 46 -67 102 -79 102 -4 0 -17 9 -29 20 -12 11 -30 20 -40
20 -10 0 -18 4 -18 9 0 18 -216 38 -245 22 -5 -3 -16 -6 -24 -8 -38 -5 -131
-38 -131 -45 0 -5 -4 -6 -10 -3 -5 3 -10 1 -10 -4 0 -6 -3 -10 -7 -9 -5 1 -18
-3 -29 -10 -12 -6 -24 -8 -28 -5 -18 19 -1 -27 29 -76 53 -86 128 -171 153
-171 8 0 12 -3 9 -7 -7 -7 93 -59 107 -55 4 2 14 -2 22 -9 7 -6 18 -8 23 -5 5
4 12 3 15 -2 2 -4 23 -8 45 -7 23 1 41 -2 41 -6 0 -3 -18 -19 -40 -34 -57 -39
-168 -160 -176 -190 -3 -14 -10 -25 -14 -25 -11 0 -26 -69 -24 -112 3 -76 49
-135 134 -173 35 -16 65 -20 145 -19 115 0 171 18 276 85 l64 41 -80 -83 c-44
-46 -120 -120 -168 -164 -49 -44 -94 -86 -102 -92 -42 -39 -166 -133 -175
-133 -5 0 -10 -4 -10 -10 0 -5 -7 -10 -15 -10 -8 0 -15 -4 -15 -10 0 -5 -7
-10 -15 -10 -8 0 -15 -4 -15 -8 0 -4 -26 -23 -57 -42 -32 -19 -60 -38 -61 -42
-2 -5 -7 -6 -12 -3 -4 3 -13 -2 -20 -10 -7 -8 -18 -15 -25 -15 -8 0 -15 -3
-17 -8 -5 -12 -220 -116 -368 -177 -60 -25 -265 -95 -278 -95 -3 0 15 19 39
43 89 83 136 175 146 281 6 63 6 64 38 70 49 9 111 59 124 99 7 19 9 49 6 68
-7 39 -34 101 -49 111 -6 4 -7 8 -3 8 4 0 -4 12 -18 28 -72 77 -99 102 -136
127 -36 25 -42 27 -65 15 -28 -15 -164 -148 -164 -160 0 -5 -6 -15 -13 -22
-49 -50 -61 -151 -25 -205 25 -36 89 -71 140 -77 26 -3 32 -8 32 -27 0 -23
-20 -93 -33 -114 -3 -5 -6 -16 -7 -23 -4 -21 -55 -93 -99 -138 -76 -78 -208
-138 -353 -161 -46 -7 -352 -7 -412 1 -77 9 -123 15 -165 22 -55 9 -3279 8
-3335 0 -58 -10 -104 -16 -160 -22 -65 -8 -367 -8 -419 0 -97 14 -291 92 -291
117 0 5 -5 9 -12 9 -16 0 -95 84 -103 110 -3 11 -10 20 -14 20 -7 0 -32 63
-59 150 -9 28 -4 63 7 56 16 -10 111 27 139 54 43 41 55 90 36 149 -17 48 -54
111 -66 111 -5 0 -8 5 -8 11 0 13 -115 123 -146 140 -19 10 -28 7 -66 -19 -43
-30 -85 -70 -133 -127 -57 -67 -86 -172 -61 -220 20 -37 70 -76 114 -88 44
-13 44 -13 47 -64 6 -106 59 -211 149 -296 26 -24 33 -36 21 -32 -11 4 -27 8
-35 10 -81 17 -319 113 -480 195 -135 68 -165 84 -168 93 -2 4 -8 7 -13 7 -8
0 -92 52 -134 82 -102 74 -218 163 -244 187 -18 17 -35 31 -38 31 -7 0 -264
259 -283 285 -10 13 -3 10 19 -8 111 -91 291 -130 418 -90 226 71 208 303 -37
491 -40 31 -63 52 -58 53 2 1 21 3 43 4 22 2 40 4 40 5 0 2 11 3 25 4 52 4
175 76 219 129 14 16 30 34 36 41 6 6 29 41 52 77 l41 65 -62 28 c-33 16 -63
28 -66 28 -3 0 -13 4 -23 10 -10 5 -28 11 -40 14 -12 2 -33 7 -47 10 -14 4
-66 7 -116 7 -76 0 -101 -5 -146 -25 -70 -32 -123 -79 -158 -141 l-28 -49 -18
28 c-10 16 -24 33 -31 37 -7 4 -13 14 -13 22 0 7 -4 15 -8 17 -9 3 -67 99
-100 165 -32 65 -32 76 4 79 63 5 153 34 193 61 26 18 50 48 68 83 24 49 27
68 29 165 1 61 -4 160 -12 220 -19 149 -24 268 -11 318 11 42 90 132 107 122
15 -9 22 15 8 28 -46 45 -153 46 -251 3 -57 -25 -157 -89 -212 -135 -64 -55
-165 -162 -165 -176 0 -8 -4 -15 -8 -15 -9 0 -47 -71 -44 -82 1 -5 -2 -8 -8
-8 -6 0 -9 -3 -8 -7 1 -5 -5 -30 -15 -58 -46 -138 -40 -289 16 -385 20 -33 85
-100 98 -100 4 0 12 -15 19 -32 72 -182 175 -355 285 -475 46 -52 56 -68 53
-93 l-3 -30 -49 26 c-166 89 -337 246 -452 414 -57 83 -162 300 -180 369 -2 9
-17 66 -33 126 -28 108 -41 171 -45 230 -1 17 -5 35 -8 40 -7 12 -3 328 5 370
3 17 8 44 11 60 3 17 8 41 11 55 3 14 8 35 11 48 17 82 103 280 140 323 8 8
14 19 14 22 0 8 30 44 76 92 35 36 144 119 144 109 0 -4 6 -1 13 5 40 32 139
53 253 53 71 0 81 2 79 17 -2 9 -4 16 -5 16 -1 0 -3 8 -5 18 -6 31 -55 126
-82 158 -21 25 -75 62 -93 64 -3 0 -10 3 -16 7 -11 7 -128 4 -154 -5 -8 -2
-30 -8 -47 -12 -18 -4 -33 -11 -33 -16 0 -5 -3 -8 -7 -8 -5 1 -11 0 -15 -1 -5
-1 -11 -3 -15 -4 -5 -1 -23 -10 -42 -20 -18 -10 -31 -14 -29 -9 64 119 59 284
-10 386 -33 50 -96 96 -137 100 -17 2 -35 6 -40 9 -6 3 -34 -1 -63 -9z"/>
<path d="M4197 1534 c-1 -1 -51 -4 -112 -7 -60 -4 -121 -9 -135 -12 -14 -3
-47 -7 -75 -10 -27 -3 -57 -7 -65 -10 -8 -2 -30 -7 -48 -10 -61 -10 -167 -34
-242 -55 -41 -11 -84 -22 -95 -25 -32 -8 -198 -68 -224 -82 -14 -6 -28 -10
-33 -7 -4 3 -8 2 -8 -3 0 -4 -28 -21 -62 -38 -79 -38 -175 -128 -184 -173 -6
-30 -5 -32 22 -32 281 -4 7498 0 7501 4 19 18 -65 136 -97 136 -6 0 -9 4 -6 8
6 10 -162 91 -274 132 -115 42 -325 97 -475 125 -142 27 -223 38 -365 51 -58
5 -5016 13 -5023 8z"/>
<path d="M3124 782 c2 -14 -28 -100 -65 -187 -4 -11 -15 -40 -23 -65 -8 -25
-22 -62 -30 -82 -9 -21 -17 -41 -17 -45 -2 -11 -9 -31 -35 -96 -22 -56 -45
-89 -61 -86 -19 3 -33 -2 -33 -12 0 -6 9 -9 20 -6 11 3 20 1 20 -4 0 -5 10 -5
23 -1 25 8 47 9 62 1 6 -3 16 -4 23 -3 6 1 23 2 37 3 14 0 25 6 25 12 0 6 -10
9 -22 8 -63 -6 -75 24 -44 104 14 34 28 74 31 89 4 15 12 31 18 36 7 6 52 9
101 9 l89 0 22 -52 c32 -71 55 -153 49 -170 -3 -7 -18 -13 -32 -13 -45 1 -52
-1 -52 -18 0 -10 4 -12 13 -7 15 10 60 11 67 2 3 -4 25 -4 50 1 26 5 52 4 62
-1 11 -6 18 -6 18 0 0 5 9 7 20 4 11 -3 20 0 20 6 0 6 -11 11 -24 11 -27 0
-54 33 -75 90 -8 19 -20 50 -28 68 -8 18 -15 42 -16 52 -1 11 -6 20 -11 20 -5
0 -7 3 -3 6 3 4 -3 24 -14 45 -11 22 -17 39 -14 39 3 0 -4 18 -15 40 -11 22
-18 40 -15 40 3 0 0 10 -7 23 -7 12 -13 24 -13 27 0 3 -11 32 -23 65 -22 59
-23 60 -61 61 -30 1 -38 -2 -37 -14z m64 -169 c45 -126 48 -116 -36 -115 -40
0 -75 2 -77 4 -5 5 69 198 76 198 3 0 20 -39 37 -87z"/>
<path d="M5301 784 c-80 -23 -121 -84 -105 -157 8 -38 74 -103 159 -157 114
-73 143 -111 131 -175 -9 -48 -56 -79 -121 -81 -27 0 -59 4 -70 10 -32 18 -75
66 -81 92 -12 45 -25 25 -20 -29 9 -74 14 -86 36 -82 10 2 36 -1 56 -7 55 -15
134 -12 176 6 20 8 50 32 66 52 24 29 30 45 30 83 -2 81 -26 110 -173 208 -49
34 -98 74 -107 90 -20 35 -15 79 11 107 26 26 100 32 139 12 36 -19 82 -65 82
-83 0 -7 5 -13 11 -13 7 0 9 17 5 51 -8 62 -13 72 -34 64 -8 -3 -29 -1 -46 4
-51 17 -100 19 -145 5z"/>
<path d="M8197 785 c3 -10 -111 -338 -144 -415 -4 -8 -8 -19 -8 -25 -4 -23
-43 -101 -58 -113 -8 -7 -25 -14 -36 -15 -12 -1 -21 -5 -21 -9 0 -8 34 -13 55
-8 6 1 28 1 50 0 22 0 47 -1 55 0 8 0 23 0 32 1 34 1 29 19 -6 19 -19 0 -41 7
-49 15 -14 13 -13 22 8 77 12 35 29 81 37 103 l14 40 98 0 99 0 27 -77 c14
-43 29 -81 33 -85 4 -3 7 -19 7 -35 0 -33 -25 -47 -74 -41 -21 2 -27 0 -19 -8
6 -6 36 -10 67 -9 31 1 64 2 74 2 9 0 26 -2 37 -4 11 -3 34 -1 50 2 l30 7 -32
12 c-34 13 -47 36 -89 148 -13 38 -31 84 -39 103 -7 19 -34 91 -60 160 -26 69
-50 134 -54 144 -6 15 -18 20 -48 21 -28 1 -39 -3 -36 -10z m48 -128 c4 -17
11 -36 15 -42 4 -5 14 -30 21 -55 7 -25 18 -48 24 -52 11 -9 -4 -10 -88 -10
-33 0 -61 3 -64 6 -5 5 19 78 54 164 16 38 29 35 38 -11z"/>
<path d="M9096 736 c-11 -34 -23 -67 -29 -73 -5 -7 -7 -13 -4 -13 3 0 -10 -38
-28 -85 -19 -47 -31 -85 -28 -85 3 0 1 -6 -4 -12 -5 -7 -20 -42 -33 -78 -49
-138 -69 -170 -107 -170 -12 0 -23 -4 -23 -10 0 -10 15 -14 35 -10 22 4 115 3
120 -2 8 -8 55 3 55 13 0 5 -13 9 -29 9 -45 0 -62 22 -48 62 7 18 14 35 17 38
3 3 6 13 8 24 2 10 8 30 14 45 6 14 12 28 13 31 13 37 16 38 113 36 56 0 97
-5 98 -11 1 -9 12 -41 31 -85 3 -8 7 -17 7 -20 1 -3 7 -15 14 -26 6 -12 8 -24
4 -28 -3 -4 -1 -10 5 -14 20 -13 -4 -52 -32 -52 -24 0 -32 -10 -19 -22 3 -4
19 -2 35 2 16 5 31 5 34 0 3 -4 20 -5 38 -1 30 7 43 7 72 1 21 -5 48 0 41 8
-4 4 -12 8 -17 8 -5 1 -13 2 -17 3 -12 1 -57 41 -47 41 4 0 3 6 -3 12 -6 7
-11 16 -11 20 -2 10 -8 28 -46 128 -18 47 -57 150 -87 230 l-55 144 -34 1
c-34 1 -35 0 -53 -59z m83 -139 c18 -49 31 -90 28 -93 -2 -2 -36 -5 -76 -7
-49 -1 -71 2 -71 10 0 12 56 168 66 185 10 15 18 -1 53 -95z"/>
<path d="M10055 785 c-203 -47 -312 -245 -231 -420 24 -52 90 -125 113 -125 7
0 13 -5 13 -12 0 -6 3 -8 7 -5 3 4 15 -1 26 -10 10 -10 21 -16 23 -14 4 3 19
1 93 -14 20 -4 92 -46 111 -65 25 -25 99 -75 134 -91 54 -23 94 -29 126 -17
23 8 21 10 -26 32 -27 13 -85 51 -129 84 -43 33 -82 59 -87 56 -4 -3 -8 -3 -8
0 0 3 25 17 56 32 243 115 251 437 14 546 -67 31 -161 40 -235 23z m147 -30
c59 -21 112 -72 144 -140 21 -44 27 -71 27 -133 0 -90 0 -91 -34 -156 -16 -32
-42 -61 -71 -82 -41 -27 -53 -31 -109 -29 -69 2 -129 13 -129 25 0 4 -12 12
-26 19 -69 31 -123 153 -118 263 8 181 154 288 316 233z"/>
<path d="M6357 782 c-24 -5 -11 -22 17 -22 48 0 57 -18 57 -120 1 -52 1 -103
0 -112 -1 -16 -17 -18 -181 -18 -137 0 -180 3 -181 13 -1 6 -1 54 -1 106 1 99
14 131 54 131 10 0 18 5 18 10 0 6 -41 10 -104 10 -59 0 -108 -4 -111 -10 -3
-5 2 -10 13 -10 10 0 26 -8 35 -18 15 -16 17 -49 17 -255 0 -205 -2 -238 -16
-252 -10 -9 -25 -14 -35 -12 -10 3 -20 -2 -23 -10 -9 -23 -7 -26 9 -13 11 9
19 10 26 3 6 -6 26 -7 52 -2 23 4 49 3 59 -2 11 -6 18 -5 21 4 3 7 6 8 6 1 1
-13 51 -6 51 6 0 5 -14 11 -30 15 -41 9 -47 37 -41 221 l1 31 178 -2 c97 -1
179 -3 182 -4 5 -1 4 -187 0 -203 -2 -5 -3 -13 -4 -18 -2 -17 -29 -30 -63 -30
-25 0 -33 -4 -33 -17 0 -10 4 -14 8 -8 4 6 25 9 47 8 22 -2 56 -2 75 -2 54 2
54 2 65 -1 22 -5 78 0 71 7 -8 8 -13 10 -44 12 -35 2 -41 42 -42 276 -1 201 1
230 16 246 10 11 25 19 36 19 10 0 18 5 18 11 0 6 -33 10 -94 8 -51 -1 -98 0
-102 3 -5 2 -17 3 -27 0z"/>
<path d="M6947 782 c-32 -4 -27 -22 7 -22 51 0 54 -17 56 -255 1 -256 -5 -285
-54 -285 -20 0 -33 -5 -33 -13 0 -10 11 -12 43 -7 24 4 49 3 56 -1 7 -5 22 -6
33 -2 29 9 68 10 85 2 8 -4 24 0 35 8 19 15 19 15 -8 10 -15 -2 -30 0 -33 5
-3 4 -9 6 -14 3 -19 -12 -31 28 -32 107 0 125 -5 115 55 113 28 -2 55 -3 59
-4 4 -1 18 -11 30 -23 192 -185 234 -217 293 -223 81 -9 109 -8 113 3 2 7 -6
13 -17 13 -57 4 -103 34 -224 152 l-116 112 39 18 c88 41 110 165 42 230 -52
50 -95 61 -247 62 -77 0 -152 -1 -168 -3z m277 -25 c52 -15 88 -68 88 -131 0
-109 -44 -155 -157 -162 -56 -3 -65 -2 -66 14 0 9 -1 79 -2 155 l-2 138 50 -2
c28 -1 67 -6 89 -12z"/>
<path d="M3790 770 c0 -6 11 -10 24 -10 14 0 32 -7 40 -16 17 -17 17 -13 17
-269 0 -91 0 -181 -1 -200 0 -29 -5 -38 -27 -47 -16 -6 -36 -10 -45 -9 -10 1
-18 -3 -18 -9 0 -6 4 -9 8 -6 4 2 14 1 22 -4 8 -5 22 -5 32 1 12 6 18 6 18 0
0 -7 9 -7 25 -1 14 5 27 5 30 0 3 -5 18 -5 33 -1 32 8 64 7 82 -4 9 -6 11 -4
5 5 -6 9 -4 11 4 5 16 -9 71 -13 71 -5 0 4 20 5 45 3 37 -4 46 -2 52 14 4 10
20 40 35 66 22 37 25 48 13 45 -9 -2 -15 -5 -13 -8 4 -8 -71 -80 -85 -81 -7
-1 -54 -3 -104 -3 -80 -2 -94 0 -98 15 -8 25 -9 185 -1 197 3 6 2 13 -2 16 -8
5 -9 29 -2 61 1 6 1 15 0 20 -4 22 0 170 5 186 7 21 39 34 78 30 15 -1 27 2
27 8 0 6 -49 10 -135 10 -82 1 -135 -3 -135 -9z"/>
<path d="M4600 772 c0 -4 15 -14 34 -20 l34 -13 -1 -247 -2 -247 -32 -15 c-18
-8 -33 -19 -33 -23 0 -5 5 -5 10 -2 6 3 10 1 10 -5 0 -7 6 -8 18 -2 9 5 26 6
37 2 11 -4 25 -6 30 -4 28 9 75 11 75 4 0 -11 39 0 47 14 3 6 3 8 -1 4 -15
-13 -65 14 -73 40 -5 15 -8 127 -8 249 1 209 2 223 20 237 11 9 28 16 38 16 9
0 17 5 17 10 0 6 -43 10 -110 10 -60 0 -110 -4 -110 -8z"/>
<path d="M9205 210 c3 -5 10 -10 16 -10 5 0 9 5 9 10 0 6 -7 10 -16 10 -8 0
-12 -4 -9 -10z"/>
</g>
</svg>
