<svg xmlns="http://www.w3.org/2000/svg" width="123" height="16" viewBox="0 0 123 16">
    <g fill="none" fill-rule="evenodd" opacity=".8">
        <g>
            <g>
                <g>
                    <g>
                        <path d="M60.656.006c-.075 0-.15 0-.207.088-.057.089-.089.265-.133.48-.044.214-.1.466-.227.73-.126.258-.32.53-.466.762-.145.234-.233.435-.27.637-.032.201-.013.403.05.567.063.163.157.283.214.378.057.094.07.157.013.189-.045.025-.133.037-.246.037m-.322 0c-.12 0-.239.013-.359.045-.195.05-.378.157-.51.34-.132.182-.214.428-.22.693-.007.264.069.535.252.806.182.271.466.542.756.807.296.264.598.529.8.806.208.27.315.554.378.775.063.227.082.39.063.466-.013.076-.063.057-.196-.082-.132-.138-.346-.397-.604-.649-.259-.252-.548-.497-.914-.705-.365-.202-.794-.36-1.235-.404-.434-.044-.875.026-1.216.145-.34.12-.586.296-.718.467-.132.17-.145.34-.1.422.044.082.144.069.302.031.151-.038.353-.107.636-.094.284.012.643.107.958.315.315.208.573.523.705.78.126.253.12.436.082.63-.038.196-.107.392-.075.612.037.22.176.466.378.617.201.158.453.227.699.22.24-.005.472-.081.661-.119.196-.038.347-.031.467.032.113.069.189.195.22.403.032.208.013.491-.057.806-.075.322-.201.68-.403 1.02-.201.341-.472.662-.718.89-.252.232-.479.377-.813.415-.34.038-.787-.032-1.19-.183-.404-.145-.769-.365-1.134-.523-.366-.157-.731-.252-1.071-.264-.34-.007-.656.07-.958.22-.302.151-.592.372-.769.466-.176.101-.233.076-.233-.031.007-.107.076-.302.12-.53.044-.226.063-.49.019-.736s-.151-.466-.378-.624c-.22-.158-.56-.246-.907-.284-.347-.037-.706-.025-1.084.057-.378.082-.781.227-1.115.353-.334.126-.592.227-.844.284-.252.063-.492.088-.662.088-.17 0-.264-.02-.27-.038-.007-.025.069-.05.233-.107.163-.063.422-.151.655-.34.233-.19.44-.467.573-.775.132-.309.195-.643.189-.952-.006-.302-.076-.58-.214-.812-.139-.233-.353-.435-.498-.523-.145-.095-.227-.088-.258-.044-.025.044.006.12.05.233.044.113.095.27.114.453.018.183 0 .397-.108.63-.1.234-.29.486-.49.662-.209.17-.43.258-.725.277-.297.019-.662-.038-.933-.057-.277-.018-.46-.012-.623.038-.164.05-.297.133-.397.164-.101.032-.164.013-.347-.113-.176-.126-.466-.366-1.052-.85-.328-.278-.756-.637-1.222-1.034m-3.805-3.471c-.63-.618-1.14-1.14-1.733-1.676-.649-.592-1.398-1.197-2.192-1.67-.794-.472-1.638-.8-2.42-1.033-.78-.233-1.499-.372-2.242-.41-.744-.037-1.512.02-2.218.152-.706.138-1.342.353-1.814.56-.473.208-.781.41-1.052.599-.271.195-.51.384-.674.479-.158.094-.234.1-.259.075-.025-.025.006-.075.088-.189.076-.107.202-.27.303-.491.1-.22.182-.498.157-.8-.019-.302-.145-.63-.315-.857-.17-.233-.39-.372-.58-.44-.188-.07-.34-.07-.39-.032-.05.037 0 .107.088.214s.22.246.252.447c.032.202-.031.466-.17.687-.138.227-.359.416-.636.573-.277.158-.611.29-.876.492-.27.201-.472.478-.598.73-.133.252-.19.485-.196.706-.006.227.032.44.12.605.088.163.227.283.366.353.138.069.283.094.378.12.094.024.138.056.088.131-.05.076-.202.19-.404.36-.195.163-.44.384-.844.793-.41.41-.982 1.015-1.537 1.563-.1.1-.208.201-.309.296m-.201.189c-.378.359-.756.693-1.128 1.014-.535.454-1.065.87-1.587 1.26-.523.384-1.046.737-1.494 1.04-.447.302-.831.548-1.222.775-.39.233-.787.44-1.228.554-.441.107-.933.113-1.412.063-.472-.05-.932-.151-1.41-.265-.48-.12-.97-.252-1.406-.308-.434-.057-.806-.044-1.07.025-.265.063-.429.176-.549.264-.126.089-.214.152-.27.158-.064.006-.089-.044-.127-.17-.037-.126-.075-.328-.214-.548-.138-.214-.372-.447-.63-.624-.252-.176-.529-.302-.705-.44-.177-.14-.252-.303-.29-.436-.038-.132-.032-.239-.057-.302-.031-.063-.088-.082-.151-.013-.057.07-.107.234-.139.429-.031.195-.044.428.013.668.05.239.17.497.208.768.038.277-.006.573-.101.813s-.24.428-.416.573c-.176.145-.378.24-.674.24-.29 0-.668-.095-1.002-.271-.34-.177-.636-.429-.907-.687-.27-.252-.51-.51-.75-.769M60.656.006c.076 0 .152 0 .208.088.057.089.089.265.133.48.044.214.1.466.226.73.126.258.322.53.467.762.145.234.233.435.27.637.032.201.013.403-.05.567-.063.163-.157.283-.214.378-.057.094-.07.157-.013.189.044.025.133.037.246.037m.321 0c.12 0 .24.013.36.045.195.05.377.157.51.34.132.182.214.428.22.693.006.264-.07.535-.252.806s-.466.542-.756.807c-.296.264-.598.529-.8.806-.208.27-.315.554-.378.775-.063.227-.082.39-.063.466.013.076.063.057.195-.082.133-.138.347-.397.605-.649.259-.252.548-.497.914-.705.365-.202.794-.36 1.235-.404.434-.044.875.026 1.215.145.34.12.586.296.719.467.132.17.144.34.1.422-.044.082-.144.069-.302.031-.151-.038-.353-.107-.636-.094-.284.012-.643.107-.958.315-.315.208-.573.523-.706.78-.126.253-.12.436-.081.63.037.196.107.392.075.612-.038.22-.176.466-.378.617-.201.158-.453.227-.7.22-.238-.005-.472-.081-.66-.119-.196-.038-.347-.031-.467.032-.113.069-.189.195-.22.403-.032.208-.013.491.056.806.076.322.202.68.404 1.02.201.341.472.662.718.89.252.232.479.377.813.415.34.038.787-.032 1.19-.183.403-.145.769-.365 1.134-.523.366-.157.731-.252 1.071-.264.34-.007.655.07.958.22.302.151.592.372.768.466.177.101.233.076.233-.031-.006-.107-.075-.302-.12-.53-.043-.226-.062-.49-.018-.736s.151-.466.378-.624c.22-.158.56-.246.907-.284.347-.037.706-.025 1.084.057.378.082.78.227 1.115.353.334.126.592.227.844.284.252.063.491.088.662.088.17 0 .264-.02.27-.038.007-.025-.069-.05-.233-.107-.163-.063-.422-.151-.655-.34-.233-.19-.44-.467-.573-.775-.132-.309-.195-.643-.19-.952.007-.302.076-.58.215-.812.139-.233.353-.435.498-.523.145-.095.227-.088.258-.044.025.044-.006.12-.05.233-.044.113-.095.27-.114.453-.019.183 0 .397.107.63.101.234.29.486.492.662.208.17.428.258.724.277.296.019.662-.038.933-.057.277-.018.46-.012.623.038.164.05.296.133.397.164.101.032.164.013.347-.113.176-.126.466-.366 1.052-.85.327-.278.756-.637 1.222-1.034m3.805-3.471c.63-.618 1.14-1.14 1.733-1.676.649-.592 1.398-1.197 2.192-1.67.794-.472 1.638-.8 2.42-1.033.78-.233 1.499-.372 2.242-.41.743-.037 1.512.02 2.218.152.705.138 1.342.353 1.814.56.473.208.781.41 1.052.599.271.195.51.384.674.479.158.094.233.1.259.075.025-.025-.007-.075-.089-.189-.075-.107-.201-.27-.302-.491-.1-.22-.183-.498-.157-.8.018-.302.144-.63.315-.857.17-.233.39-.372.58-.44.188-.07.34-.07.39-.032.05.037 0 .107-.088.214-.089.107-.221.246-.252.447-.032.202.031.466.17.687.138.227.359.416.636.573.277.158.611.29.876.492.27.201.472.478.598.73.132.252.19.485.195.706.007.227-.031.44-.12.605-.087.163-.226.283-.365.353-.138.069-.283.094-.378.12-.094.024-.138.056-.088.131.05.076.202.19.403.36.196.163.441.384.844.793.41.41.983 1.015 1.538 1.563.1.1.208.201.308.296m.202.189c.378.359.756.693 1.128 1.014.535.454 1.064.87 1.587 1.26.523.384 1.046.737 1.493 1.04.454.302.832.548 1.223.775.39.233.787.44 1.228.554.441.107.933.113 1.411.063.473-.05.933-.151 1.412-.265.478-.12.97-.252 1.404-.308.435-.057.807-.044 1.071.025.265.063.429.176.549.264.126.089.214.152.27.158.063.006.089-.044.126-.17.038-.126.076-.328.215-.548.138-.214.371-.447.63-.624.252-.176.529-.302.705-.44.177-.14.252-.303.29-.436.038-.132.032-.239.057-.302.031-.063.088-.082.15-.013.058.07.108.234.14.429.031.195.044.428-.013.668-.05.239-.17.497-.208.768-.038.277.006.573.1.813.095.24.24.428.417.573.176.145.378.24.674.24.29 0 .667-.095 1.001-.271.34-.177.637-.429.908-.687.27-.252.51-.51.75-.769M.053 3.32v3.868m0 2.363v3.484M121.353 3.32v3.868m0 2.363v3.484M.006 9.55c.48 0 .87-.528.87-1.177 0-.65-.39-1.178-.87-1.178M121.306 9.55c-.478 0-.869-.528-.869-1.177 0-.65.39-1.178.87-1.178" transform="translate(-241 -426) translate(120 301) translate(0 125) translate(121.5)"/>
                        <path d="M.006 13.041c.044 0 .095 0 .126-.044.032-.044.044-.139.095-.271.019-.05.038-.113.07-.176m.1-.196c.025-.037.044-.075.075-.113.12-.176.29-.353.435-.51.145-.158.271-.303.378-.467.107-.157.19-.34.196-.56.012-.227-.05-.498-.14-.687-.087-.195-.2-.302-.27-.397-.07-.088-.094-.157-.082-.208.006-.05.05-.075.12-.07.07.013.164.064.29.095.126.038.283.057.447.02.164-.039.34-.127.466-.259s.202-.302.24-.498c.037-.195.031-.422.075-.674.038-.252.12-.542.22-.775.101-.24.215-.422.322-.573.113-.151.22-.265.258-.346.038-.082.013-.127-.132-.152-.145-.025-.403-.025-.662.032-.258.057-.522.164-.75.29-.226.132-.428.283-.579.41-.151.125-.258.226-.334.264-.075.031-.113-.007-.107-.082.013-.076.07-.19.132-.334.063-.145.133-.328.152-.56.012-.24-.02-.53-.095-.832-.07-.303-.176-.605-.302-.838-.126-.233-.271-.39-.366-.504-.094-.107-.138-.17-.15-.246-.014-.076 0-.164.062-.265.063-.1.176-.208.372-.346.195-.139.472-.303.812-.41.34-.107.744-.157 1.166-.17.422-.012.85.02 1.228.089.379.069.693.176.983.315.29.138.555.302.718.428.164.126.221.208.252.27.026.064.02.102-.044.152-.063.05-.182.107-.32.22-.14.108-.29.265-.347.498-.057.233-.013.548.069.844.082.296.208.567.277.832.07.265.076.51.076.8 0 .29-.02.617-.082.863-.07.246-.19.41-.208.504-.025.095.05.12.195.057.139-.063.347-.214.51-.403.164-.19.284-.41.366-.624.082-.214.132-.428.202-.548.069-.12.163-.151.226-.076.07.076.114.265.208.467.088.201.227.428.397.642.17.214.378.422.517.662.138.239.208.523.233.8.025.283 0 .56-.032.78-.031.221-.069.379-.056.467.012.088.075.107.17.019.094-.088.227-.284.334-.567.107-.277.182-.643.239-1.02.057-.379.095-.77.1-1.14.007-.366-.018-.713-.081-.965-.063-.258-.158-.428-.176-.523-.013-.094.05-.113.15-.082.101.032.234.12.416.19.183.069.416.12.65.125.232.013.466-.019.68-.082.208-.063.397-.157.554-.283.158-.126.277-.284.347-.416.069-.126.075-.22.037-.252-.044-.031-.138.006-.277.076-.138.075-.327.183-.61.195-.284.006-.669-.088-1.034-.246-.36-.163-.7-.39-1.058-.705-.36-.315-.737-.725-1.046-.983-.315-.258-.56-.365-.744-.403-.182-.038-.308 0-.39 0-.088 0-.133-.032-.233-.12-.095-.088-.24-.24-.435-.378-.195-.139-.435-.277-.68-.384-.246-.114-.492-.202-.782-.259-.29-.063-.623-.094-.9-.107-.278-.012-.492-.006-.637-.006-.145 0-.227-.006-.252-.038-.025-.031 0-.075.227-.189.227-.113.661-.296 1.235-.434.573-.145 1.291-.252 1.953-.303.661-.044 1.26-.031 1.808.02.548.05 1.04.131 1.632.295.592.158 1.278.39 1.927.662.643.264 1.248.567 1.84.913.592.347 1.178.744 1.543 1.015.366.27.517.409.586.497.07.088.063.12-.006.139-.07.019-.202.019-.359.056-.158.038-.334.12-.485.259-.151.138-.277.34-.34.58-.063.239-.063.529.069.812.132.29.397.58.53.895.132.315.125.649.037.938-.088.284-.258.523-.428.7-.177.176-.353.29-.441.371-.089.089-.089.145.031.158.12.013.353-.013.605-.12s.516-.296.75-.567c.233-.27.434-.617.585-.97.152-.353.246-.706.278-1.09.031-.384 0-.8-.032-1.077-.031-.277-.07-.422-.07-.498 0-.075.032-.075.165.032.132.107.371.32.693.63.321.308.724.712 1.24 1.253.36.385.776.838 1.204 1.304m.183.196c.12.126.24.258.353.384.604.655 1.197 1.279 1.726 1.846.529.567 1.002 1.077 1.43 1.518.435.441.825.82 1.31 1.153.485.334 1.071.624 1.714.857.642.233 1.348.403 2.066.479.712.082 1.43.069 2.142-.02.712-.087 1.412-.245 2.161-.516.75-.27 1.556-.661 2.193-1.02.636-.36 1.108-.687 1.562-1.021.454-.328.888-.662 1.14-.85.259-.19.334-.24.441-.259.101-.019.227-.006.397.013.164.012.372.031.567.006.19-.025.366-.1.485-.189.12-.088.196-.195.24-.27.044-.083.069-.133.107-.158.031-.02.082-.013.094.037.02.05.007.133-.025.265-.031.132-.075.309-.063.498.013.189.088.39.214.548.126.157.309.27.492.346.189.076.378.114.51.196.126.082.189.208.202.365.012.158-.032.34-.126.492-.095.15-.24.258-.378.314-.139.057-.265.063-.328.082-.063.02-.05.057.032.076.081.025.245.038.428.006.183-.031.39-.12.56-.29.17-.17.316-.434.385-.73.075-.296.075-.63.044-.895-.038-.264-.113-.466-.233-.674-.12-.208-.284-.422-.473-.592-.182-.164-.39-.277-.504-.372-.113-.094-.138-.17-.15-.227-.007-.056.005-.094.056-.113.05-.013.145-.006.296.019s.372.075.611.088c.24.019.498.006.718-.057.227-.063.41-.17.693-.359.032-.019.063-.044.101-.07m.258-.182c.208-.145.441-.296.668-.416.366-.195.725-.302 1.052-.371.328-.07.618-.095.889-.088.27.006.516.05.661.069.145.019.19.019.214-.025.026-.038.026-.12-.063-.252-.082-.139-.252-.334-.51-.51-.258-.177-.617-.328-.976-.417-.36-.088-.731-.113-1.002-.063s-.435.17-.548.24c-.107.07-.158.082-.196.031-.037-.05-.063-.17-.126-.27-.063-.095-.163-.17-.277-.215-.12-.044-.252-.05-.346-.05-.095 0-.151 0-.19-.019-.03-.019-.043-.057.045-.183.088-.12.277-.327.535-.586.259-.252.586-.56.939-.869.353-.315.724-.63 1.04-.87.315-.232.573-.384.825-.466.258-.081.51-.094.617-.05.107.044.057.139.02.27-.039.133-.07.31-.032.511.037.202.15.435.334.599.182.163.447.252.73.245.29 0 .605-.094.895-.144.29-.045.554-.045.794.037.233.088.44.259.56.48.12.22.164.484.183.667.019.183.019.277.088.302.07.026.208-.025.334-.163.126-.14.246-.378.315-.65.07-.27.095-.585.07-.869-.026-.283-.101-.535-.215-.73-.113-.196-.258-.335-.365-.429-.107-.1-.17-.157-.139-.183.025-.025.145-.019.322.038.176.057.41.151.693.17.283.013.617-.057.85-.201.233-.145.36-.372.422-.593.063-.226.063-.447.025-.623-.037-.177-.107-.303-.145-.39-.037-.09-.05-.14-.025-.165.026-.019.082-.012.151.057.063.07.133.195.252.321.12.126.29.246.517.303.227.063.504.063.756-.013s.466-.22.693-.39c.22-.17.447-.366.813-.48.365-.113.875-.144 1.33-.106.446.037.837.138 1.177.29.34.15.624.346.844.548.22.201.385.403.51.585.127.183.215.334.31.492M121.306 13.041c-.044 0-.094 0-.126-.044-.031-.044-.044-.139-.094-.271-.019-.05-.038-.113-.07-.176m-.1-.196c-.025-.037-.044-.075-.076-.113-.12-.176-.29-.353-.434-.51-.145-.158-.271-.303-.378-.467-.108-.157-.19-.34-.196-.56-.012-.227.05-.498.139-.687.088-.195.201-.302.27-.397.07-.088.095-.157.083-.208-.007-.05-.05-.075-.12-.07-.07.013-.164.064-.29.095-.126.038-.283.057-.447.02-.164-.039-.34-.127-.466-.259s-.202-.302-.24-.498c-.037-.195-.031-.422-.075-.674-.038-.252-.12-.542-.22-.775-.102-.24-.215-.422-.322-.573-.114-.151-.22-.265-.258-.346-.038-.082-.013-.127.132-.152.145-.025.403-.025.661.032.259.057.523.164.75.29.227.132.428.283.58.41.15.125.258.226.334.264.075.031.113-.007.107-.082-.013-.076-.07-.19-.133-.334-.063-.145-.132-.328-.15-.56-.013-.24.018-.53.094-.832.069-.303.176-.605.302-.838.126-.233.271-.39.365-.504.095-.107.14-.17.152-.246.012-.076 0-.164-.063-.265-.063-.1-.177-.208-.372-.346-.195-.139-.472-.303-.813-.41-.34-.107-.743-.157-1.165-.17-.422-.012-.85.02-1.229.089-.378.069-.693.176-.983.315-.29.138-.554.302-.718.428-.163.126-.22.208-.252.27-.025.064-.019.102.044.152s.183.107.322.22c.138.108.29.265.346.498.057.233.013.548-.07.844-.081.296-.207.567-.276.832-.07.265-.076.51-.076.8 0 .29.019.617.082.863.07.246.189.41.208.504.025.095-.05.12-.195.057-.139-.063-.347-.214-.51-.403-.165-.19-.284-.41-.366-.624-.082-.214-.132-.428-.202-.548-.069-.12-.163-.151-.227-.076-.069.076-.113.265-.207.467-.089.201-.227.428-.397.642-.17.214-.378.422-.517.662-.139.239-.208.523-.233.8-.025.283 0 .56.032.78.031.221.069.379.056.467-.012.088-.075.107-.17.019-.094-.088-.227-.284-.334-.567-.107-.277-.183-.643-.24-1.02-.056-.379-.094-.77-.1-1.14-.006-.366.019-.713.082-.965.063-.258.157-.428.176-.523.013-.094-.05-.113-.15-.082-.102.032-.234.12-.417.19-.182.069-.415.12-.649.125-.233.013-.466-.019-.68-.082-.208-.063-.397-.157-.554-.283-.158-.126-.278-.284-.347-.416-.07-.126-.075-.22-.038-.252.044-.031.133.006.278.076.138.075.327.183.61.195.284.006.668-.088 1.034-.246.359-.163.7-.39 1.058-.705.36-.315.737-.725 1.046-.983.315-.258.56-.365.743-.403.183-.038.31 0 .391 0 .088 0 .132-.032.233-.12.095-.088.24-.24.435-.378.195-.139.434-.277.68-.384.246-.114.492-.202.781-.259.29-.063.624-.094.901-.107.278-.012.492-.006.637-.006.145 0 .226-.006.252-.038.025-.031 0-.075-.227-.189-.227-.113-.662-.296-1.235-.434-.573-.145-1.291-.252-1.953-.303-.662-.044-1.26-.031-1.808.02-.548.05-1.04.131-1.632.295-.592.158-1.279.39-1.928.662-.642.264-1.247.567-1.84.913-.591.347-1.177.744-1.543 1.015-.365.27-.516.409-.586.497-.069.088-.063.12.007.139.069.019.201.019.359.056.157.038.334.12.485.259.151.138.277.34.34.58.063.239.063.529-.07.812-.131.29-.396.58-.528.895-.133.315-.126.649-.038.938.088.284.258.523.428.7.177.176.353.29.441.371.088.089.088.145-.031.158-.12.013-.353-.013-.605-.12s-.517-.296-.75-.567c-.233-.27-.434-.617-.586-.97-.15-.353-.245-.706-.277-1.09-.031-.384 0-.8.032-1.077.031-.277.069-.422.069-.498 0-.075-.032-.075-.164.032s-.372.32-.693.63c-.321.308-.724.712-1.241 1.253-.36.385-.775.838-1.203 1.304m-.183.196c-.12.126-.24.258-.353.384-.605.655-1.197 1.279-1.726 1.846-.53.567-1.002 1.077-1.43 1.518-.435.441-.825.82-1.31 1.153-.486.334-1.072.624-1.714.857-.643.233-1.348.403-2.067.479-.711.082-1.43.069-2.142-.02-.711-.087-1.41-.245-2.16-.516-.75-.27-1.556-.661-2.193-1.02-.636-.36-1.109-.687-1.562-1.021-.454-.328-.889-.662-1.14-.85-.259-.19-.334-.24-.442-.259-.1-.019-.226-.006-.396.013-.164.012-.372.031-.567.006-.19-.025-.366-.1-.486-.189-.12-.088-.195-.195-.239-.27-.044-.083-.07-.133-.107-.158-.031-.02-.082-.013-.094.037-.02.05-.007.133.025.265.031.132.075.309.063.498-.013.189-.088.39-.214.548-.126.157-.31.27-.492.346-.189.076-.378.114-.51.196-.126.082-.19.208-.202.365-.012.158.032.34.126.492.095.15.24.258.378.314.139.057.265.063.328.082.063.02.05.057-.032.076-.082.025-.245.038-.428.006-.183-.031-.39-.12-.56-.29-.17-.17-.316-.434-.385-.73-.076-.296-.076-.63-.044-.895.038-.264.113-.466.233-.674.12-.208.283-.422.472-.592.183-.164.391-.277.504-.372.114-.094.139-.17.152-.227.006-.056-.007-.094-.057-.113-.05-.013-.145-.006-.296.019s-.372.075-.611.088c-.24.019-.498.006-.719-.057-.226-.063-.409-.17-.692-.359-.032-.019-.064-.044-.101-.07m-.259-.182c-.207-.145-.44-.296-.667-.416-.366-.195-.725-.302-1.052-.371-.328-.07-.618-.095-.889-.088-.27.006-.516.05-.661.069-.145.019-.19.019-.215-.025-.025-.038-.025-.12.064-.252.081-.139.251-.334.51-.51.258-.177.617-.328.976-.417.36-.088.731-.113 1.002-.063.27.05.435.17.548.24.107.07.158.082.195.031.038-.05.063-.17.126-.27.063-.095.164-.17.278-.215.12-.044.252-.05.346-.05.095 0 .151 0 .19-.019.03-.019.043-.057-.045-.183-.088-.12-.277-.327-.535-.586-.259-.252-.586-.56-.94-.869-.352-.315-.724-.63-1.039-.87-.315-.232-.573-.384-.825-.466-.258-.081-.51-.094-.617-.05-.108.044-.057.139-.02.27.038.133.07.31.032.511-.038.202-.151.435-.334.599-.182.163-.447.252-.73.245-.29 0-.605-.094-.895-.144-.29-.045-.555-.045-.794.037-.233.088-.44.259-.56.48-.12.22-.164.484-.183.667-.02.183-.02.277-.088.302-.07.026-.208-.025-.334-.163-.126-.14-.246-.378-.315-.65-.07-.27-.095-.585-.07-.869.025-.283.101-.535.215-.73.113-.196.258-.335.365-.429.107-.1.17-.157.138-.183-.025-.025-.144-.019-.32.038-.177.057-.41.151-.694.17-.283.013-.617-.057-.85-.201-.233-.145-.36-.372-.422-.593-.063-.226-.063-.447-.026-.623.038-.177.108-.303.145-.39.038-.09.05-.14.025-.165-.025-.019-.081-.012-.15.057-.064.07-.133.195-.253.321s-.29.246-.516.303c-.227.063-.504.063-.756-.013s-.466-.22-.693-.39c-.22-.17-.448-.366-.813-.48-.365-.113-.876-.144-1.33-.106-.447.037-.837.138-1.177.29-.34.15-.624.346-.845.548-.22.201-.384.403-.51.585-.126.183-.214.334-.309.492" transform="translate(-241 -426) translate(120 301) translate(0 125) translate(121.5)"/>
                        <path d="M.29 12.543c.252.284.504.567.831.87.328.302.731.623 1.204.907.472.283 1.02.523 1.6.7.586.176 1.21.289 1.902.34.694.05 1.456.03 2.13-.07.674-.1 1.26-.283 1.96-.535.705-.252 1.524-.58 2.179-.895.662-.315 1.153-.617 1.638-.926.485-.309.964-.617 1.38-.901.422-.284.78-.548 1.027-.73.245-.184.371-.284.447-.335.075-.05.1-.044.126-.006.025.038.044.1.063.189.012.088.012.202-.013.347-.025.138-.082.302-.1.49-.02.19.006.398.138.562.132.163.372.29.624.327.258.038.523-.012.768-.019.24-.006.454.032.611.133.158.1.253.258.253.428 0 .164-.108.34-.19.473-.081.132-.138.22-.088.252.057.031.22.006.385-.101.157-.107.308-.29.396-.523.089-.233.108-.51.089-.788-.02-.283-.082-.567-.196-.806-.107-.246-.264-.447-.491-.573-.227-.133-.517-.19-.794-.196-.283-.012-.554.025-.743.044-.19.02-.29.02-.347-.031-.056-.05-.063-.158-.069-.24-.006-.081-.006-.138.031-.207.045-.07.127-.158.517-.492.39-.334 1.09-.913 1.65-1.417.026-.025.057-.05.083-.076m.201-.189c.422-.397.762-.75 1.096-1.09.41-.422.813-.831 1.084-1.102.27-.271.41-.397.542-.485.132-.089.258-.139.346-.17.088-.032.139-.045.158-.02.019.026.006.089-.02.208-.03.12-.075.29-.056.492.02.202.095.44.271.655.177.214.454.403.75.51.302.101.623.12.97.05.347-.069.718-.213 1.052-.358.34-.145.643-.29.964-.353.321-.063.655-.057.92.05.258.107.447.303.592.53.145.226.258.485.397.806.145.321.321.705.586 1.102.264.397.605.807.932 1.103.328.302.63.498.977.598.346.107.743.12.945.101.201-.012.208-.063.12-.1-.089-.045-.278-.076-.536-.164-.252-.082-.58-.208-.863-.454-.284-.246-.536-.605-.7-1.02-.163-.41-.239-.87-.346-1.355-.107-.485-.252-.995-.466-1.411-.214-.416-.498-.737-.85-.964-.36-.227-.794-.36-1.16-.397-.365-.038-.668.013-.932.044-.265.031-.492.044-.687.031-.202-.012-.372-.056-.466-.094-.088-.038-.101-.076-.057-.1.044-.032.139-.058.258-.083.126-.025.278-.056.41-.12.132-.062.246-.157.346-.264.108-.113.208-.24.278-.315.075-.076.12-.1.277-.12.157-.012.422-.019.743.013.322.031.693.107 1.027.12.334.012.63-.045.85-.158.221-.113.372-.29.435-.491.063-.202.038-.422 0-.592-.037-.17-.082-.284-.069-.353.013-.063.082-.076.183-.026.1.05.227.164.422.271.195.108.46.208.787.265.334.057.737.063 1.185.031.447-.031.945-.113 1.543-.063.599.05 1.298.221 1.84.448.535.22.913.491 1.316.831.404.34.838.744 1.519 1.38.12.114.245.233.378.353m3.692 3.345l.667.567c.643.548 1.128.97 1.405 1.216.278.246.34.309.372.36.038.05.044.081.025.131-.019.05-.07.114-.113.227-.044.12-.082.29-.076.473 0 .182.044.371.12.535.075.164.189.29.252.466.063.177.075.397.006.593-.063.195-.208.371-.403.485-.195.113-.454.157-.7.151-.245-.006-.478-.07-.648-.208-.164-.139-.265-.353-.34-.479-.076-.126-.139-.163-.183-.15-.044.012-.082.075-.076.207.007.132.057.334.183.523.126.183.334.353.56.454.227.1.473.132.744.144.265.007.554-.006.85-.082.303-.075.618-.201.876-.346.259-.145.454-.302.599-.485.145-.183.245-.397.302-.611.057-.208.076-.416.101-.555.025-.138.05-.207.126-.207.082 0 .214.081.466.207s.618.31 1.065.504c.44.196.964.404 1.48.586.517.19 1.04.353 1.645.498.61.151 1.31.277 1.902.365.593.089 1.084.133 1.588.133.51 0 1.04-.044 1.562-.139.523-.094 1.046-.233 1.456-.397.41-.164.718-.359.989-.61.27-.253.51-.562.693-.864.182-.302.302-.605.371-.895.076-.296.101-.58.12-.812.019-.233.019-.41.044-.498.025-.088.082-.088.133-.088M121.017 12.543c-.252.284-.504.567-.832.87-.328.302-.73.623-1.203.907-.473.283-1.02.523-1.6.7-.586.176-1.21.289-1.903.34-.693.05-1.455.03-2.13-.07-.674-.1-1.26-.283-1.959-.535-.705-.252-1.524-.58-2.18-.895-.661-.315-1.152-.617-1.637-.926-.486-.309-.964-.617-1.38-.901-.422-.284-.781-.548-1.027-.73-.246-.184-.372-.284-.447-.335-.076-.05-.101-.044-.126-.006-.026.038-.044.1-.063.189-.013.088-.013.202.012.347.025.138.082.302.101.49.019.19-.006.398-.139.562-.132.163-.371.29-.623.327-.259.038-.523-.012-.769-.019-.24-.006-.453.032-.611.133-.157.1-.252.258-.252.428 0 .164.107.34.189.473.082.132.139.22.088.252-.056.031-.22.006-.384-.101-.158-.107-.309-.29-.397-.523-.088-.233-.107-.51-.088-.788.019-.283.082-.567.195-.806.107-.246.265-.447.492-.573.226-.133.516-.19.793-.196.284-.012.555.025.744.044.189.02.29.02.346-.031.057-.05.063-.158.07-.24.006-.081.006-.138-.032-.207-.044-.07-.126-.158-.517-.492-.39-.334-1.09-.913-1.65-1.417-.025-.025-.057-.05-.082-.076m-.202-.189c-.422-.397-.762-.75-1.096-1.09-.41-.422-.813-.831-1.084-1.102-.27-.271-.409-.397-.541-.485-.133-.089-.259-.139-.347-.17-.088-.032-.138-.045-.157-.02-.02.026-.007.089.019.208.031.12.075.29.056.492-.019.202-.094.44-.27.655-.177.214-.454.403-.75.51-.303.101-.624.12-.97.05-.347-.069-.719-.213-1.053-.358-.34-.145-.642-.29-.963-.353-.322-.063-.656-.057-.92.05-.259.107-.448.303-.593.53-.144.226-.258.485-.396.806-.145.321-.322.705-.586 1.102-.265.397-.605.807-.933 1.103-.327.302-.63.498-.976.598-.347.107-.744.12-.945.101-.202-.012-.208-.063-.12-.1.088-.045.277-.076.536-.164.258-.082.58-.208.863-.454.283-.246.535-.605.699-1.02.164-.41.24-.87.346-1.355.108-.485.252-.995.467-1.411.214-.416.497-.737.85-.964.36-.227.794-.36 1.16-.397.365-.038.667.013.932.044.264.031.491.044.686.031.202-.012.372-.056.467-.094.088-.038.1-.076.056-.1-.044-.032-.138-.058-.258-.083-.126-.025-.277-.056-.41-.12-.132-.062-.245-.157-.346-.264-.107-.113-.208-.24-.277-.315-.076-.076-.12-.1-.277-.12-.158-.012-.422-.019-.744.013-.321.031-.693.107-1.027.12-.334.012-.63-.045-.85-.158-.22-.113-.372-.29-.435-.491-.063-.202-.038-.422 0-.592.038-.17.082-.284.07-.353-.013-.063-.082-.076-.183-.026-.101.05-.227.164-.422.271-.196.108-.46.208-.788.265-.334.057-.737.063-1.184.031-.448-.031-.945-.113-1.544-.063-.598.05-1.297.221-1.84.448-.535.22-.913.491-1.316.831-.403.34-.838.744-1.518 1.38-.12.114-.246.233-.378.353m-3.692 3.345c-.24.202-.46.39-.668.567-.642.548-1.128.97-1.405 1.216-.277.246-.34.309-.371.36-.038.05-.045.081-.026.131.02.05.07.114.114.227.044.12.082.29.075.473 0 .182-.044.371-.12.535-.075.164-.188.29-.251.466-.063.177-.076.397-.007.593.063.195.208.371.403.485.196.113.454.157.7.151.246-.006.479-.07.649-.208.163-.139.264-.353.34-.479.076-.126.138-.163.183-.15.044.012.082.075.075.207-.006.132-.056.334-.182.523-.126.183-.334.353-.561.454-.227.1-.473.132-.744.144-.264.007-.554-.006-.85-.082-.303-.075-.618-.201-.876-.346-.258-.145-.453-.302-.598-.485-.145-.183-.246-.397-.303-.611-.056-.208-.075-.416-.1-.555-.026-.138-.05-.207-.126-.207-.082 0-.215.081-.467.207s-.617.31-1.064.504c-.441.196-.964.404-1.48.586-.517.19-1.04.353-1.645.498-.611.151-1.31.277-1.903.365-.592.089-1.083.133-1.587.133-.51 0-1.04-.044-1.563-.139-.523-.094-1.046-.233-1.455-.397-.41-.164-.718-.359-.99-.61-.27-.253-.51-.562-.692-.864-.183-.302-.303-.605-.372-.895-.076-.296-.1-.58-.12-.812-.012-.233-.018-.41-.044-.498-.025-.088-.082-.088-.132-.088" transform="translate(-241 -426) translate(120 301) translate(0 125) translate(121.5)"/>
                        <path d="M.006 3.32c.416-.315.832-.63 1.336-.926.51-.302 1.115-.592 1.707-.806.592-.208 1.172-.34 1.871-.423.693-.081 1.506-.107 2.205-.081.7.031 1.292.113 1.953.277.662.164 1.38.403 2.029.661.649.265 1.216.548 1.758.85.541.303 1.052.63 1.423.883.372.252.605.428.769.56.164.133.265.215.328.246.063.032.088.006.1-.063.013-.07.02-.183.05-.34.039-.158.108-.36.228-.51.126-.158.308-.265.516-.34.208-.07.435-.101.737-.082.296.018.662.088.983.113.315.025.586.006.806-.038.215-.038.378-.1.517-.176.145-.076.271-.177.34-.177.07 0 .076.095 0 .252-.075.164-.233.391-.422.624-.189.24-.41.479-.649.655-.233.177-.485.284-.75.347-.264.07-.547.1-.8.12-.252.018-.485.031-.642.031-.158 0-.252-.013-.29 0-.044.013-.031.05.095.189.126.132.365.36.63.617.264.259.548.542.831.826.284.283.56.573.951.989.208.22.448.479.7.75m.183.201l.485.523c.472.51.92.983 1.341 1.43.423.447.82.87 1.11 1.172.29.302.466.491.617.598.15.107.283.139.39.089.107-.05.196-.177.271-.34.076-.17.145-.379.328-.536.183-.158.472-.258.756-.277.283-.02.567.044.87.27.302.227.635.612 1.007.97.372.36.788.688 1.292.99.497.296 1.077.56 1.7.687.618.126 1.273.12 1.947-.013.668-.139 1.355-.403 1.953-.687.599-.283 1.122-.58 1.638-.9.517-.322 1.027-.668 1.361-.927.334-.258.485-.422.56-.623.07-.202.064-.435.064-.63 0-.202.013-.366.05-.53.038-.163.107-.32.19-.453.081-.133.182-.233.226-.328.044-.094.038-.189 0-.22-.038-.032-.107-.013-.208.05-.1.063-.233.158-.428.246-.202.088-.466.176-.75.17-.283-.006-.58-.1-.806-.277-.233-.177-.397-.435-.51-.643-.12-.208-.183-.365-.347-.472-.164-.101-.422-.152-.662-.095-.239.05-.472.202-.655.39-.183.19-.327.423-.416.612-.088.189-.12.327-.163.359-.038.025-.089-.063-.063-.271.025-.208.12-.523.226-.762.108-.24.22-.397.416-.561.195-.164.479-.328.901-.41.422-.081.995-.075 1.544.026.548.1 1.077.296 1.499.485.416.195.718.39.932.548.215.164.34.296.422.353.089.056.133.038.158-.025.032-.064.038-.183.006-.347-.031-.164-.107-.384-.138-.63-.032-.246-.032-.517.044-.819.031-.139.082-.284.145-.428m.145-.31c.031-.062.063-.119.094-.182.164-.296.353-.554.479-.976.126-.422.195-1.002.201-1.474 0-.473-.063-.838-.207-1.14-.145-.303-.372-.549-.555-.694-.183-.151-.321-.201-.416-.252-.094-.05-.15-.094-.15-.138.005-.038.075-.076.264-.044.189.031.498.132.794.34.296.208.573.523.78.85.209.328.347.662.435.939.089.277.14.498.145.762.007.265-.025.573-.056.769-.032.195-.063.27-.082.353-.02.082-.032.176 0 .226.025.05.088.07.164.082.075.013.17.032.283.088.114.064.252.17.328.328.082.158.1.36.094.542-.006.183-.038.334-.025.416.013.082.076.094.164.019.088-.076.195-.234.378-.454.189-.214.453-.491.819-.863.371-.372.844-.838 1.36-1.292.517-.453 1.078-.894 1.683-1.291.605-.39 1.26-.737 1.972-1.027.712-.29 1.474-.53 2.28-.718.807-.19 1.663-.321 2.394-.403.725-.082 1.323-.108 1.934-.076.611.038 1.229.139 1.796.34.567.202 1.09.498 1.474.788.384.283.636.554.85.819.215.258.385.51.505.712.12.201.182.346.252.497M121.306 3.32c-.415-.315-.831-.63-1.335-.926-.51-.302-1.115-.592-1.707-.806-.593-.208-1.172-.34-1.871-.423-.694-.081-1.506-.107-2.206-.081-.699.031-1.291.113-1.953.277-.661.164-1.38.403-2.028.661-.649.265-1.216.548-1.758.85-.542.303-1.052.63-1.424.883-.371.252-.604.428-.768.56-.164.133-.265.215-.328.246-.063.032-.088.006-.1-.063-.013-.07-.02-.183-.051-.34-.038-.158-.107-.36-.227-.51-.126-.158-.308-.265-.516-.34-.208-.07-.435-.101-.738-.082-.296.018-.661.088-.982.113-.315.025-.586.006-.807-.038-.214-.038-.378-.1-.516-.176-.145-.076-.271-.177-.34-.177-.07 0-.076.095 0 .252.075.164.233.391.422.624.189.24.41.479.649.655.233.177.485.284.75.347.264.07.547.1.8.12.251.018.484.031.642.031.157 0 .252-.013.29 0 .044.013.031.05-.095.189-.126.132-.365.36-.63.617-.264.259-.548.542-.831.826-.284.283-.561.573-.952.989-.208.22-.447.479-.699.75m-.183.201l-.485.523c-.472.51-.92.983-1.342 1.43-.422.447-.819.87-1.108 1.172-.29.302-.467.491-.618.598-.151.107-.283.139-.39.089-.108-.05-.196-.177-.271-.34-.076-.17-.145-.379-.328-.536-.183-.158-.473-.258-.756-.277-.284-.02-.567.044-.87.27-.302.227-.636.612-1.007.97-.372.36-.788.688-1.292.99-.498.296-1.077.56-1.7.687-.618.126-1.273.12-1.948-.013-.667-.139-1.354-.403-1.953-.687-.598-.283-1.121-.58-1.638-.9-.516-.322-1.026-.668-1.36-.927-.334-.258-.486-.422-.561-.623-.07-.202-.063-.435-.063-.63 0-.202-.013-.366-.05-.53-.038-.163-.108-.32-.19-.453-.081-.133-.182-.233-.226-.328-.044-.094-.038-.189 0-.22.037-.032.107-.013.208.05.1.063.233.158.428.246.202.088.466.176.75.17.283-.006.58-.1.806-.277.233-.177.397-.435.51-.643.12-.208.183-.365.347-.472.164-.101.422-.152.661-.095.24.05.473.202.656.39.182.19.327.423.415.612.089.189.12.327.164.359.038.025.088-.063.063-.271-.025-.208-.12-.523-.227-.762-.107-.24-.22-.397-.415-.561-.196-.164-.48-.328-.901-.41-.422-.081-.996-.075-1.544.026-.548.1-1.077.296-1.5.485-.415.195-.717.39-.932.548-.214.164-.34.296-.422.353-.088.056-.132.038-.157-.025-.032-.064-.038-.183-.007-.347.032-.164.108-.384.14-.63.03-.246.03-.517-.045-.819-.032-.139-.082-.284-.145-.428m-.145-.31c-.031-.062-.063-.119-.094-.182-.164-.296-.353-.554-.48-.976-.125-.422-.194-1.002-.2-1.474 0-.473.062-.838.207-1.14.145-.303.372-.549.555-.694.182-.151.32-.201.415-.252.095-.05.152-.094.152-.138-.007-.038-.076-.076-.265-.044-.189.031-.498.132-.794.34-.296.208-.573.523-.781.85-.208.328-.347.662-.435.939-.088.277-.138.498-.145.762-.006.265.026.573.057.769.032.195.063.27.082.353.019.082.031.176 0 .226-.025.05-.088.07-.164.082-.075.013-.17.032-.283.088-.114.064-.252.17-.328.328-.082.158-.1.36-.094.542.006.183.037.334.025.416-.013.082-.076.094-.164.019-.088-.076-.195-.234-.378-.454-.189-.214-.454-.491-.819-.863-.372-.372-.844-.838-1.36-1.292-.517-.453-1.078-.894-1.683-1.291-.605-.39-1.26-.737-1.972-1.027-.712-.29-1.474-.53-2.28-.718-.807-.19-1.664-.321-2.394-.403C68.02.687 67.423.66 66.812.693c-.612.038-1.229.139-1.796.34-.567.202-1.09.498-1.474.788-.385.283-.636.554-.85.819-.215.258-.385.51-.505.712-.12.201-.182.346-.252.497M60.656 4.353c-.535 0-.976.435-.976.977 0 .535.435.976.976.976M60.656 4.353c.536 0 .977.435.977.977 0 .535-.435.976-.977.976M48.567 13.337c.208.107.605.271.951.416.346.145.643.27.97.39.328.12.68.234.958.316.283.081.491.126.623.12.133-.007.196-.064.227-.165.038-.1.044-.245.026-.396-.026-.152-.082-.303-.265-.454-.183-.151-.479-.296-.781-.384-.303-.089-.611-.12-.99-.133-.377-.012-.831 0-1.165.02-.34.018-.567.037-.674.075-.107.038-.082.082.126.189l-.006.006zM72.746 13.337c-.208.107-.605.271-.951.416-.347.145-.643.27-.97.39-.328.12-.68.234-.958.316-.284.081-.491.126-.624.12-.132-.007-.195-.064-.227-.165-.037-.1-.044-.245-.025-.396.025-.152.082-.303.265-.454.183-.151.479-.296.781-.384.302-.089.611-.12.99-.133.377-.012.83 0 1.165.02.34.018.567.037.674.075.107.038.082.082-.126.189l.006.006z" transform="translate(-241 -426) translate(120 301) translate(0 125) translate(121.5)"/>
                        <path d="M46.21 3.257c.133-.12.416-.321.738-.504.32-.183.686-.353 1.045-.504.36-.151.712-.29 1.021-.39.302-.101.56-.164.73-.19.17-.025.26-.012.303.07.044.082.038.227-.025.397s-.189.365-.372.516c-.182.151-.428.259-.718.36-.29.094-.624.182-1.002.258-.378.075-.787.138-1.096.17-.309.031-.516.025-.63 0-.113-.025-.132-.063 0-.183h.007zM75.096 3.257c-.132-.12-.416-.321-.737-.504s-.687-.353-1.046-.504c-.359-.151-.712-.29-1.02-.39-.303-.101-.561-.164-.731-.19-.17-.025-.259-.012-.303.07-.044.082-.037.227.025.397.063.17.19.365.372.516.183.151.429.259.718.36.29.094.624.182 1.002.258.378.075.788.138 1.096.17.309.031.517.025.63 0 .114-.025.133-.063 0-.183h-.006zM39.709 7.686c-.038.164-.063.309-.076.466-.012.158-.006.334.057.492.063.157.189.302.365.39.177.088.397.126.618.114.22-.013.434-.082.605-.158.163-.075.283-.151.39-.22.107-.063.214-.12.284-.196.075-.082.113-.189.1-.29-.012-.1-.088-.195-.207-.245-.12-.05-.278-.057-.416-.082-.145-.032-.271-.082-.378-.158-.114-.082-.214-.189-.277-.32-.063-.133-.095-.284-.152-.41-.056-.12-.138-.215-.233-.246-.1-.032-.22 0-.308.07-.089.069-.152.17-.208.308-.057.139-.107.321-.145.485h-.02zM81.604 7.686c.038.164.063.309.076.466.012.158.006.334-.057.492-.063.157-.19.302-.366.39-.176.088-.397.126-.617.114-.22-.013-.435-.082-.605-.158-.164-.075-.283-.151-.39-.22-.108-.063-.215-.12-.284-.196-.076-.082-.113-.189-.1-.29.012-.1.088-.195.207-.245.12-.05.277-.057.416-.082.145-.032.27-.082.378-.158.113-.082.214-.189.277-.32.063-.133.095-.284.151-.41.057-.12.139-.215.234-.246.1-.032.22 0 .308.07.088.069.151.17.208.308.057.139.107.321.145.485h.019zM23.587 4.253c.208-.227.441-.442.7-.612.258-.17.535-.296.812-.359s.56-.063.725 0c.163.063.214.196.226.353.007.158-.025.347-.15.517-.12.17-.335.327-.568.434-.233.107-.491.164-.775.202-.283.038-.598.063-.831.1-.233.039-.39.095-.498.114-.107.013-.17-.012-.107-.145.063-.132.252-.378.466-.61v.006zM97.72 4.253c-.209-.227-.442-.442-.7-.612-.258-.17-.535-.296-.813-.359-.277-.063-.56-.063-.724 0-.164.063-.214.196-.227.353-.006.158.025.347.151.517.12.17.334.327.567.434.233.107.492.164.775.202.284.038.599.063.832.1.233.039.39.095.497.114.108.013.17-.012.108-.145-.064-.132-.253-.378-.467-.61v.006zM4.448 14.805c.132.057.384.12.68.176.296.057.63.101.964.12.334.019.674.013 1.002-.006.327-.02.636-.057.913-.095.277-.044.53-.094.655-.164.127-.069.133-.157.07-.264-.063-.107-.195-.233-.479-.315-.284-.082-.718-.12-1.046-.095-.327.026-.554.107-.838.19-.283.081-.623.17-.926.22-.302.05-.56.076-.743.082-.183.012-.29.012-.34.038-.05.018-.045.063.088.113zM116.859 14.805c-.133.057-.385.12-.68.176-.297.057-.63.101-.965.12-.334.019-.674.013-1.001-.006-.328-.02-.637-.057-.914-.095-.277-.044-.529-.094-.655-.164-.126-.069-.132-.157-.07-.264.064-.107.196-.233.48-.315.283-.082.718-.12 1.045-.095.328.026.555.107.838.19.284.081.624.17.926.22.303.05.561.076.744.082.182.012.29.012.34.038.05.018.044.063-.088.113zM6.275 3.95c-.139 0-.265.063-.36.158-.088.094-.144.22-.157.39-.012.164.013.372.107.555.095.182.252.333.422.428.17.095.36.126.517.107.157-.019.284-.088.36-.208.075-.12.1-.277.087-.447-.012-.164-.069-.334-.163-.479-.101-.145-.24-.27-.385-.359-.145-.088-.29-.145-.428-.139V3.95zM115.032 3.95c.138 0 .264.063.359.158.088.094.145.22.157.39.013.164-.012.372-.107.555-.094.182-.252.333-.422.428-.17.095-.359.126-.517.107-.157-.019-.283-.088-.359-.208-.075-.12-.1-.277-.088-.447.013-.164.07-.334.164-.479.1-.145.24-.27.384-.359.145-.088.29-.145.429-.139V3.95z" transform="translate(-241 -426) translate(120 301) translate(0 125) translate(121.5)"/>
                        <path fill="#996A00" d="M18.591 4.486c.233-.177.46-.422.65-.656.188-.239.346-.466.421-.623.076-.164.07-.252 0-.252-.069 0-.195.1-.34.176-.145.076-.302.139-.517.177-.214.037-.485.063-.806.037-.315-.025-.68-.094-.983-.113-.296-.019-.529.012-.737.082-.208.07-.39.183-.516.34-.126.158-.196.353-.227.51-.038.158-.038.271-.05.34-.013.07-.038.095-.101.064-.063-.032-.164-.114-.328-.246-.164-.133-.397-.309-.769-.56-.371-.253-.882-.574-1.423-.883-.542-.302-1.11-.592-1.758-.85-.649-.265-1.373-.504-2.029-.662-.661-.164-1.253-.246-1.953-.277-.699-.032-1.512 0-2.205.082-.693.082-1.279.208-1.87.422-.593.208-1.198.504-1.708.806-.51.303-.926.618-1.336.926v3.869c.48 0 .87.529.87 1.178 0 .649-.39 1.178-.87 1.178v3.484c.044 0 .095 0 .126-.044.032-.044.044-.139.095-.271.019-.05.038-.114.07-.177.251.284.503.567.83.87.328.302.732.623 1.204.907.473.283 1.02.523 1.6.7.586.176 1.21.289 1.903.34.693.05 1.455.03 2.13-.07.673-.1 1.26-.283 1.958-.535.706-.252 1.525-.58 2.18-.895.662-.315 1.153-.617 1.638-.926.485-.309.964-.617 1.38-.901.422-.284.781-.548 1.027-.73.246-.184.372-.284.447-.335.076-.05.101-.044.126-.006.025.038.044.1.063.189.013.088.02.202-.012.347-.026.138-.082.302-.101.49-.02.19.006.398.138.562.133.163.372.29.624.327.252.038.523-.012.769-.019.24-.006.453.032.61.133.158.1.253.258.253.428 0 .164-.107.34-.19.473-.081.132-.138.22-.087.252.056.031.22.006.384-.101.157-.107.309-.29.397-.523.088-.233.107-.51.088-.788-.019-.283-.082-.567-.195-.806-.107-.246-.265-.447-.492-.573-.227-.133-.516-.19-.794-.196-.283-.012-.554.025-.743.044-.189.02-.29.02-.346-.031-.057-.05-.063-.158-.07-.24-.006-.081-.006-.138.032-.207.044-.07.126-.158.516-.492.391-.334 1.09-.913 1.651-1.417l.082-.076.353.384c.605.656 1.197 1.28 1.726 1.846.53.567 1.002 1.078 1.43 1.519.435.44.825.819 1.31 1.152.486.334 1.071.624 1.714.857.643.233 1.348.403 2.066.48.712.081 1.43.068 2.142-.02.712-.088 1.412-.245 2.161-.516.75-.271 1.556-.662 2.193-1.021.636-.36 1.108-.687 1.562-1.02.454-.328.888-.662 1.14-.851.259-.19.334-.24.441-.258.101-.02.227-.007.397.012.164.013.372.032.567.007.19-.026.366-.101.485-.19.12-.088.196-.195.24-.27.044-.082.07-.133.107-.158.031-.019.082-.013.094.038.02.05.007.132-.025.264-.031.133-.075.31-.063.498.013.19.088.39.214.548.126.158.31.271.492.347.189.075.378.113.51.195.126.082.19.208.202.366.012.157-.032.34-.126.49-.095.152-.24.26-.378.316-.139.057-.265.063-.328.082-.063.019-.05.056.032.075.081.026.245.038.428.007.183-.032.39-.12.56-.29.17-.17.316-.435.385-.73.076-.297.076-.63.044-.896-.038-.264-.113-.466-.233-.674-.12-.207-.284-.422-.473-.592-.182-.164-.39-.277-.503-.371-.114-.095-.14-.17-.152-.227-.006-.057.007-.095.057-.114.05-.019.145-.006.296.02.151.024.372.075.611.087.24.02.498.007.718-.056.227-.063.41-.17.693-.36l.101-.069.668.567c.643.548 1.128.97 1.405 1.216.277.246.34.309.372.36.037.05.044.081.025.132-.02.05-.07.113-.114.226-.044.12-.082.29-.075.473 0 .183.044.372.12.535.075.164.189.29.252.467.063.176.075.396.006.592-.063.195-.208.372-.403.485-.196.113-.454.157-.7.151-.245-.006-.478-.07-.649-.208-.163-.138-.264-.353-.34-.479-.075-.126-.138-.163-.183-.15-.044.012-.081.075-.075.207.006.132.057.334.183.523.126.183.334.353.56.454.227.1.473.132.744.145.264.006.554-.007.85-.082.303-.076.618-.202.876-.347.258-.145.453-.302.598-.485.145-.183.246-.397.303-.611.057-.208.075-.416.1-.555.026-.138.051-.207.127-.207.081 0 .214.082.466.207.252.127.617.31 1.064.505.441.195.964.403 1.481.585.517.19 1.04.353 1.644.498.611.151 1.31.277 1.903.365.592.089 1.084.133 1.587.133.51 0 1.04-.044 1.563-.139.523-.094 1.046-.233 1.455-.397.41-.163.718-.359.99-.61.27-.253.51-.562.692-.864.183-.302.303-.605.372-.894.076-.297.1-.58.12-.813.012-.233.019-.41.044-.498.025-.088.082-.088.132-.088s.1 0 .132.088c.026.088.032.265.045.498.012.233.044.523.12.813.075.296.194.592.37.894.177.303.423.611.694.863.27.252.58.448.989.611.41.164.932.309 1.455.397.523.095 1.052.139 1.563.139.51 0 .995-.044 1.587-.133.593-.088 1.298-.22 1.903-.365.611-.151 1.128-.315 1.644-.498.517-.189 1.04-.397 1.48-.586.442-.195.813-.371 1.065-.504.252-.125.385-.207.467-.207.082 0 .107.069.126.207.025.14.044.347.1.555.057.208.158.422.303.611.145.183.346.34.598.485.259.145.574.271.876.347.302.075.586.088.85.082.265-.007.517-.045.744-.145.227-.101.435-.271.56-.454.127-.183.177-.39.183-.523.007-.132-.025-.195-.075-.208-.044-.012-.107.025-.183.151s-.176.347-.34.48c-.164.138-.403.194-.65.207-.245.006-.497-.038-.698-.151-.196-.114-.34-.29-.404-.485-.063-.195-.056-.416.007-.592.063-.177.17-.31.252-.467.075-.163.12-.352.12-.535 0-.183-.032-.36-.076-.473-.044-.12-.088-.182-.114-.226-.019-.05-.012-.082.026-.133.037-.05.1-.113.371-.359.278-.246.763-.668 1.405-1.216l.668-.567.1.07c.284.195.473.302.694.359.227.056.485.069.718.056.24-.019.454-.063.611-.088.151-.025.246-.038.296-.019.05.013.063.057.057.114-.006.056-.032.132-.151.226-.114.095-.322.208-.504.372-.183.164-.353.385-.473.592-.12.208-.195.41-.233.675-.038.264-.031.598.044.894.076.296.214.56.385.73.17.171.377.26.56.29.183.032.34.02.429-.006.081-.025.094-.056.031-.075-.063-.02-.189-.025-.328-.082-.138-.057-.283-.17-.378-.315-.094-.151-.138-.334-.126-.492.013-.157.076-.283.202-.365.126-.082.321-.12.51-.195.19-.076.366-.19.492-.347.126-.157.201-.359.214-.548.013-.189-.038-.365-.063-.498-.032-.132-.044-.214-.025-.264.019-.05.063-.057.094-.038.032.019.057.076.107.158.045.082.12.182.24.27.12.089.296.158.485.19.189.025.397.012.567-.007.164-.012.29-.031.397-.012.1.019.183.069.44.258.26.189.688.523 1.141.85.454.328.926.662 1.563 1.021.636.36 1.442.75 2.192 1.02.75.271 1.455.435 2.16.517.713.088 1.43.095 2.143.02.712-.083 1.417-.253 2.066-.48.643-.233 1.229-.523 1.714-.857.485-.333.882-.711 1.31-1.152.435-.441.901-.952 1.43-1.519.53-.567 1.122-1.19 1.726-1.846l.353-.384.082.076c.555.504 1.254 1.083 1.65 1.417.391.334.48.416.517.492.044.069.038.126.032.207-.006.082-.013.19-.07.24-.056.05-.157.05-.346.031-.189-.019-.46-.05-.743-.044-.284.013-.574.07-.794.196-.227.132-.378.334-.492.573-.107.246-.17.53-.195.806-.019.284 0 .555.088.788.089.233.24.416.397.523.158.107.328.132.385.1.056-.031-.007-.12-.089-.252-.081-.132-.182-.302-.189-.472 0-.164.095-.328.252-.428.158-.101.372-.139.612-.133.239.007.51.057.768.02.252-.039.498-.165.624-.328.132-.164.151-.372.138-.561-.018-.19-.075-.353-.1-.492-.026-.138-.026-.252-.013-.346.013-.088.038-.158.063-.189.025-.038.05-.044.126.006.076.05.208.152.447.334.246.183.605.447 1.027.731.422.284.895.592 1.38.9.485.31.983.612 1.638.927.661.315 1.48.643 2.18.895.705.252 1.285.434 1.959.535.674.1 1.436.12 2.13.07.692-.051 1.316-.164 1.902-.34.586-.177 1.128-.417 1.6-.7.473-.284.876-.605 1.204-.907.327-.303.58-.586.831-.87.025.063.05.12.07.177.044.132.062.226.094.27.031.045.075.045.126.045V9.55c-.479 0-.87-.53-.87-1.178 0-.65.391-1.178.87-1.178V3.326c-.416-.315-.832-.63-1.336-.926-.51-.302-1.115-.592-1.707-.806-.592-.208-1.172-.34-1.871-.422-.693-.082-1.506-.107-2.205-.082-.7.031-1.292.113-1.953.277-.662.164-1.38.403-2.029.662-.649.264-1.216.548-1.757.85-.542.303-1.053.63-1.424.882-.372.252-.605.428-.769.56-.164.133-.264.215-.327.247-.063.031-.089.006-.101-.063-.013-.07-.02-.183-.05-.34-.038-.158-.108-.36-.227-.511-.126-.157-.31-.265-.517-.34-.208-.07-.435-.101-.737-.082-.296.019-.662.088-.983.113-.315.025-.586.007-.806-.038-.215-.037-.372-.1-.517-.176-.145-.075-.27-.176-.34-.176s-.076.094 0 .252c.075.163.233.39.422.623.189.24.41.48.649.656.233.176.485.283.75.346.264.07.548.1.8.12.258.019.485.031.642.031.158 0 .252-.012.29 0 .044.013.032.05-.094.19-.126.132-.366.358-.63.617-.265.258-.549.542-.832.825-.284.284-.56.573-.951.99-.208.22-.448.478-.7.749-.1-.101-.201-.195-.308-.296-.555-.548-1.128-1.153-1.538-1.563-.409-.41-.648-.63-.844-.793-.195-.164-.346-.284-.403-.36-.05-.075-.006-.107.088-.132.095-.025.24-.05.378-.12.139-.069.278-.189.366-.352.088-.164.126-.385.12-.605-.007-.227-.064-.454-.196-.706-.132-.252-.334-.523-.598-.73-.271-.202-.599-.335-.876-.492-.277-.158-.498-.347-.636-.573-.139-.227-.202-.485-.17-.687.031-.202.163-.34.251-.447.089-.107.14-.177.089-.215-.05-.037-.208-.037-.39.032-.19.07-.404.208-.58.441-.17.233-.297.554-.316.857-.018.302.057.58.158.8.1.22.227.384.302.491.076.107.108.164.089.19-.026.025-.101.018-.259-.076-.157-.095-.397-.284-.674-.48-.27-.194-.58-.39-1.052-.598-.472-.208-1.109-.422-1.814-.56-.706-.139-1.475-.196-2.218-.151-.743.037-1.462.176-2.243.409-.78.233-1.625.567-2.419 1.033-.794.473-1.543 1.078-2.192 1.67-.593.535-1.103 1.058-1.733 1.675-.031-.063-.063-.12-.094-.182-.164-.296-.353-.555-.48-.977-.125-.422-.194-1.001-.2-1.474 0-.472.062-.838.207-1.14.145-.303.372-.548.555-.693.182-.151.32-.202.415-.252.095-.05.152-.095.152-.139-.007-.038-.076-.075-.265-.044-.189.032-.498.132-.794.34-.296.208-.573.523-.781.85-.208.328-.347.662-.435.94-.088.277-.138.497-.145.762-.006.264.026.573.057.768.032.196.063.271.082.353.019.082.031.177 0 .227-.025.05-.088.07-.164.082-.075.012-.17.031-.283.088-.114.063-.252.17-.328.328-.082.157-.1.359-.094.542.006.182.037.333.025.415-.013.082-.076.095-.164.02-.088-.076-.195-.234-.378-.454-.189-.215-.454-.492-.819-.864-.372-.371-.844-.837-1.36-1.291-.517-.454-1.078-.895-1.683-1.285-.605-.39-1.26-.737-1.972-1.027-.712-.29-1.474-.53-2.28-.718-.807-.19-1.664-.322-2.394-.404C68.02.707 67.423.68 66.812.713c-.612.038-1.229.139-1.796.34-.567.202-1.09.498-1.474.788-.385.283-.636.554-.85.819-.215.258-.385.51-.505.712-.12.201-.182.346-.252.497-.113-.006-.201-.012-.245-.038-.063-.031-.044-.094.012-.189.057-.094.151-.214.214-.378.063-.163.082-.365.05-.567-.03-.201-.125-.403-.27-.636-.145-.233-.34-.504-.466-.762s-.183-.517-.227-.731c-.044-.214-.076-.39-.132-.479C60.814 0 60.738 0 60.663 0c-.076 0-.151 0-.208.088-.057.088-.088.265-.133.479-.044.214-.1.466-.226.73-.126.26-.322.53-.466.763-.145.233-.234.435-.271.636-.032.202-.013.404.05.567.057.164.157.284.214.378.057.095.07.158.013.19-.044.025-.133.037-.246.037-.063-.145-.132-.296-.252-.498-.12-.201-.296-.447-.504-.711-.214-.259-.466-.53-.85-.82-.385-.283-.901-.585-1.475-.787-.567-.202-1.184-.302-1.795-.34-.611-.038-1.21-.006-1.934.076-.725.081-1.581.214-2.394.403-.807.189-1.575.428-2.28.718-.713.29-1.368.63-1.973 1.027-.605.39-1.165.831-1.682 1.285-.516.454-.989.92-1.36 1.292-.372.371-.637.642-.82.863-.189.214-.296.378-.378.453-.088.076-.15.063-.163-.019-.013-.082.018-.24.025-.415.006-.183-.02-.385-.095-.542-.082-.158-.214-.265-.327-.328-.114-.063-.208-.076-.284-.088-.075-.013-.138-.032-.164-.082-.025-.05-.019-.145 0-.227.02-.082.05-.164.082-.353.032-.195.063-.504.057-.768-.006-.265-.05-.485-.145-.762-.088-.278-.227-.618-.435-.94-.208-.327-.485-.642-.78-.85-.297-.208-.606-.308-.795-.34-.189-.031-.258 0-.264.044-.007.038.05.088.151.139.095.05.233.107.416.252.182.151.41.39.554.693.145.302.208.668.208 1.14 0 .473-.07 1.052-.202 1.474-.125.422-.314.687-.478.977-.032.057-.063.12-.095.183-.63-.618-1.14-1.14-1.732-1.676-.65-.593-1.399-1.197-2.193-1.67-.794-.472-1.638-.8-2.419-1.033-.781-.233-1.5-.372-2.243-.41-.743-.037-1.512.02-2.217.152-.706.138-1.342.353-1.815.56-.472.208-.78.41-1.052.599-.27.195-.51.384-.674.479-.157.094-.233.1-.258.075-.025-.025.006-.075.088-.189.076-.107.202-.27.302-.491.101-.22.183-.498.158-.8-.019-.303-.145-.63-.315-.857-.17-.233-.39-.372-.58-.441-.189-.07-.34-.07-.39-.032-.05.038 0 .108.088.215s.22.245.252.447c.031.202-.032.466-.17.687-.139.227-.36.415-.637.573-.277.157-.61.29-.875.491-.271.202-.473.48-.599.731-.132.252-.189.485-.195.706-.006.227.032.44.12.605.088.163.226.283.365.352.139.07.284.095.378.12.095.025.139.057.088.132-.05.076-.201.19-.403.36-.195.163-.44.384-.844.793-.41.41-.983 1.015-1.537 1.563-.101.1-.208.201-.309.296-.252-.271-.491-.53-.7-.75-.39-.416-.673-.7-.95-.989-.284-.284-.568-.567-.832-.825-.265-.259-.504-.485-.63-.618-.126-.132-.133-.176-.095-.189.044-.012.133 0 .29 0 .158 0 .39-.012.643-.031.252-.02.535-.05.8-.12.264-.07.51-.176.75-.346h-.026zm4.996-.233c.208-.227.441-.442.7-.612.252-.17.535-.296.812-.359s.56-.063.725 0c.163.063.214.196.226.353.007.158-.025.347-.15.517-.12.17-.335.327-.568.434-.233.107-.491.164-.775.202-.283.038-.598.063-.831.1-.233.039-.39.095-.498.114-.107.013-.17-.012-.107-.145.063-.132.252-.378.466-.61v.006zm5.677 0c.22-.114.371-.29.434-.492s.038-.422 0-.592c-.038-.17-.082-.284-.07-.353.014-.063.083-.075.184-.025.1.05.226.164.422.27.195.108.46.209.787.265.334.057.737.063 1.185.032.447-.032.945-.114 1.543-.063.599.05 1.298.22 1.84.447.535.22.913.492 1.316.832.404.34.838.743 1.519 1.38l.378.352c-.057.145-.107.29-.145.429-.076.302-.082.573-.044.819.031.245.107.46.138.63.032.164.02.277-.006.346-.031.063-.076.082-.157.025-.089-.056-.208-.189-.423-.352-.214-.164-.516-.36-.932-.548-.416-.196-.945-.391-1.5-.486-.547-.1-1.12-.107-1.543-.025-.422.082-.706.246-.9.41-.196.163-.31.321-.417.56-.107.24-.201.561-.226.763-.026.208.019.296.063.27.037-.025.075-.17.163-.358.089-.19.233-.423.416-.612.183-.189.416-.34.655-.39.24-.05.498-.006.662.094.164.101.233.265.346.473.12.208.284.466.51.642.234.177.53.271.807.278.284.006.548-.082.75-.17.201-.089.327-.19.428-.246.101-.063.17-.082.208-.05.038.03.044.125 0 .22-.044.094-.145.201-.227.327-.082.133-.15.29-.189.454-.037.164-.05.328-.05.53 0 .2.013.434-.063.63-.07.2-.227.365-.56.623-.335.258-.845.605-1.362.926-.516.321-1.033.617-1.638.901-.598.284-1.285.548-1.953.687-.667.138-1.323.145-1.946.012-.618-.126-1.197-.39-1.701-.686-.498-.296-.914-.63-1.292-.99-.372-.359-.705-.75-1.008-.97-.302-.226-.586-.29-.87-.27-.283.018-.572.12-.755.277-.177.157-.246.365-.328.535-.075.17-.164.296-.27.34-.108.05-.24.02-.391-.088-.151-.107-.328-.296-.618-.598-.29-.303-.686-.725-1.108-1.172-.423-.447-.87-.92-1.342-1.43l-.486-.523c.423-.397.763-.75 1.097-1.09.41-.422.812-.832 1.083-1.103.271-.27.41-.396.542-.485.132-.088.258-.138.347-.17.088-.031.138-.044.157-.019.019.026.006.088-.019.208-.031.12-.075.29-.056.492.012.201.094.44.27.655.177.214.454.403.75.51.302.1.624.12.97.05.347-.069.719-.214 1.052-.359.34-.144.643-.29.964-.352.322-.063.655-.057.92.05.258.107.447.302.592.53.145.226.259.484.397.806.145.32.322.705.586 1.102.265.397.605.806.933 1.103.327.302.63.497.976.598.346.107.743.12.945.1.202-.012.208-.062.12-.1-.089-.044-.278-.076-.536-.164-.252-.082-.58-.208-.863-.453-.283-.246-.535-.605-.7-1.02-.163-.41-.239-.87-.346-1.355-.107-.486-.252-.996-.466-1.412-.214-.415-.498-.737-.85-.963-.36-.227-.794-.36-1.16-.397-.365-.038-.667.012-.932.044-.265.031-.491.044-.687.031-.201-.012-.371-.056-.466-.094-.088-.038-.1-.076-.057-.101.044-.032.139-.057.259-.082.126-.025.277-.057.41-.12.131-.063.245-.157.346-.264.107-.114.208-.24.277-.315.075-.076.12-.101.277-.12.158-.013.422-.019.744.013.32.031.693.107 1.026.12.334.012.63-.045.85-.158l.014-.006zm16.121-.101c.259-.082.51-.095.618-.05.107.043.056.138.019.27-.038.133-.07.309-.032.51.038.202.151.435.334.599.183.164.447.252.73.246.29 0 .605-.095.895-.145.29-.044.555-.044.794.038.233.088.441.258.56.478.12.22.165.486.184.668.018.183.018.277.088.303.069.025.208-.026.334-.164.126-.139.245-.378.315-.65.069-.27.094-.585.069-.869-.025-.283-.1-.535-.214-.73-.114-.196-.259-.334-.366-.429-.107-.1-.17-.157-.138-.182.025-.026.145-.02.321.037.176.057.41.152.693.17.284.013.617-.056.85-.201.234-.145.36-.372.423-.592.063-.227.063-.448.025-.624s-.107-.302-.145-.39c-.038-.089-.05-.14-.025-.164.025-.02.082-.013.15.056.064.07.133.196.253.322s.29.245.517.302c.226.063.504.063.755-.013.252-.075.467-.22.694-.39.22-.17.447-.366.812-.479.366-.113.876-.145 1.33-.107.447.038.837.139 1.178.29.34.15.623.346.844.548.22.201.384.403.51.586.126.182.214.334.309.491-.12 0-.24.013-.36.044-.195.05-.377.158-.51.34-.132.183-.214.429-.22.693-.006.265.07.536.252.807.183.27.466.542.756.806.296.265.598.53.8.807.208.27.315.554.378.774.063.227.082.391.063.467-.013.075-.063.056-.195-.082-.133-.139-.347-.397-.605-.65-.252-.251-.548-.497-.914-.705-.365-.201-.793-.359-1.234-.403-.435-.044-.876.025-1.216.145-.34.12-.586.296-.718.466-.133.17-.145.34-.101.422.044.082.145.07.302.032.151-.038.353-.107.636-.095.284.013.643.107.958.315.315.208.573.523.706.781.126.252.12.435.081.63-.037.196-.107.391-.075.612.038.22.176.466.378.617.201.157.453.227.7.22.239-.006.472-.081.66-.12.196-.037.347-.03.467.032.113.07.189.196.22.403.032.208.013.492-.056.807-.076.321-.202.68-.404 1.02-.201.34-.472.662-.718.889-.252.233-.479.378-.812.416-.34.037-.788-.032-1.191-.183-.403-.145-.769-.366-1.134-.523-.366-.157-.73-.252-1.071-.265-.34-.006-.655.07-.958.22-.302.152-.592.373-.768.467-.177.1-.233.076-.233-.031.006-.107.075-.303.12-.53.043-.226.062-.491.018-.73-.044-.246-.151-.467-.378-.624-.22-.158-.56-.246-.907-.284-.346-.037-.706-.025-1.084.057-.378.082-.78.227-1.115.353-.334.126-.592.227-.844.283-.252.063-.491.089-.661.089-.17 0-.265-.02-.271-.038-.007-.025.069-.05.233-.107.164-.063.422-.152.655-.34.233-.19.441-.467.573-.775.133-.31.196-.643.19-.952-.007-.302-.076-.58-.215-.812-.139-.233-.353-.435-.498-.523-.145-.095-.226-.088-.252-.044-.025.044.007.12.05.233.045.113.095.27.114.453.02.183 0 .397-.107.63-.1.233-.29.485-.491.662-.208.17-.429.258-.725.277-.296.019-.661-.038-.932-.057-.277-.019-.46-.012-.624.038-.164.05-.296.132-.397.164-.1.031-.164.013-.346-.114-.177-.126-.467-.365-1.052-.85-.328-.277-.756-.636-1.223-1.033.208-.145.441-.296.668-.416.366-.195.725-.302 1.052-.372.328-.069.618-.094.889-.088.27.006.516.05.661.07.145.018.19.018.214-.026.026-.038.026-.12-.063-.252-.082-.138-.252-.334-.51-.51s-.611-.328-.976-.416c-.36-.088-.731-.113-1.002-.063s-.435.17-.548.24c-.107.069-.158.081-.196.031-.037-.05-.063-.17-.126-.27-.063-.095-.163-.171-.277-.215-.12-.044-.252-.05-.346-.05-.095 0-.151 0-.19-.02-.03-.018-.043-.056.045-.182.088-.12.277-.328.535-.586.259-.252.586-.56.939-.87.353-.314.724-.63 1.04-.869.315-.233.573-.384.825-.466l-.013-.006zm17.741.107c-.132-.183-.321-.29-.51-.34-.12-.032-.246-.045-.36-.045.089-.157.183-.308.31-.49.125-.184.283-.385.51-.587.22-.201.51-.397.844-.548.34-.151.73-.252 1.178-.29.447-.038.957-.006 1.33.107.365.114.591.31.812.48.22.17.44.32.693.39.252.075.53.075.756.012.227-.063.397-.182.517-.302.12-.126.188-.252.251-.321.064-.07.127-.076.152-.057.025.019.012.076-.025.164-.038.088-.108.214-.145.39-.038.177-.038.404.025.624.063.227.189.447.422.592.233.145.567.22.85.202.284-.013.517-.114.693-.17.177-.057.29-.063.322-.038.025.025-.038.088-.139.183-.107.1-.252.233-.365.428-.114.195-.19.447-.215.73-.025.284 0 .6.07.87.07.271.189.51.315.65.126.138.264.188.334.163.069-.025.069-.12.088-.302.019-.183.063-.448.183-.668.12-.22.327-.39.56-.479.233-.088.498-.088.794-.038.29.044.605.139.895.145.29 0 .548-.088.73-.246.183-.163.297-.396.334-.598.038-.202.007-.378-.031-.51-.038-.133-.082-.227.019-.271.107-.044.359-.032.617.05s.51.233.826.466c.314.233.686.555 1.039.87.353.315.68.617.939.87.258.251.447.459.535.585.088.12.076.164.044.183-.031.019-.088.012-.189.019-.094 0-.227.012-.346.05-.12.044-.214.113-.277.214-.063.095-.089.214-.126.271-.038.05-.089.038-.196-.031-.107-.07-.277-.19-.548-.24-.27-.05-.642-.025-1.002.063-.359.088-.718.24-.976.416s-.428.372-.51.51c-.082.139-.082.215-.063.252.025.038.069.044.214.025.145-.018.39-.063.661-.069.271-.006.561.02.889.088.327.07.686.177 1.052.372.227.12.46.271.668.416-.467.397-.889.756-1.223 1.033-.585.491-.875.725-1.052.85-.176.127-.245.152-.346.114-.101-.031-.24-.12-.397-.164-.164-.05-.347-.063-.624-.038-.277.02-.642.076-.932.057-.296-.019-.523-.107-.725-.277-.208-.17-.39-.422-.491-.662-.1-.233-.12-.447-.107-.63.019-.182.07-.34.113-.453.044-.114.076-.195.05-.233-.025-.044-.106-.05-.258.044-.145.094-.359.29-.497.523-.139.233-.208.51-.215.812-.006.303.057.643.19.952.132.308.34.586.573.775.233.189.491.283.655.34.164.063.246.088.233.107-.006.025-.1.044-.27.038-.171 0-.41-.032-.662-.088-.252-.064-.517-.164-.845-.284-.334-.126-.737-.27-1.115-.353-.378-.082-.737-.094-1.083-.056-.347.037-.68.126-.908.283-.22.157-.327.384-.378.624-.044.245-.025.504.02.73.043.227.113.423.12.53.005.107-.058.132-.234.031-.176-.1-.466-.315-.769-.466-.302-.151-.617-.227-.957-.22-.34.006-.706.107-1.071.264-.366.158-.731.378-1.134.523-.403.145-.857.214-1.19.183-.341-.038-.568-.183-.814-.416-.252-.233-.523-.555-.718-.888-.201-.34-.334-.7-.403-1.021-.076-.321-.088-.605-.057-.806.032-.208.107-.34.22-.404.114-.069.272-.069.467-.031.195.038.422.113.661.12.24.006.498-.063.7-.22.201-.158.34-.398.378-.618.038-.22-.038-.422-.076-.611-.038-.196-.044-.378.082-.63s.39-.574.706-.782c.315-.208.674-.302.957-.315.284-.012.485.057.637.095.15.038.252.044.302-.032.044-.082.031-.245-.1-.422-.133-.17-.379-.346-.719-.466-.34-.12-.781-.189-1.216-.145-.435.044-.87.202-1.235.403-.365.202-.655.448-.913.706-.252.252-.473.51-.605.649s-.183.157-.195.082c-.013-.076 0-.24.063-.466.063-.227.17-.504.378-.775s.51-.536.8-.807c.296-.264.58-.535.756-.806.182-.271.252-.542.252-.806-.007-.265-.088-.51-.22-.693l-.007.006zm21.275.321c.403-.34.781-.611 1.317-.832.535-.22 1.24-.396 1.84-.447.598-.05 1.096.032 1.543.063.447.032.85.025 1.184-.031.334-.057.593-.158.788-.265.195-.107.321-.22.422-.27.1-.051.17-.039.183.024.012.063-.032.183-.07.353-.038.17-.063.39 0 .592.063.202.215.378.435.492.22.113.517.17.85.157.334-.012.706-.082 1.027-.12.322-.03.586-.03.744-.012.157.013.201.044.277.12.076.075.17.208.277.315.107.113.214.208.347.264.132.063.283.089.41.12.125.025.22.05.258.082.044.031.031.063-.057.1-.088.038-.265.083-.466.095-.202.013-.422 0-.687-.031-.265-.032-.567-.082-.932-.044-.366.037-.8.17-1.16.397-.359.226-.642.548-.85.963-.214.416-.353.926-.466 1.412-.108.485-.183.945-.347 1.354-.164.41-.416.775-.7 1.02-.283.246-.61.372-.862.454-.252.082-.441.12-.536.164-.088.044-.082.088.12.1.201.013.592 0 .945-.1.346-.107.655-.296.976-.598.328-.303.668-.706.933-1.103.264-.397.44-.781.586-1.102.145-.322.252-.58.397-.807.145-.227.334-.422.592-.529.258-.107.598-.113.92-.05.32.063.623.208.964.352.34.145.705.296 1.052.36.346.069.667.05.97-.05.302-.102.573-.297.75-.511.176-.214.251-.447.27-.655.013-.202-.031-.378-.056-.492-.032-.12-.038-.183-.02-.208.02-.025.07-.012.158.02.088.03.215.081.347.17.132.088.27.22.542.484.27.271.674.68 1.083 1.103.34.346.68.7 1.096 1.09l-.485.523c-.472.51-.92.982-1.342 1.43-.422.447-.819.87-1.108 1.172-.29.302-.467.491-.618.598-.151.107-.283.139-.39.088-.108-.05-.196-.176-.271-.34-.076-.17-.145-.378-.328-.535-.183-.158-.472-.259-.756-.278-.283-.019-.567.044-.87.271-.302.227-.636.611-1.007.97-.372.36-.788.687-1.292.99-.498.296-1.077.56-1.7.686-.618.126-1.273.12-1.948-.012-.667-.139-1.354-.403-1.953-.687-.598-.284-1.12-.58-1.638-.9-.516-.322-1.026-.669-1.36-.927-.334-.258-.485-.422-.561-.624-.07-.201-.063-.434-.063-.63 0-.201-.013-.365-.05-.529-.038-.164-.108-.321-.19-.454-.081-.132-.182-.233-.226-.327-.044-.095-.038-.19 0-.22.038-.032.107-.013.208.05.1.063.233.157.428.245.202.089.466.177.75.17.283-.006.58-.1.806-.277.233-.176.397-.434.51-.642.12-.208.183-.366.347-.473.164-.1.422-.15.662-.094.239.05.472.201.655.39.182.19.327.423.416.612.088.188.12.327.163.359.038.025.088-.063.063-.271-.025-.208-.12-.523-.227-.763-.107-.239-.22-.397-.415-.56-.196-.164-.48-.328-.901-.41-.422-.082-.996-.075-1.544.025-.548.101-1.077.296-1.5.486-.415.195-.717.39-.931.548-.215.163-.34.296-.423.352-.088.057-.132.038-.157-.025-.032-.063-.038-.182-.006-.346.031-.164.107-.385.138-.63.032-.246.032-.517-.044-.82-.031-.138-.082-.283-.145-.428l.378-.353c.674-.636 1.109-1.039 1.518-1.38l.013.007zm11.006-.428c-.12-.17-.157-.36-.151-.517.006-.157.063-.283.227-.353.164-.063.447-.063.724 0 .278.063.561.196.813.36.252.17.485.377.7.61.207.227.403.473.466.612.063.132 0 .163-.108.144-.107-.012-.264-.075-.497-.113-.233-.038-.548-.063-.832-.1-.283-.038-.542-.095-.775-.202-.233-.107-.447-.265-.567-.435v-.006zm11.384.088c.366-.271.952-.662 1.544-1.014.592-.347 1.197-.65 1.84-.914.642-.264 1.335-.498 1.927-.661.592-.158 1.084-.246 1.632-.296.548-.05 1.147-.063 1.808-.02.662.045 1.38.158 1.953.303.573.145 1.002.321 1.235.435.227.113.252.163.227.189-.026.031-.101.038-.252.038-.145 0-.366-.007-.637.006-.277.012-.61.044-.9.107-.29.063-.536.151-.782.258-.245.114-.485.246-.68.385-.196.138-.34.29-.435.377-.094.089-.145.12-.233.12-.088 0-.208-.038-.39 0-.183.038-.435.145-.744.403-.315.259-.687.668-1.046.983-.359.315-.7.548-1.058.706-.36.164-.75.252-1.033.246-.284-.007-.473-.12-.611-.196-.14-.075-.234-.107-.278-.075-.044.031-.031.126.038.252.07.126.19.283.347.415.157.126.346.22.554.284.208.063.447.088.68.082.234-.013.467-.057.65-.126.182-.07.314-.158.415-.19.1-.03.164-.012.151.083-.012.094-.113.264-.176.523-.063.258-.088.598-.082.964.006.365.044.762.1 1.14.057.378.133.737.24 1.02.107.278.233.48.334.567.095.089.158.07.17-.018.013-.089-.025-.246-.056-.467-.032-.22-.057-.504-.032-.78.025-.284.094-.562.233-.801.139-.24.347-.447.517-.661.17-.215.308-.435.397-.643.088-.202.138-.39.207-.466.07-.076.158-.044.227.075.07.12.12.334.202.548.082.215.201.441.365.624.164.19.372.34.51.403.14.063.215.038.196-.056-.025-.095-.145-.259-.208-.504-.07-.246-.082-.574-.082-.864 0-.29.006-.541.076-.8.069-.264.195-.535.277-.831.082-.296.126-.605.07-.844-.057-.234-.209-.391-.347-.498-.139-.107-.259-.17-.322-.22-.063-.051-.069-.089-.044-.152.025-.063.088-.145.252-.27.164-.127.429-.29.719-.43.29-.138.604-.245.982-.314.372-.07.807-.095 1.229-.088.422.012.825.063 1.165.17.34.107.618.27.813.41.195.138.309.251.372.346.063.1.075.189.063.264-.013.076-.057.133-.151.246-.095.107-.24.271-.366.504-.126.233-.233.536-.302.838-.07.302-.107.592-.095.832.013.239.082.415.151.56.063.145.126.259.133.334.012.076-.032.114-.107.082-.076-.031-.183-.139-.334-.264-.151-.127-.347-.278-.58-.41-.227-.132-.491-.24-.75-.29-.258-.056-.523-.056-.661-.031-.145.025-.17.069-.132.15.037.083.15.196.258.347.113.152.227.34.321.574.101.24.183.523.22.775.038.252.038.478.076.674.038.195.114.365.24.497.126.133.302.22.466.252.164.038.321.013.447-.018.126-.038.22-.082.29-.095.07-.013.113.019.12.07.006.05-.013.119-.082.207-.07.088-.183.202-.271.397-.088.195-.151.466-.139.687.013.227.095.403.196.56.107.158.226.303.378.467.144.157.315.334.434.51l.076.113c-.24.259-.485.51-.756.769-.271.252-.567.51-.907.687-.34.176-.712.27-1.002.27-.29 0-.498-.094-.674-.239-.177-.145-.321-.327-.416-.573-.094-.24-.139-.542-.1-.813.037-.277.15-.529.207-.768.05-.24.044-.473.013-.668-.032-.195-.082-.36-.139-.429-.056-.069-.12-.05-.151.013s-.025.17-.057.302c-.037.133-.113.29-.29.435-.176.139-.447.265-.705.441-.252.176-.491.41-.63.624-.139.214-.177.422-.214.548-.038.126-.07.176-.126.17-.063-.006-.151-.07-.271-.157-.126-.089-.284-.196-.548-.265-.265-.063-.643-.082-1.071-.025-.435.056-.926.195-1.405.308-.479.12-.933.215-1.411.265-.473.05-.964.044-1.405-.063-.441-.107-.838-.321-1.229-.554-.39-.233-.768-.48-1.222-.775-.447-.303-.97-.655-1.493-1.04-.523-.384-1.052-.8-1.588-1.26-.371-.315-.75-.655-1.127-1.014.428-.466.844-.92 1.203-1.304.51-.542.92-.945 1.241-1.254.321-.309.554-.523.693-.63.132-.107.164-.107.164-.031 0 .075-.038.214-.07.497-.031.278-.063.693-.031 1.078.031.384.132.737.277 1.09.151.352.353.705.586.97.233.27.498.46.75.567.252.107.485.138.605.12.12-.013.12-.07.031-.158-.088-.088-.27-.202-.44-.372-.177-.176-.341-.41-.43-.7-.088-.283-.094-.623.038-.938.133-.315.397-.605.53-.894.132-.29.132-.574.069-.813-.063-.24-.189-.441-.34-.58-.151-.138-.334-.22-.485-.258-.158-.038-.284-.038-.36-.057-.069-.019-.075-.05-.006-.138.07-.089.22-.227.586-.498l-.019.019zm7.812-.145c.145-.088.29-.145.429-.139.138 0 .264.063.359.158.088.094.145.22.157.39.013.164-.012.372-.107.555-.094.183-.252.334-.422.428-.17.095-.359.126-.517.107-.157-.019-.283-.088-.359-.208-.075-.12-.1-.277-.088-.447.013-.164.07-.334.164-.479.1-.144.24-.27.384-.359v-.006zm-99.508.643c.07.088.063.12-.007.138-.069.02-.201.02-.359.057-.157.038-.333.12-.485.258-.15.139-.277.34-.34.58-.063.24-.063.529.07.813.132.29.396.58.529.894.132.315.126.649.037.939-.088.283-.258.523-.428.7-.176.175-.353.289-.441.37-.088.089-.088.146.032.158.12.013.352-.012.604-.12.252-.107.517-.296.75-.566.233-.271.435-.618.586-.97.151-.353.246-.706.277-1.09.032-.385 0-.8-.031-1.078-.032-.277-.07-.422-.07-.497 0-.076.032-.076.164.031s.372.321.693.63c.321.309.725.712 1.241 1.254.36.384.775.838 1.203 1.304-.384.359-.756.7-1.127 1.014-.536.454-1.065.87-1.588 1.26-.523.384-1.046.737-1.493 1.04-.454.302-.832.548-1.222.775-.39.233-.788.44-1.229.554-.44.107-.932.113-1.405.063-.472-.05-.932-.151-1.41-.265-.48-.12-.97-.252-1.406-.308-.434-.057-.806-.044-1.07.025-.265.063-.429.176-.549.264-.126.089-.214.152-.27.158-.064.006-.089-.044-.127-.17-.037-.126-.075-.328-.214-.548-.138-.214-.378-.448-.63-.624s-.529-.302-.705-.441c-.177-.139-.252-.302-.29-.435-.038-.132-.032-.24-.057-.302-.031-.063-.088-.082-.151-.013-.057.07-.107.233-.139.429-.031.195-.044.428.013.668.05.239.17.497.208.768.038.277-.006.573-.101.813s-.24.428-.416.573c-.176.145-.378.24-.674.24-.29 0-.668-.095-1.002-.271-.34-.177-.636-.429-.907-.687-.27-.252-.51-.51-.756-.769.025-.037.044-.075.076-.113.12-.176.29-.353.434-.51.145-.158.271-.303.379-.467.107-.157.188-.34.195-.56.012-.227-.05-.498-.139-.687-.088-.195-.201-.302-.27-.397-.07-.088-.095-.157-.083-.208.007-.05.05-.075.12-.07.07.013.164.064.29.095.126.038.283.057.447.02.164-.039.34-.127.466-.253.126-.132.202-.302.24-.497.038-.196.031-.423.075-.675.038-.252.12-.541.22-.774.102-.24.215-.423.322-.574.114-.15.22-.264.259-.346.037-.082.012-.126-.133-.151-.145-.026-.403-.026-.661.031-.259.057-.523.164-.75.29-.227.132-.428.283-.58.41-.15.125-.258.226-.334.264C.902 7.213.864 7.176.87 7.1c.013-.075.07-.189.133-.334.063-.145.132-.327.15-.56.014-.24-.018-.53-.094-.832-.069-.302-.176-.605-.302-.838-.126-.233-.27-.39-.365-.504-.095-.107-.139-.17-.152-.246-.012-.075 0-.163.063-.264s.177-.208.372-.347c.195-.138.473-.302.813-.41.34-.106.743-.157 1.165-.17.422-.012.85.02 1.229.089.372.07.693.176.983.315.29.138.554.302.718.428.164.126.22.208.252.271.025.063.019.1-.044.151-.063.05-.183.107-.322.22-.138.108-.29.265-.346.498-.057.234-.013.549.07.845.081.296.207.567.276.831.07.265.076.51.076.8 0 .29-.019.618-.082.864-.07.245-.189.409-.208.504-.025.094.05.12.196.056.138-.063.346-.214.51-.403.164-.189.283-.41.365-.624.082-.214.132-.428.202-.548.07-.12.164-.151.227-.075.069.075.113.264.208.466.088.201.226.428.396.642.17.215.378.423.517.662.139.24.208.523.233.8.025.284 0 .56-.031.781-.032.22-.07.378-.057.466.013.089.075.107.17.02.095-.089.227-.284.334-.568.107-.277.183-.642.24-1.02.056-.378.094-.769.1-1.14.006-.366-.019-.713-.082-.965-.063-.258-.157-.428-.176-.522-.013-.095.05-.114.151-.082.1.031.233.12.416.189.182.069.416.12.649.126.233.012.466-.02.68-.082.208-.063.397-.158.554-.284.158-.126.278-.283.347-.415.07-.127.076-.221.038-.253-.044-.031-.139.007-.277.076-.139.076-.328.183-.611.195-.284.007-.668-.088-1.034-.245-.359-.164-.699-.39-1.058-.706-.36-.315-.737-.724-1.046-.983-.315-.258-.56-.365-.743-.403-.183-.038-.309 0-.39 0-.09 0-.133-.031-.234-.12-.095-.088-.24-.239-.435-.378-.195-.138-.434-.277-.68-.384-.246-.113-.492-.201-.781-.258-.29-.063-.624-.095-.901-.107-.277-.013-.492-.007-.636-.007-.145 0-.227-.006-.253-.037-.025-.032 0-.076.227-.19.227-.113.662-.296 1.235-.434.573-.145 1.292-.252 1.953-.302.662-.045 1.26-.032 1.808.018s1.04.139 1.632.296c.592.158 1.279.391 1.928.662.642.265 1.247.567 1.84.913.591.347 1.177.744 1.543 1.015.365.27.516.41.586.497l-.02-.018zM4.7 14.654c.183-.013.44-.032.743-.082s.643-.139.926-.22c.284-.082.51-.164.838-.19.328-.025.763.013 1.046.095.284.082.416.208.479.315.063.107.057.195-.07.264-.126.07-.378.12-.655.164-.277.044-.592.076-.913.095-.328.019-.662.025-1.002.006-.334-.019-.668-.063-.964-.12-.296-.056-.548-.126-.68-.176-.133-.057-.139-.095-.088-.113.05-.02.157-.026.34-.038zm45.782-.51c-.328-.12-.624-.246-.97-.391-.347-.145-.744-.309-.952-.416-.208-.107-.226-.157-.126-.189.108-.038.334-.057.675-.075.34-.02.787-.032 1.165-.02.378.013.687.045.99.133.301.088.604.233.78.384.183.151.24.303.265.454.025.151.013.296-.025.397-.038.1-.095.157-.227.164-.132.006-.34-.038-.624-.12-.283-.082-.636-.195-.957-.315l.006-.007zm-10.433-5.11c-.176-.088-.302-.233-.365-.39-.063-.158-.07-.334-.057-.492.013-.157.038-.302.076-.466.037-.164.088-.34.144-.485.057-.139.12-.246.208-.309.089-.07.208-.1.31-.07.1.032.182.12.232.247.057.12.088.277.151.41.063.131.164.239.278.32.113.082.239.133.378.158.144.031.302.031.415.082.12.05.19.145.208.245.013.101-.025.208-.1.29-.076.082-.177.133-.284.196-.107.063-.227.145-.39.22-.164.076-.385.145-.605.158-.22.012-.441-.02-.618-.114h.02zm29.194 5.544c-.132-.006-.195-.063-.227-.164-.037-.1-.044-.245-.025-.396.025-.152.082-.303.265-.454.183-.151.479-.296.781-.384.302-.089.611-.12.99-.133.377-.012.83 0 1.165.02.34.018.567.037.674.075.107.038.082.082-.126.189-.208.107-.605.27-.951.416-.347.145-.643.27-.97.39-.328.12-.681.233-.958.315-.284.082-.492.126-.624.12l.006.006zm43.332-.012c.063-.107.195-.234.478-.315.284-.082.719-.12 1.046-.095.328.025.555.107.838.19.284.081.624.17.926.22.303.05.561.075.744.082.182.012.29.012.34.037.05.02.044.063-.088.114-.133.056-.385.12-.68.176-.297.057-.63.1-.965.12-.334.019-.674.012-1.001-.007-.328-.018-.637-.056-.914-.094-.277-.044-.529-.095-.655-.164-.126-.07-.132-.157-.07-.264zM79.884 7.95c.145-.032.27-.082.378-.158.113-.082.214-.189.277-.321.063-.133.095-.284.151-.41.057-.12.139-.214.234-.245.1-.032.22 0 .308.069.088.07.151.17.208.309.057.138.107.32.145.485.038.163.063.308.076.466.012.157.006.334-.057.491-.063.158-.19.303-.365.39-.177.09-.397.127-.618.114-.22-.012-.435-.082-.605-.157-.163-.076-.283-.151-.39-.22-.107-.064-.215-.12-.284-.196-.075-.082-.113-.189-.1-.29.012-.1.088-.195.207-.245.12-.05.278-.057.416-.082h.019zm-33.68-4.694c.133-.12.416-.321.737-.504.322-.183.687-.353 1.046-.504.36-.151.712-.29 1.02-.39.303-.101.561-.164.732-.19.17-.025.258-.012.302.07.044.082.038.227-.025.397s-.19.365-.372.516c-.183.151-.428.259-.718.36-.29.094-.624.182-1.002.258-.372.075-.787.138-1.096.17-.309.031-.517.025-.63 0-.114-.025-.132-.063 0-.183h.006zm25.446-.605c-.183-.15-.309-.346-.372-.516-.063-.17-.07-.315-.025-.397.044-.082.132-.095.302-.07.17.026.429.089.731.19.303.1.662.239 1.02.39.36.151.725.321 1.047.504.32.183.604.384.737.504.132.12.113.158 0 .183-.114.025-.315.031-.63 0-.309-.032-.725-.095-1.096-.17-.372-.076-.712-.164-1.002-.259-.29-.094-.53-.208-.718-.359h.006zM6.268 3.95c.14 0 .284.05.429.139.145.088.283.214.384.359.101.145.151.315.164.479.013.163-.013.327-.088.447-.076.12-.208.189-.36.208-.157.019-.34-.02-.516-.107-.17-.095-.334-.246-.422-.429-.095-.176-.12-.384-.107-.554.013-.164.07-.296.157-.39.089-.095.22-.152.36-.158v.006zm53.406 1.373c0-.535.434-.976.976-.976.536 0 .977.435.977.976 0 .536-.435.977-.977.977-.535 0-.976-.435-.976-.976z" transform="translate(-241 -426) translate(120 301) translate(0 125) translate(121.5)"/>
                    </g>
                </g>
            </g>
        </g>
    </g>
</svg>
