<svg height="20" viewBox="0 0 20 20" width="20" xmlns="http://www.w3.org/2000/svg"><path d="m43.8515625 49.375c.2148437 0 .4010417-.0716146.5585937-.2148438.1432292-.157552.2148438-.34375.2148438-.5585937s-.0716146-.4010417-.2148438-.5585937l-4.4257812-4.4042969c1.2604167-1.5325521 1.890625-3.2871094 1.890625-5.2636719 0-2.2773438-.8056641-4.2216797-2.4169922-5.8330078s-3.555664-2.4169922-5.8330078-2.4169922-4.2216797.8056641-5.8330078 2.4169922-2.4169922 3.555664-2.4169922 5.8330078.8056641 4.2216797 2.4169922 5.8330078 3.555664 2.4169922 5.8330078 2.4169922c1.9765625 0 3.7311198-.6302083 5.2636719-1.890625l4.4257812 4.4257812c.1432292.1432292.3222657.2148438.5371094.2148438zm-10.2265625-4.296875c-.9166667 0-1.7832031-.171875-2.5996094-.515625-.8020833-.34375-1.5146484-.8271484-2.1376953-1.4501953s-1.0992838-1.335612-1.4287109-2.1376953c-.3580729-.8164063-.5371094-1.6829427-.5371094-2.5996094s.1790365-1.7832031.5371094-2.5996094c.3294271-.8020833.805664-1.5146484 1.4287109-2.1376953s1.335612-1.1064453 2.1376953-1.4501953c.8164063-.34375 1.6829427-.515625 2.5996094-.515625s1.7832031.171875 2.5996094.515625c.8020833.34375 1.5146484.8271484 2.1376953 1.4501953s1.1064453 1.335612 1.4501953 2.1376953c.34375.8164063.515625 1.6829427.515625 2.5996094s-.171875 1.7832031-.515625 2.5996094c-.34375.8020833-.8271484 1.5146484-1.4501953 2.1376953s-1.335612 1.1064453-2.1376953 1.4501953c-.8164063.34375-1.6829427.515625-2.5996094.515625z" fill="#353030" fill-opacity=".498361" transform="translate(-25 -30)"/></svg>