<svg xmlns="http://www.w3.org/2000/svg" width="24" height="24" viewBox="0 0 24 24">
    <g fill="none" fill-rule="evenodd">
        <g>
            <g>
                <g>
                    <g>
                        <path d="M0 0L24 0 24 23.04 0 23.04z" transform="translate(-296 -271) translate(287 262) translate(9 9)"/>
                        <g fill="#5B0000" fill-rule="nonzero">
                            <path d="M9.45.269c-.4.077-.55.537-.26.806l3.01 2.89c.32.297.85.086.85-.336v-1.67c4.45.422 8.06 3.667 8.84 7.843.08.441.5.748.97.748.62 0 1.09-.547.98-1.132C22.61 2.774 15.79-1.075 9.45.268zM11.8 19.075c-.32-.307-.85-.086-.85.336v1.67c-4.45-.422-8.06-3.667-8.84-7.843-.08-.441-.5-.748-.97-.748-.62 0-1.09.547-.98 1.132 1.24 6.644 8.06 10.493 14.4 9.15.39-.087.55-.538.26-.817l-3.02-2.88z" transform="translate(-296 -271) translate(287 262) translate(9 9) translate(0 .96)"/>
                        </g>
                    </g>
                    <path fill="#5B0000" d="M12 7.68c.424 0 .805.25.96.636l2.588 6.634c.162.413-.162.853-.62.853-.276 0-.523-.169-.621-.413l-.635-1.618h-3.35l-.627 1.618c-.099.25-.346.413-.62.413-.459 0-.783-.44-.614-.853l2.588-6.634c.148-.386.529-.636.952-.636zm0 1.807l-1.142 2.932h2.285l-1.142-2.932z" transform="translate(-296 -271) translate(287 262) translate(9 9)"/>
                </g>
            </g>
        </g>
    </g>
</svg>
