<svg xmlns="http://www.w3.org/2000/svg" width="43" height="43" viewBox="0 0 43 43">
    <g fill="none" fill-rule="evenodd">
        <g>
            <g>
                <path d="M0 0H42.768V42.768H0z" transform="translate(-421 -373) translate(421 373)"/>
                <path fill="#FFF" fill-rule="nonzero" d="M13.187 17.82h2.833v8.91c0 .98.802 1.782 1.782 1.782h7.128c.98 0 1.782-.802 1.782-1.782v-8.91h2.834c1.586 0 2.387-1.925 1.265-3.047l-8.18-8.18c-.695-.695-1.817-.695-2.512 0l-8.18 8.18c-1.122 1.122-.338 3.047 1.248 3.047zM8.91 33.858c0 .98.802 1.782 1.782 1.782h21.384c.98 0 1.782-.802 1.782-1.782s-.802-1.782-1.782-1.782H10.692c-.98 0-1.782.802-1.782 1.782z" transform="translate(-421 -373) translate(421 373)"/>
            </g>
        </g>
    </g>
</svg>
