<svg xmlns="http://www.w3.org/2000/svg" width="48" height="48" viewBox="0 0 48 48">
    <g fill="none" fill-rule="evenodd">
        <g>
            <g>
                <path d="M0 0L48 0 48 48 0 48z" transform="translate(-1234 -370) translate(1234 370)"/>
                <path fill="#FFF" fill-rule="nonzero" d="M32 22c3.32 0 5.98-2.68 5.98-6s-2.66-6-5.98-6c-3.32 0-6 2.68-6 6s2.68 6 6 6zm-16 0c3.32 0 5.98-2.68 5.98-6s-2.66-6-5.98-6c-3.32 0-6 2.68-6 6s2.68 6 6 6zm0 4c-4.66 0-14 2.34-14 7v3c0 1.1.9 2 2 2h24c1.1 0 2-.9 2-2v-3c0-4.66-9.34-7-14-7zm16 0c-.58 0-1.24.04-1.94.1.04.02.06.06.08.08C32.42 27.84 34 30.06 34 33v3c0 .7-.14 1.38-.36 2H44c1.1 0 2-.9 2-2v-3c0-4.66-9.34-7-14-7z" transform="translate(-1234 -370) translate(1234 370)"/>
            </g>
        </g>
    </g>
</svg>
